<svg width="185" height="162" viewBox="0 0 185 162" fill="none" xmlns="http://www.w3.org/2000/svg">
<path d="M36.5647 97.4688L34.8207 111.136L28.1348 160.69" stroke="#004F78" stroke-linecap="round"/>
<path d="M104.081 75.5039C109.562 97.7952 120.385 146.345 119.986 160.208" stroke="#004F78" stroke-linecap="round"/>
<path d="M76.4059 122.562C54.7006 122.562 32.9583 122.562 11.2529 122.562C11.2529 79.0282 40.4276 43.7227 76.4059 43.7227C112.384 43.7227 141.559 79.0282 141.559 122.562C119.816 122.562 98.1113 122.562 76.4059 122.562Z" fill="#EDA38D" stroke="#004F78" stroke-miterlimit="10" stroke-linejoin="round"/>
<path d="M146.368 92.0224C152.37 91.0326 156.419 85.4492 155.412 79.5515C154.405 73.6538 148.723 69.6751 142.72 70.6649C136.718 71.6547 132.669 77.2381 133.676 83.1358C134.684 89.0335 140.366 93.0122 146.368 92.0224Z" fill="white" stroke="#004F78" stroke-miterlimit="10"/>
<path d="M151.463 73.2736C151.463 73.2736 156.893 67.2989 163.415 66.1286C169.937 64.9584 169.626 65.8923 169.626 65.8923C169.626 65.8923 169.152 67.7575 167.712 68.4541C170.066 68.841 171.331 69.2394 171.331 69.2394C171.331 69.2394 173.037 70.1953 170.817 70.9159C168.597 71.6364 169.519 71.3294 169.519 71.3294C169.519 71.3294 172.496 72.7044 169.332 73.6566C165.125 73.3587 162.198 73.0606 159.568 73.3076C156.939 73.5547 153.337 74.852 153.337 74.852L151.463 73.2736Z" fill="#004F78"/>
<path d="M135.254 86.3931C137.686 85.992 139.306 83.6044 138.871 81.0603C138.437 78.5162 136.113 76.7789 133.68 77.18C131.248 77.5811 129.629 79.9687 130.063 82.5128C130.498 85.0569 132.822 86.7942 135.254 86.3931Z" stroke="#004F78" stroke-width="0.8" stroke-miterlimit="10"/>
<path d="M145.461 87.1509C147.893 86.7498 149.513 84.3622 149.078 81.8181C148.644 79.274 146.32 77.5367 143.887 77.9378C141.455 78.3389 139.836 80.7265 140.27 83.2706C140.705 85.8147 143.029 87.552 145.461 87.1509Z" stroke="#004F78" stroke-width="0.8" stroke-miterlimit="10"/>
<path d="M138.942 81.832L140.222 82.0114" stroke="#004F78" stroke-width="0.5" stroke-miterlimit="10"/>
<path d="M135.877 84.516C136.279 84.4497 136.55 84.0762 136.482 83.6817C136.415 83.2871 136.035 83.0209 135.633 83.0871C135.232 83.1534 134.961 83.5269 135.028 83.9214C135.096 84.316 135.476 84.5822 135.877 84.516Z" fill="#004F78"/>
<path d="M143.147 85.1839C143.548 85.1177 143.819 84.7442 143.752 84.3496C143.685 83.9551 143.304 83.6889 142.903 83.7551C142.501 83.8213 142.23 84.1949 142.298 84.5894C142.365 84.984 142.745 85.2501 143.147 85.1839Z" fill="#004F78"/>
<path d="M141.024 73.8692C139.634 75.3041 136.141 76.3489 134.219 76.7854C134.652 72.48 141.243 68.3075 147.912 70.5805C153.247 72.399 156.397 76.6445 155.86 83.3351C144.587 82.7542 142.4 75.9386 141.024 73.8692Z" fill="#004F78"/>
<path d="M156.207 117.68C164.854 117.68 172.172 113.758 172.172 101.34C172.172 86.9597 154.223 66.5882 111.36 53.3633" stroke="#004F78" stroke-linecap="round"/>
<path d="M89.7877 17.6535C92.1544 26.4087 87.1192 35.2961 78.651 37.5673C70.1829 39.8385 61.3467 34.6717 58.9813 25.9155C56.6145 17.1601 61.6497 8.27277 70.1179 6.00158C78.5861 3.73054 87.4208 8.89807 89.7877 17.6535Z" fill="white" stroke="#004F78"/>
<path d="M89.5814 18.3907C87.8352 12.2624 82.1305 5.94342 73.3445 5.55932C66.0244 5.23915 57.5418 13.1742 58.9444 24.5971C61.0393 23.2805 60.1551 18.0081 62.8257 16.5455C64.6033 18.4506 72.4517 24.3119 81.6746 13.3355C84.9976 14.4091 86.0152 17.7315 89.5717 21.5405C89.438 21.2742 89.652 20.6431 89.5717 20.4923C89.6451 20.5008 89.9434 19.658 89.5814 18.3907Z" fill="#004F78" stroke="#004F78" stroke-linejoin="round"/>
<path d="M68.6768 31.3438C69.9694 32.2255 73.3144 33.605 76.3475 32.0725" stroke="#004F78" stroke-linecap="round"/>
<path d="M83.247 22.4823C82.178 22.0214 79.5499 21.5225 77.5854 23.2159" stroke="#004F78" stroke-linecap="round"/>
<path d="M72.3146 24.6655C71.3727 24.1377 69.1109 23.4461 67.5952 24.9034" stroke="#004F78" stroke-linecap="round"/>
<path d="M134.535 101.648C127.474 102.455 112.269 108.715 107.935 127.302" stroke="#004F78" stroke-linecap="round"/>
<path d="M183.791 148.991C175.303 152.398 162.097 156.424 145.66 156.796C120.483 157.354 101.417 148.991 92.1689 144.189C109.777 128.082 127.418 111.943 145.027 95.8359C157.948 113.523 170.87 131.241 183.791 148.991Z" fill="#89D6EC" stroke="#004F78" stroke-miterlimit="10" stroke-linejoin="round"/>
<path d="M98.562 119.862C104.829 119.862 109.909 114.847 109.909 108.661C109.909 102.475 104.829 97.4609 98.562 97.4609C92.2951 97.4609 87.2148 102.475 87.2148 108.661C87.2148 114.847 92.2951 119.862 98.562 119.862Z" fill="white"/>
<path d="M101.304 99.0428C105.964 100.203 109.514 104.444 109.181 109.228C108.885 113.904 104.78 117.638 100.232 118.399C95.6844 119.16 90.6554 116.695 88.6957 112.563C87.6974 110.461 87.7714 108.105 88.6218 105.966C88.9545 105.096 89.4353 104.262 89.9899 103.501C90.1008 103.32 90.2118 103.175 90.3596 102.994C90.4336 102.885 90.3596 102.994 90.4706 102.885C90.5446 102.813 90.5816 102.74 90.6555 102.668C90.8404 102.45 91.0253 102.269 91.2101 102.051C91.3951 101.87 91.5799 101.689 91.8017 101.508C91.8757 101.435 91.9867 101.363 92.0606 101.29C92.0976 101.29 92.2085 101.181 92.1345 101.218C92.0606 101.29 92.2455 101.145 92.2825 101.109C92.5783 100.891 92.911 100.674 93.2068 100.493C95.0557 99.369 97.1634 98.7165 99.3451 98.789C100.011 98.789 100.64 98.8615 101.304 99.0428C102.34 99.2965 102.784 97.7016 101.748 97.4841C97.755 96.5417 93.2808 97.8103 90.2858 100.601C87.2906 103.393 85.5158 107.851 86.6619 111.838C88.1041 116.913 93.5397 120.248 98.7904 120.139C104.115 120.067 109.292 116.333 110.586 111.186C111.954 105.821 108.774 100.239 103.671 98.1003C103.043 97.8466 102.451 97.6291 101.786 97.4479C100.713 97.1941 100.27 98.7528 101.304 99.0428Z" fill="#004F78"/>
<path d="M105.555 106.287C106.628 106.287 106.628 104.656 105.555 104.656C104.483 104.656 104.483 106.287 105.555 106.287Z" fill="#004F78"/>
<path d="M93.207 112.306C94.6491 110.095 94.2424 107.412 92.6153 105.419C92.2825 105.854 91.9498 106.289 91.617 106.688C92.5045 107.195 93.3919 107.703 94.3163 108.21C94.5751 108.355 94.9079 108.355 95.1667 108.21C99.0124 106.071 102.673 103.643 106.186 100.96C106.556 100.707 106.482 100.09 106.186 99.8004C105.853 99.4741 105.372 99.5467 105.002 99.8004C101.6 102.374 98.0509 104.694 94.3163 106.796C94.6121 106.796 94.8709 106.796 95.1667 106.796C94.2793 106.289 93.3919 105.781 92.4675 105.274C91.617 104.766 90.8774 105.854 91.4691 106.542C91.58 106.688 91.3952 106.47 91.4691 106.542C91.506 106.579 91.543 106.651 91.58 106.688C91.691 106.832 91.7649 106.978 91.8759 107.122C92.0977 107.521 92.2825 107.92 92.3935 108.355C92.6893 109.442 92.4305 110.53 91.8389 111.436C91.1732 112.342 92.6153 113.176 93.207 112.306Z" fill="#004F78"/>
<path d="M92.9098 111.183C91.9114 110.458 90.3584 110.349 89.3231 111.074C88.2137 111.872 87.659 113.249 88.0658 114.554C88.2877 115.315 88.8053 115.932 89.434 116.367C89.8038 116.62 90.3584 116.439 90.5803 116.077C90.8021 115.642 90.6542 115.243 90.2844 114.953C90.2105 114.917 90.2105 114.917 90.2844 114.953C90.2474 114.917 90.2104 114.917 90.1736 114.88C90.1366 114.844 90.0626 114.808 90.0256 114.735C89.9886 114.699 89.8038 114.518 89.9516 114.663C89.9146 114.627 89.8778 114.554 89.8408 114.518C89.8038 114.446 89.7668 114.373 89.7298 114.3C89.7298 114.264 89.7298 114.264 89.6928 114.228C89.6558 114.156 89.6558 114.156 89.6928 114.264C89.6188 114.156 89.6188 113.974 89.5819 113.866C89.5449 113.684 89.5819 114.01 89.5819 113.829C89.5819 113.757 89.5819 113.684 89.5819 113.576V113.394C89.5819 113.503 89.5449 113.503 89.5819 113.431C89.5819 113.394 89.5819 113.358 89.6188 113.322C89.6188 113.249 89.6558 113.213 89.6558 113.141C89.6558 113.104 89.6928 113.068 89.6928 113.032C89.6558 113.141 89.6558 113.141 89.6558 113.068C89.7298 112.923 89.8038 112.814 89.8778 112.706C89.9886 112.524 89.8038 112.778 89.9146 112.669C89.9516 112.633 89.9886 112.597 90.0256 112.524C90.0626 112.488 90.0996 112.452 90.0996 112.452C90.1736 112.379 90.1736 112.416 90.0626 112.452C90.0626 112.416 90.2104 112.343 90.2104 112.343C90.2844 112.307 90.3584 112.234 90.4324 112.234C90.3954 112.234 90.3584 112.271 90.3584 112.271C90.3954 112.271 90.4324 112.234 90.5063 112.234C90.5433 112.234 90.6173 112.198 90.6542 112.198C90.7282 112.198 90.7651 112.162 90.6912 112.198C90.5803 112.198 90.8391 112.198 90.8761 112.198C90.9501 112.198 91.024 112.198 91.0609 112.198C91.0979 112.198 91.1349 112.198 91.1719 112.198C91.0609 112.198 91.024 112.162 91.0979 112.198C91.2089 112.234 91.2829 112.234 91.3937 112.271C91.4307 112.271 91.4677 112.307 91.5047 112.307C91.6156 112.343 91.6156 112.343 91.5047 112.307C91.5417 112.343 91.5787 112.343 91.6156 112.379C91.7265 112.452 91.8375 112.488 91.9484 112.597C92.3182 112.851 92.8728 112.669 93.0947 112.307C93.4275 111.872 93.2796 111.437 92.9098 111.183Z" fill="#004F78"/>
<path d="M90.6178 111.462C89.71 111.462 88.7265 112.582 88.3483 113.142C86.6463 110.528 87.2138 102.949 91.7525 100.261C98.5607 96.2294 103.666 98.5814 105.369 100.261L94.5893 106.982C93.2654 105.862 90.9582 104.069 92.3198 105.862C93.6815 107.654 92.8872 110.715 92.3198 112.022C92.1307 111.835 91.5255 111.462 90.6178 111.462Z" fill="#004F78" stroke="#004F78" stroke-linecap="round" stroke-linejoin="round"/>
<path d="M101.965 152.902C92.1437 152.902 82.3221 152.902 72.4629 152.902C72.4629 135.587 85.6959 122.102 101.965 122.102C118.272 122.102 131.468 135.587 131.468 152.902C121.683 152.902 111.825 152.902 101.965 152.902Z" fill="#E6F9FF" stroke="#004F78" stroke-miterlimit="10" stroke-linejoin="round"/>
<path d="M151.431 99.707C166.881 106.218 186.61 125.04 177.578 134.036C166.287 145.282 146.082 147.649 127.661 147.058C109.239 146.466 80.7149 140.547 77.1495 131.077C73.9388 122.549 81.9035 119.831 87.2515 119.831" stroke="#004F78" stroke-linecap="round" stroke-linejoin="round"/>
<path d="M33.5538 60.5078C19.2682 68.2522 -5.36157 94.3894 2.52046 110.362C8.43106 120.527 35.5241 104.07 38.9722 103.586C42.4204 103.102 58.1833 95.3574 70.0055 114.718" stroke="#004F78"/>
</svg>
