<svg width="193" height="89" viewBox="0 0 193 89" fill="none" xmlns="http://www.w3.org/2000/svg">
<g opacity="0.6">
<path d="M42.2981 72.5013C43.1442 71.4607 43.1611 69.8902 42.9875 69.2624C46.521 69.7873 49.1765 73.457 49.1046 74.0779C49.0327 74.6988 48.1776 77.078 47.1559 77.2542C46.1928 75.1098 43.7419 73.1841 42.2981 72.5013Z" fill="#89D6EC"/>
<path d="M137.511 75.4238C135.503 75.0386 133.58 75.4046 132.969 75.6865C130.504 72.9035 132.632 70.0222 133.45 69.9265C134.267 69.8309 137.91 69.9 139.022 70.6257C137.261 71.8668 137.073 74.1737 137.511 75.4238Z" fill="#89D6EC"/>
<path d="M25.5015 69.1749C24.0721 67.7211 22.2748 66.9255 21.6079 66.8078C21.1971 63.1451 24.6264 62.0123 25.3556 62.3992C26.0847 62.7861 29.0445 64.912 29.5376 66.1333C27.3655 66.1418 25.8681 67.91 25.5015 69.1749Z" fill="#89D6EC"/>
<path d="M21.3033 88.5499C20.1422 86.9943 18.4175 85.804 17.6807 85.5071C18.476 82.5778 22.8692 82.7751 23.5849 83.2972C24.3006 83.8194 27.0126 86.3638 27.1627 87.451C24.6267 86.7837 22.1709 87.696 21.3033 88.5499Z" fill="#FCF2E8"/>
<path d="M30.2074 37.2263C30.7072 35.9303 30.3819 34.4614 30.0414 33.9201C33.5063 33.181 37.0365 35.7679 37.1446 36.3889C37.2527 37.0099 37.1229 39.5934 36.2138 40.1219C34.7035 38.4032 31.7555 37.3735 30.2074 37.2263Z" fill="#FCF2E8"/>
<path d="M157.748 49.7675C159.095 49.3774 160.072 48.2372 160.296 47.6443C163.029 49.9107 163.136 54.2336 162.705 54.6926C162.274 55.1516 160.122 56.6078 159.137 56.2148C159.582 53.9963 158.586 51.0681 157.748 49.7675Z" fill="#FCF2E8"/>
<path d="M57.0994 59.8215C58.4364 60.2702 59.9042 59.8984 60.4334 59.5436C61.3654 62.9385 58.9377 66.5127 58.3156 66.6409C57.6934 66.769 55.0742 66.7302 54.4915 65.8509C56.1489 64.3006 57.0329 61.3549 57.0994 59.8215Z" fill="#FCF2E8"/>
<path d="M39.8569 9.49034C39.2848 8.19074 38.0287 7.35754 37.4155 7.20874C39.2562 4.18661 43.4838 3.53282 43.9948 3.9062C44.5057 4.27958 46.2368 6.24862 45.9894 7.28445C43.7497 7.11983 41.0156 8.48678 39.8569 9.49034Z" fill="#EDA38D"/>
<path d="M30.1769 24.8211C30.4686 23.3749 29.9252 21.9227 29.5087 21.4338C32.7915 19.9422 36.6469 21.8798 36.8478 22.4999C37.0486 23.12 37.3165 25.8214 36.5063 26.559C34.7633 25.0967 31.7167 24.649 30.1769 24.8211Z" fill="#EDA38D"/>
<path d="M69.7055 28.6767C67.7761 28.7954 66.5683 29.544 66.3653 29.9717C61.7749 27.85 60.6565 24.4954 61.1995 24.1992C61.7424 23.903 64.6373 23.0696 66.1981 23.5069C66.0247 25.1606 68.1632 27.5582 69.7055 28.6767Z" fill="#EDA38D"/>
<path d="M16.9389 4.85836C15.0095 4.97704 13.8016 5.72559 13.5987 6.15336C9.00829 4.03162 7.8899 0.677034 8.43287 0.380837C8.97583 0.0846395 11.8707 -0.748724 13.4315 -0.31147C13.2581 1.34228 15.3966 3.73981 16.9389 4.85836Z" fill="#EDA38D"/>
<path d="M48.2112 27.8864C46.5532 26.8867 45.1229 26.8088 44.7067 27.0412C42.1611 22.7086 43.1922 19.3467 43.8118 19.4144C44.4313 19.4822 47.3004 20.4496 48.3313 21.6918C47.2261 22.9374 47.592 26.101 48.2112 27.8864Z" fill="#EDA38D"/>
<path d="M48.8515 88.0008C49.5867 86.9631 49.4863 85.5329 49.2183 84.9429C52.9668 85.2577 56.2399 88.6199 56.2515 89.2162C56.2631 89.8124 55.7049 92.1281 54.6667 92.3501C53.3664 90.3544 50.4483 88.5763 48.8515 88.0008Z" fill="#EDA38D"/>
<path d="M29.3787 52.0553C30.588 51.6297 31.3377 50.4101 31.4603 49.7783C34.3642 52.1639 35.1031 56.7563 34.7657 57.2475C34.4283 57.7388 32.621 59.3037 31.6367 58.8942C31.7273 56.5334 30.3588 53.4303 29.3787 52.0553Z" fill="#EDA38D"/>
<path d="M124.009 90.0659C122.429 89.2593 120.289 88.9898 119.413 89.05C119.762 86.2916 124.695 84.6287 125.588 84.7639C126.482 84.8992 129.971 85.8805 130.338 86.7192C127.389 87.2204 124.819 88.9975 124.009 90.0659Z" fill="#EDA38D"/>
<path d="M5.85817 73.4055C5.02677 71.8526 3.42066 70.4173 2.66454 69.9686C4.55734 67.9251 9.58741 69.3762 10.2445 69.9937C10.9016 70.6113 13.2042 73.3914 13.0182 74.2815C10.2979 73.0133 7.14731 72.9975 5.85817 73.4055Z" fill="#EDA38D"/>
<path d="M60.0126 11.4959C60.7478 10.4583 60.6474 9.02799 60.3794 8.438C64.1279 8.75278 67.401 12.115 67.4126 12.7113C67.4243 13.3076 66.8661 15.6232 65.8278 15.8452C64.5275 13.8495 61.6094 12.0714 60.0126 11.4959Z" fill="#89D6EC"/>
<path d="M50.7303 41.6471C51.9396 41.2215 52.6892 40.0019 52.8119 39.3701C55.7158 41.7557 56.4547 46.3481 56.1173 46.8393C55.7798 47.3306 53.9725 48.8955 52.9883 48.486C53.0788 46.1252 51.7104 43.0221 50.7303 41.6471Z" fill="#89D6EC"/>
<path d="M92.6026 76.5249C91.0231 75.7183 88.8825 75.4488 88.0068 75.509C88.356 72.7506 93.2888 71.0877 94.1822 71.2229C95.0757 71.3581 98.565 72.3395 98.9318 73.1782C95.9828 73.6794 93.413 75.4564 92.6026 76.5249Z" fill="#89D6EC"/>
<path d="M29.5566 16.4971C29.3633 17.9013 30.0012 19.2471 30.4482 19.6822C27.2826 21.359 23.3176 19.8034 23.0763 19.2263C22.8349 18.6492 22.3874 16.0887 23.144 15.3219C24.9758 16.5855 28.0365 16.7796 29.5566 16.4971Z" fill="#89D6EC"/>
<path d="M12.4356 42.6394C13.2668 43.7563 14.5812 44.1321 15.1578 44.0503C14.3041 47.861 10.7542 50.1508 10.2107 49.9626C9.66731 49.7743 7.64834 48.4129 7.60394 47.2535C9.61375 46.5657 11.671 44.1144 12.4356 42.6394Z" fill="#FCF2E8"/>
<path d="M9.38575 8.20488C10.217 9.32176 11.5314 9.69749 12.108 9.61576C11.2543 13.4265 7.70436 15.7163 7.16093 15.528C6.6175 15.3398 4.59854 13.9783 4.55414 12.819C6.56395 12.1311 8.62115 9.67981 9.38575 8.20488Z" fill="#FCF2E8"/>
<path d="M-1.14781 81.3322C-0.110674 80.9619 -0.0575225 79.6886 -0.315574 79.0082C4.27756 81.8406 7.90548 86.9137 7.84595 87.4238C7.78643 87.934 6.80961 89.5018 5.49912 88.9776C4.13968 86.4064 0.754055 82.9105 -1.14781 81.3322Z" fill="#FCF2E8"/>
<path d="M109.424 47.6383C109.272 47.2862 108.628 46.8929 108.326 46.7403C110.992 44.021 111.313 46.5247 111.412 46.6432C111.215 46.4061 109.854 47.0976 109.424 47.6383Z" fill="#D5E5FF"/>
<path d="M18.5373 30.6347C18.6172 30.2623 18.316 29.577 18.1555 29.2808C21.9339 28.5857 20.7415 30.8032 20.7537 30.9555C20.7294 30.6509 19.2064 30.4398 18.5373 30.6347Z" fill="#D5E5FF"/>
<path d="M137.693 48.3555C137.17 48.3853 136.602 48.7769 136.383 48.969C132.219 46.296 135.962 46.6577 136.136 46.6119C135.788 46.7036 136.869 47.8995 137.693 48.3555Z" fill="#D5E5FF"/>
<path d="M41.4021 47.2786C40.9544 47.0058 40.2582 47.0011 39.9662 47.0328C38.0929 42.4948 40.9645 44.9152 41.1349 44.977C40.7942 44.8533 40.9885 46.4395 41.4021 47.2786Z" fill="#D5E5FF"/>
<path d="M53.5236 30.4442C53.6035 30.0719 53.3024 29.3865 53.1418 29.0904C56.9202 28.3952 55.7279 30.6127 55.74 30.7651C55.7157 30.4604 54.1927 30.2494 53.5236 30.4442Z" fill="#D5E5FF"/>
<path d="M76.3904 47.0882C75.9426 46.8154 75.2465 46.8107 74.9544 46.8424C73.0812 42.3044 75.9528 44.7247 76.1232 44.7866C75.7824 44.6629 75.9768 46.2491 76.3904 47.0882Z" fill="#D5E5FF"/>
<path d="M64.0582 46.7068C64.3492 46.279 64.9809 45.9959 65.2604 45.9078C65.0254 41.0263 63.4461 44.3799 63.3174 44.5044C63.5747 44.2553 64.076 45.7772 64.0582 46.7068Z" fill="#D5E5FF"/>
<path d="M77.4674 76.8663C77.3675 77.3735 77.6104 78.0203 77.7444 78.2803C74.1017 81.5494 75.3791 78.0702 75.3773 77.8914C75.3809 78.249 76.8178 77.5331 77.4674 76.8663Z" fill="#D5E5FF"/>
<path d="M152.422 57.1666C152.27 56.8146 151.626 56.4212 151.324 56.2686C153.99 53.5493 154.311 56.053 154.41 56.1715C154.213 55.9345 152.852 56.626 152.422 57.1666Z" fill="#D5E5FF"/>
<path d="M48.4055 62.8104C48.4853 62.4381 48.1842 61.7527 48.0237 61.4566C51.8021 60.7615 50.6097 62.979 50.6218 63.1313C50.5976 62.8266 49.0746 62.6156 48.4055 62.8104Z" fill="#D5E5FF"/>
<path d="M109.947 76.8213C109.424 76.8511 108.856 77.2427 108.637 77.4348C104.473 74.7618 108.216 75.1236 108.39 75.0777C108.041 75.1694 109.122 76.3653 109.947 76.8213Z" fill="#D5E5FF"/>
<path d="M1.98711 54.6536C1.53931 54.3808 0.843207 54.3761 0.551127 54.4078C-1.32213 49.8698 1.54948 52.2902 1.71984 52.352C1.37911 52.2283 1.5735 53.8145 1.98711 54.6536Z" fill="#D5E5FF"/>
<path d="M75.3386 69.4567C75.0318 70.6895 75.6448 71.9936 76.1083 72.4513C72.5078 73.4858 68.2425 71.4971 68.0151 70.9427C67.7877 70.3882 67.4657 68.0211 68.3506 67.445C70.2848 68.8533 73.6446 69.484 75.3386 69.4567Z" fill="#EDA38D"/>
<path d="M125.768 65.547C125.417 65.3856 124.677 65.5206 124.351 65.6082C124.453 61.8065 126.394 63.4594 126.547 63.4823C126.241 63.4366 125.715 64.8576 125.768 65.547Z" fill="#D5E5FF"/>
<path d="M21.579 54.4764C21.3838 54.1457 20.696 53.8351 20.3765 53.7211C22.6722 50.6886 23.3095 53.1354 23.4222 53.2409C23.1968 53.0299 21.9366 53.886 21.579 54.4764Z" fill="#D5E5FF"/>
<path d="M147.269 80.8043C147.117 80.4523 146.473 80.0589 146.17 79.9063C148.837 77.187 149.158 79.6907 149.257 79.8092C149.06 79.5722 147.699 80.2637 147.269 80.8043Z" fill="#D5E5FF"/>
<path d="M30.4055 79.0936C30.4853 78.7213 30.1842 78.0359 30.0237 77.7398C33.8021 77.0447 32.6097 79.2622 32.6218 79.4145C32.5976 79.1098 31.0746 78.8988 30.4055 79.0936Z" fill="#D5E5FF"/>
<path d="M82.9384 57.5025C82.7866 57.1505 82.1431 56.7572 81.8403 56.6045C84.5067 53.8853 84.828 56.3889 84.9265 56.5075C84.7295 56.2704 83.3688 56.9619 82.9384 57.5025Z" fill="#D5E5FF"/>
<path d="M155.969 82.7744C155.447 82.8042 154.878 83.1958 154.659 83.3879C150.496 80.715 154.238 81.0767 154.413 81.0308C154.064 81.1226 155.145 82.3184 155.969 82.7744Z" fill="#D5E5FF"/>
<path d="M36.4236 85.6389C35.9758 85.3661 35.2797 85.3614 34.9877 85.3932C33.1144 80.8552 35.986 83.2755 36.1564 83.3374C35.8156 83.2137 36.01 84.7999 36.4236 85.6389Z" fill="#D5E5FF"/>
</g>
</svg>
