<svg width="163" height="89" viewBox="0 0 163 89" fill="none" xmlns="http://www.w3.org/2000/svg">
<g opacity="0.6">
<path d="M106.43 51.0616C107.287 49.7515 108.511 48.8753 108.991 48.6827C108.775 45.8825 106.06 45.5743 105.572 45.9776C105.084 46.381 103.184 48.4332 102.991 49.4228C104.609 49.0884 105.976 50.1743 106.43 51.0616Z" fill="#89D6EC"/>
<path d="M113.027 32.3235C113.669 30.9794 114.784 29.8198 115.29 29.4824C114.28 27.4192 111.037 28.2556 110.579 28.7579C110.12 29.2602 108.464 31.5861 108.507 32.4217C110.3 31.5255 112.259 31.8217 113.027 32.3235Z" fill="#FCF2E8"/>
<path d="M133.97 9.73023C135.007 8.58257 136.134 8.06129 136.537 8.062C137.302 4.62837 135.478 2.96191 135 3.20803C134.522 3.45415 132.502 4.98452 132.041 6.06889C133.298 6.44624 133.939 8.45796 133.97 9.73023Z" fill="#FCF2E8"/>
<path d="M162.753 5.4148C163.79 4.26714 164.917 3.74586 165.32 3.74657C166.085 0.312936 164.262 -1.35352 163.784 -1.1074C163.306 -0.861278 161.285 0.669089 160.824 1.75347C162.081 2.13081 162.723 4.14254 162.753 5.4148Z" fill="#FCF2E8"/>
<path d="M138.019 32.1374C139.111 31.1306 140.165 30.8481 140.508 30.9564C141.786 27.3209 140.539 24.9715 140.087 25.1192C139.636 25.267 137.637 26.4397 137.047 27.5292C138.047 28.2862 138.226 30.7067 138.019 32.1374Z" fill="#EDA38D"/>
<path d="M111.537 21.3243C110.576 21.1961 109.844 20.4027 109.662 19.95C107.84 22.1874 107.945 25.7336 108.266 26.0476C108.588 26.3616 110.156 27.247 110.831 26.7868C110.427 25.0376 111.003 22.5051 111.537 21.3243Z" fill="#EDA38D"/>
<path d="M122.367 18.5893C122.764 17.299 123.756 15.9749 124.255 15.5213C122.554 14.2917 119.016 16.1646 118.614 16.7289C118.213 17.2933 116.895 19.7311 117.161 20.3667C119.005 18.9928 121.349 18.4868 122.367 18.5893Z" fill="#EDA38D"/>
<path d="M128.025 45.4655C126.92 46.4045 125.906 46.5852 125.591 46.4331C124.112 50.1194 125.108 52.7315 125.545 52.6259C125.981 52.5204 127.952 51.5072 128.591 50.4254C127.706 49.5174 127.722 46.949 128.025 45.4655Z" fill="#89D6EC"/>
<path d="M113.083 -3.35941C112.623 -2.39478 111.698 -1.90795 111.257 -1.87856C112.436 0.83391 115.406 1.98744 115.783 1.7616C116.161 1.53576 117.47 0.202139 117.338 -0.670802C115.744 -0.869341 113.862 -2.37765 113.083 -3.35941Z" fill="#FCF2E8"/>
<path d="M128.714 23.4108C127.889 23.2969 127.668 22.3542 127.763 21.8055C124.747 24.6416 122.769 29 122.886 29.3717C123.003 29.7434 123.954 30.7612 124.855 30.1641C125.501 28.0304 127.523 24.888 128.714 23.4108Z" fill="#FCF2E8"/>
<path d="M132.404 13.5407C132.292 13.275 132.418 12.7159 132.496 12.4695C129.583 12.543 130.787 14.0123 130.8 14.1279C130.774 13.8966 131.878 13.5 132.404 13.5407Z" fill="#D5E5FF"/>
<path d="M115.899 44.9893C116.193 44.7153 116.711 44.6026 116.933 44.5805C117.681 40.897 115.887 43.1553 115.769 43.2282C116.006 43.0823 116.087 44.2976 115.899 44.9893Z" fill="#D5E5FF"/>
<path d="M151.869 5.6836C152.164 5.4096 152.681 5.2969 152.903 5.2748C153.651 1.59131 151.858 3.8496 151.74 3.92252C151.976 3.77668 152.058 4.99198 151.869 5.6836Z" fill="#D5E5FF"/>
<path d="M122.576 3.97462C122.871 3.70062 123.389 3.58792 123.611 3.56582C124.358 -0.117679 122.565 2.14061 122.447 2.21353C122.683 2.06769 122.765 3.28299 122.576 3.97462Z" fill="#D5E5FF"/>
<path d="M154.961 46.336C154.984 44.7926 155.558 43.4071 155.864 42.9884C154.158 40.8004 151.664 42.019 151.465 42.6155C151.266 43.2121 150.752 45.9324 151.124 46.8518C152.329 45.6987 154.091 45.8513 154.961 46.336Z" fill="#89D6EC"/>
<path d="M148.347 11.6306C147.46 11.04 147.03 9.99937 147.013 9.52403C144.458 10.5108 143.31 13.5747 143.511 14.0024C143.712 14.4301 144.921 15.9683 145.738 15.9155C145.962 14.2276 147.413 12.3658 148.347 11.6306Z" fill="#EDA38D"/>
<path d="M143.78 39.198C142.887 39.6136 141.828 39.3575 141.427 39.0831C141.081 41.9132 143.096 44.7759 143.542 44.8602C143.988 44.9445 145.813 44.8226 146.141 44.078C144.845 42.8571 143.964 40.4595 143.78 39.198Z" fill="#EDA38D"/>
<path d="M162.767 13.0505C162.407 11.7726 162.538 10.145 162.719 9.50087C160.594 9.41094 158.579 12.8717 158.541 13.5539C158.504 14.236 158.698 16.9578 159.271 17.3371C160.106 15.2057 161.839 13.5182 162.767 13.0505Z" fill="#89D6EC"/>
<path d="M148.176 25.1071C148.306 26.1505 147.777 27.053 147.415 27.3163C149.899 28.91 153.07 28.2492 153.271 27.8584C153.472 27.4676 153.87 25.6598 153.283 25.0128C151.808 25.7141 149.377 25.4926 148.176 25.1071Z" fill="#FCF2E8"/>
<path d="M147.811 60.1231C148.859 60.228 149.585 60.9388 149.738 61.3472C151.981 59.2961 152.232 56.0809 151.91 55.7999C151.587 55.519 149.947 54.7346 149.155 55.1601C149.42 56.7418 148.522 59.0458 147.811 60.1231Z" fill="#FCF2E8"/>
<path d="M161.652 28.7448C161.411 28.5872 161.216 28.0583 161.148 27.8135C158.692 29.4534 160.522 30.0101 160.596 30.0984C160.448 29.9217 161.179 28.9966 161.652 28.7448Z" fill="#D5E5FF"/>
<path d="M138.467 21.906C138.226 21.7483 138.031 21.2194 137.964 20.9747C135.508 22.6145 137.337 23.1712 137.411 23.2596C137.264 23.0829 137.994 22.1578 138.467 21.906Z" fill="#D5E5FF"/>
<path d="M158.907 5.86396C158.667 5.70633 158.472 5.17741 158.404 4.93266C155.948 6.57252 157.778 7.12923 157.851 7.21758C157.704 7.04087 158.435 6.11577 158.907 5.86396Z" fill="#D5E5FF"/>
<path d="M107.966 6.91643C108.064 6.63874 108.532 6.29885 108.753 6.16361C106.612 4.25861 106.486 6.18617 106.417 6.28264C106.555 6.0897 107.615 6.53145 107.966 6.91643Z" fill="#D5E5FF"/>
<path d="M151.242 38.5745C151.345 38.1892 151.728 37.8157 151.906 37.6772C150.546 34.2392 150.236 37.0707 150.174 37.1947C150.298 36.9467 151.027 37.903 151.242 38.5745Z" fill="#D5E5FF"/>
<path d="M132.926 31.5426C132.813 31.277 132.94 30.7179 133.017 30.4715C130.105 30.5449 131.309 32.0142 131.321 32.1299C131.296 31.8985 132.4 31.502 132.926 31.5426Z" fill="#D5E5FF"/>
<path d="M132.131 43.8662C132.426 43.5922 132.943 43.4795 133.165 43.4574C133.913 39.7739 132.12 42.0322 132.002 42.1051C132.238 41.9593 132.319 43.1746 132.131 43.8662Z" fill="#D5E5FF"/>
<path d="M62.167 77.6596C62.1822 78.6845 61.4565 79.6649 61.0592 79.9758C63.4041 81.2389 66.7007 80.1595 66.9489 79.7426C67.197 79.3257 67.8037 77.4676 67.2793 76.8992C65.7026 77.7945 63.3445 77.8857 62.167 77.6596Z" fill="#89D6EC"/>
<path d="M157.227 54.2858C157.072 55.3044 156.198 56.1563 155.757 56.3988C157.848 58.0388 161.261 57.5138 161.573 57.1415C161.886 56.7693 162.789 55.0275 162.369 54.3773C160.673 55.0042 158.345 54.7047 157.227 54.2858Z" fill="#89D6EC"/>
<path d="M65.0181 92.1674C66.0226 92.4904 66.7203 93.3806 66.8684 93.8382C69.0125 92.1542 69.2448 88.849 68.9352 88.49C68.6257 88.131 67.0516 86.9777 66.2936 87.2604C66.5518 88.9657 65.697 91.1877 65.0181 92.1674Z" fill="#FCF2E8"/>
<path d="M157.623 69.1366C158.555 69.623 159.092 70.6208 159.161 71.099C161.544 69.7841 162.319 66.5459 162.075 66.1388C161.83 65.7317 160.477 64.3281 159.686 64.4829C159.657 66.2162 158.451 68.2777 157.623 69.1366Z" fill="#FCF2E8"/>
<path d="M102.542 65.2721C101.316 64.4059 100.706 63.3609 100.674 62.9602C97.1956 62.6916 95.6861 64.7416 95.9699 65.1813C96.2536 65.6209 97.9405 67.4092 99.0569 67.7123C99.33 66.4096 101.279 65.4842 102.542 65.2721Z" fill="#FCF2E8"/>
<path d="M82.028 56.8788C81.6036 58.3541 80.8158 59.3189 80.4496 59.4995C81.3009 62.8625 83.7052 63.5084 84.0281 63.0771C84.3511 62.6459 85.4953 60.3922 85.4258 59.2314C84.1156 59.4645 82.6281 57.9839 82.028 56.8788Z" fill="#FCF2E8"/>
<path d="M88.2861 34.3415C87.8084 35.3253 86.8304 35.9398 86.3619 36.0424C87.6464 38.388 90.8169 38.9654 91.216 38.6891C91.615 38.4127 92.9917 36.9379 92.8411 36.141C91.1436 36.2261 89.1262 35.1304 88.2861 34.3415Z" fill="#EDA38D"/>
<path d="M76.8348 80.2043C76.7855 81.1775 76.0558 82.0183 75.6202 82.2633C77.9944 83.7533 81.5137 83.1419 81.8 82.7778C82.0863 82.4137 82.8395 80.7284 82.3267 80.1242C80.6194 80.7759 78.053 80.5656 76.8348 80.2043Z" fill="#EDA38D"/>
<path d="M44.9158 84.5156C45.4348 85.3228 45.3087 86.4152 45.0856 86.8617C47.9282 86.6893 50.5185 84.1768 50.5482 83.7209C50.5779 83.2649 50.2374 81.4832 49.461 81.2944C48.4088 82.7974 46.1421 84.1045 44.9158 84.5156Z" fill="#EDA38D"/>
<path d="M72.8013 58.9176C71.5799 59.5059 69.9535 59.673 69.2941 59.611C69.4612 61.7276 73.129 63.0898 73.8086 63.0026C74.4882 62.9155 77.1585 62.2284 77.4649 61.5935C75.2549 61.1562 73.376 59.7498 72.8013 58.9176Z" fill="#EDA38D"/>
<path d="M30.4393 82.7343C31.4563 82.4161 32.4131 82.7742 32.7173 83.084C33.9954 80.3399 32.9594 77.3258 32.5484 77.1982C32.1374 77.0705 30.3002 77.0063 29.7307 77.7044C30.6024 79.0339 30.6761 81.477 30.4393 82.7343Z" fill="#FCF2E8"/>
<path d="M103.694 76.0451C103.398 75.7917 103.244 75.2936 103.203 75.0762C99.4781 74.8604 101.871 76.3186 101.953 76.4254C101.789 76.2118 102.991 75.957 103.694 76.0451Z" fill="#D5E5FF"/>
<path d="M91.7816 51.7544C91.6377 52.1277 91.2188 52.4595 91.0273 52.5787C92.0067 56.1537 92.6171 53.3621 92.6913 53.2449C92.5428 53.4793 91.922 52.4472 91.7816 51.7544Z" fill="#D5E5FF"/>
<path d="M85.1042 90.7644C85.2825 90.4053 85.7298 90.1139 85.9311 90.013C85.2987 86.3507 84.4277 89.08 84.3428 89.1899C84.5125 88.97 85.0306 90.0594 85.1042 90.7644Z" fill="#D5E5FF"/>
<path d="M111.504 63.6599C111.11 63.6275 110.695 63.3175 110.536 63.1665C107.297 65.1349 110.137 64.9269 110.267 64.9652C110.007 64.8887 110.865 63.9936 111.504 63.6599Z" fill="#D5E5FF"/>
<path d="M61.2544 86.407C61.1274 86.6735 60.6275 86.9627 60.3934 87.074C62.3122 89.203 62.6427 87.2934 62.7213 87.2045C62.5642 87.3823 61.5606 86.8285 61.2544 86.407Z" fill="#D5E5FF"/>
<path d="M154.881 62.808C154.713 63.0512 154.174 63.2552 153.926 63.3268C155.456 65.7547 156.097 63.9163 156.189 63.8412C156.005 63.9915 155.112 63.2764 154.881 62.808Z" fill="#D5E5FF"/>
<path d="M143.884 67.1579C142.346 67.3559 140.921 66.9841 140.48 66.7395C138.442 68.7475 139.857 71.0508 140.467 71.1631C141.076 71.2754 143.825 71.3971 144.709 70.896C143.464 69.8634 143.472 68.0919 143.884 67.1579Z" fill="#89D6EC"/>
<path d="M120.736 52.1692C119.214 52.121 118.124 51.5917 117.879 51.2792C114.752 52.9443 114.572 55.4506 115.054 55.6587C115.536 55.8668 117.952 56.4241 119.074 56.0684C118.6 54.8477 119.768 53.0289 120.736 52.1692Z" fill="#FCF2E8"/>
<path d="M109.897 78.6965C109.382 79.662 108.381 80.2384 107.91 80.3227C109.1 82.7198 112.241 83.4219 112.65 83.1611C113.059 82.9003 114.491 81.479 114.372 80.6757C112.675 80.6942 110.705 79.5188 109.897 78.6965Z" fill="#EDA38D"/>
<path d="M137.695 79.2876C138.181 80.1156 138.012 81.2035 137.772 81.6414C140.616 81.5805 143.3 79.1687 143.347 78.7137C143.395 78.2587 143.125 76.4628 142.358 76.2434C141.248 77.7058 138.935 78.9244 137.695 79.2876Z" fill="#EDA38D"/>
<path d="M80.3683 94.398C80.7636 93.4965 81.7386 92.9642 82.2284 92.8891C80.5742 90.6298 77.1089 89.9444 76.7141 90.1856C76.3192 90.4268 75.019 91.7483 75.2748 92.503C77.0835 92.5001 79.3748 93.6196 80.3683 94.398Z" fill="#EDA38D"/>
<path d="M134.669 55.3233C133.427 55.8638 131.797 55.9671 131.141 55.8792C131.225 58.0034 134.832 59.5102 135.513 59.4497C136.195 59.3892 138.887 58.8066 139.218 58.1835C137.029 57.6593 135.209 56.1784 134.669 55.3233Z" fill="#EDA38D"/>
<path d="M110.134 64.1632C108.892 64.7037 107.263 64.807 106.607 64.7191C106.69 66.8432 110.297 68.35 110.979 68.2895C111.661 68.229 114.353 67.6465 114.684 67.0233C112.495 66.4991 110.675 65.0183 110.134 64.1632Z" fill="#89D6EC"/>
<path d="M95.4222 81.4154C96.0017 80.4797 97.0305 79.9722 97.5017 79.9219C96.5058 77.4163 93.46 76.4762 93.0373 76.709C92.6146 76.9418 91.0978 78.2697 91.1557 79.0887C92.8309 79.1954 94.6868 80.5264 95.4222 81.4154Z" fill="#89D6EC"/>
<path d="M99.4503 57.494C98.3875 57.3019 97.5844 56.5276 97.3878 56.1045C95.3505 57.9796 95.4339 61.1892 95.7867 61.4982C96.1394 61.8072 97.8679 62.7311 98.6187 62.3692C98.1874 60.758 98.8487 58.5176 99.4503 57.494Z" fill="#89D6EC"/>
<path d="M123.318 76.9356C124.345 76.6573 125.286 77.0531 125.577 77.375C126.961 74.6798 126.045 71.6237 125.64 71.4798C125.235 71.336 123.404 71.1996 122.808 71.8757C123.626 73.24 123.603 75.6871 123.318 76.9356Z" fill="#FCF2E8"/>
<path d="M125.842 63.0287C125.705 63.2904 125.194 63.56 124.956 63.6621C126.788 65.8675 127.193 63.97 127.274 63.8842C127.111 64.0559 126.131 63.4624 125.842 63.0287Z" fill="#D5E5FF"/>
<path d="M120.922 87.0414C120.785 87.3031 120.274 87.5727 120.036 87.6748C121.868 89.8801 122.273 87.9827 122.355 87.8969C122.191 88.0686 121.211 87.4751 120.922 87.0414Z" fill="#D5E5FF"/>
<path d="M103.303 69.0287C103.166 69.2904 102.655 69.56 102.417 69.6621C104.249 71.8675 104.653 69.97 104.735 69.8842C104.572 70.0559 103.592 69.4624 103.303 69.0287Z" fill="#D5E5FF"/>
<path d="M85.3176 54.7577C85.6069 54.7882 86.022 55.1655 86.1935 55.3504C87.6836 52.8047 85.7731 53.1375 85.6665 53.0929C85.8797 53.182 85.6332 54.3239 85.3176 54.7577Z" fill="#D5E5FF"/>
<path d="M41.416 79.5108C41.145 79.628 40.5909 79.5112 40.3478 79.4382C40.2908 82.3485 41.8157 81.1194 41.932 81.1047C41.6993 81.134 41.3518 80.0374 41.416 79.5108Z" fill="#D5E5FF"/>
<path d="M136.466 71.9628C136.074 71.915 135.671 71.5886 135.519 71.4313C132.209 73.274 135.051 73.177 135.18 73.2204C134.923 73.1336 135.815 72.2717 136.466 71.9628Z" fill="#D5E5FF"/>
<path d="M58.1919 68.2302C58.0649 68.4968 57.565 68.7859 57.3309 68.8972C59.2497 71.0262 59.5802 69.1167 59.6588 69.0278C59.5017 69.2055 58.4981 68.6517 58.1919 68.2302Z" fill="#D5E5FF"/>
<path d="M8.77884 84.8816C8.65182 85.1482 8.15189 85.4373 7.9178 85.5486C9.83662 87.6776 10.1671 85.768 10.2457 85.6791C10.0886 85.8569 9.085 85.3031 8.77884 84.8816Z" fill="#D5E5FF"/>
<path d="M64.8324 66.8814C64.4386 66.8491 64.0229 66.5391 63.8643 66.3882C60.6256 68.3571 63.4653 68.1487 63.5955 68.1869C63.3351 68.1104 64.1937 67.2152 64.8324 66.8814Z" fill="#D5E5FF"/>
<path d="M161.627 44.0413C161.246 43.9441 160.89 43.5681 160.759 43.3922C157.256 44.8085 160.076 45.0715 160.197 45.131C159.955 45.012 160.945 44.2666 161.627 44.0413Z" fill="#D5E5FF"/>
<path d="M143.285 90.1916C142.989 89.9382 142.834 89.44 142.794 89.2227C139.069 89.0069 141.461 90.4651 141.544 90.5719C141.379 90.3582 142.582 90.1034 143.285 90.1916Z" fill="#D5E5FF"/>
</g>
</svg>
