<svg id="cpl-english-stack-endorse-tm-cmyk" xmlns="http://www.w3.org/2000/svg" viewBox="0 0 241.54 93.66"><defs><style>.cls-1{fill:#010101;}.cls-2{fill:#0aa147;}.cls-3{fill:#95c93d;}.cls-4{fill:#007b3f;}.cls-5{fill:#231f20;}</style></defs><title>cpl-english-stack-endorse-tm-cmyk</title><path class="cls-1" d="M58,76.82V45.45h5.4v3.29c.76-2.12,3.42-3.78,7.24-3.78C77,45,82,50.09,82,56.79S77,68.63,70.63,68.63c-3.82,0-6.48-1.67-7.24-3.78v12Zm5-20a6.8,6.8,0,0,0,6.93,6.93,6.93,6.93,0,0,0,0-13.86A6.8,6.8,0,0,0,63,56.79Z"/><path class="cls-1" d="M85.1,45.45h5.35v3.38C91.53,46.49,94,45,97.2,45a10.5,10.5,0,0,1,1.62.14v5.22a10.46,10.46,0,0,0-2.25-.23c-3.73,0-6.12,2.34-6.12,6.08V68.13H85.1Z"/><path class="cls-1" d="M99.63,56.79c0-7.29,5.09-12,11.88-12s11.21,5.09,11.21,11.43c0,0,0,1-.09,1.89H105c.18,3.6,2.83,5.94,6.84,5.94A7.83,7.83,0,0,0,118,61.47l3.24,3.15a12.26,12.26,0,0,1-9.54,4c-7.11,0-12-4.59-12-11.7Zm17.6-2.43c0-2.7-2.57-5-5.72-5-3.37,0-6.16,2.21-6.39,5Z"/><path class="cls-1" d="M125.78,45.45h5.35v3.24A7,7,0,0,1,143.6,49c1.39-2.83,4.14-4,7.42-4,5,0,7.88,3.51,7.88,9.09v14h-5.4V54.86c0-3.06-1.44-5-4.05-5S145,52,145,55.08v13h-5.36V54.86c0-3.06-1.44-5-4.05-5s-4.41,2.16-4.41,5.26v13h-5.35Z"/><path class="cls-1" d="M162.9,45.45h5.4V68.13h-5.4Z"/><path class="cls-1" d="M171.47,56.79c0-7.29,5.08-12,11.88-12s11.2,5.09,11.2,11.43c0,0,0,1-.09,1.89H176.82c.18,3.6,2.84,5.94,6.84,5.94a7.81,7.81,0,0,0,6.12-2.61L193,64.62a12.25,12.25,0,0,1-9.54,4c-7.11,0-12-4.59-12-11.7Zm17.59-2.43c0-2.7-2.56-5-5.71-5-3.38,0-6.17,2.21-6.39,5Z"/><path class="cls-1" d="M197.54,45.45h5.36v3.38C204,46.49,206.41,45,209.65,45a10.76,10.76,0,0,1,1.62.14v5.22a10.53,10.53,0,0,0-2.25-.23c-3.74,0-6.12,2.34-6.12,6.08V68.13h-5.36Z"/><path class="cls-2" d="M62.26,82.56h1.66L65.69,91H63.8l-.29-1.42H60L59.13,91H57Zm1,5.55-.58-3-1.81,3Z"/><path class="cls-2" d="M71.45,88.22a2,2,0,0,0,2,1.25c.78,0,1.36-.43,1.36-.94s-.86-.87-1.86-1.33a2.37,2.37,0,0,1-1.68-2.14,2.86,2.86,0,0,1,3.07-2.65,3,3,0,0,1,2.89,1.68l-1.45,1a1.6,1.6,0,0,0-1.54-1c-.67,0-1.12.39-1.12.79,0,.58.61.73,1.8,1.24a2.41,2.41,0,0,1,1.76,2.22c0,1.52-1.2,2.82-3.39,2.82a3.26,3.26,0,0,1-3.33-2Z"/><path class="cls-2" d="M81.11,84.76A2.72,2.72,0,0,1,84,87.53a3.16,3.16,0,0,1-.15.92H79.32a.28.28,0,0,0,0,.1c0,.66.6,1.11,1.57,1.11A2.23,2.23,0,0,0,82.4,89l.93,1.07a3.8,3.8,0,0,1-2.74,1.09,2.79,2.79,0,0,1-3.06-2.85A3.58,3.58,0,0,1,81.11,84.76Zm1.19,2.51v0c0-.55-.5-1-1.23-1a1.73,1.73,0,0,0-1.64,1Z"/><path class="cls-2" d="M88.44,84.7A3,3,0,0,1,91.07,86l-1.35,1a1.58,1.58,0,0,0-1.34-.65,1.87,1.87,0,0,0-1.84,1.79,1.4,1.4,0,0,0,1.52,1.41A1.8,1.8,0,0,0,89.35,89l1.09,1.16a3.36,3.36,0,0,1-2.53,1.05,2.94,2.94,0,0,1-3.19-2.9A3.71,3.71,0,0,1,88.44,84.7Z"/><path class="cls-2" d="M91.42,88.46l.75-3.56H94l-.71,3.49a1.56,1.56,0,0,0,0,.35.82.82,0,0,0,.92.83c.66,0,1.18-.39,1.38-1.32l.68-3.35H98l-.8,3.93a.92.92,0,0,0,0,.26c0,.26.14.42.35.42a2,2,0,0,0,.27,0L97.52,91a2.54,2.54,0,0,1-.72.08,1.37,1.37,0,0,1-.78-.22,1,1,0,0,1-.37-.44l0,0a2,2,0,0,1-1.87.79c-1.51,0-2.41-.84-2.41-2A3.6,3.6,0,0,1,91.42,88.46Z"/><path class="cls-2" d="M99.78,84.9h1.82l-.18.82a2,2,0,0,1,1.78-1,3.42,3.42,0,0,1,.65.06l-.33,1.68a2.84,2.84,0,0,0-.72-.07c-1,0-1.66.72-1.89,1.84L100.35,91H98.53Z"/><path class="cls-2" d="M103.92,89l.83-4.12h1.83l-.82,4a1.63,1.63,0,0,0,0,.3.32.32,0,0,0,.32.36h.22L106,91a2.28,2.28,0,0,1-.77.09,1.27,1.27,0,0,1-1.38-1.32A4.23,4.23,0,0,1,103.92,89Zm1-5.55a1.16,1.16,0,0,1,1.14-1.14.92.92,0,0,1,1,.93,1.15,1.15,0,0,1-1.16,1.12A.9.9,0,0,1,104.91,83.47Z"/><path class="cls-2" d="M110.69,84.79a2.14,2.14,0,0,1,2,.84l.16-.73h1.78l-.81,4a1,1,0,0,0,0,.27.35.35,0,0,0,.39.37l.27,0-.31,1.5a2.4,2.4,0,0,1-.71.09,1.54,1.54,0,0,1-.8-.21,1,1,0,0,1-.44-.51v0a2.6,2.6,0,0,1-2.11.75,2.72,2.72,0,0,1-2.87-2.79A3.61,3.61,0,0,1,110.69,84.79Zm-.19,4.7a1.76,1.76,0,0,0,1.81-1.76,1.35,1.35,0,0,0-1.5-1.31A1.8,1.8,0,0,0,109,88.15,1.35,1.35,0,0,0,110.5,89.49Z"/><path class="cls-2" d="M116.37,84.9h1.83l-.17.82a2,2,0,0,1,1.73-1,1.92,1.92,0,0,1,2.06,2.06,3.1,3.1,0,0,1-.07.62l-.29,1.41a1.41,1.41,0,0,0,0,.28c0,.24.09.39.28.39h.2l-.3,1.47a2,2,0,0,1-.74.08,1.27,1.27,0,0,1-1.36-1.35,4.36,4.36,0,0,1,.11-.75l.26-1.36a1.08,1.08,0,0,0,0-.34.84.84,0,0,0-1-.9,1.41,1.41,0,0,0-1.34,1.25l-.68,3.4h-1.81Z"/><path class="cls-2" d="M127.9,82.56h5.57l-.34,1.7h-3.7L129.08,86h3.36l-.35,1.66h-3.34L128.06,91h-1.89Z"/><path class="cls-2" d="M133.27,89l.84-4.12h1.82l-.81,4a1.44,1.44,0,0,0,0,.3.32.32,0,0,0,.33.36h.22L135.31,91a2.25,2.25,0,0,1-.76.09,1.28,1.28,0,0,1-1.39-1.32A4.23,4.23,0,0,1,133.27,89Zm1-5.55a1.16,1.16,0,0,1,1.14-1.14.92.92,0,0,1,1,.93,1.14,1.14,0,0,1-1.15,1.12A.9.9,0,0,1,134.27,83.47Z"/><path class="cls-2" d="M137.63,84.9h1.83l-.17.82a2,2,0,0,1,1.73-1,1.92,1.92,0,0,1,2.06,2.06,4.07,4.07,0,0,1-.06.62l-.3,1.41a1.41,1.41,0,0,0,0,.28c0,.24.1.39.28.39h.2l-.3,1.47a2,2,0,0,1-.74.08,1.27,1.27,0,0,1-1.36-1.35,4.36,4.36,0,0,1,.11-.75l.27-1.36a1.42,1.42,0,0,0,0-.34.84.84,0,0,0-1-.9,1.39,1.39,0,0,0-1.33,1.25l-.68,3.4H136.4Z"/><path class="cls-2" d="M147.56,84.79a2.16,2.16,0,0,1,2,.84l.15-.73h1.79l-.82,4a1.48,1.48,0,0,0,0,.27.35.35,0,0,0,.39.37l.26,0L151,91a2.48,2.48,0,0,1-.72.09,1.54,1.54,0,0,1-.8-.21,1.05,1.05,0,0,1-.44-.51v0a2.56,2.56,0,0,1-2.1.75,2.73,2.73,0,0,1-2.88-2.79A3.61,3.61,0,0,1,147.56,84.79Zm-.18,4.7a1.76,1.76,0,0,0,1.81-1.76,1.36,1.36,0,0,0-1.51-1.31,1.8,1.8,0,0,0-1.81,1.73A1.36,1.36,0,0,0,147.38,89.49Z"/><path class="cls-2" d="M153.25,84.9h1.82l-.17.82a2,2,0,0,1,1.74-1,1.91,1.91,0,0,1,2.05,2.06,3.11,3.11,0,0,1-.06.62l-.29,1.41a1.45,1.45,0,0,0,0,.28c0,.24.1.39.28.39h.21l-.3,1.47a2.1,2.1,0,0,1-.75.08,1.28,1.28,0,0,1-1.36-1.35,4.36,4.36,0,0,1,.11-.75l.27-1.36a1.08,1.08,0,0,0,0-.34.84.84,0,0,0-1-.9,1.41,1.41,0,0,0-1.34,1.25l-.68,3.4H152Z"/><path class="cls-2" d="M163.38,84.7A3,3,0,0,1,166,86l-1.35,1a1.59,1.59,0,0,0-1.35-.65,1.86,1.86,0,0,0-1.83,1.79A1.4,1.4,0,0,0,163,89.54,1.8,1.8,0,0,0,164.3,89l1.09,1.16a3.36,3.36,0,0,1-2.53,1.05,2.94,2.94,0,0,1-3.19-2.9A3.71,3.71,0,0,1,163.38,84.7Z"/><path class="cls-2" d="M166.39,89l.84-4.12h1.82l-.82,4a1.63,1.63,0,0,0,0,.3.32.32,0,0,0,.33.36h.21L168.43,91a2.28,2.28,0,0,1-.77.09,1.27,1.27,0,0,1-1.38-1.32A4.23,4.23,0,0,1,166.39,89Zm1-5.55a1.16,1.16,0,0,1,1.15-1.14.92.92,0,0,1,1,.93,1.15,1.15,0,0,1-1.16,1.12A.9.9,0,0,1,167.38,83.47Z"/><path class="cls-2" d="M173.16,84.79a2.14,2.14,0,0,1,2,.84l.16-.73h1.78l-.81,4a1.48,1.48,0,0,0,0,.27.34.34,0,0,0,.38.37l.27,0-.3,1.5a2.48,2.48,0,0,1-.72.09,1.54,1.54,0,0,1-.8-.21,1,1,0,0,1-.44-.51v0a2.59,2.59,0,0,1-2.1.75,2.72,2.72,0,0,1-2.88-2.79A3.61,3.61,0,0,1,173.16,84.79Zm-.18,4.7a1.77,1.77,0,0,0,1.81-1.76,1.36,1.36,0,0,0-1.51-1.31,1.8,1.8,0,0,0-1.81,1.73A1.36,1.36,0,0,0,173,89.49Z"/><path class="cls-2" d="M178,88.81l1.26-6.25h1.81l-1.25,6.14a2,2,0,0,0,0,.32c0,.32.21.53.63.53a2.56,2.56,0,0,0,.39,0l-.32,1.57a2.45,2.45,0,0,1-.79.09,1.62,1.62,0,0,1-1.8-1.64A3.91,3.91,0,0,1,178,88.81Z"/><path class="cls-2" d="M195.82,84.72A2.94,2.94,0,0,1,199,87.66a3.7,3.7,0,0,1-3.77,3.55A2.93,2.93,0,0,1,192,88.29,3.75,3.75,0,0,1,195.82,84.72Zm-.45,4.82a1.8,1.8,0,0,0,1.8-1.72,1.41,1.41,0,0,0-1.51-1.44,1.81,1.81,0,0,0-1.81,1.77A1.39,1.39,0,0,0,195.37,89.54Z"/><path class="cls-2" d="M200.67,84.9h1.82l-.17.8a1.8,1.8,0,0,1,1.58-.93,1.66,1.66,0,0,1,1.67,1,2.51,2.51,0,0,1,2.05-1,1.77,1.77,0,0,1,1.82,2,3.05,3.05,0,0,1-.06.6l-.31,1.52a1,1,0,0,0,0,.28c0,.21.12.36.3.36h.21l-.3,1.47a2.1,2.1,0,0,1-.75.08,1.27,1.27,0,0,1-1.38-1.32,4.11,4.11,0,0,1,.11-.75l.29-1.49a.91.91,0,0,0,0-.31.73.73,0,0,0-.76-.83c-.56,0-1,.45-1.1,1.11L205,91h-1.82l.71-3.53a1.69,1.69,0,0,0,0-.3.73.73,0,0,0-.78-.82,1.26,1.26,0,0,0-1.17,1.16L201.24,91h-1.82Z"/><path class="cls-2" d="M211.56,93.37h-1.77l1.72-8.47h1.78l-.12.61a2.13,2.13,0,0,1,1.71-.72,2.72,2.72,0,0,1,2.74,2.82,3.57,3.57,0,0,1-3.47,3.51c-1,0-1.76-.36-2-.85ZM214,89.49a1.8,1.8,0,0,0,1.84-1.68,1.4,1.4,0,0,0-1.55-1.39,1.74,1.74,0,0,0-1.72,1.71A1.33,1.33,0,0,0,214,89.49Z"/><path class="cls-2" d="M221.84,84.79a2.14,2.14,0,0,1,2,.84l.16-.73h1.78l-.81,4a1,1,0,0,0,0,.27.35.35,0,0,0,.39.37l.27,0-.31,1.5a2.4,2.4,0,0,1-.71.09,1.54,1.54,0,0,1-.8-.21,1,1,0,0,1-.44-.51v0a2.6,2.6,0,0,1-2.11.75,2.73,2.73,0,0,1-2.88-2.79A3.62,3.62,0,0,1,221.84,84.79Zm-.19,4.7a1.76,1.76,0,0,0,1.81-1.76,1.35,1.35,0,0,0-1.5-1.31,1.8,1.8,0,0,0-1.81,1.73A1.35,1.35,0,0,0,221.65,89.49Z"/><path class="cls-2" d="M227.52,84.9h1.82l-.16.82a2,2,0,0,1,1.73-1A1.91,1.91,0,0,1,233,86.83a3.11,3.11,0,0,1-.06.62l-.29,1.41a1.41,1.41,0,0,0,0,.28c0,.24.09.39.28.39h.2l-.3,1.47a2,2,0,0,1-.74.08,1.27,1.27,0,0,1-1.36-1.35,3.55,3.55,0,0,1,.11-.75l.26-1.36a1.08,1.08,0,0,0,0-.34.84.84,0,0,0-1-.9,1.41,1.41,0,0,0-1.34,1.25l-.68,3.4h-1.81Z"/><path class="cls-2" d="M235.47,91.16l-1.38-6.26h1.79l.87,4,2.35-4h2l-4,6.72c-.71,1.2-1.25,2-2.64,2a2.43,2.43,0,0,1-1-.16l.3-1.52a1.6,1.6,0,0,0,.67.13.84.84,0,0,0,.84-.53Z"/><path class="cls-2" d="M189.11,84.7A3,3,0,0,1,191.75,86l-1.35,1a1.6,1.6,0,0,0-1.35-.65,1.86,1.86,0,0,0-1.83,1.79,1.39,1.39,0,0,0,1.52,1.41A1.79,1.79,0,0,0,190,89l1.1,1.16a3.38,3.38,0,0,1-2.53,1.05,2.94,2.94,0,0,1-3.19-2.9A3.71,3.71,0,0,1,189.11,84.7Z"/><path class="cls-1" d="M102.05,9.88V32.56h-5.4V29.28c-.76,2.11-3.42,3.78-7.24,3.78-6.39,0-11.34-5.13-11.34-11.84S83,9.39,89.41,9.39c3.82,0,6.48,1.66,7.24,3.78V9.88Zm-5,11.34a6.8,6.8,0,0,0-6.93-6.93,6.66,6.66,0,0,0-6.71,6.93,6.66,6.66,0,0,0,6.71,6.93A6.8,6.8,0,0,0,97.06,21.22Z"/><path class="cls-1" d="M106.26,9.88h5.35v3.24c1-2.16,3.6-3.69,6.89-3.69,5.44,0,8.59,3.51,8.59,9.09v14h-5.4V19.29c0-3.06-1.75-5-4.81-5a5.06,5.06,0,0,0-5.27,5.26V32.56h-5.35Z"/><path class="cls-1" d="M153.86,9.88V32.56h-5.4V29.28c-.77,2.11-3.42,3.78-7.25,3.78-6.39,0-11.34-5.13-11.34-11.84s4.95-11.83,11.34-11.83c3.83,0,6.48,1.66,7.25,3.78V9.88Zm-5,11.34a6.79,6.79,0,0,0-6.93-6.93,6.66,6.66,0,0,0-6.7,6.93,6.66,6.66,0,0,0,6.7,6.93A6.79,6.79,0,0,0,148.86,21.22Z"/><path class="cls-1" d="M180.7,1.2V32.56h-5.4V29.28c-.76,2.11-3.42,3.78-7.24,3.78-6.39,0-11.34-5.13-11.34-11.84s4.95-11.83,11.34-11.83c3.82,0,6.48,1.66,7.24,3.78V1.2Zm-5,20a6.8,6.8,0,0,0-6.93-6.93,6.67,6.67,0,0,0-6.71,6.93,6.67,6.67,0,0,0,6.71,6.93A6.8,6.8,0,0,0,175.71,21.22Z"/><path class="cls-1" d="M184.46,9.88h5.4V32.56h-5.4Z"/><path class="cls-1" d="M216.78,9.88V32.56h-5.4V29.28c-.76,2.11-3.42,3.78-7.24,3.78-6.39,0-11.34-5.13-11.34-11.84s4.95-11.83,11.34-11.83c3.82,0,6.48,1.66,7.24,3.78V9.88Zm-5,11.34a6.8,6.8,0,0,0-6.93-6.93,6.66,6.66,0,0,0-6.71,6.93,6.66,6.66,0,0,0,6.71,6.93A6.8,6.8,0,0,0,211.79,21.22Z"/><path class="cls-1" d="M220.71,9.88h5.35v3.24c1-2.16,3.6-3.69,6.89-3.69,5.44,0,8.59,3.51,8.59,9.09v14h-5.4V19.29c0-3.06-1.75-5-4.81-5a5.06,5.06,0,0,0-5.27,5.26V32.56h-5.35Z"/><path class="cls-1" d="M68,9.16a11.9,11.9,0,0,1,9.08,3.92l-3.32,3.46A7.62,7.62,0,0,0,68,14.07a6.88,6.88,0,0,0-7,7.11,6.88,6.88,0,0,0,7,7.11,7.59,7.59,0,0,0,5.76-2.48l3.32,3.47A12.18,12.18,0,1,1,68,9.16Z"/><path class="cls-2" d="M24.32,0a5.46,5.46,0,1,0,5.46,5.46A5.46,5.46,0,0,0,24.32,0Zm0,7.53a2.07,2.07,0,1,1,2.07-2.07A2.07,2.07,0,0,1,24.32,7.52Z"/><path class="cls-2" d="M24.33,32.64a5.46,5.46,0,1,0,5.46,5.46A5.47,5.47,0,0,0,24.33,32.64Zm0,7.53A2.07,2.07,0,1,1,26.4,38.1,2.07,2.07,0,0,1,24.33,40.17Z"/><path class="cls-2" d="M32,21.77A17.8,17.8,0,0,0,41.65,9.63a12.22,12.22,0,0,0-4.6,1.45,13.81,13.81,0,0,1-5.32,6.3l-.25.16-.29.17a13.16,13.16,0,0,1-1.73.84,13.62,13.62,0,0,1-4.19,1h0l-.44,0h-1l-.44,0a13.91,13.91,0,0,1-4.19-1h0a13.16,13.16,0,0,1-1.73-.84l-.19-.11-.22-.14A13.85,13.85,0,0,1,11.57,11,12.23,12.23,0,0,0,7,9.62a17.8,17.8,0,0,0,9.69,12.15A17.82,17.82,0,0,0,7,33.92a12.05,12.05,0,0,0,4.57-1.39,13.83,13.83,0,0,1,5.49-6.45l.22-.14.19-.11A13.16,13.16,0,0,1,19.2,25h0a13.62,13.62,0,0,1,4.19-1l.44,0h.5l.5,0h.44a13.92,13.92,0,0,1,4.19,1,17.27,17.27,0,0,1,1.73.84l.3.18.24.15a14,14,0,0,1,5.32,6.3,12.22,12.22,0,0,0,4.6,1.45A17.8,17.8,0,0,0,32,21.77Z"/><path class="cls-3" d="M45.74,16.9a5.33,5.33,0,0,0-2.45-.58,5.46,5.46,0,1,0,2.45,10.33h0a5.45,5.45,0,0,0,0-9.75Zm-2.45,6.94a2.07,2.07,0,1,1,2.07-2.07A2.07,2.07,0,0,1,43.29,23.84Z"/><path class="cls-3" d="M5.43,16.32A5.45,5.45,0,0,0,2.91,26.61a5.37,5.37,0,0,0,2.52.62,5.46,5.46,0,1,0,0-10.91Zm0,7.52A2.07,2.07,0,1,1,7.5,21.77,2.07,2.07,0,0,1,5.43,23.84Z"/><path class="cls-3" d="M7.2,35.5a13.38,13.38,0,0,0,3.7-.91h0A13.86,13.86,0,0,0,19.2,25a13.77,13.77,0,0,0,.34-2.15c0-.35,0-.71,0-1.07s0-.71,0-1.06a13.58,13.58,0,0,0-.34-2.15A13.88,13.88,0,0,0,10.9,9h0A13.83,13.83,0,0,0,7.2,8a22.3,22.3,0,0,1,3.36-3.37h0A17.81,17.81,0,0,1,23.39,19.51a5,5,0,0,1,.06.56,16.1,16.1,0,0,1,0,3.4,5,5,0,0,1-.06.56A17.78,17.78,0,0,1,10.57,38.87,20.62,20.62,0,0,1,7.2,35.5Z"/><path class="cls-3" d="M41.46,35.5a13.38,13.38,0,0,1-3.7-.91h0a13.82,13.82,0,0,1-8.64-11.75c0-.35,0-.71,0-1.07s0-.71,0-1.06a13.58,13.58,0,0,1,.34-2.15A13.88,13.88,0,0,1,37.76,9h0A13.83,13.83,0,0,1,41.46,8,22.3,22.3,0,0,0,38.1,4.67h0A17.81,17.81,0,0,0,25.27,19.51a5,5,0,0,0-.06.56,16.1,16.1,0,0,0,0,3.4,5,5,0,0,0,.06.56A17.78,17.78,0,0,0,38.09,38.87,20.62,20.62,0,0,0,41.46,35.5Z"/><path class="cls-4" d="M29.12,22.84A13.77,13.77,0,0,0,29.46,25a13.92,13.92,0,0,0-4.19-1,5,5,0,0,1-.06-.56,16.1,16.1,0,0,1,0-3.4,5,5,0,0,1,.06-.56,13.62,13.62,0,0,0,4.19-1,13.89,13.89,0,0,0-.34,2.16c0,.35,0,.7,0,1.06S29.09,22.49,29.12,22.84Z"/><path class="cls-4" d="M23.53,21.77a16,16,0,0,1-.08,1.7c0,.19,0,.38-.06.56a13.62,13.62,0,0,0-4.19,1,13.77,13.77,0,0,0,.34-2.15c0-.35,0-.71,0-1.07s0-.71,0-1.06a13.58,13.58,0,0,0-.34-2.15,13.91,13.91,0,0,0,4.19,1c0,.18,0,.37.06.56A16,16,0,0,1,23.53,21.77Z"/><path class="cls-5" d="M217,42h-1.09v-.65h2.92V42h-1.1v3.4H217Z"/><path class="cls-5" d="M219.45,41.36h.62l1.45,2.27L223,41.36h.62v4h-.69V42.67l-1.37,2.13-1.39-2.13v2.74h-.68Z"/></svg>