<svg width="76" height="46" viewBox="0 0 76 46" fill="none" xmlns="http://www.w3.org/2000/svg">
<path d="M27.9888 22.4144L27.985 22.423L27.9815 22.4317C27.9084 22.616 27.8734 22.8095 27.8734 23.008C27.8734 23.2093 27.9076 23.4058 27.9815 23.5923L27.9865 23.6049L27.9922 23.6172C28.0686 23.783 28.1696 23.9333 28.2953 24.0651L28.3005 24.0706L28.3059 24.0759C28.446 24.2142 28.6099 24.3193 28.7927 24.3911C28.9792 24.4698 29.176 24.508 29.3786 24.508C29.5811 24.508 29.778 24.4698 29.9645 24.3911C30.1472 24.3193 30.3111 24.2142 30.4513 24.0759C30.5886 23.9404 30.6961 23.7825 30.7706 23.6045C30.8532 23.4152 30.8919 23.2143 30.8919 23.008C30.8919 22.8055 30.8526 22.6089 30.7722 22.423C30.6986 22.2409 30.5914 22.0784 30.4513 21.9401L30.1001 22.296L30.4513 21.9401C30.3129 21.8035 30.1518 21.6973 29.973 21.6205C29.7839 21.5394 29.5842 21.5 29.3786 21.5C29.173 21.5 28.9732 21.5394 28.7842 21.6205C28.6053 21.6973 28.4443 21.8035 28.3059 21.9401L28.3005 21.9454L28.2953 21.9509C28.1661 22.0864 28.0645 22.2424 27.9888 22.4144ZM37.0587 22.4144L37.0549 22.423L37.0515 22.4317C36.9784 22.616 36.9433 22.8095 36.9433 23.008C36.9433 23.2093 36.9775 23.4058 37.0515 23.5923L37.0565 23.6049L37.0621 23.6172C37.1385 23.783 37.2395 23.9333 37.3652 24.0651L37.3705 24.0706L37.3758 24.0759C37.516 24.2142 37.6799 24.3193 37.8627 24.3911C38.0492 24.4698 38.246 24.508 38.4485 24.508C38.6511 24.508 38.8479 24.4698 39.0344 24.3911C39.2172 24.3193 39.3811 24.2142 39.5212 24.0759C39.6585 23.9404 39.7661 23.7825 39.8406 23.6045C39.9231 23.4152 39.9619 23.2143 39.9619 23.008C39.9619 22.8055 39.9226 22.6089 39.8421 22.423C39.7686 22.2409 39.6614 22.0784 39.5212 21.9401L39.1705 22.2955L39.5212 21.9401C39.3828 21.8035 39.2218 21.6973 39.0429 21.6205C38.8539 21.5394 38.6542 21.5 38.4485 21.5C38.2429 21.5 38.0432 21.5394 37.8542 21.6205C37.6753 21.6973 37.5143 21.8035 37.3758 21.9401L37.3705 21.9454L37.3652 21.9509C37.2361 22.0864 37.1345 22.2425 37.0587 22.4144ZM46.1287 22.4144L46.1249 22.423L46.1215 22.4317C46.0484 22.616 46.0133 22.8095 46.0133 23.008C46.0133 23.2093 46.0475 23.4058 46.1215 23.5923L46.1264 23.6049L46.1321 23.6172C46.2085 23.783 46.3095 23.9333 46.4352 24.0651L46.4404 24.0706L46.4458 24.0759C46.5859 24.2142 46.7499 24.3193 46.9326 24.3911C47.1191 24.4698 47.316 24.508 47.5185 24.508C47.721 24.508 47.9179 24.4698 48.1044 24.3911C48.2872 24.3193 48.4511 24.2142 48.5912 24.0759C48.7285 23.9404 48.836 23.7824 48.9106 23.6045C48.9931 23.4152 49.0318 23.2144 49.0318 23.008C49.0318 22.8055 48.9926 22.6089 48.9121 22.423C48.8386 22.2409 48.7313 22.0784 48.5912 21.9401C48.4528 21.8035 48.2918 21.6973 48.1129 21.6205C47.9239 21.5394 47.7241 21.5 47.5185 21.5C47.3129 21.5 47.1132 21.5394 46.9241 21.6205C46.7453 21.6973 46.5842 21.8035 46.4458 21.9401L46.4404 21.9454L46.4352 21.9509C46.306 22.0864 46.2044 22.2424 46.1287 22.4144Z" fill="#192B3A" stroke="#192B3A"/>
</svg>
