<svg width="20" height="20" viewBox="0 0 20 20" fill="none" xmlns="http://www.w3.org/2000/svg">
<circle cx="10" cy="10" r="10" fill="#E40000"/>
<path d="M10.9967 4.44446V8.89335C10.9967 9.3652 10.9734 9.82927 10.9267 10.2856C10.88 10.7367 10.8178 11.2163 10.74 11.7245H9.44114C9.36336 11.2163 9.30114 10.7367 9.25447 10.2856C9.2078 9.82927 9.18447 9.3652 9.18447 8.89335V4.44446H10.9967ZM8.88892 14.6333C8.88892 14.4726 8.91743 14.3196 8.97447 14.1745C9.03669 14.0293 9.11966 13.9048 9.22336 13.8011C9.33225 13.6974 9.45929 13.6145 9.60447 13.5522C9.74966 13.49 9.90521 13.4589 10.0711 13.4589C10.2319 13.4589 10.3848 13.49 10.53 13.5522C10.6752 13.6145 10.7997 13.6974 10.9034 13.8011C11.0071 13.9048 11.09 14.0293 11.1522 14.1745C11.2145 14.3196 11.2456 14.4726 11.2456 14.6333C11.2456 14.7993 11.2145 14.9548 11.1522 15.1C11.09 15.24 11.0071 15.3619 10.9034 15.4656C10.7997 15.5693 10.6752 15.6496 10.53 15.7067C10.3848 15.7689 10.2319 15.8 10.0711 15.8C9.90521 15.8 9.74966 15.7689 9.60447 15.7067C9.45929 15.6496 9.33225 15.5693 9.22336 15.4656C9.11966 15.3619 9.03669 15.24 8.97447 15.1C8.91743 14.9548 8.88892 14.7993 8.88892 14.6333Z" fill="white"/>
</svg>
