<svg width="40" height="26" viewBox="0 0 40 26" fill="none" xmlns="http://www.w3.org/2000/svg">
<rect x="0.5" y="0.5" width="39" height="25" fill="white" stroke="#D9D9D9"/>
<path d="M23.4304 7.96191H16.5718V19.0364H23.4304V7.96191Z" fill="#C9C9C9"/>
<path d="M17.2779 13.5001C17.2771 12.4337 17.5216 11.3811 17.993 10.422C18.4644 9.46283 19.1503 8.62225 19.9988 7.96385C18.9479 7.14735 17.6858 6.63961 16.3568 6.49867C15.0278 6.35773 13.6854 6.58928 12.4832 7.16685C11.281 7.74442 10.2674 8.64471 9.55832 9.76482C8.8492 10.8849 8.47314 12.1797 8.47314 13.5011C8.47314 14.8225 8.8492 16.1172 9.55832 17.2373C10.2674 18.3574 11.281 19.2577 12.4832 19.8353C13.6854 20.4129 15.0278 20.6444 16.3568 20.5035C17.6858 20.3625 18.9479 19.8548 19.9988 19.0383C19.1501 18.3797 18.464 17.5388 17.9926 16.5793C17.5212 15.6198 17.2768 14.5668 17.2779 13.5001V13.5001Z" fill="#BBBBBB"/>
<path d="M30.845 17.8647V17.6378H30.944V17.5908H30.7085V17.6378H30.8015V17.8647H30.845ZM31.3021 17.8647V17.5908H31.2309L31.1478 17.7864L31.0647 17.5908H30.9934V17.8647H31.0449V17.6573L31.1221 17.8354H31.1755L31.2527 17.6573V17.8647H31.3021Z" fill="#EAEAEA"/>
<path d="M31.5258 13.4999C31.5257 14.8214 31.1496 16.1163 30.4404 17.2364C29.7311 18.3566 28.7174 19.2568 27.515 19.8343C26.3127 20.4118 24.9702 20.6432 23.6411 20.5021C22.312 20.3609 21.0499 19.8529 19.999 19.0362C20.8472 18.3772 21.5329 17.5364 22.0045 16.5772C22.476 15.618 22.721 14.5654 22.721 13.499C22.721 12.4325 22.476 11.3799 22.0045 10.4207C21.5329 9.46153 20.8472 8.62072 19.999 7.96174C21.0499 7.14498 22.312 6.63699 23.6411 6.49585C24.9702 6.35471 26.3127 6.58611 27.515 7.1636C28.7174 7.74108 29.7311 8.64136 30.4404 9.76151C31.1496 10.8817 31.5257 12.1765 31.5258 13.498V13.4999Z" fill="#EBEBEB"/>
</svg>
