<svg xmlns="http://www.w3.org/2000/svg" width="111" height="110" fill="none" viewBox="0 0 111 110">
    <path fill="#fff" d="M0 0H768V1024H0z" transform="translate(-332 -202)"/>
    <path fill="#CCF2FF" fill-rule="evenodd" d="M41.464 105.702c21.3 9.897 51.354-17.102 61.164-38.066 9.81-20.963-16.73-40.293-38.03-50.19C43.298 7.547 18.3 18.71 8.49 39.674c-9.81 20.963 11.675 56.13 32.975 66.027z" clip-rule="evenodd"/>
    <path stroke="#004F78" d="M81.18 62.046c2.163-.455 5.17-1.72 5.17-5.242 0-5.081-6.263-4.683-7.21-4.593m2.04 20.83c2.163-.456 5.17-1.721 5.17-5.243 0-3.52-3.007-4.787-5.17-5.242m.227 20.563c2.14-.412 4.943-1.493 4.943-4.326 0-3.522-3.007-4.787-5.17-5.242m-2.16 19.9s7.33 0 7.33-5.496c0-2.834-2.803-3.914-4.943-4.327M22.384 47.226h14.324c.828 0 1.5.672 1.5 1.5V97.865c0 .829-.672 1.5-1.5 1.5H22.384c-.828 0-1.5-.671-1.5-1.5v-49.14c0-.828.672-1.5 1.5-1.5z"/>
    <path fill="#004F78" d="M77.188 52.223v.5h.02l.02-.001-.04-.499zm-19.24 0l-.497-.055-.061.555h.558v-.5zm-11.91-1.832l.39.312-.39-.312zm31.15 32.983v.5-.5zM37.792 93.452v.5H75.356v-1H37.793l-.001.5zm39.396-41.729h-19.24v1h19.24v-1zm-19.24.5l.497.055v-.002-.005l.003-.019.008-.073.026-.278c.022-.241.05-.593.08-1.034.058-.882.115-2.124.115-3.568 0-2.882-.23-6.6-1.164-9.872l-.962.274c.898 3.142 1.126 6.753 1.126 9.598 0 1.418-.056 2.638-.113 3.503-.029.432-.057.775-.078 1.01l-.025.267-.007.068-.002.016v.005l.496.055zm-.435-14.796c-.928-3.246-2.33-6.078-3.894-7.762-.78-.84-1.643-1.44-2.55-1.611-.942-.178-1.849.123-2.636.91l.707.708c.586-.587 1.169-.744 1.744-.636.61.116 1.293.546 2.002 1.31 1.415 1.523 2.76 4.188 3.665 7.355l.962-.274zm-9.08-8.462c-.434.434-.698 1.035-.861 1.706-.164.675-.238 1.464-.262 2.32-.046 1.703.107 3.775.206 5.875.1 2.119.149 4.288-.093 6.26-.242 1.974-.77 3.694-1.776 4.952l.781.625c1.173-1.466 1.736-3.399 1.988-5.456.253-2.062.2-4.304.1-6.429-.102-2.143-.251-4.146-.206-5.8.023-.823.093-1.533.234-2.11.14-.58.343-.983.596-1.236l-.707-.707zm-2.786 21.113c-1.752 2.19-3.706 3.052-5.211 3.374-.756.162-1.403.189-1.856.175-.227-.006-.405-.023-.524-.037l-.132-.019-.03-.005h-.005v-.001l-.097.49-.098.491h.003l.005.001.014.003.048.008c.04.007.098.015.172.024.146.018.354.037.614.045.52.015 1.248-.016 2.095-.197 1.702-.365 3.87-1.336 5.783-3.727l-.78-.625zm29.709 43.874c3.268 0 5.46-.699 6.844-1.831 1.4-1.145 1.902-2.675 1.902-4.166h-1c0 1.257-.415 2.475-1.535 3.392-1.136.93-3.066 1.605-6.211 1.605v1zm8.746-5.997c0-1.276-.452-2.256-1.137-2.99-.675-.723-1.556-1.188-2.402-1.49-.848-.302-1.69-.452-2.314-.526-.313-.037-.575-.056-.76-.066l-.217-.008-.06-.001h-.021-.002v.5l-.001.5h.06l.19.008c.166.008.405.025.693.06.579.069 1.34.206 2.096.475.758.27 1.48.665 2.007 1.23.517.555.868 1.293.868 2.308h1zm-6.914-4.581v.5h.026l.06-.002c.053-.001.127-.004.22-.01.187-.011.451-.034.767-.08.63-.09 1.477-.27 2.33-.636.855-.366 1.736-.926 2.403-1.784.674-.866 1.108-2.006 1.108-3.485h-1c0 1.269-.368 2.19-.897 2.87-.535.688-1.258 1.159-2.007 1.48-.749.321-1.505.484-2.078.566-.286.04-.523.06-.687.07-.082.006-.145.008-.187.01h-.058v.5zm6.914-5.497c0-1.276-.452-2.256-1.137-2.99-.675-.723-1.556-1.188-2.402-1.49-.848-.303-1.69-.452-2.314-.526-.313-.038-.575-.056-.76-.066-.092-.005-.166-.007-.217-.008l-.06-.001h-.021-.002v.5l-.001.5h.06l.19.008c.166.008.405.025.693.06.579.069 1.34.205 2.096.475.758.27 1.48.665 2.007 1.23.517.555.868 1.293.868 2.308h1zm-6.914-4.581l.071.494h.007l.017-.003.06-.01c.05-.008.124-.021.216-.039.184-.036.446-.092.758-.174.623-.163 1.46-.431 2.302-.852 1.667-.834 3.483-2.34 3.483-4.914h-1c0 2.007-1.392 3.25-2.93 4.02-.762.38-1.529.627-2.108.78-.29.075-.529.126-.695.158l-.19.035-.049.008-.01.001h-.003l.071.496zm6.914-5.498c0-2.574-1.816-4.08-3.483-4.913-.842-.421-1.679-.69-2.302-.853-.312-.081-.573-.137-.758-.173l-.216-.04-.06-.01-.017-.002h-.005-.001l-.072.494-.07.495h.002l.01.002.048.008c.043.007.108.018.19.034.167.033.407.084.696.16.58.151 1.346.398 2.107.78 1.54.769 2.93 2.011 2.93 4.018h1zm-6.914-5.497l.032.5h.003l.005-.001.017-.002c.014 0 .034-.002.06-.005.052-.004.126-.012.218-.023.186-.022.45-.06.763-.121.627-.123 1.47-.343 2.318-.733 1.7-.783 3.498-2.296 3.498-5.112h-1c0 2.275-1.41 3.51-2.916 4.203-.755.348-1.516.548-2.092.66-.287.057-.525.09-.69.11-.082.01-.146.017-.188.02l-.047.004-.01.001h-.003l.032.5zm6.914-5.497c0-1.388-.442-2.432-1.13-3.198-.68-.755-1.572-1.207-2.426-1.478-.855-.271-1.702-.371-2.33-.404-.314-.017-.578-.017-.763-.013l-.22.008-.06.004-.017.001h-.005-.001l.038.5.04.498h.001l.01-.001.048-.003c.042-.002.106-.005.188-.007.165-.004.403-.004.689.011.575.03 1.332.122 2.08.36.75.237 1.462.613 1.984 1.193.513.57.874 1.372.874 2.53h1zm-6.914 26.07h-7.33v1h7.33v-1zm0-10.078h-7.33v1h7.33v-1zm0-10.995h-7.33v1h7.33v-1z"/>
    <path stroke="#EDA38D" stroke-linecap="round" d="M23.133 33.9h10.994M68.942 33.9h10.995M51.535 15.575V4.581M37.493 21.34l-7.947-7.597M63.147 21.34c.447-.506 4.66-5.276 6.712-7.597"/>
</svg>
