<svg width="86" height="44" viewBox="0 0 86 44" fill="none" xmlns="http://www.w3.org/2000/svg">
<path d="M4 0.5H82C83.933 0.5 85.5 2.067 85.5 4V43.5H0.5V4C0.5 2.067 2.067 0.5 4 0.5Z" fill="#CCF2FF" stroke="#004F78"/>
<rect x="59.5" y="16.5" width="22" height="16" rx="1.5" stroke="#eda38d"/>
<rect x="7" y="16" width="13" height="11" rx="2" fill="#1BA7DA"/>
<line x1="10.5" y1="16" x2="10.5" y2="27" stroke="#F5FEFF"/>
<line x1="16.5" y1="16" x2="16.5" y2="27" stroke="#F5FEFF"/>
<line x1="7" y1="19.5" x2="10" y2="19.5" stroke="#F5FEFF"/>
<line x1="11" y1="17.5" x2="17" y2="17.5" stroke="#F5FEFF"/>
<line x1="11" y1="25.5" x2="17" y2="25.5" stroke="#F5FEFF"/>
<line x1="7" y1="23.5" x2="10" y2="23.5" stroke="#F5FEFF"/>
<line x1="17" y1="19.5" x2="20" y2="19.5" stroke="#F5FEFF"/>
<line x1="17" y1="23.5" x2="20" y2="23.5" stroke="#F5FEFF"/>
<path d="M63.3834 26.5242H64.4614V23.1047C64.4614 23.002 64.4649 22.8982 64.4719 22.7932L63.5759 23.5597C63.5526 23.5784 63.5293 23.5924 63.5059 23.6017C63.4826 23.6087 63.4604 23.6122 63.4394 23.6122C63.4044 23.6122 63.3729 23.6052 63.3449 23.5912C63.3169 23.5749 63.2959 23.5562 63.2819 23.5352L63.0859 23.2657L64.5769 21.9742H65.0844V26.5242H66.0714V27.0002H63.3834V26.5242Z" fill="#192B3A"/>
<path d="M68.543 21.9287C68.7553 21.9287 68.9537 21.9602 69.138 22.0232C69.3223 22.0862 69.481 22.1784 69.614 22.2997C69.7493 22.4187 69.8555 22.5645 69.9325 22.7372C70.0095 22.9099 70.048 23.1059 70.048 23.3252C70.048 23.5119 70.02 23.6845 69.964 23.8432C69.908 24.0019 69.8322 24.1547 69.7365 24.3017C69.6408 24.4464 69.53 24.5875 69.404 24.7252C69.2803 24.8605 69.1485 24.9994 69.0085 25.1417L67.689 26.4927C67.7823 26.467 67.8768 26.4472 67.9725 26.4332C68.0682 26.4169 68.1603 26.4087 68.249 26.4087H69.929C69.9967 26.4087 70.0503 26.4285 70.09 26.4682C70.1297 26.5079 70.1495 26.5592 70.1495 26.6222V27.0002H66.8035V26.7867C66.8035 26.7424 66.8117 26.6969 66.828 26.6502C66.8467 26.6035 66.8758 26.5604 66.9155 26.5207L68.522 24.9072C68.655 24.7719 68.7763 24.6424 68.886 24.5187C68.9957 24.3927 69.089 24.2667 69.166 24.1407C69.2453 24.0147 69.306 23.8875 69.348 23.7592C69.39 23.6285 69.411 23.4897 69.411 23.3427C69.411 23.1957 69.3877 23.0674 69.341 22.9577C69.2943 22.8457 69.2302 22.7535 69.1485 22.6812C69.0668 22.6089 68.9712 22.5552 68.8615 22.5202C68.7518 22.4829 68.634 22.4642 68.508 22.4642C68.382 22.4642 68.2653 22.4829 68.158 22.5202C68.0507 22.5575 67.955 22.61 67.871 22.6777C67.7893 22.743 67.7193 22.8212 67.661 22.9122C67.605 23.0032 67.5653 23.1035 67.542 23.2132C67.5233 23.2809 67.4953 23.3299 67.458 23.3602C67.4207 23.3905 67.3717 23.4057 67.311 23.4057C67.2993 23.4057 67.2865 23.4057 67.2725 23.4057C67.2608 23.4034 67.2468 23.401 67.2305 23.3987L66.905 23.3427C66.9377 23.114 67.0007 22.9122 67.094 22.7372C67.1873 22.5599 67.3052 22.4117 67.4475 22.2927C67.5922 22.1737 67.7567 22.0839 67.941 22.0232C68.1277 21.9602 68.3283 21.9287 68.543 21.9287Z" fill="#192B3A"/>
<path d="M72.67 21.9287C72.8824 21.9287 73.0784 21.959 73.258 22.0197C73.4377 22.0804 73.5917 22.1667 73.72 22.2787C73.8507 22.3907 73.9522 22.526 74.0245 22.6847C74.0969 22.8434 74.133 23.0195 74.133 23.2132C74.133 23.3719 74.112 23.5142 74.07 23.6402C74.0304 23.7639 73.972 23.8735 73.895 23.9692C73.8204 24.0625 73.7294 24.1419 73.622 24.2072C73.5147 24.2725 73.3945 24.325 73.2615 24.3647C73.5882 24.451 73.8332 24.5957 73.9965 24.7987C74.1622 25.0017 74.245 25.256 74.245 25.5617C74.245 25.7927 74.2007 26.0004 74.112 26.1847C74.0257 26.369 73.9067 26.5265 73.755 26.6572C73.6034 26.7855 73.426 26.8847 73.223 26.9547C73.0224 27.0224 72.8065 27.0562 72.5755 27.0562C72.3095 27.0562 72.082 27.0235 71.893 26.9582C71.704 26.8905 71.5442 26.7984 71.4135 26.6817C71.2829 26.565 71.1755 26.4274 71.0915 26.2687C71.0075 26.1077 70.9364 25.9339 70.878 25.7472L71.144 25.6352C71.193 25.6142 71.242 25.6037 71.291 25.6037C71.3377 25.6037 71.3785 25.6142 71.4135 25.6352C71.4509 25.6539 71.4789 25.6842 71.4975 25.7262C71.5022 25.7355 71.5069 25.746 71.5115 25.7577C71.5162 25.767 71.5209 25.7775 71.5255 25.7892C71.5582 25.8569 71.5979 25.9339 71.6445 26.0202C71.6912 26.1042 71.7542 26.1835 71.8335 26.2582C71.9129 26.3329 72.0109 26.3959 72.1275 26.4472C72.2465 26.4985 72.3935 26.5242 72.5685 26.5242C72.7435 26.5242 72.8964 26.4962 73.027 26.4402C73.16 26.3819 73.2697 26.3072 73.356 26.2162C73.4447 26.1252 73.5112 26.0237 73.5555 25.9117C73.5999 25.7997 73.622 25.6889 73.622 25.5792C73.622 25.4439 73.6034 25.3202 73.566 25.2082C73.531 25.0962 73.4657 24.9994 73.37 24.9177C73.2767 24.836 73.146 24.7719 72.978 24.7252C72.8124 24.6785 72.5989 24.6552 72.3375 24.6552V24.2037C72.5499 24.2014 72.7307 24.178 72.88 24.1337C73.0317 24.0894 73.1554 24.0287 73.251 23.9517C73.3467 23.8747 73.4155 23.7825 73.4575 23.6752C73.5019 23.5679 73.524 23.4489 73.524 23.3182C73.524 23.1735 73.5007 23.0475 73.454 22.9402C73.4097 22.8329 73.3479 22.7442 73.2685 22.6742C73.1892 22.6042 73.0947 22.5517 72.985 22.5167C72.8777 22.4817 72.761 22.4642 72.635 22.4642C72.509 22.4642 72.3924 22.4829 72.285 22.5202C72.1777 22.5575 72.082 22.61 71.998 22.6777C71.9164 22.743 71.8475 22.8224 71.7915 22.9157C71.7355 23.0067 71.6935 23.1059 71.6655 23.2132C71.6469 23.2809 71.6189 23.3299 71.5815 23.3602C71.5442 23.3905 71.4964 23.4057 71.438 23.4057C71.4264 23.4057 71.4135 23.4057 71.3995 23.4057C71.3879 23.4034 71.3739 23.401 71.3575 23.3987L71.032 23.3427C71.0647 23.114 71.1277 22.9122 71.221 22.7372C71.3144 22.5599 71.4322 22.4117 71.5745 22.2927C71.7192 22.1737 71.8837 22.0839 72.068 22.0232C72.2547 21.9602 72.4554 21.9287 72.67 21.9287Z" fill="#192B3A"/>
<path d="M77.7211 25.1907H78.4806V25.5477C78.4806 25.585 78.4689 25.6165 78.4456 25.6422C78.4246 25.6679 78.3907 25.6807 78.3441 25.6807H77.7211V27.0002H77.1716V25.6807H74.9491C74.9024 25.6807 74.8616 25.6679 74.8266 25.6422C74.7939 25.6142 74.7729 25.5804 74.7636 25.5407L74.7006 25.2222L77.1401 21.9847H77.7211V25.1907ZM77.1716 23.1222C77.1716 23.0615 77.1727 22.9962 77.1751 22.9262C77.1797 22.8562 77.1879 22.7839 77.1996 22.7092L75.3761 25.1907H77.1716V23.1222Z" fill="#192B3A"/>
<path d="M8.792 35C9.00433 35 9.20033 35.0303 9.38 35.091C9.55967 35.1517 9.71367 35.238 9.842 35.35C9.97267 35.462 10.0742 35.5973 10.1465 35.756C10.2188 35.9147 10.255 36.0908 10.255 36.2845C10.255 36.4432 10.234 36.5855 10.192 36.7115C10.1523 36.8352 10.094 36.9448 10.017 37.0405C9.94233 37.1338 9.85133 37.2132 9.744 37.2785C9.63667 37.3438 9.5165 37.3963 9.3835 37.436C9.71017 37.5223 9.95517 37.667 10.1185 37.87C10.2842 38.073 10.367 38.3273 10.367 38.633C10.367 38.864 10.3227 39.0717 10.234 39.256C10.1477 39.4403 10.0287 39.5978 9.877 39.7285C9.72533 39.8568 9.548 39.956 9.345 40.026C9.14433 40.0937 8.9285 40.1275 8.6975 40.1275C8.4315 40.1275 8.204 40.0948 8.015 40.0295C7.826 39.9618 7.66617 39.8697 7.5355 39.753C7.40483 39.6363 7.2975 39.4987 7.2135 39.34C7.1295 39.179 7.05833 39.0052 7 38.8185L7.266 38.7065C7.315 38.6855 7.364 38.675 7.413 38.675C7.45967 38.675 7.5005 38.6855 7.5355 38.7065C7.57283 38.7252 7.60083 38.7555 7.6195 38.7975C7.62417 38.8068 7.62883 38.8173 7.6335 38.829C7.63817 38.8383 7.64283 38.8488 7.6475 38.8605C7.68017 38.9282 7.71983 39.0052 7.7665 39.0915C7.81317 39.1755 7.87617 39.2548 7.9555 39.3295C8.03483 39.4042 8.13283 39.4672 8.2495 39.5185C8.3685 39.5698 8.5155 39.5955 8.6905 39.5955C8.8655 39.5955 9.01833 39.5675 9.149 39.5115C9.282 39.4532 9.39167 39.3785 9.478 39.2875C9.56667 39.1965 9.63317 39.095 9.6775 38.983C9.72183 38.871 9.744 38.7602 9.744 38.6505C9.744 38.5152 9.72533 38.3915 9.688 38.2795C9.653 38.1675 9.58767 38.0707 9.492 37.989C9.39867 37.9073 9.268 37.8432 9.1 37.7965C8.93433 37.7498 8.72083 37.7265 8.4595 37.7265V37.275C8.67183 37.2727 8.85267 37.2493 9.002 37.205C9.15367 37.1607 9.27733 37.1 9.373 37.023C9.46867 36.946 9.5375 36.8538 9.5795 36.7465C9.62383 36.6392 9.646 36.5202 9.646 36.3895C9.646 36.2448 9.62267 36.1188 9.576 36.0115C9.53167 35.9042 9.46983 35.8155 9.3905 35.7455C9.31117 35.6755 9.21667 35.623 9.107 35.588C8.99967 35.553 8.883 35.5355 8.757 35.5355C8.631 35.5355 8.51433 35.5542 8.407 35.5915C8.29967 35.6288 8.204 35.6813 8.12 35.749C8.03833 35.8143 7.9695 35.8937 7.9135 35.987C7.8575 36.078 7.8155 36.1772 7.7875 36.2845C7.76883 36.3522 7.74083 36.4012 7.7035 36.4315C7.66617 36.4618 7.61833 36.477 7.56 36.477C7.54833 36.477 7.5355 36.477 7.5215 36.477C7.50983 36.4747 7.49583 36.4723 7.4795 36.47L7.154 36.414C7.18667 36.1853 7.24967 35.9835 7.343 35.8085C7.43633 35.6312 7.55417 35.483 7.6965 35.364C7.84117 35.245 8.00567 35.1552 8.19 35.0945C8.37667 35.0315 8.57733 35 8.792 35Z" fill="#192B3A"/>
<path d="M14.4765 35.056V35.336C14.4765 35.4153 14.4672 35.4807 14.4485 35.532C14.4322 35.5833 14.4147 35.6265 14.396 35.6615L12.3205 39.851C12.2902 39.9117 12.2482 39.9642 12.1945 40.0085C12.1409 40.0505 12.0685 40.0715 11.9775 40.0715H11.533L13.64 35.9345C13.6704 35.8762 13.7007 35.8225 13.731 35.7735C13.7637 35.7245 13.7999 35.6778 13.8395 35.6335H11.2215C11.1819 35.6335 11.1457 35.6183 11.113 35.588C11.0827 35.5553 11.0675 35.5192 11.0675 35.4795V35.056H14.4765Z" fill="#192B3A"/>
<path d="M15.7476 39.5955H16.8256V36.176C16.8256 36.0733 16.8291 35.9695 16.8361 35.8645L15.9401 36.631C15.9168 36.6497 15.8934 36.6637 15.8701 36.673C15.8468 36.68 15.8246 36.6835 15.8036 36.6835C15.7686 36.6835 15.7371 36.6765 15.7091 36.6625C15.6811 36.6462 15.6601 36.6275 15.6461 36.6065L15.4501 36.337L16.9411 35.0455H17.4486V39.5955H18.4356V40.0715H15.7476V39.5955Z" fill="#192B3A"/>
<path d="M20.9071 35C21.1195 35 21.3178 35.0315 21.5021 35.0945C21.6865 35.1575 21.8451 35.2497 21.9781 35.371C22.1135 35.49 22.2196 35.6358 22.2966 35.8085C22.3736 35.9812 22.4121 36.1772 22.4121 36.3965C22.4121 36.5832 22.3841 36.7558 22.3281 36.9145C22.2721 37.0732 22.1963 37.226 22.1006 37.373C22.005 37.5177 21.8941 37.6588 21.7681 37.7965C21.6445 37.9318 21.5126 38.0707 21.3726 38.213L20.0531 39.564C20.1465 39.5383 20.241 39.5185 20.3366 39.5045C20.4323 39.4882 20.5245 39.48 20.6131 39.48H22.2931C22.3608 39.48 22.4145 39.4998 22.4541 39.5395C22.4938 39.5792 22.5136 39.6305 22.5136 39.6935V40.0715H19.1676V39.858C19.1676 39.8137 19.1758 39.7682 19.1921 39.7215C19.2108 39.6748 19.24 39.6317 19.2796 39.592L20.8861 37.9785C21.0191 37.8432 21.1405 37.7137 21.2501 37.59C21.3598 37.464 21.4531 37.338 21.5301 37.212C21.6095 37.086 21.6701 36.9588 21.7121 36.8305C21.7541 36.6998 21.7751 36.561 21.7751 36.414C21.7751 36.267 21.7518 36.1387 21.7051 36.029C21.6585 35.917 21.5943 35.8248 21.5126 35.7525C21.431 35.6802 21.3353 35.6265 21.2256 35.5915C21.116 35.5542 20.9981 35.5355 20.8721 35.5355C20.7461 35.5355 20.6295 35.5542 20.5221 35.5915C20.4148 35.6288 20.3191 35.6813 20.2351 35.749C20.1535 35.8143 20.0835 35.8925 20.0251 35.9835C19.9691 36.0745 19.9295 36.1748 19.9061 36.2845C19.8875 36.3522 19.8595 36.4012 19.8221 36.4315C19.7848 36.4618 19.7358 36.477 19.6751 36.477C19.6635 36.477 19.6506 36.477 19.6366 36.477C19.625 36.4747 19.611 36.4723 19.5946 36.47L19.2691 36.414C19.3018 36.1853 19.3648 35.9835 19.4581 35.8085C19.5515 35.6312 19.6693 35.483 19.8116 35.364C19.9563 35.245 20.1208 35.1552 20.3051 35.0945C20.4918 35.0315 20.6925 35 20.9071 35Z" fill="#192B3A"/>
<path d="M30.792 35.0713C31.0043 35.0713 31.2003 35.1016 31.38 35.1623C31.5597 35.223 31.7137 35.3093 31.842 35.4213C31.9727 35.5333 32.0742 35.6686 32.1465 35.8273C32.2188 35.986 32.255 36.1621 32.255 36.3558C32.255 36.5145 32.234 36.6568 32.192 36.7828C32.1523 36.9065 32.094 37.0161 32.017 37.1118C31.9423 37.2051 31.8513 37.2845 31.744 37.3498C31.6367 37.4151 31.5165 37.4676 31.3835 37.5073C31.7102 37.5936 31.9552 37.7383 32.1185 37.9413C32.2842 38.1443 32.367 38.3986 32.367 38.7043C32.367 38.9353 32.3227 39.143 32.234 39.3273C32.1477 39.5116 32.0287 39.6691 31.877 39.7998C31.7253 39.9281 31.548 40.0273 31.345 40.0973C31.1443 40.165 30.9285 40.1988 30.6975 40.1988C30.4315 40.1988 30.204 40.1661 30.015 40.1008C29.826 40.0331 29.6662 39.941 29.5355 39.8243C29.4048 39.7076 29.2975 39.57 29.2135 39.4113C29.1295 39.2503 29.0583 39.0765 29 38.8898L29.266 38.7778C29.315 38.7568 29.364 38.7463 29.413 38.7463C29.4597 38.7463 29.5005 38.7568 29.5355 38.7778C29.5728 38.7965 29.6008 38.8268 29.6195 38.8688C29.6242 38.8781 29.6288 38.8886 29.6335 38.9003C29.6382 38.9096 29.6428 38.9201 29.6475 38.9318C29.6802 38.9995 29.7198 39.0765 29.7665 39.1628C29.8132 39.2468 29.8762 39.3261 29.9555 39.4008C30.0348 39.4755 30.1328 39.5385 30.2495 39.5898C30.3685 39.6411 30.5155 39.6668 30.6905 39.6668C30.8655 39.6668 31.0183 39.6388 31.149 39.5828C31.282 39.5245 31.3917 39.4498 31.478 39.3588C31.5667 39.2678 31.6332 39.1663 31.6775 39.0543C31.7218 38.9423 31.744 38.8315 31.744 38.7218C31.744 38.5865 31.7253 38.4628 31.688 38.3508C31.653 38.2388 31.5877 38.142 31.492 38.0603C31.3987 37.9786 31.268 37.9145 31.1 37.8678C30.9343 37.8211 30.7208 37.7978 30.4595 37.7978V37.3463C30.6718 37.344 30.8527 37.3206 31.002 37.2763C31.1537 37.232 31.2773 37.1713 31.373 37.0943C31.4687 37.0173 31.5375 36.9251 31.5795 36.8178C31.6238 36.7105 31.646 36.5915 31.646 36.4608C31.646 36.3161 31.6227 36.1901 31.576 36.0828C31.5317 35.9755 31.4698 35.8868 31.3905 35.8168C31.3112 35.7468 31.2167 35.6943 31.107 35.6593C30.9997 35.6243 30.883 35.6068 30.757 35.6068C30.631 35.6068 30.5143 35.6255 30.407 35.6628C30.2997 35.7001 30.204 35.7526 30.12 35.8203C30.0383 35.8856 29.9695 35.965 29.9135 36.0583C29.8575 36.1493 29.8155 36.2485 29.7875 36.3558C29.7688 36.4235 29.7408 36.4725 29.7035 36.5028C29.6662 36.5331 29.6183 36.5483 29.56 36.5483C29.5483 36.5483 29.5355 36.5483 29.5215 36.5483C29.5098 36.546 29.4958 36.5436 29.4795 36.5413L29.154 36.4853C29.1867 36.2566 29.2497 36.0548 29.343 35.8798C29.4363 35.7025 29.5542 35.5543 29.6965 35.4353C29.8412 35.3163 30.0057 35.2265 30.19 35.1658C30.3767 35.1028 30.5773 35.0713 30.792 35.0713Z" fill="#192B3A"/>
<path d="M35.843 38.3333H36.6025V38.6903C36.6025 38.7276 36.5909 38.7591 36.5675 38.7848C36.5465 38.8105 36.5127 38.8233 36.466 38.8233H35.843V40.1428H35.2935V38.8233H33.071C33.0244 38.8233 32.9835 38.8105 32.9485 38.7848C32.9159 38.7568 32.8949 38.723 32.8855 38.6833L32.8225 38.3648L35.262 35.1273H35.843V38.3333ZM35.2935 36.2648C35.2935 36.2041 35.2947 36.1388 35.297 36.0688C35.3017 35.9988 35.3099 35.9265 35.3215 35.8518L33.498 38.3333H35.2935V36.2648Z" fill="#192B3A"/>
<path d="M40.1661 35.4003C40.1661 35.489 40.1381 35.5625 40.0821 35.6208C40.0261 35.6768 39.9316 35.7048 39.7986 35.7048H38.2236L37.9926 37.0208C38.2539 36.9648 38.4954 36.9368 38.7171 36.9368C38.9784 36.9368 39.2083 36.9753 39.4066 37.0523C39.6073 37.1293 39.7753 37.2355 39.9106 37.3708C40.0459 37.5061 40.1474 37.666 40.2151 37.8503C40.2851 38.0346 40.3201 38.2353 40.3201 38.4523C40.3201 38.7183 40.2734 38.9586 40.1801 39.1733C40.0868 39.388 39.9584 39.5723 39.7951 39.7263C39.6341 39.878 39.4439 39.9946 39.2246 40.0763C39.0053 40.158 38.7684 40.1988 38.5141 40.1988C38.3671 40.1988 38.2259 40.1836 38.0906 40.1533C37.9553 40.1253 37.8293 40.0868 37.7126 40.0378C37.5959 39.9888 37.4874 39.9328 37.3871 39.8698C37.2868 39.8068 37.1981 39.7403 37.1211 39.6703L37.3101 39.4043C37.3521 39.3436 37.4081 39.3133 37.4781 39.3133C37.5224 39.3133 37.5738 39.332 37.6321 39.3693C37.6928 39.4043 37.7651 39.444 37.8491 39.4883C37.9331 39.5326 38.0311 39.5735 38.1431 39.6108C38.2574 39.6458 38.3928 39.6633 38.5491 39.6633C38.7241 39.6633 38.8816 39.6353 39.0216 39.5793C39.1616 39.5233 39.2806 39.444 39.3786 39.3413C39.4789 39.2363 39.5559 39.1115 39.6096 38.9668C39.6633 38.8221 39.6901 38.66 39.6901 38.4803C39.6901 38.324 39.6668 38.1828 39.6201 38.0568C39.5758 37.9308 39.5069 37.8235 39.4136 37.7348C39.3226 37.6461 39.2083 37.5773 39.0706 37.5283C38.9329 37.4793 38.7719 37.4548 38.5876 37.4548C38.4616 37.4548 38.3309 37.4653 38.1956 37.4863C38.0603 37.5073 37.9203 37.5411 37.7756 37.5878L37.3836 37.4723L37.7896 35.1273H40.1661V35.4003Z" fill="#192B3A"/>
<path d="M43.0786 37.0698C43.2793 37.0698 43.4695 37.1036 43.6491 37.1713C43.8288 37.2366 43.9863 37.3335 44.1216 37.4618C44.257 37.5878 44.3643 37.7441 44.4436 37.9308C44.523 38.1151 44.5626 38.3263 44.5626 38.5643C44.5626 38.7953 44.5206 39.01 44.4366 39.2083C44.3526 39.4066 44.2348 39.5793 44.0831 39.7263C43.9338 39.8733 43.753 39.9888 43.5406 40.0728C43.3283 40.1568 43.095 40.1988 42.8406 40.1988C42.5886 40.1988 42.36 40.1591 42.1546 40.0798C41.9516 39.9981 41.7778 39.8838 41.6331 39.7368C41.4885 39.5875 41.3765 39.4078 41.2971 39.1978C41.2201 38.9855 41.1816 38.7486 41.1816 38.4873C41.1816 38.268 41.2306 38.0346 41.3286 37.7873C41.4266 37.54 41.5818 37.274 41.7941 36.9893L43.0646 35.2778C43.0973 35.2358 43.1428 35.2008 43.2011 35.1728C43.2595 35.1425 43.326 35.1273 43.4006 35.1273H43.9536L42.2141 37.3288C42.3331 37.2471 42.465 37.1841 42.6096 37.1398C42.7543 37.0931 42.9106 37.0698 43.0786 37.0698ZM41.7836 38.5958C41.7836 38.7568 41.807 38.9038 41.8536 39.0368C41.9003 39.1698 41.968 39.2841 42.0566 39.3798C42.1476 39.4755 42.2573 39.5501 42.3856 39.6038C42.5163 39.6551 42.6645 39.6808 42.8301 39.6808C42.9981 39.6808 43.1498 39.654 43.2851 39.6003C43.4205 39.5466 43.536 39.472 43.6316 39.3763C43.7296 39.2806 43.8043 39.1675 43.8556 39.0368C43.9093 38.9061 43.9361 38.7638 43.9361 38.6098C43.9361 38.4465 43.9105 38.2995 43.8591 38.1688C43.8078 38.0358 43.7355 37.9238 43.6421 37.8328C43.5488 37.7395 43.4368 37.6683 43.3061 37.6193C43.1755 37.5703 43.032 37.5458 42.8756 37.5458C42.7076 37.5458 42.556 37.575 42.4206 37.6333C42.2853 37.6893 42.1698 37.7663 42.0741 37.8643C41.9808 37.96 41.9085 38.072 41.8571 38.2003C41.8081 38.3263 41.7836 38.4581 41.7836 38.5958Z" fill="#192B3A"/>
<path d="M48.6582 35.1273V35.4073C48.6582 35.4866 48.6489 35.552 48.6302 35.6033C48.6139 35.6546 48.5964 35.6978 48.5777 35.7328L46.5022 39.9223C46.4719 39.983 46.4299 40.0355 46.3762 40.0798C46.3225 40.1218 46.2502 40.1428 46.1592 40.1428H45.7147L47.8217 36.0058C47.852 35.9475 47.8824 35.8938 47.9127 35.8448C47.9454 35.7958 47.9815 35.7491 48.0212 35.7048H45.4032C45.3635 35.7048 45.3274 35.6896 45.2947 35.6593C45.2644 35.6266 45.2492 35.5905 45.2492 35.5508V35.1273H48.6582Z" fill="#192B3A"/>
<path d="M50.9512 40.1988C50.7016 40.1988 50.4729 40.1661 50.2652 40.1008C50.0576 40.0331 49.8791 39.9375 49.7297 39.8138C49.5804 39.6901 49.4649 39.5408 49.3832 39.3658C49.3016 39.1885 49.2607 38.9901 49.2607 38.7708C49.2607 38.4488 49.3447 38.184 49.5127 37.9763C49.6807 37.7663 49.9211 37.617 50.2337 37.5283C49.9701 37.4303 49.7706 37.2845 49.6352 37.0908C49.5022 36.8948 49.4357 36.6615 49.4357 36.3908C49.4357 36.2065 49.4719 36.0338 49.5442 35.8728C49.6166 35.7118 49.7192 35.5718 49.8522 35.4528C49.9852 35.3338 50.1439 35.2405 50.3282 35.1728C50.5149 35.1051 50.7226 35.0713 50.9512 35.0713C51.1776 35.0713 51.3841 35.1051 51.5707 35.1728C51.7574 35.2405 51.9172 35.3338 52.0502 35.4528C52.1832 35.5718 52.2859 35.7118 52.3582 35.8728C52.4306 36.0338 52.4667 36.2065 52.4667 36.3908C52.4667 36.6615 52.3991 36.8948 52.2637 37.0908C52.1284 37.2845 51.9301 37.4303 51.6687 37.5283C51.9814 37.617 52.2217 37.7663 52.3897 37.9763C52.5577 38.184 52.6417 38.4488 52.6417 38.7708C52.6417 38.9901 52.5997 39.1885 52.5157 39.3658C52.4341 39.5408 52.3186 39.6901 52.1692 39.8138C52.0222 39.9375 51.8449 40.0331 51.6372 40.1008C51.4296 40.1661 51.2009 40.1988 50.9512 40.1988ZM50.9512 39.7018C51.1146 39.7018 51.2604 39.6796 51.3887 39.6353C51.5194 39.5886 51.6291 39.5245 51.7177 39.4428C51.8087 39.3588 51.8776 39.2596 51.9242 39.1453C51.9732 39.0286 51.9977 38.9003 51.9977 38.7603C51.9977 38.5876 51.9686 38.4406 51.9102 38.3193C51.8542 38.1956 51.7772 38.0953 51.6792 38.0183C51.5836 37.9413 51.4727 37.8853 51.3467 37.8503C51.2207 37.813 51.0889 37.7943 50.9512 37.7943C50.8136 37.7943 50.6817 37.813 50.5557 37.8503C50.4297 37.8853 50.3177 37.9413 50.2197 38.0183C50.1241 38.0953 50.0471 38.1956 49.9887 38.3193C49.9327 38.4406 49.9047 38.5876 49.9047 38.7603C49.9047 38.9003 49.9281 39.0286 49.9747 39.1453C50.0237 39.2596 50.0926 39.3588 50.1812 39.4428C50.2722 39.5245 50.3819 39.5886 50.5102 39.6353C50.6409 39.6796 50.7879 39.7018 50.9512 39.7018ZM50.9512 37.2938C51.1146 37.2938 51.2534 37.2693 51.3677 37.2203C51.4844 37.169 51.5789 37.1025 51.6512 37.0208C51.7236 36.9368 51.7761 36.8411 51.8087 36.7338C51.8414 36.6265 51.8577 36.5156 51.8577 36.4013C51.8577 36.2846 51.8379 36.175 51.7982 36.0723C51.7609 35.9696 51.7037 35.8798 51.6267 35.8028C51.5521 35.7258 51.4576 35.6651 51.3432 35.6208C51.2312 35.5765 51.1006 35.5543 50.9512 35.5543C50.8019 35.5543 50.6701 35.5765 50.5557 35.6208C50.4437 35.6651 50.3492 35.7258 50.2722 35.8028C50.1976 35.8798 50.1404 35.9696 50.1007 36.0723C50.0634 36.175 50.0447 36.2846 50.0447 36.4013C50.0447 36.5156 50.0611 36.6265 50.0937 36.7338C50.1264 36.8411 50.1789 36.9368 50.2512 37.0208C50.3236 37.1025 50.4169 37.169 50.5312 37.2203C50.6479 37.2693 50.7879 37.2938 50.9512 37.2938Z" fill="#192B3A"/>
<path d="M60.4035 38.0848C60.2145 38.0848 60.0348 38.0533 59.8645 37.9903C59.6965 37.9273 59.5483 37.8351 59.42 37.7138C59.2917 37.5901 59.189 37.4396 59.112 37.2623C59.0373 37.0826 59 36.8773 59 36.6463C59 36.427 59.0408 36.2216 59.1225 36.0303C59.2042 35.839 59.3185 35.6721 59.4655 35.5298C59.6125 35.3875 59.7875 35.2755 59.9905 35.1938C60.1935 35.1121 60.4163 35.0713 60.659 35.0713C60.8993 35.0713 61.1175 35.111 61.3135 35.1903C61.5095 35.2696 61.6775 35.3805 61.8175 35.5228C61.9575 35.6651 62.0648 35.8355 62.1395 36.0338C62.2165 36.2321 62.255 36.4515 62.255 36.6918C62.255 36.8365 62.241 36.9741 62.213 37.1048C62.1873 37.2331 62.1488 37.3591 62.0975 37.4828C62.0462 37.6065 61.9843 37.7301 61.912 37.8538C61.842 37.9751 61.7615 38.1011 61.6705 38.2318L60.449 39.9958C60.4187 40.0401 60.3755 40.0763 60.3195 40.1043C60.2635 40.13 60.1993 40.1428 60.127 40.1428H59.553L61.079 38.1443C61.1303 38.0766 61.1782 38.0125 61.2225 37.9518C61.2668 37.8911 61.3088 37.8305 61.3485 37.7698C61.2202 37.8725 61.0755 37.9506 60.9145 38.0043C60.7535 38.058 60.5832 38.0848 60.4035 38.0848ZM61.6565 36.6183C61.6565 36.462 61.6308 36.3208 61.5795 36.1948C61.5305 36.0665 61.4617 35.958 61.373 35.8693C61.2843 35.7806 61.1782 35.713 61.0545 35.6663C60.9332 35.6173 60.799 35.5928 60.652 35.5928C60.498 35.5928 60.3568 35.6185 60.2285 35.6698C60.1025 35.7188 59.994 35.7876 59.903 35.8763C59.8143 35.965 59.7455 36.0711 59.6965 36.1948C59.6475 36.3185 59.623 36.4538 59.623 36.6008C59.623 36.7595 59.6452 36.9018 59.6895 37.0278C59.7362 37.1515 59.8015 37.2565 59.8855 37.3428C59.9718 37.4291 60.0757 37.4945 60.197 37.5388C60.3207 37.5831 60.4583 37.6053 60.61 37.6053C60.778 37.6053 60.9262 37.5785 61.0545 37.5248C61.1852 37.4688 61.2948 37.3953 61.3835 37.3043C61.4722 37.2133 61.5398 37.1083 61.5865 36.9893C61.6332 36.8703 61.6565 36.7466 61.6565 36.6183Z" fill="#192B3A"/>
<path d="M66.3925 37.6368C66.3925 38.0755 66.3447 38.4558 66.249 38.7778C66.1557 39.0975 66.0274 39.3623 65.864 39.5723C65.7007 39.7823 65.507 39.9386 65.283 40.0413C65.0614 40.144 64.8234 40.1953 64.569 40.1953C64.3124 40.1953 64.0732 40.144 63.8515 40.0413C63.6322 39.9386 63.4409 39.7823 63.2775 39.5723C63.1142 39.3623 62.9859 39.0975 62.8925 38.7778C62.7992 38.4558 62.7525 38.0755 62.7525 37.6368C62.7525 37.1981 62.7992 36.8178 62.8925 36.4958C62.9859 36.1738 63.1142 35.9078 63.2775 35.6978C63.4409 35.4855 63.6322 35.328 63.8515 35.2253C64.0732 35.1226 64.3124 35.0713 64.569 35.0713C64.8234 35.0713 65.0614 35.1226 65.283 35.2253C65.507 35.328 65.7007 35.4855 65.864 35.6978C66.0274 35.9078 66.1557 36.1738 66.249 36.4958C66.3447 36.8178 66.3925 37.1981 66.3925 37.6368ZM65.745 37.6368C65.745 37.2541 65.7124 36.9333 65.647 36.6743C65.584 36.413 65.4977 36.203 65.388 36.0443C65.2807 35.8856 65.1559 35.7725 65.0135 35.7048C64.8712 35.6348 64.723 35.5998 64.569 35.5998C64.415 35.5998 64.2669 35.6348 64.1245 35.7048C63.9822 35.7725 63.8574 35.8856 63.75 36.0443C63.6427 36.203 63.5564 36.413 63.491 36.6743C63.428 36.9333 63.3965 37.2541 63.3965 37.6368C63.3965 38.0195 63.428 38.3403 63.491 38.5993C63.5564 38.8583 63.6427 39.0671 63.75 39.2258C63.8574 39.3845 63.9822 39.4988 64.1245 39.5688C64.2669 39.6365 64.415 39.6703 64.569 39.6703C64.723 39.6703 64.8712 39.6365 65.0135 39.5688C65.1559 39.4988 65.2807 39.3845 65.388 39.2258C65.4977 39.0671 65.584 38.8583 65.647 38.5993C65.7124 38.3403 65.745 38.0195 65.745 37.6368Z" fill="#192B3A"/>
<path d="M70.4531 37.6368C70.4531 38.0755 70.4053 38.4558 70.3096 38.7778C70.2163 39.0975 70.0879 39.3623 69.9246 39.5723C69.7613 39.7823 69.5676 39.9386 69.3436 40.0413C69.1219 40.144 68.8839 40.1953 68.6296 40.1953C68.3729 40.1953 68.1338 40.144 67.9121 40.0413C67.6928 39.9386 67.5014 39.7823 67.3381 39.5723C67.1748 39.3623 67.0464 39.0975 66.9531 38.7778C66.8598 38.4558 66.8131 38.0755 66.8131 37.6368C66.8131 37.1981 66.8598 36.8178 66.9531 36.4958C67.0464 36.1738 67.1748 35.9078 67.3381 35.6978C67.5014 35.4855 67.6928 35.328 67.9121 35.2253C68.1338 35.1226 68.3729 35.0713 68.6296 35.0713C68.8839 35.0713 69.1219 35.1226 69.3436 35.2253C69.5676 35.328 69.7613 35.4855 69.9246 35.6978C70.0879 35.9078 70.2163 36.1738 70.3096 36.4958C70.4053 36.8178 70.4531 37.1981 70.4531 37.6368ZM69.8056 37.6368C69.8056 37.2541 69.7729 36.9333 69.7076 36.6743C69.6446 36.413 69.5583 36.203 69.4486 36.0443C69.3413 35.8856 69.2164 35.7725 69.0741 35.7048C68.9318 35.6348 68.7836 35.5998 68.6296 35.5998C68.4756 35.5998 68.3274 35.6348 68.1851 35.7048C68.0428 35.7725 67.9179 35.8856 67.8106 36.0443C67.7033 36.203 67.6169 36.413 67.5516 36.6743C67.4886 36.9333 67.4571 37.2541 67.4571 37.6368C67.4571 38.0195 67.4886 38.3403 67.5516 38.5993C67.6169 38.8583 67.7033 39.0671 67.8106 39.2258C67.9179 39.3845 68.0428 39.4988 68.1851 39.5688C68.3274 39.6365 68.4756 39.6703 68.6296 39.6703C68.7836 39.6703 68.9318 39.6365 69.0741 39.5688C69.2164 39.4988 69.3413 39.3845 69.4486 39.2258C69.5583 39.0671 69.6446 38.8583 69.7076 38.5993C69.7729 38.3403 69.8056 38.0195 69.8056 37.6368Z" fill="#192B3A"/>
<path d="M74.5136 37.6368C74.5136 38.0755 74.4658 38.4558 74.3701 38.7778C74.2768 39.0975 74.1485 39.3623 73.9851 39.5723C73.8218 39.7823 73.6281 39.9386 73.4041 40.0413C73.1825 40.144 72.9445 40.1953 72.6901 40.1953C72.4335 40.1953 72.1943 40.144 71.9726 40.0413C71.7533 39.9386 71.562 39.7823 71.3986 39.5723C71.2353 39.3623 71.107 39.0975 71.0136 38.7778C70.9203 38.4558 70.8736 38.0755 70.8736 37.6368C70.8736 37.1981 70.9203 36.8178 71.0136 36.4958C71.107 36.1738 71.2353 35.9078 71.3986 35.6978C71.562 35.4855 71.7533 35.328 71.9726 35.2253C72.1943 35.1226 72.4335 35.0713 72.6901 35.0713C72.9445 35.0713 73.1825 35.1226 73.4041 35.2253C73.6281 35.328 73.8218 35.4855 73.9851 35.6978C74.1485 35.9078 74.2768 36.1738 74.3701 36.4958C74.4658 36.8178 74.5136 37.1981 74.5136 37.6368ZM73.8661 37.6368C73.8661 37.2541 73.8335 36.9333 73.7681 36.6743C73.7051 36.413 73.6188 36.203 73.5091 36.0443C73.4018 35.8856 73.277 35.7725 73.1346 35.7048C72.9923 35.6348 72.8441 35.5998 72.6901 35.5998C72.5361 35.5998 72.388 35.6348 72.2456 35.7048C72.1033 35.7725 71.9785 35.8856 71.8711 36.0443C71.7638 36.203 71.6775 36.413 71.6121 36.6743C71.5491 36.9333 71.5176 37.2541 71.5176 37.6368C71.5176 38.0195 71.5491 38.3403 71.6121 38.5993C71.6775 38.8583 71.7638 39.0671 71.8711 39.2258C71.9785 39.3845 72.1033 39.4988 72.2456 39.5688C72.388 39.6365 72.5361 39.6703 72.6901 39.6703C72.8441 39.6703 72.9923 39.6365 73.1346 39.5688C73.277 39.4988 73.4018 39.3845 73.5091 39.2258C73.6188 39.0671 73.7051 38.8583 73.7681 38.5993C73.8335 38.3403 73.8661 38.0195 73.8661 37.6368Z" fill="#192B3A"/>
<path d="M78.5742 37.6368C78.5742 38.0755 78.5264 38.4558 78.4307 38.7778C78.3374 39.0975 78.209 39.3623 78.0457 39.5723C77.8824 39.7823 77.6887 39.9386 77.4647 40.0413C77.243 40.144 77.005 40.1953 76.7507 40.1953C76.494 40.1953 76.2549 40.144 76.0332 40.0413C75.8139 39.9386 75.6225 39.7823 75.4592 39.5723C75.2959 39.3623 75.1675 39.0975 75.0742 38.7778C74.9809 38.4558 74.9342 38.0755 74.9342 37.6368C74.9342 37.1981 74.9809 36.8178 75.0742 36.4958C75.1675 36.1738 75.2959 35.9078 75.4592 35.6978C75.6225 35.4855 75.8139 35.328 76.0332 35.2253C76.2549 35.1226 76.494 35.0713 76.7507 35.0713C77.005 35.0713 77.243 35.1226 77.4647 35.2253C77.6887 35.328 77.8824 35.4855 78.0457 35.6978C78.209 35.9078 78.3374 36.1738 78.4307 36.4958C78.5264 36.8178 78.5742 37.1981 78.5742 37.6368ZM77.9267 37.6368C77.9267 37.2541 77.894 36.9333 77.8287 36.6743C77.7657 36.413 77.6794 36.203 77.5697 36.0443C77.4624 35.8856 77.3375 35.7725 77.1952 35.7048C77.0529 35.6348 76.9047 35.5998 76.7507 35.5998C76.5967 35.5998 76.4485 35.6348 76.3062 35.7048C76.1639 35.7725 76.039 35.8856 75.9317 36.0443C75.8244 36.203 75.738 36.413 75.6727 36.6743C75.6097 36.9333 75.5782 37.2541 75.5782 37.6368C75.5782 38.0195 75.6097 38.3403 75.6727 38.5993C75.738 38.8583 75.8244 39.0671 75.9317 39.2258C76.039 39.3845 76.1639 39.4988 76.3062 39.5688C76.4485 39.6365 76.5967 39.6703 76.7507 39.6703C76.9047 39.6703 77.0529 39.6365 77.1952 39.5688C77.3375 39.4988 77.4624 39.3845 77.5697 39.2258C77.6794 39.0671 77.7657 38.8583 77.8287 38.5993C77.894 38.3403 77.9267 38.0195 77.9267 37.6368Z" fill="#192B3A"/>
</svg>
