<svg width="86" height="44" viewBox="0 0 86 44" fill="none" xmlns="http://www.w3.org/2000/svg">
<path d="M0.5 4C0.5 2.067 2.067 0.5 4 0.5H82C83.933 0.5 85.5 2.067 85.5 4V43.5H0.5V4Z" fill="#CCF2FF" stroke="#004F78"/>
<rect y="8" width="86" height="8" fill="#004F78"/>
<rect x="4" y="21" width="51" height="14" fill="white"/>
<rect x="60" y="21" width="21" height="14" fill="white"/>
<rect x="57.5" y="18.5" width="26" height="19" rx="1.5" stroke="#eda38d"/>
<path d="M64.3732 30.3775H65.7257V26.3761C65.7257 26.256 65.7301 26.1345 65.7389 26.0116L64.6147 26.9085C64.5855 26.9304 64.5562 26.9468 64.5269 26.9577C64.4977 26.9659 64.4698 26.97 64.4435 26.97C64.3996 26.97 64.3601 26.9618 64.3249 26.9454C64.2898 26.9263 64.2635 26.9044 64.2459 26.8799L64 26.5645L65.8706 25.0532H66.5073V30.3775H67.7456V30.9345H64.3732V30.3775Z" fill="#192B3A"/>
<path d="M70.8463 25C71.1127 25 71.3615 25.0369 71.5928 25.1106C71.8241 25.1843 72.0231 25.2922 72.19 25.4341C72.3598 25.5734 72.493 25.744 72.5896 25.9461C72.6862 26.1481 72.7345 26.3775 72.7345 26.6341C72.7345 26.8526 72.6993 27.0546 72.6291 27.2403C72.5588 27.4259 72.4637 27.6048 72.3437 27.7768C72.2236 27.9461 72.0846 28.1113 71.9265 28.2724C71.7714 28.4307 71.606 28.5932 71.4303 28.7597L69.7749 30.3406C69.892 30.3106 70.0106 30.2874 70.1306 30.271C70.2506 30.2519 70.3662 30.2423 70.4775 30.2423H72.5852C72.6701 30.2423 72.7374 30.2655 72.7872 30.3119C72.8369 30.3584 72.8618 30.4184 72.8618 30.4921V30.9345H68.664V30.6846C68.664 30.6328 68.6742 30.5795 68.6947 30.5249C68.7181 30.4703 68.7547 30.4198 68.8045 30.3734L70.82 28.4853C70.9868 28.327 71.1391 28.1754 71.2766 28.0307C71.4142 27.8833 71.5313 27.7358 71.6279 27.5884C71.7274 27.441 71.8036 27.2922 71.8563 27.142C71.9089 26.9891 71.9353 26.8266 71.9353 26.6546C71.9353 26.4826 71.906 26.3324 71.8475 26.2041C71.7889 26.073 71.7084 25.9652 71.606 25.8805C71.5035 25.7959 71.3835 25.7331 71.2459 25.6922C71.1083 25.6485 70.9605 25.6266 70.8024 25.6266C70.6443 25.6266 70.498 25.6485 70.3633 25.6922C70.2286 25.7358 70.1086 25.7973 70.0032 25.8765C69.9008 25.9529 69.813 26.0444 69.7398 26.1509C69.6695 26.2573 69.6198 26.3747 69.5905 26.5031C69.5671 26.5823 69.5319 26.6396 69.4851 26.6751C69.4383 26.7106 69.3768 26.7283 69.3007 26.7283C69.286 26.7283 69.2699 26.7283 69.2524 26.7283C69.2377 26.7256 69.2202 26.7229 69.1997 26.7201L68.7913 26.6546C68.8323 26.387 68.9113 26.1509 69.0284 25.9461C69.1455 25.7386 69.2934 25.5652 69.4719 25.4259C69.6534 25.2867 69.8598 25.1816 70.0911 25.1106C70.3252 25.0369 70.577 25 70.8463 25Z" fill="#192B3A"/>
<path d="M76.024 25C76.2904 25 76.5363 25.0355 76.7617 25.1065C76.9871 25.1775 77.1803 25.2785 77.3413 25.4096C77.5053 25.5406 77.6326 25.699 77.7234 25.8846C77.8141 26.0703 77.8595 26.2765 77.8595 26.5031C77.8595 26.6887 77.8331 26.8553 77.7804 27.0027C77.7307 27.1474 77.6575 27.2758 77.5609 27.3877C77.4672 27.4969 77.3531 27.5898 77.2184 27.6662C77.0837 27.7427 76.933 27.8041 76.7661 27.8505C77.1759 27.9515 77.4833 28.1208 77.6882 28.3584C77.8961 28.5959 78 28.8935 78 29.2512C78 29.5215 77.9444 29.7645 77.8331 29.9802C77.7248 30.1959 77.5755 30.3802 77.3853 30.5331C77.195 30.6833 76.9725 30.7993 76.7178 30.8812C76.4661 30.9604 76.1953 31 75.9055 31C75.5718 31 75.2863 30.9618 75.0492 30.8853C74.8121 30.8061 74.6116 30.6983 74.4477 30.5618C74.2837 30.4253 74.1491 30.2642 74.0437 30.0785C73.9383 29.8901 73.849 29.6867 73.7758 29.4683L74.1095 29.3372C74.171 29.3126 74.2325 29.3003 74.294 29.3003C74.3525 29.3003 74.4037 29.3126 74.4477 29.3372C74.4945 29.359 74.5296 29.3945 74.553 29.4437C74.5589 29.4546 74.5647 29.4669 74.5706 29.4805C74.5765 29.4915 74.5823 29.5038 74.5882 29.5174C74.6291 29.5966 74.6789 29.6867 74.7375 29.7877C74.796 29.886 74.875 29.9788 74.9746 30.0662C75.0741 30.1536 75.1971 30.2273 75.3434 30.2874C75.4927 30.3474 75.6771 30.3775 75.8967 30.3775C76.1162 30.3775 76.308 30.3447 76.4719 30.2792C76.6388 30.2109 76.7764 30.1235 76.8847 30.0171C76.9959 29.9106 77.0793 29.7918 77.135 29.6608C77.1906 29.5297 77.2184 29.4 77.2184 29.2717C77.2184 29.1133 77.195 28.9686 77.1481 28.8375C77.1042 28.7065 77.0223 28.5932 76.9022 28.4976C76.7851 28.402 76.6212 28.327 76.4104 28.2724C76.2026 28.2177 75.9347 28.1904 75.6069 28.1904V27.6621C75.8733 27.6594 76.1001 27.6321 76.2875 27.5802C76.4778 27.5283 76.6329 27.4573 76.7529 27.3672C76.873 27.2771 76.9593 27.1693 77.012 27.0437C77.0676 26.9181 77.0954 26.7788 77.0954 26.6259C77.0954 26.4567 77.0662 26.3092 77.0076 26.1836C76.952 26.058 76.8744 25.9543 76.7749 25.8724C76.6754 25.7904 76.5568 25.729 76.4192 25.6881C76.2846 25.6471 76.1382 25.6266 75.9801 25.6266C75.822 25.6266 75.6757 25.6485 75.541 25.6922C75.4064 25.7358 75.2863 25.7973 75.181 25.8765C75.0785 25.9529 74.9921 26.0457 74.9219 26.1549C74.8516 26.2614 74.7989 26.3775 74.7638 26.5031C74.7404 26.5823 74.7053 26.6396 74.6584 26.6751C74.6116 26.7106 74.5516 26.7283 74.4784 26.7283C74.4638 26.7283 74.4477 26.7283 74.4301 26.7283C74.4155 26.7256 74.3979 26.7229 74.3774 26.7201L73.969 26.6546C74.01 26.387 74.089 26.1509 74.2061 25.9461C74.3232 25.7386 74.4711 25.5652 74.6496 25.4259C74.8311 25.2867 75.0375 25.1816 75.2688 25.1106C75.503 25.0369 75.7547 25 76.024 25Z" fill="#192B3A"/>
</svg>
