<svg width="40" height="26" viewBox="0 0 40 26" fill="none" xmlns="http://www.w3.org/2000/svg">
<rect width="360" height="1017" transform="translate(-244 -492)" fill="white"/>
<rect x="1" y="1" width="38" height="24" fill="white" stroke="#D9D9D9" stroke-width="2"/>
<mask id="mask0" mask-type="alpha" maskUnits="userSpaceOnUse" x="1" y="1" width="38" height="24">
<rect x="1.5" y="1.5" width="37" height="23" fill="white" stroke="#D9D9D9"/>
</mask>
<g mask="url(#mask0)">
<rect x="1" width="38" height="24" fill="white" stroke="#016FD0" stroke-width="2"/>
</g>
<path d="M2 1H38V13.9559L36.2181 15.8121L38 17.464V25H2V12.7865V12V11.116V1Z" fill="#016FD0"/>
<path d="M8.97119 19.0861V13.4341H14.9407L15.5812 14.2711L16.2428 13.4341H37.9108V18.6963C37.9108 18.6963 37.3441 19.0804 36.6887 19.0861H24.6908L23.9687 18.1951V19.0861H21.6024V17.5652C21.6024 17.5652 21.2792 17.7775 20.5803 17.7775H19.7749V19.0861H16.1922L15.5526 18.2311L14.9033 19.0861H8.97119Z" fill="white"/>
<path d="M2 9.17351L3.34615 6.02734H5.67418L6.43814 7.7897V6.02734H9.3321L9.78688 7.30112L10.2278 6.02734H23.2186V6.66771C23.2186 6.66771 23.9016 6.02734 25.0239 6.02734L29.2389 6.04211L29.9897 7.7814V6.02734H32.4115L33.0781 7.02643V6.02734H35.5221V11.6793H33.0781L32.4393 10.677V11.6793H28.8811L28.5233 10.7884H27.5667L27.2147 11.6793H24.8017C23.836 11.6793 23.2186 11.052 23.2186 11.052V11.6793H19.5804L18.8583 10.7884V11.6793H5.3293L4.97172 10.7884H4.01821L3.66316 11.6793H2V9.17351Z" fill="white"/>
<path d="M3.8225 6.7251L2.00684 10.9571H3.18893L3.52394 10.1097H5.47153L5.80481 10.9571H7.01294L5.19901 6.7251H3.8225ZM4.49426 7.71002L5.08791 9.19088H3.89888L4.49426 7.71002V7.71002Z" fill="#016FD0"/>
<path d="M7.13867 10.9561V6.72412L8.81848 6.73038L9.79552 9.45891L10.7492 6.72412H12.4155V10.9561H11.3602V7.83781L10.2414 10.9561H9.31588L8.19404 7.83781V10.9561H7.13867Z" fill="#016FD0"/>
<path d="M13.1372 10.9561V6.72412H16.5811V7.67076H14.2037V8.39465H16.5255V9.28561H14.2037V10.0373H16.5811V10.9561H13.1372Z" fill="#016FD0"/>
<path d="M17.1919 6.7251V10.9571H18.2473V9.45363H18.6917L19.9571 10.9571H21.2468L19.8581 9.39795C20.4281 9.34974 21.016 8.85938 21.016 8.09807C21.016 7.20751 20.3187 6.7251 19.5405 6.7251H17.1919V6.7251ZM18.2473 7.67173H19.4537C19.7431 7.67173 19.9536 7.89867 19.9536 8.11721C19.9536 8.39836 19.6809 8.56269 19.4693 8.56269H18.2473V7.67173V7.67173Z" fill="#016FD0"/>
<path d="M22.5244 10.9561H21.4468V6.72412H22.5244V10.9561Z" fill="#016FD0"/>
<path d="M25.0794 10.9561H24.8468C23.7214 10.9561 23.0381 10.0673 23.0381 8.85753C23.0381 7.6179 23.7137 6.72412 25.135 6.72412H26.3014V7.72644H25.0923C24.5154 7.72644 24.1074 8.1778 24.1074 8.86797C24.1074 9.68755 24.5739 10.0318 25.2461 10.0318H25.5238L25.0794 10.9561Z" fill="#016FD0"/>
<path d="M27.3762 6.7251L25.5605 10.9571H26.7426L27.0777 10.1097H29.0252L29.3585 10.9571H30.5666L28.7527 6.7251H27.3762ZM28.048 7.71002L28.6416 9.19088H27.4526L28.048 7.71002Z" fill="#016FD0"/>
<path d="M30.689 10.9561V6.72412H32.0308L33.744 9.38306V6.72412H34.7994V10.9561H33.501L31.7443 8.2276V10.9561H30.689Z" fill="#016FD0"/>
<path d="M9.69336 18.3614V14.1294H13.1372V15.076H10.7598V15.7999H13.0817V16.6909H10.7598V17.4426H13.1372V18.3614H9.69336Z" fill="#016FD0"/>
<path d="M26.5684 18.3614V14.1294H30.0122V15.076H27.6348V15.7999H29.9456V16.6909H27.6348V17.4426H30.0122V18.3614H26.5684Z" fill="#016FD0"/>
<path d="M13.2709 18.3614L14.9477 16.2715L13.231 14.1294H14.5606L15.583 15.4536L16.6089 14.1294H17.8864L16.1923 16.2454L17.8721 18.3614H16.5427L15.55 17.058L14.5814 18.3614H13.2709Z" fill="#016FD0"/>
<path d="M17.9971 14.1309V18.3629H19.0802V17.0265H20.1911C21.1311 17.0265 21.8436 16.5265 21.8436 15.5543C21.8436 14.7489 21.2848 14.1309 20.3283 14.1309H17.9971V14.1309ZM19.0802 15.0879H20.2502C20.5538 15.0879 20.7709 15.2745 20.7709 15.5752C20.7709 15.8576 20.5549 16.0624 20.2467 16.0624H19.0802V15.0879Z" fill="#016FD0"/>
<path d="M22.3018 14.1294V18.3614H23.3571V16.8579H23.8015L25.0669 18.3614H26.3566L24.968 16.8023C25.5379 16.754 26.1258 16.2637 26.1258 15.5024C26.1258 14.6118 25.4285 14.1294 24.6503 14.1294H22.3018V14.1294ZM23.3571 15.076H24.5635C24.8529 15.076 25.0634 15.303 25.0634 15.5215C25.0634 15.8027 24.7907 15.967 24.5791 15.967H23.3571V15.076V15.076Z" fill="#016FD0"/>
<path d="M30.5007 18.3614V17.4426H32.6129C32.9254 17.4426 33.0607 17.2733 33.0607 17.0876C33.0607 16.9097 32.9258 16.7299 32.6129 16.7299H31.6584C30.8287 16.7299 30.3667 16.2231 30.3667 15.4623C30.3667 14.7838 30.7898 14.1294 32.0227 14.1294H34.0779L33.6335 15.0816H31.856C31.5163 15.0816 31.4117 15.2603 31.4117 15.431C31.4117 15.6065 31.5409 15.7999 31.8005 15.7999H32.8003C33.7252 15.7999 34.1265 16.3258 34.1265 17.0145C34.1265 17.755 33.6793 18.3614 32.75 18.3614H30.5007Z" fill="#016FD0"/>
<path d="M34.3742 18.3614V17.4426H36.4864C36.7989 17.4426 36.9342 17.2733 36.9342 17.0876C36.9342 16.9097 36.7993 16.7299 36.4864 16.7299H35.5319C34.7023 16.7299 34.2402 16.2231 34.2402 15.4623C34.2402 14.7838 34.6634 14.1294 35.8962 14.1294H37.9514L37.507 15.0816H35.7296C35.3898 15.0816 35.2852 15.2603 35.2852 15.431C35.2852 15.6065 35.4145 15.7999 35.674 15.7999H36.6739C37.5987 15.7999 38 16.3258 38 17.0145C38 17.755 37.5528 18.3614 36.6235 18.3614H34.3742Z" fill="#016FD0"/>
</svg>
