<svg width="40" height="26" viewBox="0 0 40 26" fill="none" xmlns="http://www.w3.org/2000/svg">
<rect x="0.5" y="0.5" width="39" height="25" fill="white" stroke="#D9D9D9"/>
<mask id="mask0" mask-type="alpha" maskUnits="userSpaceOnUse" x="1" y="1" width="38" height="25">
<rect x="1.5" y="2.41699" width="37" height="22.2222" fill="white" stroke="#D9D9D9"/>
</mask>
<g mask="url(#mask0)">
</g>
<path d="M39 15C39 15 28.7292 21.9364 10 25H39V15Z" fill="#CACACA"/>
<path d="M20.9423 7.05225C19.4223 7.05225 18.1455 8.26614 18.1455 9.7228C18.1455 11.3009 19.3615 12.5147 20.9423 12.5147C22.5231 12.5147 23.7391 11.3009 23.7391 9.7835C23.7391 8.20544 22.4623 7.05225 20.9423 7.05225Z" fill="url(#paint0_radial)"/>
<path d="M4.95188 7.11279H3.49268V12.3932H5.01268C5.80308 12.3932 6.41108 12.2111 6.89748 11.7863C7.50548 11.3007 7.87028 10.5117 7.87028 9.78335C7.80948 8.20529 6.65428 7.11279 4.95188 7.11279ZM6.16788 11.0579C5.86388 11.3614 5.43828 11.4828 4.76948 11.4828H4.52628V8.02321H4.83028C5.49908 8.02321 5.92468 8.1446 6.22868 8.44807C6.59348 8.75154 6.77588 9.2371 6.77588 9.78335C6.77588 10.2689 6.53268 10.7545 6.16788 11.0579Z" fill="#979797"/>
<path d="M9.3295 7.11279H8.2959V12.3932H9.3295V7.11279Z" fill="#979797"/>
<path d="M11.8223 9.11566C11.2143 8.87289 11.0319 8.7515 11.0319 8.44803C11.0319 8.14455 11.3359 7.84108 11.8223 7.84108C12.1263 7.84108 12.3695 7.96247 12.6735 8.26594L13.2207 7.53761C12.7951 7.17344 12.2479 6.93066 11.7007 6.93066C10.7887 6.93066 10.0591 7.5983 10.0591 8.44803C10.0591 9.17636 10.3631 9.54052 11.3359 9.90469C11.7615 10.0261 11.9439 10.1475 12.0655 10.2082C12.2479 10.3296 12.3695 10.5116 12.3695 10.7544C12.3695 11.1793 12.0047 11.4827 11.5791 11.4827C11.0927 11.4827 10.6671 11.24 10.4847 10.7544L9.81592 11.4221C10.3023 12.0897 10.8495 12.3932 11.6399 12.3932C12.7343 12.3932 13.4639 11.6648 13.4639 10.6937C13.3423 9.96539 12.9775 9.54053 11.8223 9.11566Z" fill="#979797"/>
<path d="M13.6465 9.72261C13.6465 11.24 14.8625 12.4539 16.4433 12.4539C16.8689 12.4539 17.2337 12.3932 17.7201 12.1504V10.9365C17.2945 11.3614 16.9297 11.4827 16.5041 11.4827C15.4705 11.4827 14.7409 10.7544 14.7409 9.66191C14.7409 8.63011 15.4705 7.84108 16.4433 7.84108C16.9297 7.84108 17.2945 8.02316 17.7201 8.44803V7.23414C17.2945 6.99136 16.8689 6.93066 16.4433 6.93066C14.9233 6.99136 13.6465 8.20525 13.6465 9.72261Z" fill="#979797"/>
<path d="M26.0497 10.6331L24.6513 7.11279H23.4961L25.7457 12.5146H26.2929L28.5425 7.11279H27.4481L26.0497 10.6331Z" fill="#979797"/>
<path d="M29.0288 12.3932H31.9472V11.4828H30.0624V10.0868H31.8864V9.1764H30.0624V8.02321H31.9472V7.11279H29.0288V12.3932Z" fill="#979797"/>
<path d="M36.0205 8.69085C36.0205 7.71974 35.3517 7.11279 34.1357 7.11279H32.6157V12.3932H33.6493V10.2689H33.7709L35.1693 12.3932H36.4461L34.8045 10.2082C35.5949 10.0261 36.0205 9.47988 36.0205 8.69085ZM33.9533 9.54057H33.6493V7.96252H33.9533C34.6221 7.96252 34.9261 8.20529 34.9261 8.75154C34.9261 9.2371 34.6221 9.54057 33.9533 9.54057Z" fill="#979797"/>
<path d="M36.7503 7.53789C36.7503 7.4165 36.6895 7.4165 36.5679 7.4165H36.4463V7.90206H36.5679V7.71998L36.6895 7.90206H36.8111L36.6287 7.71998C36.6895 7.59859 36.7503 7.59859 36.7503 7.53789ZM36.5679 7.59859V7.4772C36.6287 7.4772 36.6287 7.4772 36.6287 7.53789L36.5679 7.59859Z" fill="#444444"/>
<path d="M36.5682 7.17334C36.325 7.17334 36.1426 7.35542 36.1426 7.5982C36.1426 7.84098 36.325 8.02306 36.5682 8.02306C36.8114 8.02306 36.9938 7.84098 36.9938 7.5982C36.9938 7.35542 36.8114 7.17334 36.5682 7.17334ZM36.5682 7.96237C36.3858 7.96237 36.2642 7.84098 36.2642 7.6589C36.2642 7.47681 36.3858 7.35542 36.5682 7.35542C36.7506 7.35542 36.8722 7.47681 36.8722 7.6589C36.8722 7.78029 36.7506 7.96237 36.5682 7.96237Z" fill="#444444"/>
<path d="M12.6733 13.7285L14.0717 15.1852V13.8499H14.2541V15.6707L12.8557 14.2141V15.5494H12.6733V13.7285Z" fill="#444444"/>
<path d="M12.6733 13.7285V15.61H12.9165C12.9165 15.61 12.9165 14.3962 12.9165 14.2748C12.9773 14.3355 14.3149 15.7314 14.3149 15.7314V13.8499H14.0717C14.0717 13.8499 14.0717 15.1245 14.0717 15.1852C13.9501 15.0638 12.6733 13.7285 12.6733 13.7285ZM12.6733 13.7892C12.7341 13.8499 14.0717 15.2459 14.0717 15.2459C14.0717 15.2459 14.0717 13.9106 14.0717 13.8499C14.0717 13.8499 14.1933 13.8499 14.2541 13.8499C14.2541 13.9106 14.2541 15.5493 14.2541 15.61C14.1933 15.5493 12.8557 14.1534 12.8557 14.1534C12.8557 14.1534 12.8557 15.4887 12.8557 15.5494C12.8557 15.5494 12.7341 15.5494 12.6733 15.5494C12.6733 15.5494 12.6733 13.9106 12.6733 13.7892Z" fill="#444444"/>
<path d="M15.1665 13.8501H16.0785V14.0322H15.3489V14.5784H16.0177V14.7605H15.3489V15.4281H16.0785V15.6102H15.1665V13.8501Z" fill="#444444"/>
<path d="M16.0785 13.7896H15.1665V15.6104H16.1393V15.3676C16.1393 15.3676 15.4705 15.3676 15.4097 15.3676C15.4097 15.3069 15.4097 14.7607 15.4097 14.7C15.4705 14.7 16.0785 14.7 16.0785 14.7V14.4572H15.4097C15.4097 14.3965 15.4097 14.0323 15.4097 13.9716C15.4705 13.9716 16.1393 13.9716 16.1393 13.9716L16.0785 13.7896ZM16.0785 13.8502V13.9716C16.0177 13.9716 15.3489 13.9716 15.3489 13.9716V14.5179H16.0177V14.6393C15.9569 14.6393 15.3489 14.6393 15.3489 14.6393V15.4283C15.3489 15.4283 16.0177 15.4283 16.0785 15.4283V15.5497C16.0177 15.5497 15.2273 15.5497 15.2273 15.5497C15.2273 15.489 15.2273 13.8502 15.2273 13.8502C15.2273 13.8502 16.0785 13.8502 16.0785 13.8502Z" fill="#444444"/>
<path d="M17.4767 15.6102H17.2943V14.0322H16.8687V13.8501H17.9023V14.0322H17.4767V15.6102Z" fill="#444444"/>
<path d="M17.9025 13.7896H16.8081V14.0323C16.8081 14.0323 17.1729 14.0323 17.2337 14.0323C17.2337 14.093 17.2337 15.6104 17.2337 15.6104H17.4769C17.4769 15.6104 17.4769 14.093 17.4769 14.0323C17.5377 14.0323 17.9025 14.0323 17.9025 14.0323V13.7896ZM17.9025 13.8502V13.9716C17.8417 13.9716 17.4769 13.9716 17.4769 13.9716C17.4769 13.9716 17.4769 15.489 17.4769 15.5497C17.4769 15.5497 17.3553 15.5497 17.2945 15.5497C17.2945 15.489 17.2945 13.9716 17.2945 13.9716C17.2945 13.9716 16.9297 13.9716 16.8689 13.9716V13.8502C16.9297 13.8502 17.8417 13.8502 17.9025 13.8502Z" fill="#444444"/>
<path d="M19.2401 15.1245L19.7873 13.7285L20.3345 15.1245L20.8209 13.7892H21.0641L20.3953 15.61L19.8481 14.2141L19.2401 15.6707L18.5713 13.8499H18.7537L19.2401 15.1245Z" fill="#444444"/>
<path d="M19.7873 13.7286C19.7873 13.7286 19.2401 15.0032 19.2401 15.0638C19.2401 15.0032 18.8145 13.7893 18.8145 13.7893H18.5713L19.3009 15.7315C19.3009 15.7315 19.8481 14.3962 19.8481 14.3355C19.9089 14.3962 20.3953 15.7315 20.3953 15.7315L21.1249 13.7893H20.8817C20.8817 13.7893 20.4561 15.0032 20.4561 15.0638C20.3345 15.0032 19.7873 13.6679 19.7873 13.7286ZM19.2401 15.1852C19.2401 15.1852 19.7873 13.9107 19.7873 13.85C19.8481 13.9107 20.3345 15.2459 20.3345 15.2459L20.8209 13.9107C20.8209 13.9107 20.9425 13.9107 21.0033 13.9107C21.0033 13.9713 20.3953 15.6101 20.3345 15.6708C20.2737 15.6101 19.7873 14.2748 19.7873 14.2748C19.7873 14.2748 19.2401 15.5494 19.2401 15.6101C19.2401 15.5494 18.6321 13.85 18.5713 13.85C18.6321 13.85 18.7537 13.85 18.7537 13.85C18.7537 13.85 19.2401 15.1852 19.2401 15.1852Z" fill="#444444"/>
<path d="M23.5564 14.7C23.5564 15.1855 23.1308 15.6104 22.6444 15.6104C22.158 15.6104 21.7324 15.1855 21.7324 14.7C21.7324 14.2144 22.158 13.7896 22.6444 13.7896C23.1916 13.7896 23.5564 14.2144 23.5564 14.7ZM21.9148 14.7C21.9148 15.1248 22.2188 15.4283 22.6444 15.4283C23.07 15.4283 23.374 15.1248 23.374 14.7C23.374 14.2751 23.07 13.9716 22.6444 13.9716C22.2796 13.9716 21.9148 14.3358 21.9148 14.7Z" fill="#444444"/>
<path d="M21.7324 14.7C21.7324 15.1855 22.158 15.6104 22.6444 15.6104C23.1308 15.6104 23.5564 15.1855 23.5564 14.7C23.5564 14.2144 23.1308 13.7896 22.6444 13.7896C22.158 13.7896 21.7324 14.2144 21.7324 14.7ZM21.7932 14.7C21.7932 14.2144 22.2188 13.7896 22.7052 13.7896C23.1916 13.7896 23.6172 14.2144 23.6172 14.7C23.6172 15.1855 23.1916 15.6104 22.7052 15.6104C22.158 15.6104 21.7932 15.1855 21.7932 14.7Z" fill="#444444"/>
<path d="M21.915 14.6995C21.915 15.1244 22.219 15.4279 22.6446 15.4279C23.0702 15.4279 23.3742 15.1244 23.3742 14.6995C23.3742 14.2747 23.0702 13.9712 22.6446 13.9712C22.2798 13.9712 21.915 14.2747 21.915 14.6995ZM21.9758 14.6995C21.9758 14.3354 22.2798 13.9712 22.7054 13.9712C23.0702 13.9712 23.435 14.2747 23.435 14.6995C23.435 15.0637 23.131 15.4279 22.7054 15.4279C22.2798 15.4279 21.9758 15.1244 21.9758 14.6995Z" fill="#444444"/>
<path d="M24.6512 15.6102H24.4688V13.8501H24.7119C25.0159 13.8501 25.3807 13.9108 25.3807 14.3357C25.3807 14.5784 25.1983 14.8212 24.9551 14.8212L25.5023 15.6102H25.2591L24.6512 14.8212H24.5903V15.6102H24.6512ZM24.6512 14.6391C24.9551 14.6391 25.1375 14.5784 25.1375 14.3357C25.1375 14.0322 24.9551 14.0322 24.7119 14.0322H24.6512V14.6391V14.6391Z" fill="#444444"/>
<path d="M24.4077 13.7896V15.6104H24.6509C24.6509 15.6104 24.6509 14.8821 24.6509 14.8214L25.1981 15.6104H25.4413H25.5021C25.5021 15.6104 24.9549 14.8821 24.9549 14.8214C25.1981 14.7607 25.3805 14.5786 25.3805 14.3358C25.3805 13.9716 25.1373 13.8502 24.7117 13.8502H24.4077V13.7896ZM24.7117 13.8502C25.1373 13.8502 25.3197 13.9716 25.3197 14.3358C25.3197 14.5786 25.1373 14.7607 24.8941 14.8214H24.8333C24.8333 14.8214 25.3805 15.5497 25.3805 15.6104C25.3197 15.6104 25.1981 15.6104 25.1981 15.6104L24.6509 14.8214H24.5901C24.5901 14.8214 24.5901 15.5497 24.5901 15.6104C24.5901 15.6104 24.4685 15.6104 24.4077 15.6104C24.4077 15.5497 24.4077 13.9109 24.4077 13.9109C24.4685 13.8502 24.7117 13.8502 24.7117 13.8502Z" fill="#444444"/>
<path d="M24.6514 13.9712V14.6388H24.7122C24.9554 14.6388 25.1986 14.5781 25.1986 14.3354C25.1378 14.0319 24.8946 13.9712 24.6514 13.9712ZM24.7122 14.0319C24.9554 14.0319 25.1378 14.0319 25.1378 14.3354C25.1378 14.5781 24.8946 14.6388 24.7122 14.6388C24.7122 14.6388 24.7122 14.6388 24.6514 14.6388C24.6514 14.5781 24.6514 14.0926 24.7122 14.0319C24.7122 14.0319 24.6514 14.0319 24.7122 14.0319Z" fill="#444444"/>
<path d="M27.205 13.8501H27.4482L26.597 14.6391L27.4482 15.5495H27.205L26.5362 14.7605L26.4754 14.8212V15.6102H26.293V13.8501H26.4754V14.5784L27.205 13.8501Z" fill="#444444"/>
<path d="M27.509 13.7896H27.2658C27.2658 13.7896 26.597 14.4572 26.5362 14.5179C26.5362 14.4572 26.5362 13.7896 26.5362 13.7896H26.293V15.6104H26.5362V14.8214L27.2658 15.6104H27.5698H27.6306C27.6306 15.6104 26.7794 14.7 26.7794 14.6393C26.7186 14.6393 27.509 13.7896 27.509 13.7896ZM27.4482 13.8502C27.3874 13.9109 26.6578 14.6393 26.6578 14.6393C26.6578 14.6393 27.4482 15.489 27.509 15.5497C27.4482 15.5497 27.2658 15.5497 27.2658 15.5497L26.5362 14.7607L26.4754 14.8214V15.5497C26.4754 15.5497 26.3538 15.5497 26.293 15.5497C26.293 15.489 26.293 13.8502 26.293 13.8502C26.293 13.8502 26.4146 13.8502 26.4754 13.8502C26.4754 13.9109 26.4754 14.6393 26.4754 14.6393L27.2658 13.8502C27.2658 13.8502 27.3874 13.8502 27.4482 13.8502Z" fill="#444444"/>
<defs>
<radialGradient id="paint0_radial" cx="0" cy="0" r="1" gradientUnits="userSpaceOnUse" gradientTransform="translate(20.9087 9.75904) scale(2.77151 2.7667)">
<stop offset="0.005618" stop-color="#E6E6E6"/>
<stop offset="0.1096" stop-color="#D2D2D2"/>
<stop offset="0.2793" stop-color="#BDBDBD"/>
<stop offset="0.4935" stop-color="#A3A3A3"/>
<stop offset="0.744" stop-color="#919191"/>
<stop offset="1" stop-color="#8C8C8C"/>
</radialGradient>
</defs>
</svg>
