<svg width="40" height="26" viewBox="0 0 40 26" fill="none" xmlns="http://www.w3.org/2000/svg">
<rect x="0.5" y="0.5" width="39" height="25" fill="white" stroke="#D9D9D9"/>
<g clip-path="url(#clip0)">
<path d="M17.7332 18.8412H14.979L16.7017 8.19287H19.4558L17.7332 18.8412Z" fill="#00579F"/>
<path d="M27.718 8.45334C27.1748 8.23789 26.3131 8 25.2477 8C22.5278 8 20.6125 9.4499 20.6007 11.5228C20.5781 13.0522 21.972 13.9017 23.0146 14.4116C24.0801 14.9327 24.4424 15.2729 24.4424 15.7373C24.4315 16.4507 23.5813 16.7795 22.7883 16.7795C21.6887 16.7795 21.0995 16.61 20.2041 16.2131L19.8415 16.043L19.4561 18.4333C20.102 18.7275 21.2922 18.9886 22.5278 19C25.4177 19 27.2992 17.5725 27.3215 15.3635C27.3325 14.1513 26.5964 13.2225 25.0096 12.4635C24.0463 11.9763 23.4563 11.6478 23.4563 11.1493C23.4676 10.6961 23.9553 10.2319 25.0427 10.2319C25.9381 10.2092 26.596 10.4243 27.0944 10.6396L27.3435 10.7527L27.718 8.45334V8.45334Z" fill="#00579F"/>
<path d="M31.378 15.0689C31.6048 14.4571 32.4776 12.0895 32.4776 12.0895C32.4661 12.1123 32.7039 11.4665 32.8399 11.0701L33.0324 11.9876C33.0324 11.9876 33.554 14.5365 33.6673 15.0689C33.2368 15.0689 31.922 15.0689 31.378 15.0689ZM34.7777 8.19287H32.6473C31.9903 8.19287 31.4912 8.38529 31.2078 9.07636L27.1167 18.841H30.0066C30.0066 18.841 30.4824 17.5268 30.5847 17.2437C30.9017 17.2437 33.713 17.2437 34.1209 17.2437C34.2 17.6176 34.4495 18.841 34.4495 18.841H36.9997L34.7777 8.19287V8.19287Z" fill="#00579F"/>
<path d="M12.6784 8.19287L9.98108 15.454L9.68634 13.9813C9.18766 12.2821 7.62371 10.4359 5.87842 9.51796L8.34905 18.8299H11.2616L15.5908 8.19287H12.6784V8.19287Z" fill="#00579F"/>
<path d="M7.47663 8.19287H3.04533L3 8.40802C6.45669 9.29167 8.74599 11.4217 9.68656 13.9818L8.72325 9.08796C8.56465 8.40787 8.07727 8.2153 7.47663 8.19287Z" fill="#FAA61A"/>
</g>
<defs>
<clipPath id="clip0">
<rect width="34" height="11" fill="white" transform="translate(3 8)"/>
</clipPath>
</defs>
</svg>
