<svg width="32" height="32" viewBox="0 0 32 32" fill="none" xmlns="http://www.w3.org/2000/svg">
    <ellipse cx="16" cy="15.619" rx="16" ry="15.619" fill="#E6F9FF"/>
    <rect x="10.5" y="9.286" width="11" height="13.643" rx=".5" fill="#EDA38D" stroke="#004F78"/>
    <path d="m16.959 14.445-.077 1.002c.101.03.202.062.302.095.22.072.421.166.604.285.197.128.36.292.482.49.143.222.202.482.202.757 0 .266-.05.522-.154.762a1.837 1.837 0 0 1-.45.634 2.213 2.213 0 0 1-.694.43h-.002c-.177.07-.367.12-.567.15l-.025.328-.001.008v.007a.56.56 0 0 1-.18.348.561.561 0 0 1-.398.158.626.626 0 0 1-.625-.673l.015-.2a3.106 3.106 0 0 1-.653-.195l-.004-.001a3.067 3.067 0 0 1-.468-.255c-.384-.256-.394-.748-.169-1.058a.629.629 0 0 1 .497-.246c.16 0 .295.069.392.137l-.216.306.216-.306c.058.04.133.09.224.148.075.045.168.093.282.142l.094-1.196a9.42 9.42 0 0 1-.288-.093l-.006-.002a2.506 2.506 0 0 1-.583-.295l-.006-.004a1.62 1.62 0 0 1-.458-.506l-.004-.007a1.574 1.574 0 0 1-.178-.771c0-.233.05-.459.149-.673v-.003c.103-.218.248-.41.432-.573l.003-.002c.189-.165.413-.293.666-.388.168-.066.349-.11.54-.138l.016-.207v-.008l.001-.007a.583.583 0 0 1 .166-.342.565.565 0 0 1 .412-.168c.364 0 .652.312.623.675l-.009.108c.18.04.348.097.503.172.129.061.25.13.366.206m-.972.969.972-.969m-.972.969c.044.019.084.038.12.056l.008.004c.074.037.133.068.178.094l.009.005.009.005c.079.04.189.084.313.084a.608.608 0 0 0 .489-.26l.002-.003c.208-.282.188-.726-.156-.954m-.972.969.972-.969m-2.578 4.57.138-.333-.479.162c.096.058.21.115.34.17zm0 0 .138-.325-.029.364a1.299 1.299 0 0 1-.11-.04zm.392-3.616-.047.62a.799.799 0 0 1-.075-.053.375.375 0 0 1-.096-.11.274.274 0 0 1-.025-.129.3.3 0 0 1 .028-.128l.001-.003a.345.345 0 0 1 .089-.118.594.594 0 0 1 .125-.079zm1.027 2.434c.05.025.093.05.13.077l.218-.304-.219.304c.047.034.077.07.098.106l.004.007a.233.233 0 0 1 .025.122c0 .09-.016.163-.043.226l-.002.004a.431.431 0 0 1-.116.159l-.004.004a.683.683 0 0 1-.154.103l.063-.808z" fill="#E6F9FF" stroke="#004F78" stroke-width=".75"/>
    <path transform="rotate(-51.784 29.514 .629) skewX(.118)" stroke="#004F78" stroke-linecap="round" d="M.5-.5h16.395"/>
</svg>
