<svg width="55" height="54" viewBox="0 0 55 54" fill="none" xmlns="http://www.w3.org/2000/svg">
    <ellipse cx="27.5" cy="27" rx="27.5" ry="27" fill="#E6F9FF"/>
    <rect x="17.688" y="15.688" width="19.625" height="24.313" rx=".5" fill="#EDA38D" stroke="#004F78"/>
    <path d="M28.908 24.587c.047.014.091.03.133.046l.007.003c.167.063.31.126.43.189l.008.004c.132.065.239.122.323.17l.01.006.008.004c.12.061.265.117.417.117.274 0 .483-.149.625-.34l.003-.003c.278-.382.243-.963-.201-1.26a4.92 4.92 0 0 0-.595-.337 4 4 0 0 0-1.037-.324l.034-.431a.805.805 0 0 0-.803-.869.702.702 0 0 0-.515.209.738.738 0 0 0-.21.431v.015l-.046.582c-.392.038-.753.12-1.083.249-.41.155-.768.361-1.065.621l-.002.003a2.76 2.76 0 0 0-.676.902l-.001.002a2.512 2.512 0 0 0-.231 1.05c0 .45.083.857.272 1.2l.004.006c.181.314.419.578.71.79l.007.004c.283.197.597.356.94.48l.006.001c.23.079.462.152.696.22l-.205 2.628a2.077 2.077 0 0 1-.337-.105 4.195 4.195 0 0 1-.532-.269c-.16-.102-.293-.19-.398-.265a.913.913 0 0 0-.52-.188.81.81 0 0 0-.353.08l.16.334-.16-.333a.733.733 0 0 0-.284.233l.306.218-.304-.22c-.315.434-.29 1.1.22 1.442.236.158.491.297.764.417l.004.002c.405.174.84.293 1.305.36l-.045.597a.807.807 0 0 0 .805.867c.182 0 .36-.06.499-.198a.696.696 0 0 0 .226-.435v-.008l.001-.008.06-.787a4.309 4.309 0 0 0 1.13-.27l.001-.002c.43-.174.803-.402 1.11-.69.309-.286.547-.62.709-1.002.162-.38.241-.785.241-1.21 0-.438-.093-.833-.304-1.163a2.425 2.425 0 0 0-.747-.762 4.18 4.18 0 0 0-.975-.464 19.88 19.88 0 0 0-.722-.224l.177-2.315zm.544 4.746.004.008a.673.673 0 0 1 .082.35c0 .189-.034.354-.096.5l-.002.005a1.016 1.016 0 0 1-.27.373l-.004.004c-.12.11-.28.21-.484.292-.08.032-.168.06-.262.082l.167-2.187c.059.021.117.043.173.065.178.07.325.15.446.238.11.08.19.17.246.27zm-3.004-4.157.001-.003a.873.873 0 0 1 .222-.298c.105-.09.247-.174.434-.245.078-.03.163-.054.256-.076l-.14 1.883a4.586 4.586 0 0 1-.123-.053 1.875 1.875 0 0 1-.412-.245.918.918 0 0 1-.235-.276.745.745 0 0 1-.076-.35c0-.12.024-.23.073-.337z" fill="#E6F9FF" stroke="#004F78" stroke-width=".75"/>
    <path transform="matrix(.61643 -.7874 .78523 .6192 18.496 40.5)" stroke="#004F78" stroke-linecap="round" d="M.5-.5h29.004"/>
</svg>
