<svg width="20" height="20" viewBox="0 0 20 20" fill="none" xmlns="http://www.w3.org/2000/svg">
<circle cx="10" cy="10" r="10" fill="#E40000"/>
<path d="M10.4964 4.44434C10.7726 4.44434 10.9964 4.66819 10.9964 4.94434V8.89323C10.9964 9.36508 10.9731 9.82915 10.9264 10.2854C10.893 10.6088 10.8515 10.9469 10.8021 11.2996C10.7678 11.5441 10.5574 11.7243 10.3105 11.7243H9.87019C9.62326 11.7243 9.41285 11.5441 9.37857 11.2996C9.32913 10.9469 9.28768 10.6088 9.25423 10.2854C9.20756 9.82915 9.18423 9.36508 9.18423 8.89323V4.94434C9.18423 4.66819 9.40809 4.44434 9.68423 4.44434H10.4964ZM8.88867 14.6332C8.88867 14.4725 8.91719 14.3195 8.97423 14.1743C9.03645 14.0292 9.11941 13.9047 9.22312 13.801C9.33201 13.6973 9.45904 13.6143 9.60423 13.5521C9.74941 13.4899 9.90497 13.4588 10.0709 13.4588C10.2316 13.4588 10.3846 13.4899 10.5298 13.5521C10.675 13.6143 10.7994 13.6973 10.9031 13.801C11.0068 13.9047 11.0898 14.0292 11.152 14.1743C11.2142 14.3195 11.2453 14.4725 11.2453 14.6332C11.2453 14.7992 11.2142 14.9547 11.152 15.0999C11.0898 15.2399 11.0068 15.3617 10.9031 15.4654C10.7994 15.5692 10.675 15.6495 10.5298 15.7066C10.3846 15.7688 10.2316 15.7999 10.0709 15.7999C9.90497 15.7999 9.74941 15.7688 9.60423 15.7066C9.45904 15.6495 9.33201 15.5692 9.22312 15.4654C9.11941 15.3617 9.03645 15.2399 8.97423 15.0999C8.91719 14.9547 8.88867 14.7992 8.88867 14.6332Z" fill="white"/>
</svg>
