<svg width="73" height="16" viewBox="0 0 73 16" fill="none" xmlns="http://www.w3.org/2000/svg">
<path fill-rule="evenodd" clip-rule="evenodd" d="M0 11.9305V0.50037H4.3467C5.75475 0.50037 6.88739 0.854707 7.74402 1.56339C8.60064 2.27207 9.02899 3.20569 9.02899 4.36534C9.02899 5.57439 8.5793 6.54669 7.67993 7.28219C6.78 8.01774 5.5968 8.38601 4.13085 8.38601H1.68179V11.9305H0ZM1.68179 6.90908H4.29498C5.20895 6.90908 5.94924 6.67392 6.51528 6.20306C7.08189 5.73276 7.36461 5.1202 7.36461 4.36534C7.36461 3.65399 7.08356 3.08007 6.51974 2.64197C5.95598 2.20442 5.21458 1.98591 4.29498 1.98591H1.68123V6.90908H1.68179ZM11.3234 10.9953C10.4898 10.1964 10.0728 9.20369 10.0728 8.01664C10.0728 6.82959 10.491 5.84338 11.3274 5.05849C12.1644 4.27355 13.2087 3.88109 14.4622 3.88109C15.7044 3.88109 16.7443 4.27516 17.5841 5.06278C18.4233 5.85036 18.8432 6.83498 18.8432 8.01664C18.8432 9.19781 18.4233 10.1883 17.5841 10.9867C16.7449 11.7855 15.7044 12.1849 14.4622 12.1849C13.2087 12.1849 12.1627 11.7882 11.3234 10.9953ZM11.6944 8.01664C11.6944 8.78817 11.9558 9.44044 12.4791 9.97356C13.0019 10.5067 13.6634 10.7735 14.4622 10.7735C15.2497 10.7735 15.904 10.5067 16.4239 9.97356C16.9444 9.44044 17.2052 8.78817 17.2052 8.01664C17.2052 7.25645 16.9444 6.61221 16.4239 6.08392C15.904 5.55613 15.2497 5.29254 14.4622 5.29254C13.6634 5.29254 13.0019 5.55509 12.4791 6.08012C11.9558 6.60522 11.6939 7.2505 11.6939 8.01664H11.6944ZM21.0162 11.9305V0H22.6379V11.9305H21.0162ZM25.5698 1.85437C25.3686 1.66862 25.268 1.43561 25.268 1.15697C25.268 0.877793 25.3691 0.645863 25.5698 0.459565C25.7711 0.273808 26.0212 0.180389 26.3202 0.180389C26.6136 0.180389 26.8632 0.273808 27.0706 0.459565C27.2774 0.645863 27.3809 0.878333 27.3809 1.15751C27.3809 1.43615 27.2774 1.66862 27.0706 1.85437C26.8632 2.04067 26.6136 2.13355 26.3202 2.13355C26.0212 2.13355 25.7711 2.04067 25.5698 1.85437ZM25.5265 11.9305V4.08671H27.1397V11.9305H25.5265ZM29.4848 8.01664C29.4848 6.84087 29.8962 5.85735 30.718 5.06707C31.5404 4.27623 32.5752 3.88109 33.8231 3.88109C34.8405 3.88109 35.7174 4.15865 36.4531 4.71381C37.1895 5.26943 37.6318 5.98997 37.7814 6.87635H36.1254C36.0208 6.40966 35.7357 5.99788 35.3272 5.72313C34.9113 5.43589 34.4093 5.29254 33.8231 5.29254C33.0064 5.29254 32.3498 5.55343 31.8524 6.07639C31.3549 6.59824 31.1065 7.24517 31.1065 8.01664C31.1065 8.78222 31.3566 9.42542 31.8563 9.94458C32.3566 10.4643 33.0119 10.7241 33.8231 10.7241C34.4093 10.7241 34.9107 10.5818 35.3278 10.2978C35.7349 10.0273 36.0198 9.61976 36.1254 9.15699H37.7814C37.6318 10.0375 37.1889 10.7542 36.4531 11.3067C35.7168 11.8596 34.8399 12.1356 33.8225 12.1356C33.0007 12.1356 32.2576 11.9552 31.5938 11.5938C30.9427 11.2453 30.4053 10.7313 30.0413 10.1089C29.6703 9.47966 29.4848 8.78278 29.4848 8.01664ZM38.4103 4.07007H40.1607L43.4119 10.4697L46.4135 4.07007H48.1296L42.5412 16H40.8335L42.576 12.2671L38.4103 4.07007Z" fill="white"/>
<path fill-rule="evenodd" clip-rule="evenodd" d="M50.2422 11.9301V0.5H51.4754L56.21 7.91806L60.9445 0.5H62.2036V11.9301H60.5044V4.045L56.7619 9.89533H55.6838L51.9066 3.99561L51.9408 11.9301H50.2427H50.2422ZM64.6527 8.0163C64.6527 7.23944 64.8309 6.53771 65.1866 5.91174C65.5393 5.28932 66.0688 4.77458 66.714 4.42672C67.3747 4.06271 68.1282 3.88071 68.9733 3.88071C69.7379 3.88071 70.4259 4.05306 71.0389 4.39773C71.6483 4.74026 72.1457 5.23906 72.4735 5.83764C72.8187 6.45289 72.9944 7.15192 73 7.93411C73 8.22945 72.9889 8.45118 72.9654 8.59882L72.9307 8.5827V8.59882H66.2569C66.3775 9.2495 66.6788 9.78317 67.1582 10.1987C67.6383 10.6148 68.26 10.8225 69.0253 10.8225C69.5084 10.8225 69.9223 10.7367 70.2675 10.5638C70.6121 10.392 70.8707 10.1525 71.0433 9.84599H72.794C72.5583 10.5461 72.0937 11.1022 71.4014 11.5157C70.708 11.929 69.8994 12.1352 68.9733 12.1352C67.7032 12.1352 66.6658 11.7427 65.8603 10.9578C65.0555 10.1729 64.6534 9.19256 64.6534 8.01575L64.6527 8.0163ZM66.2563 7.4418H71.3619C71.2926 6.75785 71.0414 6.21504 70.6077 5.81294C70.1728 5.41079 69.6055 5.21001 68.9046 5.21001C68.179 5.21001 67.5863 5.41777 67.123 5.8339C66.6602 6.24942 66.3713 6.78525 66.2563 7.4418Z" fill="white"/>
</svg>
