<svg width="118" height="29" viewBox="0 0 118 29" fill="none" xmlns="http://www.w3.org/2000/svg">
<g clip-path="url(#clip0)">
<path fill-rule="evenodd" clip-rule="evenodd" d="M0 22.4669V3.81645H7.02627C9.30233 3.81645 11.1332 4.39462 12.5179 5.55097C13.9026 6.70732 14.595 8.23071 14.595 10.1229C14.595 12.0957 13.8681 13.6822 12.4143 14.8823C10.9596 16.0825 9.04701 16.6834 6.67736 16.6834H2.71856V22.4669H0ZM2.71856 14.2735H6.94267C8.42007 14.2735 9.61671 13.8898 10.5317 13.1215C11.4476 12.3541 11.9046 11.3546 11.9046 10.1229C11.9046 8.96219 11.4503 8.02573 10.5389 7.31089C9.62761 6.59694 8.42916 6.2404 6.94267 6.2404H2.71765V14.2735H2.71856ZM18.3039 20.9409C16.9564 19.6374 16.2823 18.0176 16.2823 16.0807C16.2823 14.1438 16.9583 12.5346 18.3103 11.2539C19.6632 9.97312 21.3514 9.33275 23.3776 9.33275C25.3856 9.33275 27.0665 9.97575 28.424 11.2609C29.7805 12.546 30.4593 14.1526 30.4593 16.0807C30.4593 18.008 29.7805 19.6242 28.424 20.9269C27.0674 22.2304 25.3856 22.8821 23.3776 22.8821C21.3514 22.8821 19.6605 22.2348 18.3039 20.9409V20.9409ZM18.9036 16.0807C18.9036 17.3396 19.3261 18.4039 20.172 19.2738C21.017 20.1437 22.0864 20.5791 23.3776 20.5791C24.6505 20.5791 25.7082 20.1437 26.5486 19.2738C27.39 18.4039 27.8116 17.3396 27.8116 16.0807C27.8116 14.8403 27.39 13.7891 26.5486 12.9271C25.7082 12.0659 24.6505 11.6358 23.3776 11.6358C22.0864 11.6358 21.017 12.0642 20.172 12.9209C19.3261 13.7777 18.9027 14.8306 18.9027 16.0807H18.9036ZM33.9719 22.4669V3H36.5933V22.4669H33.9719ZM41.3326 6.02577C41.0073 5.72267 40.8447 5.34248 40.8447 4.88782C40.8447 4.43229 41.0082 4.05385 41.3326 3.74987C41.6579 3.44677 42.0622 3.29434 42.5456 3.29434C43.0199 3.29434 43.4233 3.44677 43.7586 3.74987C44.0929 4.05385 44.2601 4.43317 44.2601 4.8887C44.2601 5.34335 44.0929 5.72267 43.7586 6.02577C43.4233 6.32975 43.0199 6.4813 42.5456 6.4813C42.0622 6.4813 41.6579 6.32975 41.3326 6.02577V6.02577ZM41.2626 22.4669V9.66826H43.8703V22.4669H41.2626V22.4669ZM47.661 16.0807C47.661 14.1622 48.3261 12.5574 49.6545 11.2679C50.9838 9.9775 52.6566 9.33275 54.6737 9.33275C56.3183 9.33275 57.7357 9.78565 58.925 10.6915C60.1153 11.5981 60.8304 12.7738 61.0721 14.2201H58.3953C58.2262 13.4586 57.7654 12.7867 57.1051 12.3384C56.4327 11.8697 55.6213 11.6358 54.6737 11.6358C53.3535 11.6358 52.2922 12.0615 51.4881 12.9148C50.684 13.7663 50.2824 14.8219 50.2824 16.0807C50.2824 17.3299 50.6867 18.3794 51.4945 19.2265C52.3031 20.0745 53.3625 20.4985 54.6737 20.4985C55.6213 20.4985 56.4318 20.2664 57.106 19.8029C57.764 19.3615 58.2246 18.6965 58.3953 17.9414H61.0721C60.8304 19.3781 60.1144 20.5476 58.925 21.449C57.7348 22.3513 56.3173 22.8016 54.6728 22.8016C53.3444 22.8016 52.1432 22.5072 51.0701 21.9176C50.0176 21.3489 49.1489 20.5102 48.5606 19.4946C47.9609 18.4679 47.661 17.3308 47.661 16.0807ZM62.0888 9.64111H64.9182L70.1736 20.0833L75.0256 9.64111H77.7996L68.7662 29.1071H66.0058L68.8225 23.0162L62.0888 9.64111Z" fill="#363636"/>
<path fill-rule="evenodd" clip-rule="evenodd" d="M81.2118 22.4663V3.81586H83.2053L90.8585 15.9198L98.5117 3.81586H100.547V22.4663H97.8002V9.60022L91.7507 19.1462H90.008L83.9022 9.51962L83.9576 22.4663H81.2127H81.2118ZM104.506 16.0801C104.506 14.8125 104.794 13.6676 105.369 12.6461C105.939 11.6305 106.795 10.7907 107.838 10.2231C108.906 9.62913 110.124 9.33215 111.49 9.33215C112.726 9.33215 113.838 9.61336 114.828 10.1758C115.814 10.7346 116.618 11.5485 117.148 12.5252C117.706 13.5292 117.989 14.6697 117.999 15.9461C117.999 16.4279 117.98 16.7897 117.943 17.0306L117.887 17.0043V17.0306H107.099C107.294 18.0924 107.78 18.9631 108.556 19.6412C109.332 20.3201 110.337 20.6591 111.574 20.6591C112.355 20.6591 113.024 20.5189 113.582 20.2369C114.139 19.9565 114.557 19.5658 114.836 19.0656H117.666C117.284 20.2079 116.534 21.1155 115.414 21.79C114.294 22.4646 112.987 22.801 111.49 22.801C109.437 22.801 107.759 22.1606 106.458 20.8798C105.157 19.5991 104.507 17.9995 104.507 16.0793L104.506 16.0801ZM107.098 15.1428H115.351C115.239 14.0267 114.833 13.1411 114.132 12.4849C113.429 11.8288 112.511 11.5012 111.378 11.5012C110.206 11.5012 109.248 11.8402 108.499 12.5191C107.751 13.1972 107.284 14.0714 107.098 15.1428V15.1428Z" fill="#1BB0DB"/>
</g>
<defs>
<clipPath id="clip0">
<rect width="118" height="29" fill="white"/>
</clipPath>
</defs>
</svg>
