<svg width="32" height="32" viewBox="0 0 32 32" fill="none" xmlns="http://www.w3.org/2000/svg">
<path d="M26.3981 11.2084C26.2412 11.3304 23.4696 12.8971 23.4804 16.3616C23.493 20.3687 27.0306 21.7753 27.1364 21.81C27.1204 21.8965 26.5812 23.7533 25.2857 25.6476C24.1304 27.3146 22.9236 28.979 21.0797 28.9848C19.2359 28.9906 18.7581 27.9255 16.6296 27.9322C14.5553 27.9387 13.8212 29.0427 12.1347 29.048C10.4481 29.0533 9.26652 27.5179 7.90755 25.632C6.33334 23.4173 5.05624 19.973 5.04596 16.7003C5.02947 11.451 8.44804 8.65627 11.8211 8.64568C13.6134 8.64004 15.1111 9.80726 16.2364 9.80373C17.3074 9.80036 18.9738 8.553 21.0128 8.54659C21.7856 8.54416 24.5624 8.60565 26.3981 11.2084ZM20.0378 6.32732C20.878 5.32828 21.4702 3.94387 21.4658 2.56134C21.4652 2.36962 21.4483 2.17525 21.4126 2.01875C20.0408 2.07437 18.4111 2.93818 17.4304 4.07808C16.6604 4.95539 15.9435 6.34018 15.9479 7.74162C15.9486 7.95224 15.9845 8.16275 16.001 8.2302C16.0878 8.24613 16.2288 8.26459 16.3698 8.26415C17.6008 8.26028 19.1465 7.43454 20.0378 6.32732Z" fill="black"/>
</svg>
