<?xml version="1.0" encoding="UTF-8"?>
<!DOCTYPE svg PUBLIC "-//W3C//DTD SVG 1.1//EN" "http://www.w3.org/Graphics/SVG/1.1/DTD/svg11.dtd">
<svg xmlns="http://www.w3.org/2000/svg" version="1.1" width="2020px" height="338px" style="shape-rendering:geometricPrecision; text-rendering:geometricPrecision; image-rendering:optimizeQuality; fill-rule:evenodd; clip-rule:evenodd" xmlns:xlink="http://www.w3.org/1999/xlink">
<g><path style="opacity:0.973" fill="#1aa3e4" d="M 1077.5,-0.5 C 1087.17,-0.5 1096.83,-0.5 1106.5,-0.5C 1130.01,3.25264 1150.34,13.4193 1167.5,30C 1159,38.5 1150.5,47 1142,55.5C 1113.72,30.6321 1083.55,28.1321 1051.5,48C 1021.53,73.4031 1015.03,103.903 1032,139.5C 1049.3,166.229 1073.8,177.396 1105.5,173C 1119.76,170.288 1131.93,163.788 1142,153.5C 1150.37,162.042 1158.87,170.375 1167.5,178.5C 1134.86,209.063 1097.2,217.23 1054.5,203C 1011.55,184.135 988.879,151.135 986.5,104C 991.11,46.5676 1021.44,11.7343 1077.5,-0.5 Z"/></g>
<g><path style="opacity:0.979" fill="#00294f" d="M -0.5,3.5 C 11.1667,3.5 22.8333,3.5 34.5,3.5C 34.3334,26.1691 34.5,48.8358 35,71.5C 57.9377,56.1476 82.4377,53.3143 108.5,63C 137.358,77.6893 152.025,101.356 152.5,134C 152.071,165.049 138.404,188.049 111.5,203C 92.5303,211.298 73.197,212.298 53.5,206C 51.1526,205.288 49.1526,204.121 47.5,202.5C 51.5751,192.021 55.9085,181.688 60.5,171.5C 83.3374,178.659 100.837,171.992 113,151.5C 121.84,125.684 114.006,106.851 89.5,95C 63.0423,89.3103 45.209,99.1436 36,124.5C 34.5724,151.803 34.0724,179.137 34.5,206.5C 22.8333,206.5 11.1667,206.5 -0.5,206.5C -0.5,138.833 -0.5,71.1667 -0.5,3.5 Z"/></g>
<g><path style="opacity:0.967" fill="#00294f" d="M 704.5,3.5 C 707.833,3.5 711.167,3.5 714.5,3.5C 714.832,15.1857 714.499,26.8523 713.5,38.5C 700.769,39.7808 690.936,45.7808 684,56.5C 681.253,61.489 679.753,66.8224 679.5,72.5C 686.5,72.5 693.5,72.5 700.5,72.5C 703.009,84.201 705.675,95.8676 708.5,107.5C 698.833,107.5 689.167,107.5 679.5,107.5C 679.5,140.5 679.5,173.5 679.5,206.5C 667.5,206.5 655.5,206.5 643.5,206.5C 643.333,161.165 643.5,115.832 644,70.5C 648.145,33.4591 668.311,11.1258 704.5,3.5 Z"/></g>
<g><path style="opacity:0.986" fill="#00294f" d="M 726.5,3.5 C 738.167,3.5 749.833,3.5 761.5,3.5C 761.5,15.1667 761.5,26.8333 761.5,38.5C 749.833,38.5 738.167,38.5 726.5,38.5C 726.5,26.8333 726.5,15.1667 726.5,3.5 Z"/></g>
<g><path style="opacity:0.98" fill="#00294f" d="M 809.5,23.5 C 810.833,23.5 812.167,23.5 813.5,23.5C 813.5,41.8333 813.5,60.1667 813.5,78.5C 820.5,78.5 827.5,78.5 834.5,78.5C 837.009,90.201 839.675,101.868 842.5,113.5C 832.833,113.5 823.167,113.5 813.5,113.5C 813.044,130.237 813.544,146.903 815,163.5C 816.563,166.728 819.063,168.895 822.5,170C 831.518,170.168 840.518,170.668 849.5,171.5C 852.5,182.833 855.5,194.167 858.5,205.5C 847.181,206.666 835.848,206.832 824.5,206C 800.261,203.808 785.094,190.975 779,167.5C 778.5,122.168 778.333,76.8346 778.5,31.5C 789.06,29.2776 799.393,26.611 809.5,23.5 Z"/></g>
<g><path style="opacity:0.982" fill="#1aa3e4" d="M 2019.5,204.5 C 2019.5,205.167 2019.5,205.833 2019.5,206.5C 2008.16,206.667 1996.83,206.5 1985.5,206C 1961.06,203.568 1945.9,190.401 1940,166.5C 1939.5,121.501 1939.33,76.5012 1939.5,31.5C 1951.2,28.9915 1962.87,26.3248 1974.5,23.5C 1974.5,41.8333 1974.5,60.1667 1974.5,78.5C 1981.5,78.5 1988.5,78.5 1995.5,78.5C 1998.01,90.201 2000.68,101.868 2003.5,113.5C 1993.83,113.5 1984.17,113.5 1974.5,113.5C 1974.04,129.904 1974.54,146.237 1976,162.5C 1977.49,166.498 1980.32,168.998 1984.5,170C 1993.19,170.168 2001.85,170.668 2010.5,171.5C 2013.37,182.655 2016.37,193.655 2019.5,204.5 Z"/></g>
<g><path style="opacity:0.974" fill="#00294f" d="M 237.5,56.5 C 269.996,57.3209 293.829,71.9876 309,100.5C 315.847,116.975 317.681,133.975 314.5,151.5C 277.494,151.167 240.494,151.5 203.5,152.5C 212.404,167.787 225.737,174.953 243.5,174C 249.523,173.27 255.189,171.437 260.5,168.5C 273.071,173.188 285.404,178.354 297.5,184C 275.775,207.015 249.442,214.681 218.5,207C 183.463,195.113 164.797,170.613 162.5,133.5C 164.703,96.8126 183.036,72.3126 217.5,60C 224.234,58.3845 230.901,57.2178 237.5,56.5 Z M 233.5,92.5 C 252.298,90.8973 266.298,98.2306 275.5,114.5C 251.5,115.833 227.5,115.833 203.5,114.5C 210.349,102.754 220.349,95.4205 233.5,92.5 Z"/></g>
<g><path style="opacity:0.976" fill="#00294f" d="M 401.5,56.5 C 437.391,58.556 458.891,77.2226 466,112.5C 466.5,143.832 466.667,175.165 466.5,206.5C 454.833,206.5 443.167,206.5 431.5,206.5C 431.969,176.45 431.469,146.45 430,116.5C 421.496,96.3318 406.663,89.1651 385.5,95C 375.76,99.737 369.26,107.237 366,117.5C 365.5,147.165 365.333,176.831 365.5,206.5C 353.5,206.5 341.5,206.5 329.5,206.5C 329.5,158.167 329.5,109.833 329.5,61.5C 341.5,61.5 353.5,61.5 365.5,61.5C 365.335,64.5184 365.502,67.5184 366,70.5C 376.408,61.9798 388.241,57.3131 401.5,56.5 Z"/></g>
<g><path style="opacity:0.974" fill="#00294f" d="M 553.5,56.5 C 585.996,57.3209 609.829,71.9876 625,100.5C 631.431,116.956 633.264,133.956 630.5,151.5C 593.494,151.167 556.494,151.5 519.5,152.5C 528.404,167.787 541.737,174.953 559.5,174C 565.523,173.27 571.189,171.437 576.5,168.5C 588.167,173.167 599.833,177.833 611.5,182.5C 612.583,183.365 612.749,184.365 612,185.5C 588.925,208.061 561.758,214.894 530.5,206C 497.613,193.082 480.28,168.915 478.5,133.5C 480.348,99.6083 496.682,75.775 527.5,62C 536.078,59.0526 544.745,57.2193 553.5,56.5 Z M 549.5,92.5 C 568.268,90.963 582.268,98.2963 591.5,114.5C 567.5,115.833 543.5,115.833 519.5,114.5C 526.349,102.754 536.349,95.4205 549.5,92.5 Z"/></g>
<g><path style="opacity:0.973" fill="#1aa3e4" d="M 1244.5,56.5 C 1281.45,57.6525 1306.62,75.3192 1320,109.5C 1329.76,148.911 1317.59,179.411 1283.5,201C 1245.91,217.491 1213.41,210.657 1186,180.5C 1167.71,153.379 1165.71,125.046 1180,95.5C 1194.75,71.3723 1216.25,58.3723 1244.5,56.5 Z M 1240.5,92.5 C 1264.77,91.3667 1280.27,102.367 1287,125.5C 1289.7,147.601 1280.87,163.101 1260.5,172C 1238.4,177.86 1221.56,171.027 1210,151.5C 1200.62,121.592 1210.79,101.925 1240.5,92.5 Z"/></g>
<g><path style="opacity:0.966" fill="#1aa3e4" d="M 1409.5,56.5 C 1447.64,59.1415 1469.14,79.4748 1474,117.5C 1474.5,147.165 1474.67,176.831 1474.5,206.5C 1462.5,206.5 1450.5,206.5 1438.5,206.5C 1438.97,175.784 1438.47,145.117 1437,114.5C 1428.67,96.6091 1414.84,89.7757 1395.5,94C 1385,97.8333 1377.83,105 1374,115.5C 1372.53,145.783 1372.03,176.117 1372.5,206.5C 1360.5,206.5 1348.5,206.5 1336.5,206.5C 1336.5,158.167 1336.5,109.833 1336.5,61.5C 1348.5,61.5 1360.5,61.5 1372.5,61.5C 1372.34,64.5184 1372.5,67.5184 1373,70.5C 1383.79,62.0109 1395.96,57.3442 1409.5,56.5 Z"/></g>
<g><path style="opacity:0.985" fill="#1aa3e4" d="M 1561.5,56.5 C 1598.25,58.7467 1619.75,78.08 1626,114.5C 1626.5,145.165 1626.67,175.832 1626.5,206.5C 1614.83,206.5 1603.17,206.5 1591.5,206.5C 1591.67,178.498 1591.5,150.498 1591,122.5C 1587.31,104.473 1576.31,94.4729 1558,92.5C 1542.15,93.6954 1531.48,101.695 1526,116.5C 1524.54,146.458 1524.04,176.458 1524.5,206.5C 1512.83,206.5 1501.17,206.5 1489.5,206.5C 1489.5,158.167 1489.5,109.833 1489.5,61.5C 1501.17,61.5 1512.83,61.5 1524.5,61.5C 1524.18,64.5719 1524.52,67.5719 1525.5,70.5C 1536.15,62.0675 1548.15,57.4008 1561.5,56.5 Z"/></g>
<g><path style="opacity:0.974" fill="#1aa3e4" d="M 1712.5,56.5 C 1755.65,58.4687 1781.81,80.4687 1791,122.5C 1791.96,132.133 1791.46,141.633 1789.5,151C 1752.5,151.333 1715.5,151.667 1678.5,152C 1693.18,173.837 1712.51,179.337 1736.5,168.5C 1748.51,173.502 1760.51,178.502 1772.5,183.5C 1760.63,197.942 1745.3,206.442 1726.5,209C 1685.19,212.437 1657.02,194.937 1642,156.5C 1632.67,118.467 1644.17,88.6337 1676.5,67C 1687.89,60.9208 1699.89,57.4208 1712.5,56.5 Z M 1709.5,92.5 C 1728.01,91.4214 1742.01,98.7548 1751.5,114.5C 1727.17,115.666 1702.84,115.833 1678.5,115C 1685.36,102.628 1695.7,95.1277 1709.5,92.5 Z"/></g>
<g><path style="opacity:0.971" fill="#1aa3e4" d="M 1876.5,56.5 C 1898.85,56.4427 1917.85,64.276 1933.5,80C 1925.32,88.3478 1916.99,96.5145 1908.5,104.5C 1890.45,89.6063 1871.78,88.773 1852.5,102C 1832.95,122.381 1832.62,143.048 1851.5,164C 1870.71,178.305 1889.54,177.805 1908,162.5C 1916.79,170.29 1925.29,178.457 1933.5,187C 1908.73,209.82 1880.4,215.487 1848.5,204C 1811.07,184.632 1796.57,154.132 1805,112.5C 1816.71,78.2797 1840.55,59.613 1876.5,56.5 Z"/></g>
<g><path style="opacity:0.97" fill="#00294f" d="M 905.5,57.5 C 924.783,55.4349 942.783,59.2682 959.5,69C 963.647,71.9804 967.314,75.4804 970.5,79.5C 962.514,87.9858 954.348,96.3191 946,104.5C 936.149,91.8828 923.649,87.7162 908.5,92C 902.788,94.3666 900.621,98.5332 902,104.5C 902.93,106.552 904.43,108.052 906.5,109C 917.711,113.304 929.045,117.304 940.5,121C 955.965,127.466 967.132,138.3 974,153.5C 978.062,183.404 965.562,201.904 936.5,209C 910.118,212.148 887.118,204.981 867.5,187.5C 875.486,179.014 883.652,170.681 892,162.5C 903.754,175.645 917.921,179.479 934.5,174C 940.645,169.306 940.979,164.306 935.5,159C 922.998,153.943 910.332,149.277 897.5,145C 865.485,129.955 857.652,106.788 874,75.5C 882.433,65.7052 892.933,59.7052 905.5,57.5 Z"/></g>
<g><path style="opacity:0.988" fill="#00294f" d="M 726.5,61.5 C 738.167,61.5 749.833,61.5 761.5,61.5C 761.5,109.833 761.5,158.167 761.5,206.5C 749.833,206.5 738.167,206.5 726.5,206.5C 726.5,158.167 726.5,109.833 726.5,61.5 Z"/></g>
<g><path style="opacity:0.903" fill="#00294f" d="M 530.5,257.5 C 534.846,257.334 539.179,257.501 543.5,258C 545.002,258.583 546.335,259.416 547.5,260.5C 546.391,262.385 545.557,264.385 545,266.5C 533.325,260.68 527.492,264.347 527.5,277.5C 535.167,277.5 542.833,277.5 550.5,277.5C 550.5,290.5 550.5,303.5 550.5,316.5C 547.833,316.5 545.167,316.5 542.5,316.5C 542.5,305.5 542.5,294.5 542.5,283.5C 537.5,283.5 532.5,283.5 527.5,283.5C 527.5,294.5 527.5,305.5 527.5,316.5C 524.833,316.5 522.167,316.5 519.5,316.5C 519.5,305.5 519.5,294.5 519.5,283.5C 517.833,283.5 516.167,283.5 514.5,283.5C 514.5,281.5 514.5,279.5 514.5,277.5C 516.167,277.5 517.833,277.5 519.5,277.5C 519.042,268.405 522.709,261.738 530.5,257.5 Z"/></g>
<g><path style="opacity:0.895" fill="#00294f" d="M 1039.5,258.5 C 1042.17,258.5 1044.83,258.5 1047.5,258.5C 1047.2,277.867 1047.54,297.2 1048.5,316.5C 1045.83,316.5 1043.17,316.5 1040.5,316.5C 1040.66,315.127 1040.49,313.793 1040,312.5C 1034.73,317.245 1028.56,318.745 1021.5,317C 1013.58,312.992 1009.91,306.492 1010.5,297.5C 1011.02,281.813 1019.02,274.98 1034.5,277C 1036.29,277.785 1037.79,278.951 1039,280.5C 1039.5,273.174 1039.67,265.841 1039.5,258.5 Z M 1026.5,282.5 C 1032.1,281.611 1036.26,283.611 1039,288.5C 1039.67,293.833 1039.67,299.167 1039,304.5C 1034.13,312.341 1028.13,313.341 1021,307.5C 1018.13,301.309 1017.8,294.976 1020,288.5C 1021.49,285.686 1023.66,283.686 1026.5,282.5 Z"/></g>
<g><path style="opacity:0.886" fill="#00294f" d="M 1566.5,258.5 C 1569.17,258.5 1571.83,258.5 1574.5,258.5C 1574.33,270.171 1574.5,281.838 1575,293.5C 1579.5,288.333 1584,283.167 1588.5,278C 1591.83,277.333 1595.17,277.333 1598.5,278C 1593.07,282.753 1588.41,288.086 1584.5,294C 1589.82,301.323 1595.15,308.656 1600.5,316C 1597.17,316.667 1593.83,316.667 1590.5,316C 1586.46,310.079 1582.29,304.245 1578,298.5C 1576.62,299.551 1575.62,300.884 1575,302.5C 1574.5,307.155 1574.33,311.821 1574.5,316.5C 1571.83,316.5 1569.17,316.5 1566.5,316.5C 1566.5,297.167 1566.5,277.833 1566.5,258.5 Z"/></g>
<g><path style="opacity:0.873" fill="#00294f" d="M 663.5,260.5 C 669.328,260.05 674.995,260.716 680.5,262.5C 681.639,264.97 681.306,267.303 679.5,269.5C 674.369,266.476 669.035,265.976 663.5,268C 658.91,271.899 658.577,276.066 662.5,280.5C 668.167,283.667 673.833,286.833 679.5,290C 686.271,298.268 685.937,306.268 678.5,314C 671.903,317.378 664.903,318.378 657.5,317C 650.167,316.503 648.667,313.336 653,307.5C 658.826,311.169 664.993,312.003 671.5,310C 678.167,304.667 678.167,299.333 671.5,294C 667.082,292.194 662.749,290.194 658.5,288C 649.167,279.667 649.167,271.333 658.5,263C 660.315,262.243 661.981,261.41 663.5,260.5 Z"/></g>
<g><path style="opacity:0.896" fill="#00294f" d="M 349.5,261.5 C 356.508,261.334 363.508,261.5 370.5,262C 379.643,265.12 382.81,271.287 380,280.5C 378.5,283.333 376.333,285.5 373.5,287C 383.183,292.048 385.683,299.548 381,309.5C 379.062,312.106 376.562,313.939 373.5,315C 365.236,316.37 356.903,316.87 348.5,316.5C 348.18,298.09 348.514,279.757 349.5,261.5 Z M 356.5,267.5 C 360.936,267.21 365.27,267.71 369.5,269C 375.201,275.248 374.201,280.248 366.5,284C 363.183,284.498 359.85,284.665 356.5,284.5C 356.5,278.833 356.5,273.167 356.5,267.5 Z M 356.5,290.5 C 362.142,290.328 367.476,291.495 372.5,294C 377.09,301.233 375.423,306.566 367.5,310C 363.848,310.499 360.182,310.665 356.5,310.5C 356.5,303.833 356.5,297.167 356.5,290.5 Z"/></g>
<g><path style="opacity:0.85" fill="#00294f" d="M 771.5,261.5 C 778.997,260.804 780.997,263.637 777.5,270C 770.781,270.726 768.781,267.893 771.5,261.5 Z"/></g>
<g><path style="opacity:0.915" fill="#00294f" d="M 1076.5,261.5 C 1079.17,261.5 1081.83,261.5 1084.5,261.5C 1084.5,269.167 1084.5,276.833 1084.5,284.5C 1092.83,284.5 1101.17,284.5 1109.5,284.5C 1109.5,276.833 1109.5,269.167 1109.5,261.5C 1112.17,261.5 1114.83,261.5 1117.5,261.5C 1117.5,279.833 1117.5,298.167 1117.5,316.5C 1114.83,316.5 1112.17,316.5 1109.5,316.5C 1109.5,308.167 1109.5,299.833 1109.5,291.5C 1101.17,291.5 1092.83,291.5 1084.5,291.5C 1084.5,299.833 1084.5,308.167 1084.5,316.5C 1081.83,316.5 1079.17,316.5 1076.5,316.5C 1076.5,298.167 1076.5,279.833 1076.5,261.5 Z"/></g>
<g><path style="opacity:0.899" fill="#00294f" d="M 1130.5,261.5 C 1137.84,261.334 1145.17,261.5 1152.5,262C 1163.79,266.603 1166.63,274.436 1161,285.5C 1159.22,287.293 1157.39,288.96 1155.5,290.5C 1157.19,292.359 1158.69,294.359 1160,296.5C 1161.68,302.884 1163.51,309.217 1165.5,315.5C 1162.63,316.783 1159.79,316.783 1157,315.5C 1155.51,310.543 1154.18,305.543 1153,300.5C 1152.21,298.413 1151.04,296.579 1149.5,295C 1145.64,293.646 1141.64,293.146 1137.5,293.5C 1137.5,301.167 1137.5,308.833 1137.5,316.5C 1134.83,316.5 1132.17,316.5 1129.5,316.5C 1129.18,298.09 1129.51,279.757 1130.5,261.5 Z M 1137.5,267.5 C 1142.27,267.191 1146.93,267.691 1151.5,269C 1156.83,274.333 1156.83,279.667 1151.5,285C 1147.08,287.104 1142.41,287.937 1137.5,287.5C 1137.5,280.833 1137.5,274.167 1137.5,267.5 Z"/></g>
<g><path style="opacity:0.85" fill="#00294f" d="M 1189.5,261.5 C 1197,260.804 1199,263.637 1195.5,270C 1188.78,270.726 1186.78,267.893 1189.5,261.5 Z"/></g>
<g><path style="opacity:0.934" fill="#00294f" d="M 569.5,265.5 C 570.483,269.298 570.817,273.298 570.5,277.5C 574.167,277.5 577.833,277.5 581.5,277.5C 581.5,279.5 581.5,281.5 581.5,283.5C 577.833,283.5 574.167,283.5 570.5,283.5C 570.124,292.235 570.624,300.902 572,309.5C 574.5,311.536 577.167,311.87 580,310.5C 580.497,312.81 580.663,315.143 580.5,317.5C 576.486,317.666 572.486,317.499 568.5,317C 567.333,315.833 566.167,314.667 565,313.5C 563.551,303.605 563.051,293.605 563.5,283.5C 561.5,283.5 559.5,283.5 557.5,283.5C 557.5,281.5 557.5,279.5 557.5,277.5C 559.5,277.5 561.5,277.5 563.5,277.5C 563.18,274.102 563.513,270.768 564.5,267.5C 566.336,266.972 568.003,266.306 569.5,265.5 Z"/></g>
<g><path style="opacity:0.934" fill="#00294f" d="M 1654.5,265.5 C 1655.48,269.298 1655.82,273.298 1655.5,277.5C 1659.17,277.5 1662.83,277.5 1666.5,277.5C 1666.5,279.5 1666.5,281.5 1666.5,283.5C 1662.83,283.5 1659.17,283.5 1655.5,283.5C 1655.12,292.235 1655.62,300.902 1657,309.5C 1659.5,311.536 1662.17,311.87 1665,310.5C 1665.5,312.81 1665.66,315.143 1665.5,317.5C 1661.49,317.666 1657.49,317.499 1653.5,317C 1652.33,315.833 1651.17,314.667 1650,313.5C 1648.55,303.605 1648.05,293.605 1648.5,283.5C 1646.5,283.5 1644.5,283.5 1642.5,283.5C 1642.5,281.5 1642.5,279.5 1642.5,277.5C 1644.5,277.5 1646.5,277.5 1648.5,277.5C 1648.18,274.102 1648.51,270.768 1649.5,267.5C 1651.34,266.972 1653,266.306 1654.5,265.5 Z"/></g>
<g><path style="opacity:0.892" fill="#00294f" d="M 403.5,276.5 C 419.693,274.852 427.027,282.185 425.5,298.5C 416.167,298.5 406.833,298.5 397.5,298.5C 398.414,307.249 403.248,311.583 412,311.5C 415.333,311.577 418.5,310.91 421.5,309.5C 424.879,313.874 423.879,316.374 418.5,317C 397.191,320.69 388.024,311.857 391,290.5C 392.954,283.72 397.12,279.053 403.5,276.5 Z M 407.5,281.5 C 414.156,282.156 417.823,285.823 418.5,292.5C 411.524,293.664 404.524,293.831 397.5,293C 398.664,287.109 401.998,283.275 407.5,281.5 Z"/></g>
<g><path style="opacity:0.896" fill="#00294f" d="M 447.5,276.5 C 458.905,274.411 465.405,279.078 467,290.5C 467.5,299.16 467.666,307.827 467.5,316.5C 464.833,316.5 462.167,316.5 459.5,316.5C 459.891,306.767 459.391,297.1 458,287.5C 454.334,282.125 449.834,281.292 444.5,285C 442.683,286.8 441.516,288.966 441,291.5C 440.5,299.827 440.334,308.16 440.5,316.5C 437.833,316.5 435.167,316.5 432.5,316.5C 432.5,303.5 432.5,290.5 432.5,277.5C 434.833,277.5 437.167,277.5 439.5,277.5C 439.238,278.978 439.571,280.311 440.5,281.5C 442.724,279.566 445.058,277.899 447.5,276.5 Z"/></g>
<g><path style="opacity:0.892" fill="#00294f" d="M 488.5,276.5 C 504.693,274.852 512.027,282.185 510.5,298.5C 501.167,298.5 491.833,298.5 482.5,298.5C 483.414,307.249 488.248,311.583 497,311.5C 500.333,311.577 503.5,310.91 506.5,309.5C 509.879,313.874 508.879,316.374 503.5,317C 482.191,320.69 473.024,311.857 476,290.5C 477.954,283.72 482.12,279.053 488.5,276.5 Z M 492.5,281.5 C 499.156,282.156 502.823,285.823 503.5,292.5C 496.524,293.664 489.524,293.831 482.5,293C 483.664,287.109 486.998,283.275 492.5,281.5 Z"/></g>
<g><path style="opacity:0.868" fill="#00294f" d="M 594.5,276.5 C 598.514,276.334 602.514,276.501 606.5,277C 608.286,277.196 609.619,278.029 610.5,279.5C 610.172,284.037 608.172,285.204 604.5,283C 599.428,281.392 595.761,282.892 593.5,287.5C 594.305,289.472 595.639,290.972 597.5,292C 607.929,294.067 612.429,300.234 611,310.5C 607.711,315.894 602.878,318.227 596.5,317.5C 593.076,317.518 589.743,317.018 586.5,316C 585.667,313.919 585.667,311.752 586.5,309.5C 591.003,311.278 595.669,311.778 600.5,311C 605.658,307.882 605.658,304.549 600.5,301C 594.643,299.664 590.143,296.497 587,291.5C 585.431,284.335 587.931,279.335 594.5,276.5 Z"/></g>
<g><path style="opacity:0.884" fill="#00294f" d="M 699.5,276.5 C 703.846,276.334 708.179,276.501 712.5,277C 716.641,278.474 719.474,281.307 721,285.5C 721.296,295.854 721.796,306.187 722.5,316.5C 719.028,317.037 716.195,316.037 714,313.5C 707.529,318.209 700.696,318.709 693.5,315C 686.835,302.657 690.501,294.991 704.5,292C 707.482,291.502 710.482,291.335 713.5,291.5C 714.155,287.645 712.821,284.812 709.5,283C 704.274,281.836 699.441,282.669 695,285.5C 694.167,283.833 693.333,282.167 692.5,280.5C 694.482,278.436 696.816,277.103 699.5,276.5 Z M 710.5,296.5 C 711.833,296.5 713.167,296.5 714.5,296.5C 715.743,308.438 710.743,312.938 699.5,310C 696.926,306.442 697.26,303.109 700.5,300C 703.776,298.308 707.109,297.141 710.5,296.5 Z"/></g>
<g><path style="opacity:0.896" fill="#00294f" d="M 804.5,276.5 C 815.905,274.411 822.405,279.078 824,290.5C 824.5,299.16 824.666,307.827 824.5,316.5C 821.833,316.5 819.167,316.5 816.5,316.5C 816.891,306.767 816.391,297.1 815,287.5C 811.334,282.125 806.834,281.292 801.5,285C 799.683,286.8 798.516,288.966 798,291.5C 797.5,299.827 797.334,308.16 797.5,316.5C 794.833,316.5 792.167,316.5 789.5,316.5C 789.5,303.5 789.5,290.5 789.5,277.5C 791.833,277.5 794.167,277.5 796.5,277.5C 796.238,278.978 796.571,280.311 797.5,281.5C 799.724,279.566 802.058,277.899 804.5,276.5 Z"/></g>
<g><path style="opacity:0.88" fill="#00294f" d="M 844.5,276.5 C 851.251,275.295 857.085,276.962 862,281.5C 862.49,280.207 862.657,278.873 862.5,277.5C 864.833,277.5 867.167,277.5 869.5,277.5C 869.667,289.838 869.5,302.171 869,314.5C 868.476,327.358 861.81,333.691 849,333.5C 843.786,334.207 839.286,332.874 835.5,329.5C 836.052,327.667 836.885,326 838,324.5C 844.413,328.225 850.913,328.392 857.5,325C 860.618,321.03 861.784,316.53 861,311.5C 854.459,317.126 847.292,317.96 839.5,314C 832.465,306.347 830.631,297.514 834,287.5C 836.357,282.645 839.857,278.979 844.5,276.5 Z M 847.5,282.5 C 854.231,281.448 858.731,284.114 861,290.5C 862.01,296.064 861.343,301.398 859,306.5C 851.359,312.74 845.359,311.407 841,302.5C 838.712,294.18 840.878,287.513 847.5,282.5 Z"/></g>
<g><path style="opacity:0.868" fill="#00294f" d="M 886.5,276.5 C 890.514,276.334 894.514,276.501 898.5,277C 900.286,277.196 901.619,278.029 902.5,279.5C 902.172,284.037 900.172,285.204 896.5,283C 891.428,281.392 887.761,282.892 885.5,287.5C 886.305,289.472 887.639,290.972 889.5,292C 899.929,294.067 904.429,300.234 903,310.5C 899.711,315.894 894.878,318.227 888.5,317.5C 885.076,317.518 881.743,317.018 878.5,316C 877.667,313.919 877.667,311.752 878.5,309.5C 883.003,311.278 887.669,311.778 892.5,311C 897.658,307.882 897.658,304.549 892.5,301C 886.643,299.664 882.143,296.497 879,291.5C 877.431,284.335 879.931,279.335 886.5,276.5 Z"/></g>
<g><path style="opacity:0.884" fill="#00294f" d="M 935.5,276.5 C 939.846,276.334 944.179,276.501 948.5,277C 952.641,278.474 955.474,281.307 957,285.5C 957.296,295.854 957.796,306.187 958.5,316.5C 955.028,317.037 952.195,316.037 950,313.5C 943.529,318.209 936.696,318.709 929.5,315C 922.835,302.657 926.501,294.991 940.5,292C 943.482,291.502 946.482,291.335 949.5,291.5C 950.155,287.645 948.821,284.812 945.5,283C 940.274,281.836 935.441,282.669 931,285.5C 930.167,283.833 929.333,282.167 928.5,280.5C 930.482,278.436 932.816,277.103 935.5,276.5 Z M 946.5,296.5 C 947.833,296.5 949.167,296.5 950.5,296.5C 951.743,308.438 946.743,312.938 935.5,310C 932.926,306.442 933.26,303.109 936.5,300C 939.776,298.308 943.109,297.141 946.5,296.5 Z"/></g>
<g><path style="opacity:0.896" fill="#00294f" d="M 982.5,276.5 C 993.905,274.411 1000.4,279.078 1002,290.5C 1002.5,299.16 1002.67,307.827 1002.5,316.5C 999.833,316.5 997.167,316.5 994.5,316.5C 994.891,306.767 994.391,297.1 993,287.5C 989.334,282.125 984.834,281.292 979.5,285C 977.683,286.8 976.516,288.966 976,291.5C 975.5,299.827 975.334,308.16 975.5,316.5C 972.833,316.5 970.167,316.5 967.5,316.5C 967.5,303.5 967.5,290.5 967.5,277.5C 969.833,277.5 972.167,277.5 974.5,277.5C 974.238,278.978 974.571,280.311 975.5,281.5C 977.724,279.566 980.058,277.899 982.5,276.5 Z"/></g>
<g><path style="opacity:0.896" fill="#00294f" d="M 1222.5,276.5 C 1233.9,274.411 1240.4,279.078 1242,290.5C 1242.5,299.16 1242.67,307.827 1242.5,316.5C 1239.83,316.5 1237.17,316.5 1234.5,316.5C 1234.89,306.767 1234.39,297.1 1233,287.5C 1229.33,282.125 1224.83,281.292 1219.5,285C 1217.68,286.8 1216.52,288.966 1216,291.5C 1215.5,299.827 1215.33,308.16 1215.5,316.5C 1212.83,316.5 1210.17,316.5 1207.5,316.5C 1207.5,303.5 1207.5,290.5 1207.5,277.5C 1209.83,277.5 1212.17,277.5 1214.5,277.5C 1214.24,278.978 1214.57,280.311 1215.5,281.5C 1217.72,279.566 1220.06,277.899 1222.5,276.5 Z"/></g>
<g><path style="opacity:0.879" fill="#00294f" d="M 1318.5,276.5 C 1334.61,274.043 1343.28,280.876 1344.5,297C 1341.59,315.624 1331.26,321.624 1313.5,315C 1305.45,307.375 1303.28,298.208 1307,287.5C 1309.44,282.226 1313.27,278.56 1318.5,276.5 Z M 1321.5,282.5 C 1330.06,281.882 1334.89,285.882 1336,294.5C 1336.61,308.594 1330.44,313.428 1317.5,309C 1313.25,302.659 1312.42,295.826 1315,288.5C 1316.49,285.686 1318.66,283.686 1321.5,282.5 Z"/></g>
<g><path style="opacity:0.886" fill="#00294f" d="M 1410.5,276.5 C 1412.83,276.5 1415.17,276.5 1417.5,276.5C 1417.5,278.833 1417.5,281.167 1417.5,283.5C 1412.26,282.959 1408.43,284.959 1406,289.5C 1404.62,298.432 1404.12,307.432 1404.5,316.5C 1401.83,316.5 1399.17,316.5 1396.5,316.5C 1396.5,303.5 1396.5,290.5 1396.5,277.5C 1398.83,277.5 1401.17,277.5 1403.5,277.5C 1403.34,279.527 1403.5,281.527 1404,283.5C 1405.69,280.642 1407.86,278.309 1410.5,276.5 Z"/></g>
<g><path style="opacity:0.885" fill="#00294f" d="M 1455.5,276.5 C 1466.92,274.29 1474.42,278.623 1478,289.5C 1479.7,297.901 1478.2,305.567 1473.5,312.5C 1468.02,317.218 1461.68,318.718 1454.5,317C 1452.35,315.848 1450.52,314.348 1449,312.5C 1448.5,319.158 1448.33,325.825 1448.5,332.5C 1445.83,332.5 1443.17,332.5 1440.5,332.5C 1440.5,314.167 1440.5,295.833 1440.5,277.5C 1442.83,277.5 1445.17,277.5 1447.5,277.5C 1447.31,279.103 1447.81,280.437 1449,281.5C 1450.97,279.45 1453.13,277.783 1455.5,276.5 Z M 1457.5,282.5 C 1464.1,282.211 1468.27,285.211 1470,291.5C 1471.09,297.097 1470.42,302.43 1468,307.5C 1462.33,312.833 1456.67,312.833 1451,307.5C 1448.15,301.645 1447.81,295.645 1450,289.5C 1451.77,286.228 1454.27,283.895 1457.5,282.5 Z"/></g>
<g><path style="opacity:0.879" fill="#00294f" d="M 1497.5,276.5 C 1513.61,274.043 1522.28,280.876 1523.5,297C 1520.59,315.624 1510.26,321.624 1492.5,315C 1484.45,307.375 1482.28,298.208 1486,287.5C 1488.44,282.226 1492.27,278.56 1497.5,276.5 Z M 1500.5,282.5 C 1509.06,281.882 1513.89,285.882 1515,294.5C 1515.61,308.594 1509.44,313.428 1496.5,309C 1492.25,302.659 1491.42,295.826 1494,288.5C 1495.49,285.686 1497.66,283.686 1500.5,282.5 Z"/></g>
<g><path style="opacity:0.874" fill="#00294f" d="M 1542.5,276.5 C 1548.21,276.313 1553.88,276.646 1559.5,277.5C 1559.61,280.059 1558.94,282.392 1557.5,284.5C 1541.87,280.292 1535.04,286.292 1537,302.5C 1541.6,311.089 1548.43,313.422 1557.5,309.5C 1559.53,311.452 1559.87,313.618 1558.5,316C 1547.79,319.719 1538.63,317.552 1531,309.5C 1524.67,294.631 1528.51,283.631 1542.5,276.5 Z"/></g>
<g><path style="opacity:0.892" fill="#00294f" d="M 1615.5,276.5 C 1631.69,274.852 1639.03,282.185 1637.5,298.5C 1628.17,298.5 1618.83,298.5 1609.5,298.5C 1610.41,307.249 1615.25,311.583 1624,311.5C 1627.33,311.577 1630.5,310.91 1633.5,309.5C 1636.88,313.874 1635.88,316.374 1630.5,317C 1609.19,320.69 1600.02,311.857 1603,290.5C 1604.95,283.72 1609.12,279.053 1615.5,276.5 Z M 1619.5,281.5 C 1626.16,282.156 1629.82,285.823 1630.5,292.5C 1623.52,293.664 1616.52,293.831 1609.5,293C 1610.66,287.109 1614,283.275 1619.5,281.5 Z"/></g>
<g><path style="opacity:0.876" fill="#00294f" d="M 727.5,277.5 C 730.448,277.223 733.281,277.556 736,278.5C 739.531,288.092 742.864,297.759 746,307.5C 749.402,297.795 752.902,288.128 756.5,278.5C 759.086,277.52 761.753,277.187 764.5,277.5C 759.926,290.484 754.926,303.317 749.5,316C 746.303,316.987 743.47,316.487 741,314.5C 736.391,302.17 731.891,289.836 727.5,277.5 Z"/></g>
<g><path style="opacity:0.908" fill="#00294f" d="M 770.5,277.5 C 773.167,277.5 775.833,277.5 778.5,277.5C 778.5,290.5 778.5,303.5 778.5,316.5C 775.833,316.5 773.167,316.5 770.5,316.5C 770.5,303.5 770.5,290.5 770.5,277.5 Z"/></g>
<g><path style="opacity:0.908" fill="#00294f" d="M 1188.5,277.5 C 1191.17,277.5 1193.83,277.5 1196.5,277.5C 1196.5,290.5 1196.5,303.5 1196.5,316.5C 1193.83,316.5 1191.17,316.5 1188.5,316.5C 1188.5,303.5 1188.5,290.5 1188.5,277.5 Z"/></g>
<g><path style="opacity:0.873" fill="#00294f" d="M 1266.5,277.5 C 1269.45,277.223 1272.28,277.556 1275,278.5C 1278.4,287.549 1281.9,296.549 1285.5,305.5C 1288.96,296.634 1292.12,287.634 1295,278.5C 1297.79,277.217 1300.63,277.217 1303.5,278.5C 1297.88,294.531 1291.38,310.198 1284,325.5C 1280.53,330.824 1275.7,333.824 1269.5,334.5C 1269.01,332.194 1268.67,329.861 1268.5,327.5C 1275.01,325.826 1279.01,321.659 1280.5,315C 1275.68,302.535 1271.02,290.035 1266.5,277.5 Z"/></g>
<g><path style="opacity:0.9" fill="#00294f" d="M 1351.5,277.5 C 1354.17,277.5 1356.83,277.5 1359.5,277.5C 1359.14,287.224 1359.64,296.891 1361,306.5C 1364.56,311.898 1369.06,312.731 1374.5,309C 1375.21,307.745 1376.04,306.579 1377,305.5C 1377.5,296.173 1377.67,286.839 1377.5,277.5C 1380.17,277.5 1382.83,277.5 1385.5,277.5C 1385.22,290.537 1385.56,303.537 1386.5,316.5C 1383.83,316.5 1381.17,316.5 1378.5,316.5C 1378.66,315.127 1378.49,313.793 1378,312.5C 1373.08,317.202 1367.24,318.702 1360.5,317C 1354.85,314.339 1352.02,309.839 1352,303.5C 1351.5,294.84 1351.33,286.173 1351.5,277.5 Z"/></g>
<g><path style="opacity:0.815" fill="#00294f" d="M 621.5,306.5 C 623.5,306.5 625.5,306.5 627.5,306.5C 626.436,313.191 624.269,319.524 621,325.5C 619.103,327.016 616.936,327.683 614.5,327.5C 616.153,321.222 617.653,314.889 619,308.5C 619.995,307.934 620.828,307.267 621.5,306.5 Z"/></g>
</svg>
