<svg id="Layer_1" data-name="Layer 1" xmlns="http://www.w3.org/2000/svg" viewBox="0 0 98.42 42.4"><defs><style>.cls-1{fill:#1e1854;}.cls-2{fill:#231f20;}.cls-3{fill:#414141;}</style></defs><path class="cls-1" d="M60.57,23.74v1.71h-.81a2,2,0,0,0-.44-1,1.07,1.07,0,0,0-.8-.31,1.51,1.51,0,0,0-1.41.89,5.74,5.74,0,0,0-.48,2.65,5.54,5.54,0,0,0,.44,2.47,1.38,1.38,0,0,0,1.28.83,1.46,1.46,0,0,0,.7-.14,1.11,1.11,0,0,0,.43-.43,3.23,3.23,0,0,0,.28-.82h.81V31.4a11,11,0,0,1-1.19.22,8.07,8.07,0,0,1-1.11.07,4,4,0,0,1-2-.44,2.58,2.58,0,0,1-1.14-1.33,5.9,5.9,0,0,1-.37-2.26,5.27,5.27,0,0,1,.43-2.22A3.26,3.26,0,0,1,56.47,24a3.8,3.8,0,0,1,2-.51,8.77,8.77,0,0,1,1.08.06A6.74,6.74,0,0,1,60.57,23.74Z" transform="translate(-14.84 -12.4)"/><path class="cls-1" d="M64.34,31.69a3.45,3.45,0,0,1-1.49-.3,2.14,2.14,0,0,1-1-1,3.7,3.7,0,0,1-.35-1.7,3.82,3.82,0,0,1,.22-1.37,2.62,2.62,0,0,1,.6-1,2.44,2.44,0,0,1,.93-.56,3.68,3.68,0,0,1,1.17-.18,2.85,2.85,0,0,1,2.15.75,3.08,3.08,0,0,1,.72,2.21A3.67,3.67,0,0,1,67,30.33a2.31,2.31,0,0,1-1,1A3.52,3.52,0,0,1,64.34,31.69Zm-1-3.1a4.73,4.73,0,0,0,.28,1.87.9.9,0,0,0,.84.62.84.84,0,0,0,.53-.16,1.09,1.09,0,0,0,.33-.46,2.7,2.7,0,0,0,.18-.72,9,9,0,0,0,0-.95,4.81,4.81,0,0,0-.28-1.89.87.87,0,0,0-.82-.62.85.85,0,0,0-.65.25,1.63,1.63,0,0,0-.35.76A6.49,6.49,0,0,0,63.31,28.59Z" transform="translate(-14.84 -12.4)"/><path class="cls-1" d="M74.76,31.6H71.9v-.39a.71.71,0,0,0,.38-.19.66.66,0,0,0,.14-.34,4.65,4.65,0,0,0,0-.78V28.33a6.86,6.86,0,0,0,0-.69,3.67,3.67,0,0,0,0-.43,1,1,0,0,0-.11-.29.74.74,0,0,0-.15-.19.59.59,0,0,0-.19-.11,1,1,0,0,0-.27,0,.85.85,0,0,0-.46.14,1.15,1.15,0,0,0-.41.38.91.91,0,0,0-.16.52V29.9a6.83,6.83,0,0,0,0,.78.59.59,0,0,0,.15.34.71.71,0,0,0,.38.19v.39H68.36v-.39a.83.83,0,0,0,.39-.2.72.72,0,0,0,.15-.33,6.71,6.71,0,0,0,0-.78V27.48c0-.29,0-.5,0-.64a1.35,1.35,0,0,0-.07-.34.55.55,0,0,0-.17-.2,1.06,1.06,0,0,0-.4-.14v-.4l1.61-.05h.75l-.09.85.07,0a5.42,5.42,0,0,1,.64-.51,2.66,2.66,0,0,1,.58-.3,1.91,1.91,0,0,1,.64-.11,2,2,0,0,1,.8.14,1.27,1.27,0,0,1,.51.4,1.68,1.68,0,0,1,.29.65,4.66,4.66,0,0,1,.08.89V29.9c0,.17,0,.33,0,.48a1.47,1.47,0,0,0,0,.36.61.61,0,0,0,.09.23.54.54,0,0,0,.18.14,1.18,1.18,0,0,0,.27.1Z" transform="translate(-14.84 -12.4)"/><path class="cls-1" d="M76.39,30a1.62,1.62,0,0,0,.45.8,1.21,1.21,0,0,0,.82.27,1,1,0,0,0,.67-.2.74.74,0,0,0,.23-.58.76.76,0,0,0-.11-.41,1,1,0,0,0-.34-.33,5.8,5.8,0,0,0-.81-.41c-.22-.1-.42-.2-.62-.31a3.23,3.23,0,0,1-.49-.39,1.61,1.61,0,0,1-.34-.48,1.41,1.41,0,0,1-.12-.59,1.47,1.47,0,0,1,.3-.92,2,2,0,0,1,.88-.59,3.73,3.73,0,0,1,1.3-.21c.29,0,.56,0,.84,0a10.33,10.33,0,0,1,1.07.15v1.37h-.78a2.07,2.07,0,0,0-.3-.58.84.84,0,0,0-.36-.28,1.05,1.05,0,0,0-.46-.08,1,1,0,0,0-.62.17.6.6,0,0,0-.23.5.89.89,0,0,0,.08.38,1,1,0,0,0,.3.31,4.76,4.76,0,0,0,.82.4,5.23,5.23,0,0,1,.9.48,1.81,1.81,0,0,1,.53.58,1.55,1.55,0,0,1,.18.76,1.74,1.74,0,0,1-.18.82,1.5,1.5,0,0,1-.49.57,2.19,2.19,0,0,1-.76.33,3.82,3.82,0,0,1-1,.11,10,10,0,0,1-2.17-.27V30Z" transform="translate(-14.84 -12.4)"/><path class="cls-1" d="M81,25.76h2.29V29a6.83,6.83,0,0,0,0,.88,1.25,1.25,0,0,0,.13.5.6.6,0,0,0,.25.27.66.66,0,0,0,.36.09.94.94,0,0,0,.46-.14,1.07,1.07,0,0,0,.41-.38.9.9,0,0,0,.17-.52V27.46a5.37,5.37,0,0,0,0-.64.9.9,0,0,0-.07-.33.45.45,0,0,0-.15-.19.89.89,0,0,0-.35-.15v-.39h2.3v4.12c0,.3,0,.52,0,.65a1.17,1.17,0,0,0,.07.33.5.5,0,0,0,.17.21,1.09,1.09,0,0,0,.4.13v.4l-1.6,0h-.72l.06-.85h-.08a4.1,4.1,0,0,1-1,.7,2,2,0,0,1-.87.2,1.83,1.83,0,0,1-1-.23,1.38,1.38,0,0,1-.54-.68,3.47,3.47,0,0,1-.16-1.17V27.46c0-.22,0-.39,0-.51s0-.21,0-.27a.53.53,0,0,0,0-.18.64.64,0,0,0-.08-.14.74.74,0,0,0-.16-.12.71.71,0,0,0-.26-.09Z" transform="translate(-14.84 -12.4)"/><path class="cls-1" d="M90.57,29.9a5.91,5.91,0,0,0,0,.77.7.7,0,0,0,.14.34.87.87,0,0,0,.41.2v.39H88.28v-.39a.9.9,0,0,0,.27-.1.42.42,0,0,0,.16-.13.56.56,0,0,0,.1-.19,1.11,1.11,0,0,0,0-.31c0-.14,0-.33,0-.58V25.3c0-.33,0-.58,0-.74a3.88,3.88,0,0,0,0-.4.71.71,0,0,0-.09-.26.52.52,0,0,0-.17-.16,1.47,1.47,0,0,0-.36-.1v-.39l1.63-.08h.73Z" transform="translate(-14.84 -12.4)"/><path class="cls-1" d="M96.12,30.89a3.62,3.62,0,0,1-1,.62,2.25,2.25,0,0,1-.89.18A1.67,1.67,0,0,1,93,31.22a2.06,2.06,0,0,1-.43-1.43v-3.3H91.8v-.4a1.36,1.36,0,0,0,.53-.18.79.79,0,0,0,.26-.31,2,2,0,0,0,.16-.52c0-.21.06-.48.08-.79h1.41v1.47h1.67v.73H94.24v2.66a5.78,5.78,0,0,0,.06,1,.86.86,0,0,0,.21.47.49.49,0,0,0,.36.15,1.39,1.39,0,0,0,.3,0,1.3,1.3,0,0,0,.27-.1,1.91,1.91,0,0,0,.3-.22Z" transform="translate(-14.84 -12.4)"/><path class="cls-1" d="M96.49,31.21a.78.78,0,0,0,.39-.2.63.63,0,0,0,.15-.33,4.65,4.65,0,0,0,0-.78V27.16a2.86,2.86,0,0,0,0-.46.55.55,0,0,0-.1-.28.4.4,0,0,0-.2-.16,1.45,1.45,0,0,0-.33-.1v-.4L98,25.71h.73V29.9c0,.22,0,.39,0,.51s0,.21,0,.27a.78.78,0,0,0,0,.18,1,1,0,0,0,.08.14l.15.12.27.09v.39H96.49Zm2.23-7.8v1.44H97.11V23.41Z" transform="translate(-14.84 -12.4)"/><path class="cls-1" d="M106.68,31.6h-2.85v-.39a.71.71,0,0,0,.38-.19.76.76,0,0,0,.14-.34,4.65,4.65,0,0,0,0-.78V28.33c0-.28,0-.51,0-.69a2.22,2.22,0,0,0-.06-.43,1,1,0,0,0-.1-.29,1,1,0,0,0-.15-.19.72.72,0,0,0-.19-.11,1,1,0,0,0-.27,0,.88.88,0,0,0-.47.14,1.21,1.21,0,0,0-.4.38.92.92,0,0,0-.17.52V29.9a6.23,6.23,0,0,0,0,.78.66.66,0,0,0,.14.34.75.75,0,0,0,.39.19v.39h-2.85v-.39a.78.78,0,0,0,.39-.2.56.56,0,0,0,.15-.33,4.65,4.65,0,0,0,0-.78V27.48c0-.29,0-.5,0-.64a1.35,1.35,0,0,0-.07-.34.55.55,0,0,0-.17-.2,1.06,1.06,0,0,0-.4-.14v-.4l1.61-.05h.74l-.08.85.07,0a4.71,4.71,0,0,1,.64-.51,2.66,2.66,0,0,1,.58-.3,1.91,1.91,0,0,1,.64-.11,2,2,0,0,1,.8.14,1.27,1.27,0,0,1,.51.4,1.67,1.67,0,0,1,.28.65,3.94,3.94,0,0,1,.09.89V29.9c0,.17,0,.33,0,.48a1.56,1.56,0,0,0,0,.36.83.83,0,0,0,.1.23.61.61,0,0,0,.17.14,1.69,1.69,0,0,0,.27.1Z" transform="translate(-14.84 -12.4)"/><path class="cls-1" d="M113.26,26.55l-1-.11,0,.06a1.23,1.23,0,0,1,.27.45,2,2,0,0,1,.11.69,1.93,1.93,0,0,1-.62,1.55,2.79,2.79,0,0,1-1.83.53,3.25,3.25,0,0,1-1-.11.8.8,0,0,0-.29.58.54.54,0,0,0,.07.27.49.49,0,0,0,.26.14,2,2,0,0,0,.5,0h1.46a2.41,2.41,0,0,1,1.47.38,1.45,1.45,0,0,1,.49,1.19,1.72,1.72,0,0,1-.36,1.09,2.25,2.25,0,0,1-1,.69,4.65,4.65,0,0,1-1.58.24,11.12,11.12,0,0,1-1.21-.06,3.19,3.19,0,0,1-.92-.22,1.32,1.32,0,0,1-.59-.42,1.09,1.09,0,0,1-.21-.69,1,1,0,0,1,.21-.62,1.63,1.63,0,0,1,.6-.48,1.06,1.06,0,0,1-.36-.41,1.19,1.19,0,0,1-.12-.56,1.14,1.14,0,0,1,.12-.52,1.67,1.67,0,0,1,.31-.44,4.61,4.61,0,0,1,.49-.44,1.74,1.74,0,0,1-.69-.68,1.92,1.92,0,0,1-.24-1,2.07,2.07,0,0,1,.2-.94,1.68,1.68,0,0,1,.54-.64,2.3,2.3,0,0,1,.81-.36,4.44,4.44,0,0,1,1.54-.09l.45.07h2.13ZM109.07,32a1.16,1.16,0,0,0-.32.35,1,1,0,0,0-.11.45.67.67,0,0,0,.37.63,2.57,2.57,0,0,0,1.16.2,2.16,2.16,0,0,0,1.13-.24.78.78,0,0,0,.38-.7.86.86,0,0,0-.06-.34.62.62,0,0,0-.28-.24,1.55,1.55,0,0,0-.59-.09h-1Zm.21-4.33a2.25,2.25,0,0,0,.21,1.1.72.72,0,0,0,.66.37.7.7,0,0,0,.62-.34,2,2,0,0,0,.21-1,2.33,2.33,0,0,0-.21-1.11.67.67,0,0,0-.63-.38.7.7,0,0,0-.65.34A2,2,0,0,0,109.28,27.65Z" transform="translate(-14.84 -12.4)"/><path class="cls-1" d="M61.66,41.72a3,3,0,0,0,0,.63.52.52,0,0,0,.15.27,1,1,0,0,0,.43.19v.39H59.21v-.39a1,1,0,0,0,.44-.17.41.41,0,0,0,.14-.25,3,3,0,0,0,.05-.67V39.36H57.17v2.36c0,.14,0,.27,0,.39a1.72,1.72,0,0,0,0,.29.37.37,0,0,0,.11.18.44.44,0,0,0,.18.14,1.66,1.66,0,0,0,.29.09v.39H54.72v-.39a1.46,1.46,0,0,0,.34-.12.44.44,0,0,0,.19-.19.82.82,0,0,0,.08-.31c0-.12,0-.28,0-.47V36.65c0-.19,0-.34,0-.47a1,1,0,0,0-.08-.3.44.44,0,0,0-.19-.19,1.49,1.49,0,0,0-.35-.14v-.39h3.09v.39a1.15,1.15,0,0,0-.43.2.59.59,0,0,0-.16.28,2.72,2.72,0,0,0,0,.62v2h2.67v-2a4,4,0,0,0,0-.62.56.56,0,0,0-.16-.28,1.07,1.07,0,0,0-.43-.2v-.39h3.07v.39a1.54,1.54,0,0,0-.37.15.48.48,0,0,0-.17.21.76.76,0,0,0-.06.27,3,3,0,0,0,0,.47Z" transform="translate(-14.84 -12.4)"/><path class="cls-1" d="M66.22,43.3A3.25,3.25,0,0,1,64.73,43a2.09,2.09,0,0,1-1-1,3.54,3.54,0,0,1-.36-1.7A3.73,3.73,0,0,1,63.61,39a2.55,2.55,0,0,1,.61-1,2.38,2.38,0,0,1,.92-.55,3.68,3.68,0,0,1,1.17-.18,2.85,2.85,0,0,1,2.15.75,3.06,3.06,0,0,1,.73,2.2,3.74,3.74,0,0,1-.36,1.72,2.26,2.26,0,0,1-1,1A3.38,3.38,0,0,1,66.22,43.3Zm-1-3.11a4.86,4.86,0,0,0,.28,1.87.9.9,0,0,0,.85.62.89.89,0,0,0,.52-.15,1.07,1.07,0,0,0,.33-.46,2.45,2.45,0,0,0,.18-.72,6.91,6.91,0,0,0,.06-1,5,5,0,0,0-.28-1.89.9.9,0,0,0-.83-.63.83.83,0,0,0-.64.25,1.63,1.63,0,0,0-.36.76A6.56,6.56,0,0,0,65.18,40.19Z" transform="translate(-14.84 -12.4)"/><path class="cls-1" d="M70.1,37.36h2.29v3.27c0,.38,0,.67,0,.88a1.56,1.56,0,0,0,.14.51.8.8,0,0,0,.24.27.81.81,0,0,0,.37.08.92.92,0,0,0,.46-.13,1.24,1.24,0,0,0,.41-.38,1,1,0,0,0,.17-.52V39.06c0-.28,0-.5,0-.64a.89.89,0,0,0-.07-.32.43.43,0,0,0-.15-.2,1.33,1.33,0,0,0-.35-.15v-.39h2.3v4.12c0,.3,0,.52,0,.66a1,1,0,0,0,.07.33.41.41,0,0,0,.17.2,1.28,1.28,0,0,0,.4.14v.39L75,43.26h-.71l0-.85-.07,0a4.19,4.19,0,0,1-1,.71,2.12,2.12,0,0,1-.87.2,1.83,1.83,0,0,1-1-.24,1.28,1.28,0,0,1-.54-.68,3.45,3.45,0,0,1-.16-1.16V39.06c0-.22,0-.39,0-.5s0-.21,0-.28a.84.84,0,0,0-.05-.17.46.46,0,0,0-.09-.15.49.49,0,0,0-.15-.12l-.26-.09Z" transform="translate(-14.84 -12.4)"/><path class="cls-1" d="M78.19,41.61a1.52,1.52,0,0,0,.45.81,1.17,1.17,0,0,0,.82.26.93.93,0,0,0,.66-.2.72.72,0,0,0,.23-.58.76.76,0,0,0-.1-.41,1.19,1.19,0,0,0-.34-.33,6.71,6.71,0,0,0-.82-.41,5,5,0,0,1-.61-.31,2.13,2.13,0,0,1-.49-.38,1.69,1.69,0,0,1-.34-.48,1.47,1.47,0,0,1,.18-1.51,1.92,1.92,0,0,1,.88-.6,3.93,3.93,0,0,1,1.29-.2c.29,0,.57,0,.85,0l1.06.15v1.38h-.78a2.49,2.49,0,0,0-.29-.59.93.93,0,0,0-.36-.28,1.28,1.28,0,0,0-.47-.08.94.94,0,0,0-.61.18.58.58,0,0,0-.23.49.74.74,0,0,0,.08.38.93.93,0,0,0,.29.31,5.46,5.46,0,0,0,.82.41,4.64,4.64,0,0,1,.9.47,1.7,1.7,0,0,1,.53.58,1.49,1.49,0,0,1,.19.77,1.77,1.77,0,0,1-.18.82,1.59,1.59,0,0,1-.49.57,2.24,2.24,0,0,1-.77.33,4.2,4.2,0,0,1-1,.11A9.85,9.85,0,0,1,77.4,43V41.61Z" transform="translate(-14.84 -12.4)"/><path class="cls-1" d="M88.29,42.13a3.71,3.71,0,0,1-1.18.9,3.27,3.27,0,0,1-1.36.27,2.67,2.67,0,0,1-2.06-.75A3.22,3.22,0,0,1,83,40.32a3.53,3.53,0,0,1,.35-1.65,2.5,2.5,0,0,1,1-1.05,3.22,3.22,0,0,1,1.52-.35,3.3,3.3,0,0,1,.94.12,2,2,0,0,1,.69.35,1.88,1.88,0,0,1,.48.53,3.08,3.08,0,0,1,.34.85,6.32,6.32,0,0,1,.12,1.18H84.71a2.72,2.72,0,0,0,.38,1.57,1.34,1.34,0,0,0,1.14.5A1.78,1.78,0,0,0,87,42.2a2.66,2.66,0,0,0,.78-.59Zm-1.58-2.47a3.56,3.56,0,0,0-.24-1.34.71.71,0,0,0-.68-.44.81.81,0,0,0-.73.46,3.08,3.08,0,0,0-.31,1.32Z" transform="translate(-14.84 -12.4)"/><path class="cls-1" d="M55.91,20.24V20l.23-.06a.3.3,0,0,0,.13-.12.48.48,0,0,0,0-.18,2.35,2.35,0,0,0,0-.28V15.9h-.28a.85.85,0,0,0-.32,0,.45.45,0,0,0-.19.15.74.74,0,0,0-.14.28,3,3,0,0,0-.1.33h-.48V15.5h4.09v1.21h-.47c0-.15-.08-.27-.11-.34a.68.68,0,0,0-.08-.19.49.49,0,0,0-.1-.13A.44.44,0,0,0,58,16l-.15,0-.23,0h-.25v3.47a2.18,2.18,0,0,0,0,.28.54.54,0,0,0,0,.15l.06.1.12.06a.64.64,0,0,0,.19.05v.23Z" transform="translate(-14.84 -12.4)"/><path class="cls-1" d="M60.75,17.25a2.88,2.88,0,0,1,.57-.4,1.34,1.34,0,0,1,.51-.11,1,1,0,0,1,.59.14.84.84,0,0,1,.31.4,2.22,2.22,0,0,1,.09.69v1.26a2.62,2.62,0,0,0,0,.29,1.27,1.27,0,0,0,0,.22l.06.13A.27.27,0,0,0,63,20l.16.06v.23H61.49V20a.45.45,0,0,0,.22-.11.4.4,0,0,0,.08-.2,2.39,2.39,0,0,0,0-.46v-.91a3.75,3.75,0,0,0,0-.54,1,1,0,0,0-.07-.3.44.44,0,0,0-.14-.16.49.49,0,0,0-.23,0,.56.56,0,0,0-.27.08.66.66,0,0,0-.24.23.46.46,0,0,0-.1.29v1.35a2.73,2.73,0,0,0,0,.31.71.71,0,0,0,0,.16l0,.1a.56.56,0,0,0,.05.08.22.22,0,0,0,.09.07l.16.06v.23h-1.7V20l.16-.06a.35.35,0,0,0,.09-.07l.06-.12a.42.42,0,0,0,0-.18,3.33,3.33,0,0,0,0-.35V16.52c0-.2,0-.34,0-.44a1.4,1.4,0,0,0,0-.23.44.44,0,0,0-.05-.15.47.47,0,0,0-.1-.1l-.22-.06v-.23l1-.05h.43v2Z" transform="translate(-14.84 -12.4)"/><path class="cls-1" d="M66.83,19.61a2.16,2.16,0,0,1-.7.53,2,2,0,0,1-.8.15,1.57,1.57,0,0,1-1.22-.44,1.87,1.87,0,0,1-.4-1.31,2.15,2.15,0,0,1,.21-1,1.39,1.39,0,0,1,.59-.61,1.87,1.87,0,0,1,.9-.21,1.79,1.79,0,0,1,.55.07,1.42,1.42,0,0,1,.41.2,1,1,0,0,1,.28.32,1.5,1.5,0,0,1,.2.5,2.8,2.8,0,0,1,.07.7h-2.2a1.52,1.52,0,0,0,.23.92.77.77,0,0,0,.67.3,1,1,0,0,0,.47-.1,1.52,1.52,0,0,0,.46-.35Zm-.93-1.46a2.11,2.11,0,0,0-.14-.79.42.42,0,0,0-.41-.26.46.46,0,0,0-.42.27,1.71,1.71,0,0,0-.19.78Z" transform="translate(-14.84 -12.4)"/><path class="cls-1" d="M35.51,32.87a1.46,1.46,0,1,0-2.91,0v6.92A1.59,1.59,0,0,0,33,40.87c1.17-1.33,2-2.46,2.48-3.08Z" transform="translate(-14.84 -12.4)"/><path class="cls-1" d="M39,34.94a1.46,1.46,0,1,0-2.91,0v2.33L39,36.65Z" transform="translate(-14.84 -12.4)"/><path class="cls-1" d="M29.46,39.41a1.28,1.28,0,0,0,2.56,0V35.68a1.28,1.28,0,0,0-2.56,0Z" transform="translate(-14.84 -12.4)"/><path class="cls-1" d="M32.6,29.31a1.46,1.46,0,1,0,1.46-1.45A1.46,1.46,0,0,0,32.6,29.31Z" transform="translate(-14.84 -12.4)"/><path class="cls-1" d="M36.21,31.49a1.28,1.28,0,1,0,1.28-1.28A1.28,1.28,0,0,0,36.21,31.49Z" transform="translate(-14.84 -12.4)"/><path class="cls-1" d="M30.74,34.09a1.23,1.23,0,1,0-1.22-1.22A1.22,1.22,0,0,0,30.74,34.09Z" transform="translate(-14.84 -12.4)"/><path class="cls-2" d="M33.47,16.88l.13.05A.52.52,0,0,0,33.47,16.88Z" transform="translate(-14.84 -12.4)"/><path class="cls-3" d="M21.73,29.84h0S20.5,37.38,24.3,41.29a5.73,5.73,0,0,0,6,1.38c-.45.13-1.92.29-3.55-2.34-1.83-2.94-1-9.43-.86-10.37h0s.09-.94.32-2.29H22.1A20.1,20.1,0,0,0,21.73,29.84Z" transform="translate(-14.84 -12.4)"/><path class="cls-3" d="M29.33,19.22c2.28-2.63,3.71-2.47,4.14-2.34a6.43,6.43,0,0,0-6.31,1.38,14,14,0,0,0-3.91,5.66L28.18,21A8.77,8.77,0,0,1,29.33,19.22Z" transform="translate(-14.84 -12.4)"/><path class="cls-3" d="M22.11,42.44C18,38.55,19.16,29.78,19.16,29.78s1-8.77,6.1-12.67c3.85-3,6.39-1.87,6.39-1.87s-1.34-1.79-4.83-1.33S16.26,19.93,15,29.78s4.51,15.39,7.88,15.86A6.19,6.19,0,0,0,28,44.31S25.23,45.4,22.11,42.44Z" transform="translate(-14.84 -12.4)"/><path class="cls-2" d="M30.26,42.67a.51.51,0,0,0,.15-.05Z" transform="translate(-14.84 -12.4)"/><path class="cls-1" d="M38,25.14a7.53,7.53,0,0,0-.5-3.6l-3.89-1.89L21.91,26.33H47.44l-1.89-.92-1.82-.88Z" transform="translate(-14.84 -12.4)"/><path class="cls-3" d="M43.85,37.1c-1.64,3-5.52,9.06-11,10.41,0,0,3-.15,9.28-3.72a26.81,26.81,0,0,0,6.55-6.13c.57-.7,1.05-1.33,1.44-1.84Z" transform="translate(-14.84 -12.4)"/><path class="cls-3" d="M41.52,37.57l-5.39,1.1a22.06,22.06,0,0,1-3.84,4.65,12.84,12.84,0,0,1-4.93,3,9.51,9.51,0,0,1-3.16.54,10.44,10.44,0,0,0,2.88.23,15.85,15.85,0,0,0,7.61-2.35A19.8,19.8,0,0,0,41.52,37.57Z" transform="translate(-14.84 -12.4)"/><path class="cls-1" d="M50.75,22.42c-1.45-3.54-2.73-5-5.17-6.66-5.41-3.59-9-3.27-9-3.27,4.43,1,7.08,5.22,8.43,8.29a20.09,20.09,0,0,1,.89,2.38Z" transform="translate(-14.84 -12.4)"/><path class="cls-1" d="M35.66,16.23A17.67,17.67,0,0,1,37.48,19,14.5,14.5,0,0,1,39,24.17l3-.43,1.82-.28A15.89,15.89,0,0,0,41.55,18a12.55,12.55,0,0,0-3.13-3.23,13.08,13.08,0,0,0-10-2.12A9.33,9.33,0,0,1,35.66,16.23Z" transform="translate(-14.84 -12.4)"/><path class="cls-3" d="M15.4,54.49v-.15a.77.77,0,0,0,.27-.12.3.3,0,0,0,.08-.17,1.56,1.56,0,0,0,0-.35V51a2.33,2.33,0,0,0,0-.32.53.53,0,0,0,0-.15.28.28,0,0,0-.1-.09l-.21-.08v-.15h1.74a2.51,2.51,0,0,1,.81.11.89.89,0,0,1,.46.32.91.91,0,0,1,.15.54,1.06,1.06,0,0,1-.11.48,1,1,0,0,1-.28.34,1.64,1.64,0,0,1-.44.24v0a1.27,1.27,0,0,1,.65.4,1,1,0,0,1,.23.65,1.16,1.16,0,0,1-.2.7,1,1,0,0,1-.53.4,2.57,2.57,0,0,1-.84.12Zm1.52-2.39a1.07,1.07,0,0,0,.74-.23,1,1,0,0,0,.19-1,.57.57,0,0,0-.2-.23.83.83,0,0,0-.3-.13,2.05,2.05,0,0,0-.37,0h-.61V52.1Zm-.55,2.09.52,0a1.59,1.59,0,0,0,.64-.1.69.69,0,0,0,.34-.31,1.29,1.29,0,0,0,.1-.51,1.07,1.07,0,0,0-.11-.51.69.69,0,0,0-.35-.3,1.64,1.64,0,0,0-.65-.1h-.49Z" transform="translate(-14.84 -12.4)"/><path class="cls-3" d="M21.87,54c-.14.14-.26.25-.37.34a1.33,1.33,0,0,1-.38.18,1.44,1.44,0,0,1-1.43-.32A1.76,1.76,0,0,1,19.36,53a1.84,1.84,0,0,1,.17-.83A1.26,1.26,0,0,1,20,51.6a1.34,1.34,0,0,1,.72-.2,1.46,1.46,0,0,1,.55.1.92.92,0,0,1,.36.28,1.34,1.34,0,0,1,.21.45,2.59,2.59,0,0,1,.08.7h-2v0a1.91,1.91,0,0,0,.09.63.77.77,0,0,0,.27.4.8.8,0,0,0,.5.15,1.16,1.16,0,0,0,.47-.1,1.42,1.42,0,0,0,.42-.31Zm-.53-1.29a2.52,2.52,0,0,0-.09-.56.68.68,0,0,0-.2-.33.5.5,0,0,0-.35-.12.61.61,0,0,0-.52.27,1.35,1.35,0,0,0-.23.74Z" transform="translate(-14.84 -12.4)"/><path class="cls-3" d="M25.63,54.49H24.38v-.15l.18-.07.09-.08A.43.43,0,0,0,24.7,54a1.38,1.38,0,0,0,0-.32v-.83c0-.15,0-.28,0-.4a2,2,0,0,0,0-.3A.84.84,0,0,0,24.6,52a.38.38,0,0,0-.11-.11.41.41,0,0,0-.13-.08.59.59,0,0,0-.2,0,.52.52,0,0,0-.24.05,1,1,0,0,0-.24.17.92.92,0,0,0-.19.23.6.6,0,0,0-.06.27V53.7a1.79,1.79,0,0,0,0,.38.29.29,0,0,0,.1.16.63.63,0,0,0,.23.1v.15H22.54v-.15l.17-.07a.24.24,0,0,0,.09-.08.3.3,0,0,0,.06-.16,2.21,2.21,0,0,0,0-.32V52.32a2.92,2.92,0,0,0,0-.32.5.5,0,0,0,0-.2.25.25,0,0,0-.12-.11.71.71,0,0,0-.22-.07v-.16l.75,0h.19l0,.52h.05a2.52,2.52,0,0,1,.38-.34,1.18,1.18,0,0,1,.29-.16.81.81,0,0,1,.31-.05,1,1,0,0,1,.31,0,.55.55,0,0,1,.24.12.67.67,0,0,1,.17.2,1.5,1.5,0,0,1,.1.3,2.54,2.54,0,0,1,0,.43v1.2a2.73,2.73,0,0,0,0,.32.53.53,0,0,0,0,.15l.09.09.21.08Z" transform="translate(-14.84 -12.4)"/><path class="cls-3" d="M28.73,54a3.6,3.6,0,0,1-.37.34,1.27,1.27,0,0,1-.37.18,1.33,1.33,0,0,1-.45.07,1.24,1.24,0,0,1-1-.39A1.76,1.76,0,0,1,26.22,53a2,2,0,0,1,.17-.83,1.26,1.26,0,0,1,.48-.56,1.35,1.35,0,0,1,.73-.2,1.44,1.44,0,0,1,.54.1.92.92,0,0,1,.36.28,1.34,1.34,0,0,1,.21.45,3,3,0,0,1,.09.7h-2v0a2.25,2.25,0,0,0,.08.63.77.77,0,0,0,.78.55,1.11,1.11,0,0,0,.46-.1,1.42,1.42,0,0,0,.42-.31Zm-.53-1.29a2,2,0,0,0-.09-.56.68.68,0,0,0-.2-.33.47.47,0,0,0-.34-.12.62.62,0,0,0-.53.27,1.44,1.44,0,0,0-.23.74Z" transform="translate(-14.84 -12.4)"/><path class="cls-3" d="M31,51.78h-.76V53.7a2.33,2.33,0,0,0,0,.32.91.91,0,0,0,.06.16.31.31,0,0,0,.11.09l.21.07v.15h-1.3v-.15a.81.81,0,0,0,.2-.08.2.2,0,0,0,.09-.09.37.37,0,0,0,.05-.15,2.33,2.33,0,0,0,0-.32V51.78h-.39v-.16a.63.63,0,0,0,.24-.07.27.27,0,0,0,.1-.15.83.83,0,0,0,0-.26,1.6,1.6,0,0,1,.18-.66,1,1,0,0,1,.42-.41,1.35,1.35,0,0,1,.62-.14,1.87,1.87,0,0,1,.34,0v.58H31a.59.59,0,0,0-.1-.25.26.26,0,0,0-.2-.08.34.34,0,0,0-.2.06.35.35,0,0,0-.14.17.72.72,0,0,0-.08.3,2.76,2.76,0,0,0,0,.44v.28H31Z" transform="translate(-14.84 -12.4)"/><path class="cls-3" d="M31.4,54.34l.18-.07.09-.08a.43.43,0,0,0,0-.16,1.33,1.33,0,0,0,0-.32V52a.48.48,0,0,0,0-.2.2.2,0,0,0-.11-.11.81.81,0,0,0-.22-.07v-.16l.74,0h.19V53.7a1.62,1.62,0,0,0,0,.38.24.24,0,0,0,.09.16.69.69,0,0,0,.24.1v.15H31.4Zm.91-4.13v.62h-.59v-.62Z" transform="translate(-14.84 -12.4)"/><path class="cls-3" d="M33.05,51.62a.88.88,0,0,0,.26-.09.61.61,0,0,0,.15-.17.73.73,0,0,0,.09-.25c0-.1,0-.24.06-.44h.45v.79h1v.32h-1v1.41a3.19,3.19,0,0,0,0,.49.77.77,0,0,0,.09.28.38.38,0,0,0,.16.15.52.52,0,0,0,.23,0,.6.6,0,0,0,.24,0A1,1,0,0,0,35,54l.14.18a1.73,1.73,0,0,1-.42.31.92.92,0,0,1-.42.1.74.74,0,0,1-.61-.24,1.21,1.21,0,0,1-.2-.76V51.78h-.47Z" transform="translate(-14.84 -12.4)"/><path class="cls-3" d="M37.6,52.15h-.31a1.06,1.06,0,0,0-.16-.3.62.62,0,0,0-.22-.15.84.84,0,0,0-.29-.05.65.65,0,0,0-.41.12.4.4,0,0,0-.15.33.43.43,0,0,0,.06.24.66.66,0,0,0,.19.18,4.8,4.8,0,0,0,.45.22,3.29,3.29,0,0,1,.5.25.9.9,0,0,1,.27.28.62.62,0,0,1,.1.37,1,1,0,0,1-.08.42.81.81,0,0,1-.24.28,1.11,1.11,0,0,1-.37.15,1.78,1.78,0,0,1-.47,0,3,3,0,0,1-.52,0,3.86,3.86,0,0,1-.49-.1v-.66h.31a.8.8,0,0,0,.26.42.7.7,0,0,0,.46.13l.22,0a.93.93,0,0,0,.2-.08A.37.37,0,0,0,37,54a.51.51,0,0,0,0-.5.68.68,0,0,0-.19-.19,4.15,4.15,0,0,0-.47-.23,3.45,3.45,0,0,1-.47-.23,1.15,1.15,0,0,1-.27-.27.64.64,0,0,1-.1-.37.77.77,0,0,1,.14-.45.86.86,0,0,1,.41-.3,1.87,1.87,0,0,1,.62-.1l.41,0,.49.08Z" transform="translate(-14.84 -12.4)"/><path class="cls-3" d="M40,52.14l1.88-2.66,1.88,2.66L41.92,54.8Z" transform="translate(-14.84 -12.4)"/><path class="cls-3" d="M47.23,52.61v1.08a2.38,2.38,0,0,0,0,.33.5.5,0,0,0,0,.16.27.27,0,0,0,.1.08,1.14,1.14,0,0,0,.2.08v.15H46.26v-.15a.87.87,0,0,0,.27-.12.3.3,0,0,0,.08-.17,1.68,1.68,0,0,0,0-.35V51a2.73,2.73,0,0,0,0-.32.53.53,0,0,0,0-.15.28.28,0,0,0-.1-.09l-.21-.08v-.15h1.57a1.85,1.85,0,0,1,1.11.27,1,1,0,0,1,.37.84,1.17,1.17,0,0,1-.24.74,1.54,1.54,0,0,1-.72.47v0a1.11,1.11,0,0,1,.34.22,2.62,2.62,0,0,1,.3.46l.29.52a2.27,2.27,0,0,0,.21.35,1.11,1.11,0,0,0,.18.19.66.66,0,0,0,.25.09v.15H49a3.17,3.17,0,0,1-.23-.36c-.07-.13-.15-.26-.21-.39l-.28-.54-.21-.35a.8.8,0,0,0-.15-.16.39.39,0,0,0-.15-.06l-.23,0Zm0-2.16v1.89h.36a2.68,2.68,0,0,0,.45,0,.89.89,0,0,0,.31-.15.83.83,0,0,0,.24-.31,1.23,1.23,0,0,0,.08-.49,1.06,1.06,0,0,0-.1-.5.67.67,0,0,0-.31-.31,1.29,1.29,0,0,0-.57-.1Z" transform="translate(-14.84 -12.4)"/><path class="cls-3" d="M52.67,54a3.6,3.6,0,0,1-.37.34,1.27,1.27,0,0,1-.37.18,1.33,1.33,0,0,1-.45.07,1.24,1.24,0,0,1-1-.39A1.76,1.76,0,0,1,50.16,53a2,2,0,0,1,.17-.83,1.32,1.32,0,0,1,.48-.56,1.38,1.38,0,0,1,.73-.2,1.44,1.44,0,0,1,.54.1.92.92,0,0,1,.36.28,1.34,1.34,0,0,1,.21.45,3,3,0,0,1,.09.7h-2v0a2.25,2.25,0,0,0,.08.63.77.77,0,0,0,.78.55,1.2,1.2,0,0,0,.47-.1,1.39,1.39,0,0,0,.41-.31Zm-.53-1.29a2.58,2.58,0,0,0-.08-.56.88.88,0,0,0-.2-.33.51.51,0,0,0-.35-.12.62.62,0,0,0-.53.27,1.44,1.44,0,0,0-.23.74Z" transform="translate(-14.84 -12.4)"/><path class="cls-3" d="M53.15,51.62a.79.79,0,0,0,.26-.09.49.49,0,0,0,.15-.17.73.73,0,0,0,.09-.25c0-.1,0-.24.07-.44h.45v.79h1v.32h-1v1.41c0,.2,0,.37,0,.49a.61.61,0,0,0,.1.28.33.33,0,0,0,.16.15.48.48,0,0,0,.22,0,.6.6,0,0,0,.24,0,.82.82,0,0,0,.22-.16l.14.18a1.73,1.73,0,0,1-.42.31.92.92,0,0,1-.42.1.75.75,0,0,1-.61-.24,1.21,1.21,0,0,1-.2-.76V51.78h-.47Z" transform="translate(-14.84 -12.4)"/><path class="cls-3" d="M55.57,54.34l.18-.07a.34.34,0,0,0,.09-.08A.68.68,0,0,0,55.9,54a2.21,2.21,0,0,0,0-.32V52.32c0-.13,0-.24,0-.32a.5.5,0,0,0,0-.2.25.25,0,0,0-.12-.11.81.81,0,0,0-.22-.07v-.16l.74,0h.19V53.7a1.62,1.62,0,0,0,0,.38.28.28,0,0,0,.09.16.69.69,0,0,0,.24.1v.15H55.57Zm.91-4.13v.62H55.9v-.62Z" transform="translate(-14.84 -12.4)"/><path class="cls-3" d="M58.27,52h0a2.55,2.55,0,0,1,.33-.33,1,1,0,0,1,.32-.19,1.18,1.18,0,0,1,.39-.07l.33,0v.73h-.35a.9.9,0,0,0-.17-.25.32.32,0,0,0-.23-.08.51.51,0,0,0-.23.07,1,1,0,0,0-.22.2.83.83,0,0,0-.14.23.73.73,0,0,0,0,.27V53.7a1.28,1.28,0,0,0,0,.4.31.31,0,0,0,.11.16.83.83,0,0,0,.24.08v.15H57.41v-.15l.18-.07.09-.08a.68.68,0,0,0,.06-.16,2.64,2.64,0,0,0,0-.32V52a.48.48,0,0,0,0-.2.2.2,0,0,0-.11-.11.81.81,0,0,0-.22-.07v-.16l.74,0h.19Z" transform="translate(-14.84 -12.4)"/><path class="cls-3" d="M62.57,54a3.6,3.6,0,0,1-.37.34,1.27,1.27,0,0,1-.37.18,1.33,1.33,0,0,1-.45.07,1.22,1.22,0,0,1-1-.39A1.76,1.76,0,0,1,60.06,53a2,2,0,0,1,.17-.83,1.26,1.26,0,0,1,.48-.56,1.35,1.35,0,0,1,.73-.2,1.44,1.44,0,0,1,.54.1.92.92,0,0,1,.36.28,1.34,1.34,0,0,1,.21.45,3,3,0,0,1,.09.7h-2v0a1.93,1.93,0,0,0,.08.63A.79.79,0,0,0,61,54a.76.76,0,0,0,.5.15,1.11,1.11,0,0,0,.46-.1,1.42,1.42,0,0,0,.42-.31ZM62,52.66A2,2,0,0,0,62,52.1a.68.68,0,0,0-.2-.33.5.5,0,0,0-.35-.12.62.62,0,0,0-.52.27,1.44,1.44,0,0,0-.23.74Z" transform="translate(-14.84 -12.4)"/><path class="cls-3" d="M64.1,52h0l.31-.29a1.32,1.32,0,0,1,.24-.15l.21-.09a.75.75,0,0,1,.21,0,.86.86,0,0,1,.52.14.78.78,0,0,1,.27.45,5.09,5.09,0,0,1,.39-.36,1.52,1.52,0,0,1,.3-.17.88.88,0,0,1,.33-.06,1,1,0,0,1,.37.06.61.61,0,0,1,.26.19.73.73,0,0,1,.15.32,1.86,1.86,0,0,1,0,.52v1.2a2.16,2.16,0,0,0,0,.33.39.39,0,0,0,0,.14.28.28,0,0,0,.1.09.67.67,0,0,0,.2.08v.15H66.86v-.15l.18-.07a.24.24,0,0,0,.09-.08.68.68,0,0,0,.06-.16,2.33,2.33,0,0,0,0-.32v-.83c0-.18,0-.33,0-.45a1.55,1.55,0,0,0,0-.28.84.84,0,0,0-.07-.16l-.1-.11-.13-.07a.53.53,0,0,0-.19,0,.47.47,0,0,0-.24.05,1,1,0,0,0-.24.17.94.94,0,0,0-.18.24.65.65,0,0,0-.06.29V53.7A2.16,2.16,0,0,0,66,54a.39.39,0,0,0,0,.14.2.2,0,0,0,.09.09.76.76,0,0,0,.21.08v.15H65.05v-.15l.18-.07.09-.08a.68.68,0,0,0,.06-.16,2.73,2.73,0,0,0,0-.32v-.83c0-.19,0-.34,0-.46a1.55,1.55,0,0,0,0-.29.39.39,0,0,0-.09-.17.31.31,0,0,0-.1-.1A.52.52,0,0,0,65,51.8h-.16a.54.54,0,0,0-.25.06.79.79,0,0,0-.23.17.76.76,0,0,0-.18.23.55.55,0,0,0-.06.26V53.7a1.94,1.94,0,0,0,0,.27.28.28,0,0,0,0,.15.19.19,0,0,0,0,.09l.09.06.18.07v.15H63.24v-.15l.18-.07.09-.08a.43.43,0,0,0,.05-.16,1.33,1.33,0,0,0,0-.32V52a.48.48,0,0,0,0-.2.2.2,0,0,0-.11-.11,1,1,0,0,0-.22-.07v-.16l.74,0h.19Z" transform="translate(-14.84 -12.4)"/><path class="cls-3" d="M71.22,54a3.61,3.61,0,0,1-.38.34,1.16,1.16,0,0,1-.37.18,1.25,1.25,0,0,1-.45.07,1.22,1.22,0,0,1-1-.39A1.71,1.71,0,0,1,68.7,53a2,2,0,0,1,.17-.83,1.3,1.3,0,0,1,1.21-.76,1.5,1.5,0,0,1,.55.1.92.92,0,0,1,.36.28,1.34,1.34,0,0,1,.21.45,3.06,3.06,0,0,1,.08.7h-2v0a1.91,1.91,0,0,0,.09.63.72.72,0,0,0,.27.4.8.8,0,0,0,.5.15,1.2,1.2,0,0,0,.47-.1,1.27,1.27,0,0,0,.41-.31Zm-.54-1.29a2.58,2.58,0,0,0-.08-.56.77.77,0,0,0-.2-.33.51.51,0,0,0-.35-.12.61.61,0,0,0-.52.27,1.35,1.35,0,0,0-.23.74Z" transform="translate(-14.84 -12.4)"/><path class="cls-3" d="M75,54.49H73.72v-.15l.18-.07a.24.24,0,0,0,.09-.08.3.3,0,0,0,.06-.16,2.33,2.33,0,0,0,0-.32v-.83c0-.15,0-.28,0-.4a2,2,0,0,0,0-.3.51.51,0,0,0-.08-.18.36.36,0,0,0-.1-.11.57.57,0,0,0-.13-.08.59.59,0,0,0-.2,0,.49.49,0,0,0-.24.05A1,1,0,0,0,73,52a1,1,0,0,0-.2.23.6.6,0,0,0-.06.27V53.7a1.62,1.62,0,0,0,0,.38.28.28,0,0,0,.09.16.69.69,0,0,0,.24.1v.15H71.88v-.15l.18-.07a.24.24,0,0,0,.09-.08.68.68,0,0,0,.06-.16,2.21,2.21,0,0,0,0-.32V52.32c0-.13,0-.24,0-.32a.5.5,0,0,0,0-.2.25.25,0,0,0-.12-.11.81.81,0,0,0-.22-.07v-.16l.74,0h.2l0,.52h.05a3.2,3.2,0,0,1,.37-.34,1.46,1.46,0,0,1,.3-.16.78.78,0,0,1,.31-.05,1,1,0,0,1,.31,0,.51.51,0,0,1,.23.12.55.55,0,0,1,.17.2.81.81,0,0,1,.1.3,1.74,1.74,0,0,1,0,.43v1.2a2.73,2.73,0,0,0,0,.32.54.54,0,0,0,0,.15l.1.09.21.08Z" transform="translate(-14.84 -12.4)"/><path class="cls-3" d="M75.35,51.62a.71.71,0,0,0,.26-.09.52.52,0,0,0,.16-.17,1.05,1.05,0,0,0,.08-.25,4.1,4.1,0,0,0,.07-.44h.45v.79h1v.32h-1v1.41a3.19,3.19,0,0,0,0,.49.52.52,0,0,0,.09.28.38.38,0,0,0,.16.15.52.52,0,0,0,.23,0,.69.69,0,0,0,.24,0,1.34,1.34,0,0,0,.22-.16l.14.18a1.59,1.59,0,0,1-.43.31.87.87,0,0,1-.42.1A.76.76,0,0,1,76,54.3a1.21,1.21,0,0,1-.2-.76V51.78h-.47Z" transform="translate(-14.84 -12.4)"/><path class="cls-3" d="M79.52,52.14l1.88-2.66,1.88,2.66L81.4,54.8Z" transform="translate(-14.84 -12.4)"/><path class="cls-3" d="M86.71,53.7c0,.14,0,.24,0,.31a.44.44,0,0,0,0,.15.32.32,0,0,0,.1.1.76.76,0,0,0,.21.08v.15H85.74v-.15a.87.87,0,0,0,.27-.12.3.3,0,0,0,.08-.17,1.68,1.68,0,0,0,0-.35V51a2.73,2.73,0,0,0,0-.32.53.53,0,0,0,0-.15.28.28,0,0,0-.1-.09l-.21-.08v-.15h1.34v.15l-.2.07-.1.09a.5.5,0,0,0,0,.16,2.33,2.33,0,0,0,0,.32Z" transform="translate(-14.84 -12.4)"/><path class="cls-3" d="M90.9,54.49H89.65v-.15l.18-.07.09-.08A.43.43,0,0,0,90,54a1.38,1.38,0,0,0,0-.32v-.83c0-.15,0-.28,0-.4a2,2,0,0,0,0-.3.84.84,0,0,0-.07-.18.38.38,0,0,0-.11-.11.57.57,0,0,0-.13-.08.59.59,0,0,0-.2,0,.52.52,0,0,0-.24.05A1,1,0,0,0,89,52a.92.92,0,0,0-.19.23.6.6,0,0,0-.06.27V53.7a1.79,1.79,0,0,0,0,.38.29.29,0,0,0,.1.16.63.63,0,0,0,.23.1v.15H87.81v-.15l.17-.07a.24.24,0,0,0,.09-.08.3.3,0,0,0,.06-.16,2.21,2.21,0,0,0,0-.32V52.32a2.92,2.92,0,0,0,0-.32.5.5,0,0,0,0-.2.22.22,0,0,0-.12-.11.71.71,0,0,0-.22-.07v-.16l.74,0h.2l0,.52h0a3.13,3.13,0,0,1,.38-.34,1.18,1.18,0,0,1,.29-.16.81.81,0,0,1,.31-.05,1,1,0,0,1,.31,0,.55.55,0,0,1,.24.12.85.85,0,0,1,.17.2,1.5,1.5,0,0,1,.1.3,2.54,2.54,0,0,1,0,.43v1.2a2.73,2.73,0,0,0,0,.32.53.53,0,0,0,0,.15l.09.09.21.08Z" transform="translate(-14.84 -12.4)"/><path class="cls-3" d="M93.59,52.15h-.3a1.07,1.07,0,0,0-.17-.3.51.51,0,0,0-.21-.15.85.85,0,0,0-.3-.05.62.62,0,0,0-.4.12.4.4,0,0,0-.15.33.43.43,0,0,0,.06.24.76.76,0,0,0,.18.18l.45.22a2.87,2.87,0,0,1,.5.25.93.93,0,0,1,.28.28.7.7,0,0,1,.1.37.9.9,0,0,1-.09.42.72.72,0,0,1-.24.28,1,1,0,0,1-.37.15,1.74,1.74,0,0,1-.47,0,2.85,2.85,0,0,1-.51,0,3.86,3.86,0,0,1-.49-.1v-.66h.31a.86.86,0,0,0,.25.42.73.73,0,0,0,.47.13l.22,0,.19-.08A.4.4,0,0,0,93,54a.6.6,0,0,0,0-.24.48.48,0,0,0-.06-.26.61.61,0,0,0-.2-.19,3.42,3.42,0,0,0-.47-.23,3.25,3.25,0,0,1-.46-.23,1,1,0,0,1-.28-.27.73.73,0,0,1-.1-.37.77.77,0,0,1,.14-.45.92.92,0,0,1,.41-.3,2,2,0,0,1,.63-.1l.4,0,.49.08Z" transform="translate(-14.84 -12.4)"/><path class="cls-3" d="M94.22,51.46h.9v1.61a4,4,0,0,0,0,.57.83.83,0,0,0,.09.29.41.41,0,0,0,.16.16.48.48,0,0,0,.29.07.64.64,0,0,0,.23,0,.9.9,0,0,0,.24-.16.71.71,0,0,0,.2-.24.6.6,0,0,0,.06-.27V52.25c0-.12,0-.21,0-.28a1.06,1.06,0,0,0,0-.14l0-.09a.31.31,0,0,0-.09-.07l-.18-.06v-.15H97v2.16c0,.17,0,.28,0,.36a.38.38,0,0,0,0,.17.28.28,0,0,0,.09.1,1.1,1.1,0,0,0,.24.08v.16l-.72,0h-.2l0-.52h0a2,2,0,0,1-.5.42,1,1,0,0,1-.48.13,1,1,0,0,1-.48-.11.73.73,0,0,1-.28-.34,1.81,1.81,0,0,1-.09-.64v-1.2a2.74,2.74,0,0,0,0-.37.27.27,0,0,0-.08-.16.66.66,0,0,0-.25-.11Z" transform="translate(-14.84 -12.4)"/><path class="cls-3" d="M98.77,52h0a2,2,0,0,1,.32-.33,1.18,1.18,0,0,1,.32-.19,1.23,1.23,0,0,1,.39-.07l.34,0v.73h-.36a.9.9,0,0,0-.16-.25.36.36,0,0,0-.24-.08.55.55,0,0,0-.23.07,1,1,0,0,0-.21.2.9.9,0,0,0-.15.23,1,1,0,0,0,0,.27V53.7a1.28,1.28,0,0,0,0,.4.31.31,0,0,0,.11.16.92.92,0,0,0,.25.08v.15H97.92v-.15l.17-.07a.24.24,0,0,0,.09-.08.3.3,0,0,0,.06-.16,2.21,2.21,0,0,0,0-.32V52.32c0-.13,0-.24,0-.32a.5.5,0,0,0,0-.2.25.25,0,0,0-.12-.11.81.81,0,0,0-.22-.07v-.16l.74,0h.2Z" transform="translate(-14.84 -12.4)"/><path class="cls-3" d="M102.36,54h0a1.85,1.85,0,0,1-.52.39,1.13,1.13,0,0,1-.51.12,1,1,0,0,1-.43-.09.71.71,0,0,1-.28-.26.8.8,0,0,1,.36-1.11,3.2,3.2,0,0,1,1.37-.3v-.2a1.76,1.76,0,0,0-.06-.52.5.5,0,0,0-.2-.28.64.64,0,0,0-.36-.09.57.57,0,0,0-.4.13.83.83,0,0,0-.23.39h-.42V51.8a5.15,5.15,0,0,1,.51-.24,2.08,2.08,0,0,1,.41-.11,1.84,1.84,0,0,1,.41-.05,1.22,1.22,0,0,1,.51.1.65.65,0,0,1,.28.31,1.42,1.42,0,0,1,.1.62v1.44a1.1,1.1,0,0,0,0,.18.39.39,0,0,0,0,.13.24.24,0,0,0,.09.08.81.81,0,0,0,.2.08v.15h-.87Zm-.06-1a2.5,2.5,0,0,0-1,.17.54.54,0,0,0-.32.5.5.5,0,0,0,.07.29.33.33,0,0,0,.19.14.68.68,0,0,0,.26,0,.76.76,0,0,0,.39-.1.81.81,0,0,0,.28-.27.65.65,0,0,0,.09-.32Z" transform="translate(-14.84 -12.4)"/><path class="cls-3" d="M106.82,54.49h-1.25v-.15l.18-.07a.24.24,0,0,0,.09-.08.68.68,0,0,0,.06-.16,2.33,2.33,0,0,0,0-.32v-.83c0-.15,0-.28,0-.4a1.86,1.86,0,0,0,0-.3.52.52,0,0,0-.07-.18.36.36,0,0,0-.1-.11l-.14-.08a.59.59,0,0,0-.2,0,.46.46,0,0,0-.23.05.85.85,0,0,0-.25.17.92.92,0,0,0-.19.23.6.6,0,0,0-.06.27V53.7a2.92,2.92,0,0,0,0,.38.29.29,0,0,0,.1.16.71.71,0,0,0,.23.1v.15h-1.24v-.15l.18-.07.09-.08a.43.43,0,0,0,0-.16,1.33,1.33,0,0,0,0-.32V52a.48.48,0,0,0,0-.2.2.2,0,0,0-.11-.11.81.81,0,0,0-.22-.07v-.16l.74,0h.19l0,.52h0a3.13,3.13,0,0,1,.38-.34,1.71,1.71,0,0,1,.29-.16.86.86,0,0,1,.32-.05,1,1,0,0,1,.3,0,.55.55,0,0,1,.24.12.55.55,0,0,1,.17.2,1.05,1.05,0,0,1,.1.3,2.54,2.54,0,0,1,0,.43v1.2a2.33,2.33,0,0,0,0,.32.33.33,0,0,0,0,.15.38.38,0,0,0,.09.09l.21.08Z" transform="translate(-14.84 -12.4)"/><path class="cls-3" d="M109.75,51.53v.66h-.4a1,1,0,0,0-.13-.32.48.48,0,0,0-.18-.17.72.72,0,0,0-.27-.05.6.6,0,0,0-.39.15,1,1,0,0,0-.27.43,2.16,2.16,0,0,0-.1.72,2.56,2.56,0,0,0,0,.49,1.07,1.07,0,0,0,.13.38.64.64,0,0,0,.24.25.74.74,0,0,0,.38.09,1,1,0,0,0,.41-.09,1.36,1.36,0,0,0,.39-.3l.18.21a2.23,2.23,0,0,1-.28.27,2,2,0,0,1-.27.17,1.52,1.52,0,0,1-.28.09,1.39,1.39,0,0,1-.3,0,1.11,1.11,0,0,1-.92-.4,1.81,1.81,0,0,1-.31-1.15,2,2,0,0,1,.17-.83,1.36,1.36,0,0,1,.5-.56,1.41,1.41,0,0,1,.74-.2,3.53,3.53,0,0,1,.48,0A3.13,3.13,0,0,1,109.75,51.53Z" transform="translate(-14.84 -12.4)"/><path class="cls-3" d="M112.83,54a3.61,3.61,0,0,1-.38.34,1.27,1.27,0,0,1-.37.18,1.33,1.33,0,0,1-.45.07,1.25,1.25,0,0,1-1-.39,1.76,1.76,0,0,1-.33-1.16,2,2,0,0,1,.17-.83,1.28,1.28,0,0,1,.49-.56,1.32,1.32,0,0,1,.72-.2,1.5,1.5,0,0,1,.55.1,1,1,0,0,1,.35.28,1.34,1.34,0,0,1,.21.45,3,3,0,0,1,.09.7h-2v0a2.25,2.25,0,0,0,.08.63.77.77,0,0,0,.78.55,1.2,1.2,0,0,0,.47-.1,1.39,1.39,0,0,0,.41-.31Zm-.54-1.29a2.58,2.58,0,0,0-.08-.56.88.88,0,0,0-.2-.33.51.51,0,0,0-.35-.12.64.64,0,0,0-.53.27,1.35,1.35,0,0,0-.22.74Z" transform="translate(-14.84 -12.4)"/></svg>
