<?xml version="1.0" encoding="utf-8"?>
<!-- Generator: Adobe Illustrator 27.3.1, SVG Export Plug-In . SVG Version: 6.00 Build 0)  -->
<svg version="1.1" id="Layer_1" xmlns="http://www.w3.org/2000/svg" xmlns:xlink="http://www.w3.org/1999/xlink" x="0px" y="0px"
	 viewBox="0 0 476.4 164" style="enable-background:new 0 0 476.4 164;" xml:space="preserve">
<style type="text/css">
	.st0{fill:#594FEF;}
	.st1{fill:#594FF0;}
</style>
<path class="st0" d="M310.6,76.9c-0.7-6.8-3.6-12.7-8.2-16.8c-3.7-3.3-8.5-5.3-14-6c-9.4-1.2-18.5,1.5-24.9,7.2l7.8,8.7
	c3.8-3.4,9.7-5.1,15.6-4.3c3.1,0.4,5.8,1.5,7.7,3.2c2.6,2.3,4,5.7,4.3,9.2c-0.1,0-0.1-0.1-0.2-0.1c-5.2-2.7-11.9-3.8-18-2.9
	c-7.4,1.1-13.2,4.7-16.3,10.4c-2.6,4.7-2.7,9.8-0.3,14.2c3.6,6.5,11.5,9.8,17.8,10.1c0.4,0,0.9,0,1.3,0c7,0,13.7-3,18.8-8.3
	c0.5,2.3,0.9,4.9,1.3,7.6l11.6-1.4c-0.8-6.5-2.1-13.4-5.4-19.3C310.6,84.8,311,80.8,310.6,76.9z M282.6,98.1
	c-3.4-0.2-7.2-1.9-8.2-4.1c-0.1-0.2-0.7-1.2,0.3-2.9c1.8-3.2,6-4.7,10.4-4.7c2.9,0,5.9,0.6,8.3,1.9c1,0.5,1.9,1.2,2.8,1.9
	C292.8,95.5,287.9,98.4,282.6,98.1z"/>
<path class="st0" d="M105.2,79.6c2.7-4.9,2.8-10.2,0.2-14.8c-3.1-5.6-10-9.7-17.2-10.1C78,54.1,68.7,59,63.4,67.4
	c-2.8-3.4-3.7-6.2-3.7-6.4L54,62.6l-5.7,1.5c0.3,0.9,2.5,8.6,10.7,15.5c-0.3,2.4-0.3,4.8-0.1,7.1c0.7,6.8,3.6,12.7,8.2,16.8
	c3.7,3.3,8.5,5.3,14,6c1.2,0.2,2.5,0.2,3.7,0.2c7.7,0,15.3-2.9,21-8l-7.8-8.7c-4.2,3.7-10,5.6-15.5,4.9c-3.1-0.4-5.8-1.5-7.7-3.2
	c-2.5-2.2-3.8-5.3-4.2-8.6c4.5,1.5,9,2.2,12.5,2.4C96.7,89.4,102.6,84.2,105.2,79.6z M87.6,66.4c3.1,0.2,6.4,1.9,7.5,4
	c0.4,0.8,0.6,2.3-0.2,3.5c-2.1,3-8.3,3.1-11,2.9c-3.2-0.2-7.3-0.8-11.1-2.4C75.8,69.1,81.4,66,87.6,66.4z"/>
<path class="st0" d="M336,71.1l-0.1-15.2L324.1,56l0.5,52.5l11.7,0c0.1-5-0.3-16.6,4.9-24.8c6.9-11,14.2-15.6,22.3-17.1l-2.2-11.5
	C350.3,57.2,343.3,61.6,336,71.1z"/>
<path class="st0" d="M420.6,95.8c-1.7,1.3-7.6,5-14.1-1.7c-5.6-5.8-9.9-11.8-12.8-16.5c0.4-0.5,0.9-1,1.3-1.5
	c7.2-7.2,17.8-9.8,17.9-9.9L410.2,55c-0.6,0.1-13.9,3.4-23.5,13c-0.7,0.7-1.4,1.4-2,2.1l0.1-34.9h-11.7l-0.1,69
	c-0.1,2.5,0,4.1,0,4.3l11.7,0.1v-3.9c0.1-3.5,0.7-9.3,2.6-15.3c2.9,4.1,6.5,8.6,10.8,13c5.4,5.5,11.1,7.4,16.2,7.4
	c5.9,0,10.9-2.5,13.7-4.8L420.6,95.8z"/>
<path class="st0" d="M171.1,54.6c-6.6,0-12.5,2.8-16.6,7.4c-4.1-4.5-10-7.4-16.6-7.4c-12.4,0-22.5,10.1-22.5,22.5v31.1h11.7V77.1
	c0-5.9,4.8-10.8,10.8-10.8c5.9,0,10.8,4.8,10.8,10.8v31.1h11.7V77.1c0-5.9,4.8-10.8,10.8-10.8s10.8,4.8,10.8,10.8v31.1h11.7V77.1
	C193.6,64.7,183.5,54.6,171.1,54.6z"/>
<path class="st0" d="M229.1,54.2c-5-0.3-9.8,0.7-14.1,2.8V35.2h-11.7v32.5c0,0,0,0,0,0.1l0,0v18.3c0,6.4,2.5,12.4,7,17
	c4.5,4.5,10.6,7,17,7c0,0,0,0,0,0c7.7,0,15.1-3.2,20.4-8.8c5.3-5.7,8-13.1,7.5-20.9C254.4,66.3,243.1,55,229.1,54.2z M239.2,93.2
	c-3.1,3.3-7.3,5.1-11.9,5.1c0,0,0,0,0,0c-3.3,0-6.4-1.3-8.7-3.6c-2.3-2.3-3.6-5.4-3.6-8.7V71.4c3.3-3.8,8.2-5.9,13.3-5.6
	c8,0.5,14.7,7.2,15.2,15.2C243.8,85.6,242.3,89.9,239.2,93.2z"/>
<g>
	<path class="st1" d="M424.2,37.3h-3.6v-2h9.5v2h-3.6v9.5h-2.4v-9.5h0.2H424.2z"/>
	<path class="st1" d="M444.1,35.2v11.7h-2.4v-7.4l-3.2,7h-1.4l-3.2-7v7.4h-2.2V35.2h2.4l4,8.2l3.6-8.2H444.1L444.1,35.2z"/>
</g>
</svg>
