<?xml version="1.0" encoding="UTF-8"?>
<!DOCTYPE svg PUBLIC "-//W3C//DTD SVG 1.1//EN" "http://www.w3.org/Graphics/SVG/1.1/DTD/svg11.dtd">
<svg xmlns="http://www.w3.org/2000/svg" version="1.1" width="373px" height="135px" style="shape-rendering:geometricPrecision; text-rendering:geometricPrecision; image-rendering:optimizeQuality; fill-rule:evenodd; clip-rule:evenodd" xmlns:xlink="http://www.w3.org/1999/xlink">
<g><path style="opacity:1" fill="#fcfcfc" d="M -0.5,-0.5 C 123.833,-0.5 248.167,-0.5 372.5,-0.5C 372.5,44.5 372.5,89.5 372.5,134.5C 248.167,134.5 123.833,134.5 -0.5,134.5C -0.5,89.5 -0.5,44.5 -0.5,-0.5 Z"/></g>
<g><path style="opacity:1" fill="#131c4c" d="M 219.5,59.5 C 230.003,41.0009 224.67,29.8342 203.5,26C 185.037,23.7997 167.371,26.2997 150.5,33.5C 138.374,38.2093 126.708,43.876 115.5,50.5C 128.425,39.5299 143.091,31.3632 159.5,26C 174.762,20.8132 190.429,18.4799 206.5,19C 231.946,22.0531 237.779,34.2197 224,55.5C 222.629,57.0414 221.129,58.3747 219.5,59.5 Z"/></g>
<g><path style="opacity:1" fill="#731f41" d="M 219.5,59.5 C 217.118,63.2858 214.118,65.6191 210.5,66.5C 215.383,61.0671 218.383,54.7338 219.5,47.5C 218.902,40.1321 215.235,34.9654 208.5,32C 196.722,28.6748 184.722,27.6748 172.5,29C 165.175,30.6092 157.842,32.1092 150.5,33.5C 167.371,26.2997 185.037,23.7997 203.5,26C 224.67,29.8342 230.003,41.0009 219.5,59.5 Z"/></g>
<g><path style="opacity:1" fill="#8e7990" d="M 115.5,50.5 C 114.438,52.7565 112.772,53.9232 110.5,54C 111.789,52.1978 113.456,51.0312 115.5,50.5 Z"/></g>
<g><path style="opacity:1" fill="#001447" d="M 192.5,96.5 C 186.642,96.8222 180.975,96.4889 175.5,95.5C 176.117,95.3893 176.617,95.056 177,94.5C 177.5,82.8381 177.667,71.1714 177.5,59.5C 175.712,59.7852 174.045,59.4519 172.5,58.5C 180.145,57.3352 187.812,57.1685 195.5,58C 201.616,60.3215 203.116,64.4881 200,70.5C 197.707,72.3723 195.207,73.8723 192.5,75C 201.608,75.1098 205.108,79.6098 203,88.5C 200.789,92.8793 197.289,95.5459 192.5,96.5 Z"/></g>
<g><path style="opacity:1" fill="#761e3e" d="M 313.5,56.5 C 314.309,57.4687 315.309,58.3021 316.5,59C 315.072,62.4741 315.572,62.9741 318,60.5C 319.009,62.0249 319.509,63.6916 319.5,65.5C 314.002,68.7234 309.668,67.5568 306.5,62C 307.854,60.7063 309.188,60.5396 310.5,61.5C 311.695,59.8794 312.695,58.2128 313.5,56.5 Z"/></g>
<g><path style="opacity:1" fill="#f0f1f3" d="M 182.5,59.5 C 186.911,59.021 191.078,59.6876 195,61.5C 197.09,65.1207 196.923,68.6207 194.5,72C 190.747,73.9889 186.747,74.8222 182.5,74.5C 182.5,69.5 182.5,64.5 182.5,59.5 Z"/></g>
<g><path style="opacity:1" fill="#071749" d="M 40.5,83.5 C 42.8333,82.8333 45.1667,82.1667 47.5,81.5C 50.0009,81.5109 50.1676,82.1776 48,83.5C 47.5012,87.4862 47.3345,91.4862 47.5,95.5C 39.9415,97.3683 32.2749,97.8683 24.5,97C 12.5745,92.6589 7.74113,84.1589 10,71.5C 15.0082,60.578 23.5082,55.7447 35.5,57C 39.6679,57.3753 43.6679,58.3753 47.5,60C 46.8803,62.4728 46.2136,64.9728 45.5,67.5C 45.8569,62.4134 43.5235,59.58 38.5,59C 19.3399,57.8416 12.1733,66.6749 17,85.5C 22.9902,95.5252 31.3235,98.1918 42,93.5C 42.1667,91.8333 42.3333,90.1667 42.5,88.5C 42.4439,86.3603 41.7773,84.6936 40.5,83.5 Z"/></g>
<g><path style="opacity:1" fill="#001245" d="M 304.5,74.5 C 301.833,74.5 299.167,74.5 296.5,74.5C 296.178,80.358 296.511,86.0247 297.5,91.5C 297.5,92.8333 297.5,94.1667 297.5,95.5C 299.167,95.5 300.833,95.5 302.5,95.5C 297.695,96.4872 292.695,96.8205 287.5,96.5C 288.878,95.7656 290.378,95.0989 292,94.5C 292.5,87.8417 292.666,81.175 292.5,74.5C 288.757,74.5408 288.59,73.8741 292,72.5C 291.962,63.0545 296.462,57.3879 305.5,55.5C 305.66,57.1992 305.494,58.8659 305,60.5C 302.667,59.1667 300.333,59.1667 298,60.5C 296.646,64.3628 296.146,68.3628 296.5,72.5C 299.698,71.9644 302.365,72.631 304.5,74.5 Z"/></g>
<g><path style="opacity:1" fill="#001246" d="M 325.5,93.5 C 325.5,87.1667 325.5,80.8333 325.5,74.5C 323.901,74.7678 322.568,74.4345 321.5,73.5C 322.583,73.4606 323.583,73.1272 324.5,72.5C 325.167,69.5 325.833,66.5 326.5,63.5C 327.167,63.1667 327.833,62.8333 328.5,62.5C 329.487,65.7683 329.82,69.1016 329.5,72.5C 340.167,73.1667 340.167,73.8333 329.5,74.5C 329.334,80.5092 329.501,86.5092 330,92.5C 331.826,94.0738 333.993,94.9071 336.5,95C 333.42,97.8155 330.087,98.1489 326.5,96C 325.748,95.3292 325.414,94.4959 325.5,93.5 Z"/></g>
<g><path style="opacity:1" fill="#041345" d="M 59.5,76.5 C 60.8909,72.1121 63.8909,70.1121 68.5,70.5C 68.6633,72.8568 68.4966,75.1902 68,77.5C 65.5577,73.8527 62.7244,73.5194 59.5,76.5 Z"/></g>
<g><path style="opacity:1" fill="#111e4d" d="M 59.5,76.5 C 58.4207,82.4492 58.254,88.4492 59,94.5C 60.3561,95.3802 61.8561,95.7135 63.5,95.5C 58.6946,96.4872 53.6946,96.8205 48.5,96.5C 49.9187,95.5489 51.5853,95.2155 53.5,95.5C 53.5,88.5 53.5,81.5 53.5,74.5C 52.0222,74.762 50.6888,74.4287 49.5,73.5C 52.1608,72.5008 54.8275,71.5008 57.5,70.5C 58.1687,72.6309 58.8354,74.6309 59.5,76.5 Z"/></g>
<g><path style="opacity:1" fill="#0d1b4c" d="M 116.5,92.5 C 116.5,92.8333 116.5,93.1667 116.5,93.5C 111.537,98.27 106.37,98.6034 101,94.5C 99.6226,87.9236 99.1226,81.2569 99.5,74.5C 98.0222,74.762 96.6888,74.4287 95.5,73.5C 98.4185,72.6856 101.252,71.6856 104,70.5C 104.333,77.5 104.667,84.5 105,91.5C 108.517,95.168 112.35,95.5013 116.5,92.5 Z"/></g>
<g><path style="opacity:1" fill="#031447" d="M 127.5,96.5 C 124.5,96.5 121.5,96.5 118.5,96.5C 118.843,94.5168 118.176,93.1834 116.5,92.5C 118.355,86.7482 119.022,80.7482 118.5,74.5C 116.712,74.7852 115.045,74.4519 113.5,73.5C 116.843,72.3227 120.176,71.4893 123.5,71C 122.353,78.4201 122.187,85.9201 123,93.5C 124.31,94.8969 125.81,95.8969 127.5,96.5 Z"/></g>
<g><path style="opacity:1" fill="#031547" d="M 134.5,70.5 C 135.919,72.1511 137.253,73.9844 138.5,76C 137.874,76.7504 137.374,77.5838 137,78.5C 136.333,82.8333 136.333,87.1667 137,91.5C 146.353,97.3979 151.853,94.8979 153.5,84C 152.685,75.26 148.018,71.9267 139.5,74C 145.764,69.0111 151.597,69.5111 157,75.5C 159.73,87.4517 155.064,94.7851 143,97.5C 140.813,97.2115 138.646,96.8782 136.5,96.5C 136.334,101.179 136.501,105.845 137,110.5C 138.399,111.227 139.899,111.727 141.5,112C 136.833,112.667 132.167,112.667 127.5,112C 129.101,111.727 130.601,111.227 132,110.5C 132.5,98.5046 132.667,86.5046 132.5,74.5C 130.712,74.7852 129.045,74.4519 127.5,73.5C 130,72.6411 132.333,71.6411 134.5,70.5 Z"/></g>
<g><path style="opacity:1" fill="#051647" d="M 238.5,70.5 C 239.302,71.9516 239.802,73.6183 240,75.5C 245.071,69.6802 250.737,69.0135 257,73.5C 258.429,80.7194 258.929,88.0528 258.5,95.5C 259.873,95.3433 261.207,95.51 262.5,96C 259.518,96.498 256.518,96.6646 253.5,96.5C 253.666,89.825 253.5,83.1583 253,76.5C 248.375,72.3541 244.041,72.6875 240,77.5C 239.333,83.1667 239.333,88.8333 240,94.5C 241.399,95.2266 242.899,95.7266 244.5,96C 239.833,96.6667 235.167,96.6667 230.5,96C 232.101,95.7266 233.601,95.2266 235,94.5C 235.5,87.8417 235.666,81.175 235.5,74.5C 233.712,74.7852 232.045,74.4519 230.5,73.5C 233.37,72.7432 236.036,71.7432 238.5,70.5 Z"/></g>
<g><path style="opacity:1" fill="#0b1c4b" d="M 320.5,95.5 C 316.03,96.4861 311.363,96.8195 306.5,96.5C 307.878,95.7656 309.378,95.0989 311,94.5C 311.5,87.8417 311.666,81.175 311.5,74.5C 309.712,74.7852 308.045,74.4519 306.5,73.5C 309.54,72.6251 312.54,71.6251 315.5,70.5C 316.498,78.8068 316.831,87.1401 316.5,95.5C 317.833,95.5 319.167,95.5 320.5,95.5 Z"/></g>
<g><path style="opacity:1" fill="#08194a" d="M 78.5,70.5 C 92.4489,69.6109 97.9489,75.9442 95,89.5C 90.8406,96.6699 84.6739,99.1699 76.5,97C 74.3762,95.8783 72.5429,94.3783 71,92.5C 66.9835,82.6475 69.4835,75.3141 78.5,70.5 Z"/></g>
<g><path style="opacity:1" fill="#f4f4f6" d="M 79.5,71.5 C 86.2518,71.4156 90.0852,74.7489 91,81.5C 91.9651,85.7824 91.2984,89.7824 89,93.5C 82.1677,98.3854 77.501,96.7187 75,88.5C 74.3333,84.5 74.3333,80.5 75,76.5C 76.025,74.313 77.525,72.6464 79.5,71.5 Z"/></g>
<g><path style="opacity:1" fill="#081749" d="M 271.5,70.5 C 281.351,68.6984 286.351,72.6984 286.5,82.5C 280.203,83.3197 273.869,83.653 267.5,83.5C 269.195,94.2652 275.028,97.2652 285,92.5C 285.448,94.4089 284.615,95.5756 282.5,96C 271.438,100.138 264.772,96.4717 262.5,85C 262.367,78.0785 265.367,73.2452 271.5,70.5 Z"/></g>
<g><path style="opacity:1" fill="#f1f2f4" d="M 272.5,71.5 C 278.983,71.6512 281.983,74.9845 281.5,81.5C 276.833,81.5 272.167,81.5 267.5,81.5C 267.61,77.2798 269.277,73.9464 272.5,71.5 Z"/></g>
<g><path style="opacity:1" fill="#949aa9" d="M 321.5,73.5 C 322.568,74.4345 323.901,74.7678 325.5,74.5C 325.5,80.8333 325.5,87.1667 325.5,93.5C 324.51,87.69 324.177,81.69 324.5,75.5C 323.022,75.762 321.689,75.4287 320.5,74.5C 320.624,73.8933 320.957,73.56 321.5,73.5 Z"/></g>
<g><path style="opacity:1" fill="#0b1849" d="M 358.5,71.5 C 358.795,73.7354 358.461,75.7354 357.5,77.5C 357.548,74.7081 356.215,72.8747 353.5,72C 346.8,70.6558 344.466,73.1558 346.5,79.5C 350.779,81.1531 355.112,82.6531 359.5,84C 362.368,89.9482 360.701,94.2815 354.5,97C 350.833,97.6667 347.167,97.6667 343.5,97C 341.513,94.5301 341.013,91.6967 342,88.5C 343.696,96.3702 348.196,98.5368 355.5,95C 358.034,92.2533 358.034,89.5867 355.5,87C 350.524,86.1414 346.024,84.3081 342,81.5C 340.357,76.5724 341.857,73.0724 346.5,71C 350.554,70.3064 354.554,70.4731 358.5,71.5 Z"/></g>
<g><path style="opacity:1" fill="#f2f3f4" d="M 182.5,75.5 C 187.08,75.1134 191.414,75.9468 195.5,78C 199.748,83.8618 199.081,89.1951 193.5,94C 189.848,94.4986 186.182,94.6653 182.5,94.5C 182.5,88.1667 182.5,81.8333 182.5,75.5 Z"/></g>
<g><path style="opacity:1" fill="#0a194a" d="M 215.5,70.5 C 225.37,68.7206 230.37,72.7206 230.5,82.5C 224.211,83.3721 217.878,83.7054 211.5,83.5C 213.195,94.2652 219.028,97.2652 229,92.5C 229.448,94.4089 228.615,95.5756 226.5,96C 212.235,99.7757 205.735,94.2757 207,79.5C 208.688,75.3148 211.521,72.3148 215.5,70.5 Z"/></g>
<g><path style="opacity:1" fill="#f2f3f4" d="M 216.5,71.5 C 222.983,71.6512 225.983,74.9845 225.5,81.5C 220.833,81.5 216.167,81.5 211.5,81.5C 211.61,77.2798 213.277,73.9464 216.5,71.5 Z"/></g>
<g><path style="opacity:1" fill="#818899" d="M 304.5,74.5 C 302.393,75.4682 300.059,75.8016 297.5,75.5C 297.5,80.8333 297.5,86.1667 297.5,91.5C 296.511,86.0247 296.178,80.358 296.5,74.5C 299.167,74.5 301.833,74.5 304.5,74.5 Z"/></g>
<g><path style="opacity:1" fill="#9399a8" d="M 358.5,71.5 C 359.797,73.6934 359.797,76.0268 358.5,78.5C 357.893,78.3764 357.56,78.0431 357.5,77.5C 358.461,75.7354 358.795,73.7354 358.5,71.5 Z"/></g>
<g><path style="opacity:1" fill="#363e63" d="M 47.5,81.5 C 45.1667,82.1667 42.8333,82.8333 40.5,83.5C 38.712,83.7852 37.0453,83.4519 35.5,82.5C 39.4454,81.5091 43.4454,81.1758 47.5,81.5 Z"/></g>
<g><path style="opacity:1" fill="#a6acb7" d="M 116.5,93.5 C 116.5,93.1667 116.5,92.8333 116.5,92.5C 118.176,93.1834 118.843,94.5168 118.5,96.5C 121.5,96.5 124.5,96.5 127.5,96.5C 124.375,97.4794 121.042,97.8128 117.5,97.5C 117.768,95.901 117.434,94.5676 116.5,93.5 Z"/></g>
<g><path style="opacity:1" fill="#a8adb8" d="M 63.5,95.5 C 64.0431,95.56 64.3764,95.8933 64.5,96.5C 59.0136,97.8147 53.6803,97.8147 48.5,96.5C 53.6946,96.8205 58.6946,96.4872 63.5,95.5 Z"/></g>
<g><path style="opacity:1" fill="#9aa0ad" d="M 175.5,95.5 C 180.975,96.4889 186.642,96.8222 192.5,96.5C 186.654,97.8166 180.654,97.8166 174.5,96.5C 174.624,95.8933 174.957,95.56 175.5,95.5 Z"/></g>
<g><path style="opacity:1" fill="#a8aeb8" d="M 302.5,95.5 C 303.043,95.56 303.376,95.8933 303.5,96.5C 298.014,97.8147 292.68,97.8147 287.5,96.5C 292.695,96.8205 297.695,96.4872 302.5,95.5 Z"/></g>
<g><path style="opacity:1" fill="#a8adb8" d="M 320.5,95.5 C 321.043,95.56 321.376,95.8933 321.5,96.5C 316.348,97.8137 311.348,97.8137 306.5,96.5C 311.363,96.8195 316.03,96.4861 320.5,95.5 Z"/></g>
<g><path style="opacity:1" fill="#bba0ab" d="M 351.5,117.5 C 351.824,113.445 351.491,109.445 350.5,105.5C 349.833,106.833 349.167,108.167 348.5,109.5C 347.893,109.376 347.56,109.043 347.5,108.5C 348.434,107.432 348.768,106.099 348.5,104.5C 349.833,104.5 351.167,104.5 352.5,104.5C 352.818,109.032 352.485,113.366 351.5,117.5 Z"/></g>
<g><path style="opacity:1" fill="#73183a" d="M 230.5,104.5 C 231.5,104.5 232.5,104.5 233.5,104.5C 233.5,108.833 233.5,113.167 233.5,117.5C 232.5,117.5 231.5,117.5 230.5,117.5C 230.5,113.167 230.5,108.833 230.5,104.5 Z"/></g>
<g><path style="opacity:1" fill="#7e3149" d="M 243.5,105.5 C 244.675,105.281 245.675,105.614 246.5,106.5C 244.948,107.798 243.948,107.465 243.5,105.5 Z"/></g>
<g><path style="opacity:1" fill="#731939" d="M 290.5,104.5 C 293.896,104.633 294.229,105.633 291.5,107.5C 292.167,108.167 292.833,108.833 293.5,109.5C 291.777,111.868 291.11,114.534 291.5,117.5C 290.5,117.5 289.5,117.5 288.5,117.5C 288.89,114.534 288.223,111.868 286.5,109.5C 288.082,107.985 289.416,106.319 290.5,104.5 Z"/></g>
<g><path style="opacity:1" fill="#761f3e" d="M 179.5,105.5 C 181.792,105.244 183.959,105.577 186,106.5C 186.667,107.167 186.667,107.833 186,108.5C 182.576,106.733 180.41,107.733 179.5,111.5C 179.529,113.029 180.196,114.196 181.5,115C 183.256,115.202 184.922,115.702 186.5,116.5C 178.869,119.033 175.703,116.366 177,108.5C 178.045,107.627 178.878,106.627 179.5,105.5 Z"/></g>
<g><path style="opacity:1" fill="#b28e9c" d="M 307.5,105.5 C 309.048,105.821 309.715,106.821 309.5,108.5C 307.833,108.5 306.167,108.5 304.5,108.5C 305.609,107.71 306.942,107.21 308.5,107C 307.944,106.617 307.611,106.117 307.5,105.5 Z"/></g>
<g><path style="opacity:1" fill="#7a2543" d="M 218.5,108.5 C 219.5,108.5 220.5,108.5 221.5,108.5C 221.338,110.527 221.505,112.527 222,114.5C 223,115.833 224,115.833 225,114.5C 225.495,112.527 225.662,110.527 225.5,108.5C 226.5,108.5 227.5,108.5 228.5,108.5C 228.5,111.5 228.5,114.5 228.5,117.5C 225.585,117.254 222.585,116.921 219.5,116.5C 218.607,113.916 218.274,111.249 218.5,108.5 Z"/></g>
<g><path style="opacity:1" fill="#741b3a" d="M 243.5,108.5 C 244.5,108.5 245.5,108.5 246.5,108.5C 246.5,111.5 246.5,114.5 246.5,117.5C 245.5,117.5 244.5,117.5 243.5,117.5C 243.5,114.5 243.5,111.5 243.5,108.5 Z"/></g>
<g><path style="opacity:1" fill="#761d3e" d="M 199.5,108.5 C 200.75,108.577 201.583,109.244 202,110.5C 204,107.833 206,107.833 208,110.5C 208.497,112.81 208.663,115.143 208.5,117.5C 207.5,117.5 206.5,117.5 205.5,117.5C 205.5,115.5 205.5,113.5 205.5,111.5C 204.5,111.5 203.5,111.5 202.5,111.5C 202.5,113.5 202.5,115.5 202.5,117.5C 201.5,117.5 200.5,117.5 199.5,117.5C 199.5,114.5 199.5,111.5 199.5,108.5 Z"/></g>
<g><path style="opacity:1" fill="#77203e" d="M 236.5,106.5 C 241.166,107.273 242.166,109.44 239.5,113C 239.439,114.711 240.106,116.044 241.5,117C 239.888,117.72 238.388,117.554 237,116.5C 236.853,113.89 236.019,111.556 234.5,109.5C 235.612,108.735 236.279,107.735 236.5,106.5 Z"/></g>
<g><path style="opacity:1" fill="#74193b" d="M 249.5,108.5 C 251.787,109.355 254.12,109.522 256.5,109C 258.314,111.481 258.98,114.315 258.5,117.5C 257.5,117.5 256.5,117.5 255.5,117.5C 255.5,115.5 255.5,113.5 255.5,111.5C 254.178,111.33 253.011,111.663 252,112.5C 251.798,114.256 251.298,115.922 250.5,117.5C 249.516,114.572 249.183,111.572 249.5,108.5 Z"/></g>
<g><path style="opacity:1" fill="#771f3e" d="M 307.5,105.5 C 307.611,106.117 307.944,106.617 308.5,107C 306.942,107.21 305.609,107.71 304.5,108.5C 302.559,110.011 302.059,112.011 303,114.5C 305.147,115.113 307.314,115.779 309.5,116.5C 301.701,119.038 298.534,116.372 300,108.5C 301.848,105.959 304.348,104.959 307.5,105.5 Z"/></g>
<g><path style="opacity:1" fill="#7b2845" d="M 320.5,108.5 C 323.162,109.639 325.829,109.806 328.5,109C 330.314,111.481 330.98,114.315 330.5,117.5C 329.5,117.5 328.5,117.5 327.5,117.5C 327.5,115.5 327.5,113.5 327.5,111.5C 323.932,111.759 322.599,113.759 323.5,117.5C 322.5,117.5 321.5,117.5 320.5,117.5C 320.5,114.5 320.5,111.5 320.5,108.5 Z"/></g>
<g><path style="opacity:1" fill="#761e3b" d="M 333.5,108.5 C 339.826,108.174 342.159,111.174 340.5,117.5C 337.552,117.777 334.719,117.444 332,116.5C 331.316,115.216 331.483,114.049 332.5,113C 334.256,112.798 335.922,112.298 337.5,111.5C 335.668,110.943 334.335,109.943 333.5,108.5 Z"/></g>
<g><path style="opacity:1" fill="#782140" d="M 261.5,108.5 C 264.272,109.371 266.938,109.371 269.5,108.5C 269.665,112.182 269.499,115.848 269,119.5C 266.865,121.278 264.365,121.945 261.5,121.5C 261.089,118.724 261.922,118.057 264,119.5C 265.28,119.387 266.113,118.72 266.5,117.5C 264.828,117.613 262.994,117.279 261,116.5C 260.278,113.739 260.445,111.073 261.5,108.5 Z"/></g>
<g><path style="opacity:1" fill="#e6dbdf" d="M 263.5,110.5 C 266.956,111.536 267.29,113.203 264.5,115.5C 262.296,114.218 261.962,112.551 263.5,110.5 Z"/></g>
<g><path style="opacity:1" fill="#751c3d" d="M 278.5,108.5 C 285.494,108.415 287.161,111.248 283.5,117C 275.184,117.838 273.517,115.004 278.5,108.5 Z"/></g>
<g><path style="opacity:1" fill="#f4eff1" d="M 279.5,110.5 C 282.084,111.048 283.084,112.715 282.5,115.5C 278.716,115.475 277.716,113.808 279.5,110.5 Z"/></g>
<g><path style="opacity:1" fill="#77203e" d="M 354.5,108.5 C 361.333,107.67 364,110.67 362.5,117.5C 359.723,117.214 356.889,116.88 354,116.5C 353.316,115.216 353.483,114.049 354.5,113C 356.256,112.798 357.922,112.298 359.5,111.5C 357.345,110.999 355.678,109.999 354.5,108.5 Z"/></g>
<g><path style="opacity:1" fill="#e1d4da" d="M 356.5,113.5 C 357.675,113.281 358.675,113.614 359.5,114.5C 357.948,115.798 356.948,115.465 356.5,113.5 Z"/></g>
<g><path style="opacity:1" fill="#721736" d="M 311.5,108.5 C 317.901,108.272 319.901,111.272 317.5,117.5C 315.345,117.162 313.011,117.162 310.5,117.5C 310.102,113.241 312.102,111.408 316.5,112C 314.404,111.263 312.737,110.097 311.5,108.5 Z"/></g>
<g><path style="opacity:1" fill="#e6dbe0" d="M 313.5,113.5 C 317.276,113.469 317.443,114.136 314,115.5C 312.316,115.317 312.15,114.65 313.5,113.5 Z"/></g>
<g><path style="opacity:1" fill="#e9dfe4" d="M 334.5,113.5 C 335.675,113.281 336.675,113.614 337.5,114.5C 335.948,115.798 334.948,115.465 334.5,113.5 Z"/></g>
<g><path style="opacity:1" fill="#721538" d="M 190.5,108.5 C 197.494,108.415 199.161,111.248 195.5,117C 189.507,118.668 187.007,116.502 188,110.5C 188.995,109.934 189.828,109.267 190.5,108.5 Z"/></g>
<g><path style="opacity:1" fill="#f0eaed" d="M 191.5,110.5 C 194.084,111.048 195.084,112.715 194.5,115.5C 193.167,115.5 191.833,115.5 190.5,115.5C 190.366,113.708 190.699,112.042 191.5,110.5 Z"/></g>
<g><path style="opacity:1" fill="#78243f" d="M 211.5,108.5 C 216.443,108.288 217.11,109.288 213.5,111.5C 217.021,112.15 218.021,113.983 216.5,117C 214.421,117.808 212.421,117.641 210.5,116.5C 215.74,115.413 215.74,114.413 210.5,113.5C 210.366,111.708 210.699,110.042 211.5,108.5 Z"/></g>
<g><path style="opacity:1" fill="#751a3b" d="M 351.5,117.5 C 348.741,117.452 345.908,117.118 343,116.5C 341.349,111.841 342.849,109.174 347.5,108.5C 347.56,109.043 347.893,109.376 348.5,109.5C 349.167,108.167 349.833,106.833 350.5,105.5C 351.491,109.445 351.824,113.445 351.5,117.5 Z"/></g>
<g><path style="opacity:1" fill="#f8f6f8" d="M 345.5,111.5 C 346.5,111.5 347.5,111.5 348.5,111.5C 348.5,112.833 348.5,114.167 348.5,115.5C 347.5,115.5 346.5,115.5 345.5,115.5C 345.5,114.167 345.5,112.833 345.5,111.5 Z"/></g>
</svg>
