<svg id="Artwork" xmlns="http://www.w3.org/2000/svg" viewBox="0 0 930.42711 140.87519"><defs><style>.cls-1{fill:#756eff;}.cls-2{fill:#141414;}</style></defs><path class="cls-1" d="M130.58116,92.86627c-19.03111,0-34.9551,15.924-34.9551,34.56671a34.76145,34.76145,0,1,0,34.9551-34.56671Zm-.0971,52.14136a17.38073,17.38073,0,1,1,17.28336-17.47755A17.52875,17.52875,0,0,1,130.48406,145.00763Z" transform="translate(-34.7609 -21.51289)"/><path class="cls-1" d="M69.716,101.52293a34.76145,34.76145,0,0,0,0-69.52181c-19.03111,0-34.9551,15.924-34.9551,34.56671A35.0575,35.0575,0,0,0,69.716,101.52293Z" transform="translate(-34.7609 -21.51289)"/><path class="cls-2" d="M344.1524,58.21569V69.09061H325.12129V91.81143H344.1524v67.774h25.24535v-67.774h22.33243V69.09061H369.39775V59.18667c0-7.37941,3.8839-13.20526,13.01107-13.20526a38.305,38.305,0,0,1,9.32136,1.16517V25.39679a38.80274,38.80274,0,0,0-13.59365-2.13615C359.10542,23.26064,344.1524,36.46585,344.1524,58.21569Z" transform="translate(-34.7609 -21.51289)"/><polygon class="cls-2" points="191.709 13.205 165.105 13.205 165.105 138.073 235.597 138.073 235.597 113.604 191.709 113.604 191.709 13.205"/><path class="cls-2" d="M298.905,21.51289a17.3807,17.3807,0,1,0,0,34.76085,17.3807,17.3807,0,0,0,0-34.76085Z" transform="translate(-34.7609 -21.51289)"/><rect class="cls-2" x="251.133" y="47.57773" width="25.82794" height="90.49487"/><path class="cls-2" d="M767.10911,84.62621V69.09061h-23.3034v90.49487h25.24535V121.13487c0-21.36145,8.35039-29.71183,24.27438-29.71183a44.4778,44.4778,0,0,1,7.5736.58258V68.508a44.47774,44.47774,0,0,0-7.5736-.58259C782.45052,67.92544,773.51755,72.58612,767.10911,84.62621Z" transform="translate(-34.7609 -21.51289)"/><polygon class="cls-2" points="859.934 47.578 830.028 47.578 803.812 80.459 803.812 6.991 778.955 6.991 778.955 138.073 803.812 138.073 803.812 113.241 812.469 103.112 833.135 138.073 862.265 138.073 827.965 84.982 859.934 47.578"/><path class="cls-2" d="M942.07881,104.82249l-10.29234-3.6897c-4.66068-1.74776-6.991-4.0781-6.991-7.7678s3.30132-6.40844,7.37941-6.40844,7.57361,3.10712,8.54458,7.37941l20.77887-7.37941c-4.27229-11.6517-15.34141-19.80789-29.32345-19.80789-17.67174,0-30.29442,12.42848-30.29442,26.99311,0,12.04009,4.85488,20.58467,21.36145,26.79891l10.48653,3.8839c5.63166,2.13614,8.35039,5.24326,8.35039,8.933,0,4.66068-3.8839,7.5736-9.32136,7.5736s-9.90395-3.30131-11.45751-10.29233l-21.944,5.24326c2.71873,14.56463,16.31238,25.43955,33.40154,25.43955,18.25433,0,32.43056-13.01107,32.43056-27.96408C965.188,122.10585,960.52733,111.42512,942.07881,104.82249Z" transform="translate(-34.7609 -21.51289)"/><path class="cls-2" d="M682.2459,66.76027a47.772,47.772,0,1,0,47.772,47.772A47.73771,47.73771,0,0,0,682.2459,66.76027Zm0,70.88118a23.10921,23.10921,0,1,1,23.1092-23.10921A23.04042,23.04042,0,0,1,682.2459,137.64145Z" transform="translate(-34.7609 -21.51289)"/><polygon class="cls-2" points="580.488 13.205 558.932 87.97 538.153 14.176 519.899 14.176 499.508 87.97 479.895 13.205 452.707 13.205 489.216 138.073 508.441 138.073 528.443 67.968 549.999 138.073 568.448 138.073 606.316 13.205 580.488 13.205"/><path class="cls-2" d="M445.91058,66.76027c-26.79891,0-45.83,20.39048-45.83,47.57778,0,27.57569,20.00209,47.96616,47.57778,47.96616,17.86594,0,32.81895-9.32136,40.58675-22.72081L469.214,128.70848c-4.07809,6.991-11.84589,11.26331-20.77886,11.26331-12.10315,0-20.81945-7.23542-22.58536-17.45716l64.14309.1738a39.30609,39.30609,0,0,0,.77678-8.35038C490.76963,87.15075,471.35013,66.76027,445.91058,66.76027ZM426.2418,104.01291c1.715-9.81946,9.87156-16.08538,19.863-16.08538,10.29233,0,17.28335,6.60263,19.03111,15.924Z" transform="translate(-34.7609 -21.51289)"/></svg>