<svg xmlns="http://www.w3.org/2000/svg" xmlns:xlink="http://www.w3.org/1999/xlink" version="1.1" width="409.361pt" height="109.816pt" viewBox="0 0 409.361 109.816">
<defs>
<clipPath id="clip_0">
<path transform="matrix(1,0,0,-1,0,109.816)" d="M.059998 109.8H409.361V0H.059998Z"/>
</clipPath>
<clipPath id="clip_1">
<path transform="matrix(1,0,0,-1,0,109.816)" d="M.059998 109.8H409.361V0H.059998Z"/>
</clipPath>
<clipPath id="clip_2">
<path transform="matrix(1,0,0,-1,0,109.816)" d="M.059998 109.8H409.361V0H.059998Z"/>
</clipPath>
</defs>
<path transform="matrix(1,0,0,-1,143.832,104.343)" d="M0 0H-2.416L-3.037 5.83-6.006 0H-8.223L-9.264 9.463C-9.774 9.551-10.461 9.64-11.059 9.684L-10.838 10.86C-9.818 10.993-8.51 11.059-7.38 11.014L-6.605 2.039H-6.583L-3.325 8.334-3.435 9.463C-3.945 9.551-4.654 9.64-5.208 9.684L-4.986 10.86C-4.078 10.993-2.704 11.059-1.551 11.014L-.82 2.017H-.775L3.59 11.458 5.452 10.86 0 0" fill="#332e1f"/>
<path transform="matrix(1,0,0,-1,155.457,94.812007)" d="M0 0C-2.416 0-4.034-2.704-4.034-5.4758-4.034-7.1148-3.369-8.0238-1.707-8.0238 .443-8.0238 2.327-5.7178 2.327-2.506 2.327-.888 1.596 0 0 0ZM-2.039-9.7308C-4.809-9.7308-6.073-8.3338-6.073-5.8068-6.073-1.419-3.28 1.684 .31 1.684 3.213 1.684 4.41 .044 4.41-2.283 4.41-6.8268 1.286-9.7308-2.039-9.7308" fill="#332e1f"/>
<path transform="matrix(1,0,0,-1,169.458,95.057)" d="M0 0C-2.483 .666-4.5-4.166-5.009-6.8026L-5.475-9.2856H-7.425L-5.63 .112-5.607 .178C-6.095 .266-6.827 .354-7.47 .399L-7.248 1.574C-6.14 1.707-4.611 1.796-3.414 1.729-3.613 .776-3.923-.398-4.566-2.326L-4.522-2.35C-3.259 .333-1.951 2.327 .398 1.929L0 0" fill="#332e1f"/>
<path transform="matrix(1,0,0,-1,177.187,94.747)" d="M0 0C-1.751 0-3.037-2.283-3.524-3.723-.044-3.214 1.219-2.46 1.219-1.153 1.219-.531 .819 0 0 0ZM-1.419-4.721 .532-8.0892C1.152-8.1542 1.773-8.2662 2.304-8.3782L2.083-9.5962H-1.064L-3.878-4.433-4.854-9.5962H-6.804L-4.034 5.03C-4.521 5.119-5.252 5.208-5.873 5.252L-5.652 6.428C-4.543 6.56-3.014 6.649-1.773 6.582L-2.438 3.037C-2.705 1.64-3.103 .333-3.635-1.263L-3.591-1.286C-2.748 .488-1.396 1.618 .554 1.618 2.371 1.618 3.302 .621 3.302-.732 3.302-2.637 1.95-4.011-1.419-4.721" fill="#332e1f"/>
<path transform="matrix(1,0,0,-1,197.787,104.343)" d="M0 0H-2.415L-3.035 5.83-6.005 0H-8.222L-9.263 9.463C-9.773 9.551-10.46 9.64-11.058 9.684L-10.837 10.86C-9.817 10.993-8.51 11.059-7.38 11.014L-6.604 2.039H-6.582L-3.324 8.334-3.435 9.463C-3.944 9.551-4.654 9.64-5.208 9.684L-4.987 10.86C-4.078 10.993-2.704 11.059-1.552 11.014L-.82 2.017H-.775L3.591 11.458 5.452 10.86 0 0" fill="#332e1f"/>
<path transform="matrix(1,0,0,-1,209.17,94.635)" d="M0 0C-1.751 0-2.925-1.53-3.435-3.391 0-3.258 1.463-2.527 1.463-1.241 1.463-.442 .886 0 0 0ZM-3.68-4.853C-3.745-5.1865-3.789-5.7415-3.789-6.1395-3.789-7.8465-3.169-8.2895-1.418-8.2895-.355-8.2895 .731-8.0445 1.685-7.6685L1.773-9.2205C.644-9.6635-.643-9.9075-2.105-9.9075-4.632-9.9075-5.806-8.8205-5.806-6.3395-5.806-2.061-3.414 1.507 .243 1.507 2.593 1.507 3.479 .31 3.479-.997 3.479-3.37 1.042-4.677-3.68-4.853" fill="#332e1f"/>
<path transform="matrix(1,0,0,-1,216.41,102.792)" d="M0 0C.51-.089 1.197-.176 1.84-.221L1.618-1.395C.51-1.528-1.018-1.618-2.26-1.551L.51 13.076C.023 13.164-.709 13.253-1.33 13.297L-1.107 14.473C0 14.606 1.53 14.695 2.771 14.627L0 0" fill="#332e1f"/>
<path transform="matrix(1,0,0,-1,223.189,102.792)" d="M0 0C.509-.089 1.197-.176 1.839-.221L1.619-1.395C.509-1.528-1.019-1.618-2.26-1.551L.509 13.076C.023 13.164-.708 13.253-1.331 13.297L-1.107 14.473C0 14.606 1.53 14.695 2.771 14.627L0 0" fill="#332e1f"/>
<path transform="matrix(1,0,0,-1,232.89,109.816)" d="M0 0H-1.552L2.659 22.161H4.211L0 0" fill="#332e1f"/>
<path transform="matrix(1,0,0,-1,245.404,102.792)" d="M0 0C.51-.089 1.198-.176 1.84-.221L1.619-1.395C.51-1.528-1.018-1.618-2.259-1.551L.51 13.076C.023 13.164-.708 13.253-1.33 13.297L-1.106 14.473C0 14.606 1.531 14.695 2.772 14.627L0 0" fill="#332e1f"/>
<path transform="matrix(1,0,0,-1,253.223,91.134)" d="M0 0C-.753 0-1.263 .554-1.263 1.197-1.263 2.017-.599 2.594 .133 2.594 .842 2.594 1.352 2.017 1.352 1.374 1.352 .577 .71 0 0 0ZM-1.418-11.658C-.908-11.747-.222-11.833 .422-11.878L.2-13.052C-.908-13.186-2.415-13.276-3.678-13.208L-1.884-3.745C-2.394-3.657-3.079-3.568-3.701-3.524L-3.48-2.349C-2.371-2.216-.865-2.127 .377-2.194L-1.418-11.658" fill="#332e1f"/>
<path transform="matrix(1,0,0,-1,260.687,104.343)" d="M0 0H-2.171L-3.701 9.463C-4.211 9.551-4.875 9.64-5.474 9.684L-5.252 10.86C-4.232 10.993-2.903 11.059-1.773 11.014L-.841 4.278C-.752 3.635-.708 2.949-.687 2.283H-.664L4.057 11.48 5.897 10.837 0 0" fill="#332e1f"/>
<path transform="matrix(1,0,0,-1,272.582,94.635)" d="M0 0C-1.752 0-2.926-1.53-3.435-3.391 0-3.258 1.463-2.527 1.463-1.241 1.463-.442 .885 0 0 0ZM-3.68-4.853C-3.745-5.1865-3.79-5.7415-3.79-6.1395-3.79-7.8465-3.17-8.2895-1.419-8.2895-.356-8.2895 .732-8.0445 1.684-7.6685L1.773-9.2205C.643-9.6635-.642-9.9075-2.105-9.9075-4.633-9.9075-5.807-8.8205-5.807-6.3395-5.807-2.061-3.414 1.507 .242 1.507 2.592 1.507 3.48 .31 3.48-.997 3.48-3.37 1.041-4.677-3.68-4.853" fill="#332e1f"/>
<path transform="matrix(1,0,0,-1,289.637,94.812007)" d="M0 0C-2.082 0-4.321-4.411-4.83-7.0038L-5.008-7.9358C-4.542-8.0688-4.078-8.1358-3.435-8.1358-.177-8.1358 1.132-4.744 1.132-2.018 1.132-.577 .687 0 0 0ZM-3.789-9.7078C-5.096-9.7078-6.228-9.5538-7.225-9.3308L-4.477 5.096C-4.987 5.185-5.695 5.273-6.337 5.317L-6.116 6.493C-5.008 6.626-3.48 6.715-2.239 6.647L-3.256 1.285C-3.456 .266-3.767-.71-4.477-2.948L-4.432-2.97C-3.301-.356-1.572 1.705 .666 1.705 2.261 1.705 3.148 .687 3.148-1.64 3.148-5.6978 1.043-9.7078-3.789-9.7078" fill="#332e1f"/>
<path transform="matrix(1,0,0,-1,300.113,94.635)" d="M0 0C-1.751 0-2.924-1.53-3.435-3.391 0-3.258 1.463-2.527 1.463-1.241 1.463-.442 .886 0 0 0ZM-3.679-4.853C-3.745-5.1865-3.789-5.7415-3.789-6.1395-3.789-7.8465-3.169-8.2895-1.418-8.2895-.355-8.2895 .732-8.0445 1.685-7.6685L1.773-9.2205C.643-9.6635-.642-9.9075-2.105-9.9075-4.631-9.9075-5.806-8.8205-5.806-6.3395-5.806-2.061-3.414 1.507 .244 1.507 2.593 1.507 3.48 .31 3.48-.997 3.48-3.37 1.041-4.677-3.679-4.853" fill="#332e1f"/>
<path transform="matrix(1,0,0,-1,312.118,94.880008)" d="M0 0H-2.991L-4.078-5.7624C-4.409-7.4694-4.167-7.9334-3.079-7.9334-2.46-7.9334-1.994-7.8684-1.551-7.7554L-1.683-9.4194C-2.347-9.5514-3.102-9.6404-3.745-9.6404-6.007-9.6404-6.582-8.5764-6.116-6.0724L-4.964 0H-7.18L-6.87 1.551H-4.653L-3.967 5.119-1.905 5.585-2.704 1.551H.31L0 0" fill="#332e1f"/>
<path transform="matrix(1,0,0,-1,320.247,94.880008)" d="M0 0H-2.991L-4.078-5.7624C-4.41-7.4694-4.167-7.9334-3.08-7.9334-2.46-7.9334-1.994-7.8684-1.552-7.7554L-1.684-9.4194C-2.349-9.5514-3.102-9.6404-3.746-9.6404-6.007-9.6404-6.582-8.5764-6.117-6.0724L-4.964 0H-7.181L-6.871 1.551H-4.654L-3.967 5.119-1.906 5.585-2.704 1.551H.31L0 0" fill="#332e1f"/>
<path transform="matrix(1,0,0,-1,326.937,94.635)" d="M0 0C-1.751 0-2.925-1.53-3.435-3.391 0-3.258 1.462-2.527 1.462-1.241 1.462-.442 .885 0 0 0ZM-3.68-4.853C-3.746-5.1865-3.789-5.7415-3.789-6.1395-3.789-7.8465-3.169-8.2895-1.418-8.2895-.356-8.2895 .731-8.0445 1.684-7.6685L1.772-9.2205C.643-9.6635-.643-9.9075-2.106-9.9075-4.632-9.9075-5.806-8.8205-5.806-6.3395-5.806-2.061-3.414 1.507 .243 1.507 2.592 1.507 3.479 .31 3.479-.997 3.479-3.37 1.042-4.677-3.68-4.853" fill="#332e1f"/>
<path transform="matrix(1,0,0,-1,339.806,95.057)" d="M0 0C-2.481 .666-4.498-4.166-5.008-6.8026L-5.474-9.2856H-7.423L-5.629 .112-5.607 .178C-6.094 .266-6.824 .354-7.468 .399L-7.246 1.574C-6.14 1.707-4.61 1.796-3.412 1.729-3.613 .776-3.922-.398-4.566-2.326L-4.521-2.35C-3.257 .333-1.949 2.327 .4 1.929L0 0" fill="#332e1f"/>
<g clip-path="url(#clip_0)">
<path transform="matrix(1,0,0,-1,79.736,8.8010029)" d="M0 0C-11.194-7.361-36.694-52.138-36.694-52.138-38.203-51.803-31.422-24.084-29.599-19.006-28.524-16.016-29.48-13.82-31.876-12.147-34.194-10.528-36.536-10.671-38.76-11.979-52.752-21.914-66.079-51.858-68.038-51.578-69.997-51.298-62.364-32.066-58.205-22.853-53.587-11.519-60.613-14.328-61.847-15.467-75.524-27.989-78.004-53.108-79.165-57.314-82.311-65.011-71.746-66.586-64.998-58.927-64.718-58.561-40.753-20.584-38.053-21.636-36.871-21.844-46.288-55.809-47.609-59.134-49.608-64.362-41.731-67.426-38.563-63.023-25.687-46.389-9.008-17.237-7.502-17.237-5.674-17.237-25.741-64.621-28.101-77.079-28.101-77.944-27.478-78.63-26.562-79.141-23.467-80.868-19.579-79.145-18.425-75.793-11.087-54.469 7.281-6.177 7.477-5.055 8.016-1.969 1.704 .771 0 0" fill="#41748e"/>
</g>
<path transform="matrix(1,0,0,-1,102.298,57.948)" d="M0 0C.588 .725 1.354 1.998 .373 2.868-.139 3.322-1.305 3.061-2.135 2.899-2.828 2.764-3.48 2.337-4.119 1.978-5.962 .943-15.459-3.97-16.159 .237-16.439 6.777-8.357 13.871-7.206 12.757-6.618 11.892-6.199 11.138-5.655 10.51-4.854 9.584-3.84 9.38-3.048 10.375-2.001 11.691-.955 13.069-.22 14.599 .596 16.298-.019 17.701-1.443 18.921-3.576 20.749-5.753 20.789-8.019 19.456-12.959 16.551-17.049 12.613-19.819 7.317-20.766 5.506-21.393 3.307-21.532 1.227-21.838-3.337-19.797-6.831-13.169-6.502-9.582-6.523-3.046-3.759 0 0" fill="#41748e"/>
<g clip-path="url(#clip_1)">
<path transform="matrix(1,0,0,-1,192.644,55.368)" d="M0 0C-.692 1.948 .957 4.1 2.6 5.204 5.151 6.631 7.815 7.522 10.516 6.269 10.517 6.266 10.525 6.25 10.525 6.251 12.799 5.27 13.677 3.063 13.489 1.454 12.682 1.081 11.805 .743 10.878 .341 7.109-1.293 .777-2.187 0 0ZM-49.975-1.531C-50.945 .323-41.332 10.031-33.442 6.053-33.672 5.151-47.209-5.99-49.975-1.531ZM24.813 10.124C29.821 24.374 36.789 36.055 48.167 45.437 50.372 47.256 52.631 48.981 55.766 48.998 58.786 49.014 57.642 42.733 56.622 40.828 54.113 36.145 51.583 31.386 48.373 27.184 42.741 19.811 29.261 7.374 26.028 7.374 24.433 7.374 24.702 8.981 24.813 10.124ZM29.888-12.281C28.951-11.479 27.951-10.751 27.015-9.947 25.224-8.407 24.299-6.372 23.798-4.114 23.458-2.58 23.648-1.278 25.244-.475 31.763 2.803 36.86 7.937 42.397 12.529 49.334 18.281 54.67 25.254 58.919 33.065 61.277 37.399 62.866 42.131 63.029 47.159 63.195 52.268 60.255 55.75 55.145 55.334 45.213 54.528 29.709 37.267 25.203 28.186 22.168 22.069 19.104 15.521 18.353 8.737 18.014 6.031 17.263 4.398 16.211 3.282 16.967 10.942 9.136 12.971 7.411 13.323 5.419 13.769 3.317 13.644 1.173 12.895-1.5 11.962-4.072 10.539-6.428 8.948-9.83 6.652-13.065 4.088-16.241 1.48-18.696-.536-21.482-1.745-24.49-2.496-25.213-2.676-26.308-2.587-26.783-2.143-27.147-1.802-27.012-.619-26.734 .034-26.176 1.348-25.325 2.534-24.674 3.812-23.687 5.747-28.351 11.33-35.193 12.742-36.61 13.905-38.345 14.108-40.173 14.149-48.371 14.332-56.569 13.544-64.767 12.467-66.731 12.209-67.358 13.156-66.489 14.748-66.28 15.13-66.037 15.497-65.826 15.878-62.99 21.012-54.675 32.25-53.641 32.425-50.197 33.007-46.702 33.343-43.228 33.786-13.312 37.527 9.095 33.842 13.074 33.726 18.334 33.726 18.174 39.689 2.6 40.674-12.16 41.607-23.004 42.731-37.744 41.362-48.262 40.386-58.642 38.904-68.986 37.053-70.133 36.848-71.476 36.903-72.367 36.352-73.165 35.858-73.81 34.726-73.906 33.819-74.077 32.196-73.098 30.884-71.332 30.397-69.61 30.352-64.473 31.23-64.473 31.23-67.987 25.265-72.849 17.837-76.335 12.311-77.065 11.154-78.702 10.356-80.096 9.702-81.776 8.912-82.775 7.899-82.278 6.175-81.311 2.818-82.563-.127-83.918-3.131-86.681-9.254-89.403-15.395-91.971-21.588-93.043-24.176-93.883-26.881-94.435-29.6-94.763-31.211-94.496-32.986-94.14-34.624-94.006-35.24-92.906-36.015-92.167-36.098-91.466-36.176-90.547-35.554-89.938-35.032-89.464-34.626-89.289-33.91-89.034-33.315-84.773-23.365-80.532-13.411-76.256-3.468-75.573-1.879-74.761-.335-73.983 1.219-73.163 2.857-71.926 4.025-69.872 4.376-68.263 4.652-66.686 5.073-65.089 5.408-60.684 6.332-56.219 7.194-51.748 7.727-53.245 6.254-54.579 4.537-55.833 2.645-56.822 1.153-57.503-.715-57.753-2.491-58.385-6.973-55.338-9.965-50.854-9.669-48.119-9.489-40.814-6.859-37.695-4.697-35.183-2.954-34.87-2.995-32.932-5.832-31.047-8.591-28.505-9.415-25.497-9.167-23.68-9.017-21.84-8.565-20.12-7.945-16.805-6.75-14.236-4.868-11.398-2.32-10.024-1.4-8.674-1.02-8.02-2.73-6.297-7.24-3.106-8.02 1.444-8.058 5.995-8.096 13.793-5.475 15.138-4.966 17.331-4.136 17.743-4.313 18.954-6.575 19.536-7.662 19.932-8.863 20.61-9.88 22.486-12.696 24.903-14.889 28.349-15.53 29.031-15.657 30.104-15.407 30.508-14.923 31.282-13.997 30.73-13.002 29.888-12.281" fill="#41748e"/>
</g>
<path transform="matrix(1,0,0,-1,286.626,55.201)" d="M0 0C0 0 3.913 7.422 5.633 6.36 9.127 4.202 0 0 0 0ZM-48.318-4.607C-50.068-4.607-50.398-3.814-50.232-1.719-50.014 1.053-48.046 3.257-45.376 4.932-42.436 6.776-38.523 5.83-36.714 2.659-36.068 1.547-35.348 1.104-34.707 1.045-38.578-2.333-43.896-4.607-48.318-4.607ZM-5.978 34.025C-4.687 35.29-3.397 36.605-1.684 35.191 .521 33.037-.704 28.025-5.698 23.378-10.648 18.474-21.489 9.093-21.489 9.093-21.489 9.093-18.195 19.735-5.978 34.025ZM100.524-8.467C100.327-8.418 100.114-8.434 99.908-8.427 96.62-8.312 93.333-8.196 90.045-8.083 84.492-7.893 78.932-7.831 73.389-7.482 66.936-7.076 65.129-5.217 64.419 1.18 64.305 2.203 64.34 3.245 64.181 4.259 63.603 7.945 61.23 9.584 57.566 8.703 56.189 8.371 54.78 7.846 53.602 7.077 51.022 5.395 48.484 3.617 46.107 1.662 43.356-.602 40.324-2.277 36.974-3.38 34.99-4.033 33.77-2.879 34.188-.732 34.581 1.285 35.3 3.241 35.656 5.263 36.135 7.975 33.84 10.125 31.131 9.511 29.955 9.245 28.769 8.736 27.761 8.073 25.527 6.605 23.419 4.948 21.231 3.407 17.531 .8 13.831-1.814 10.062-4.313 5.592-7.277 3.058-6.667 2.876-6.383 2.717-6.134 2.742-5.544 2.936-5.327 4.439-3.635 11.245 2.668 12.134 4.273 12.581 5.081 12.75 6.341 12.466 7.207 11.215 11.016 7.621 11.753 2.735 9.68-.67 7.975-4.447 1.888-5.065-1.1-6.744-4.251-15.257-8.501-22.078-8.501-23.748-8.501-25.156-7.655-25.911-6.169-26.548-4.916-25.952-2.867-24.688-1.7-24.39-1.424-23.984-1.264-23.678-.994-17.189 4.713-10.607 10.319-4.277 16.197-1.889 18.414 .12 21.125 1.934 23.856 4.108 27.131 5.618 30.749 5.606 34.825 5.596 38.223 4.205 40.856 1.164 42.371-1.659 43.777-4.574 43.301-7.054 41.598-9.063 40.216-10.801 38.394-12.498 36.614-13.914 35.129-15.162 33.469-16.372 31.805-21.967 24.11-26.619 15.883-30.171 7.047-30.776 5.56-31.725 4.142-32.893 2.832-32.302 9.415-39.389 13.194-44.837 11.371-49.784 9.093-54.176 4.487-55.863 .292-58.003-5.027-55.438-9.882-49.778-10.536-47.798-10.765-45.661-10.556-43.726-10.051-40.952-9.328-38.301-8.137-35.59-7.168-32.801-6.171-32.795-6.182-31.405-8.695-31.207-9.056-28.585-14.482-22.263-14.474-17.464-14.156-12.938-12.928-8.75-10.502-6.284-9.079-5.76-8.764-3.382-11.322-1.01-14.139 2.35-14.444 5.707-13.483 7.659-12.924 9.611-12.093 11.319-11.001 15.48-8.342 19.492-5.453 23.575-2.671 24.747-1.872 25.955-1.124 27.147-.352 27.147-.352 26.92-3.915 27.068-6.199 27.485-10.857 29.766-12.587 33.966-11.361 39.741-9.673 44.533-7.07 49.813-3.335 51.355-1.982 52.987-.706 54.7 .421 56.344 1.504 58.004 1.723 58.702-1.267 58.936-2.266 59.394-3.211 59.641-4.208 61.276-10.816 65.962-12.712 72.268-12.988 80.073-13.329 98.993-12.555 100.591-12.174 101.833-11.878 102.951-12.217 102.97-10.713 102.989-9.109 101.748-8.768 100.524-8.467" fill="#41748e"/>
<g clip-path="url(#clip_2)">
<path transform="matrix(1,0,0,-1,406.595,60.303)" d="M0 0C-1.557 .277-2.653-1.162-2.653-2.597-2.653-4.032-1.465-5.195 0-5.195 1.466-5.195 2.885-4.045 2.759-2.611 2.692-1.171 1.466 0 0 0" fill="#41748e"/>
</g>
</svg>
