<?xml version="1.0" encoding="UTF-8"?>
<svg id="Layer_1" data-name="Layer 1" xmlns="http://www.w3.org/2000/svg" viewBox="0 0 527.51 201.96">
  <defs>
    <style>
      .cls-1 {
        fill: #8bc249;
      }

      .cls-2 {
        fill: #e40d8a;
      }

      .cls-3 {
        fill: #2d2f77;
      }
    </style>
  </defs>
  <path class="cls-1" d="M98.71,79.06h-27.07c-14.93,0-27.08-12.14-27.08-27.07s12.14-27.08,27.08-27.08c7.23,0,14.03,2.82,19.15,7.93,5.1,5.12,7.92,11.92,7.92,19.15v27.07h0Z"/>
  <path class="cls-2" d="M97.86,92.41v48.93c0,26.97-21.94,48.93-48.92,48.93S0,168.31,0,141.33c0-13.07,5.09-25.36,14.33-34.61,9.24-9.23,21.53-14.32,34.6-14.32h48.92Z"/>
  <path class="cls-2" d="M131.44,108.43c5.99,0,8.35-4.08,8.35-14.71,0-4.45-.36-7.99-1.18-10.26-.91-2.54-2.82-3.9-5.81-3.9s-5.9,1.27-8.08,3.54v22.61c1.63,1.36,4.27,2.72,6.72,2.72h0Zm-8.44-38.76c.46,1.63,.73,2.9,.82,4.35,2.09-2.54,6.72-4.35,11.44-4.35,3.26,0,6.62,1.09,9.16,2.81,4.99,3.36,8.62,9.35,8.62,20.06,0,9.99-1.63,15.07-6.45,20.25-3.18,3.36-7.35,5.26-12.44,5.26-3.63,0-7.08-.9-9.71-2.45,.18,1.09,.18,2.45,.18,3.81v14.53l-11.72,3.09v-53.74c0-6.08-.09-7.81-.73-11.71l10.81-1.9h0Z"/>
  <path class="cls-2" d="M188.73,88.73v-.54c0-3.45-.36-5.26-1.45-6.99-1.18-1.81-2.91-2.72-5.36-2.72-4.63,0-7.26,3.63-7.26,10.07v.18h14.07Zm12.07,23.15c-5.36,4.36-10.99,6.44-17.52,6.44-13.35,0-21.97-9.44-21.97-24.06,0-8.35,1.72-13.89,5.81-18.42,3.82-4.27,8.44-6.27,14.62-6.27,5.36,0,10.44,1.81,13.44,4.9,4.26,4.36,6.17,10.62,6.17,20.33v2.82h-26.87v.36c0,7.17,3.54,11.26,9.8,11.26,4.18,0,8.08-1.55,11.8-4.64l4.72,7.26h0Z"/>
  <path class="cls-2" d="M222.13,69.49c1.09,1.9,1.73,3.99,1.91,6.62,1.72-2.36,4.63-4.9,6.9-5.9,1-.45,2.64-.73,4-.73,1.82,0,2.63,.19,4.54,1l-3.36,10.71c-1.18-.64-2.18-.91-3.54-.91-2.72,0-5.18,1.27-7.45,3.9v32.86h-12.17v-31.04c0-6.26-.73-10.98-1.72-13.62l10.89-2.91h0Z"/>
  <path class="cls-2" d="M286.31,70.57l-14.8,19.43,18.25,27.05h-14.34l-15.61-26.32,11.89-20.16h14.61Zm-27.51-20.97c.55,3.45,.73,8.9,.73,15.07v52.37h-12.17v-52.37c0-4.09-.09-7.26-.81-12.08l12.26-2.99h0Z"/>
  <path class="cls-3" d="M324.08,82.1c-1.91-3.99-5.9-5.82-9.63-5.82-3.99,0-7.72,1.92-9.26,4.91-1.45,2.82-2.18,6.45-2.18,11.8,0,6.35,1.09,11.99,2.82,14.8,1.63,2.72,5.27,4.54,9.17,4.54,4.72,0,8.26-2.45,9.8-6.81,1-2.81,1.37-5.36,1.37-9.8,0-6.36-.63-10.62-2.08-13.62h0Zm-9.26,36.13c-12.44,0-19.52-9.17-19.52-24.06s7.35-23.69,19.25-23.69c7.53,0,12.43,3.45,15.52,7.9,2.82,4.08,4.18,9.44,4.18,16.79,0,15.07-8.08,23.06-19.43,23.06h0Z"/>
  <path class="cls-3" d="M375.81,82.29c-1.45-3.09-4.72-4.99-8.35-4.99-4.54,0-8.63,2.18-12.07,6.35v22.79c3.36,3.81,7.26,5.9,11.07,5.9,4.18,0,7.99-2.27,9.53-5.63,1.36-2.9,1.9-6.35,1.9-11.44,0-5.44-.81-10.26-2.09-12.98h0Zm5.99,27.69c-3.26,5.26-8.08,8.26-13.98,8.26-4.63,0-9.26-2-12.44-5.26v21.61l-7.08,1.36v-54.28c0-6.9-1-9.71-1-9.71l7.27-1.27s.45,1.91,.45,6.9c3.72-4.36,8.35-6.63,13.34-6.63,4.64,0,9.17,2,12.07,5.63,3.37,4.17,4.99,9.71,4.99,17.79,0,7.26-1.09,11.44-3.63,15.61h0Z"/>
  <path class="cls-3" d="M452.88,117.97c-2.18,0-3.99-.64-5.35-1.91-1.45-1.27-2.18-3.18-2.18-6.45V61.68c0-5.9-1.09-9.26-1.09-9.26l7.08-1.37s1.18,3.82,1.18,10.71v46.21c0,3.54,.54,4.54,2.54,4.54,.27,0,.92-.18,.92-.18l1.45,4.63c-1.82,.82-2.63,1-4.54,1h0Z"/>
  <path class="cls-3" d="M422.64,82.1c-1.91-3.99-5.9-5.82-9.62-5.82-4,0-7.72,1.92-9.26,4.91-1.46,2.82-2.18,6.45-2.18,11.8,0,6.35,1.09,11.99,2.81,14.8,1.64,2.72,5.27,4.54,9.17,4.54,4.72,0,8.26-2.45,9.8-6.81,1-2.81,1.36-5.36,1.36-9.8,0-6.36-.64-10.62-2.09-13.62h0Zm-9.27,36.13c-12.43,0-19.52-9.17-19.52-24.06s7.36-23.69,19.25-23.69c7.53,0,12.43,3.45,15.52,7.9,2.82,4.08,4.18,9.44,4.18,16.79,0,15.07-8.08,23.06-19.43,23.06h0Z"/>
  <polygon class="cls-3" points="473.13 117.05 473.13 72.02 480.48 70.85 480.48 117.05 473.13 117.05 473.13 117.05"/>
  <path class="cls-3" d="M510.44,118.42c-5.71,0-11.98-1.73-16.61-4.53l2.73-5.27c4.63,2.82,9.35,4.26,14.35,4.26,5.53,0,9.16-3,9.16-7.81,0-4.08-2.26-6.35-7.44-7.45l-5.63-1.18c-7.44-1.54-11.44-6.17-11.44-12.43,0-8.17,6.62-13.89,16.06-13.89,4.72,0,9.99,1.45,13.8,3.63l-2.63,5.26c-4-1.91-7.36-3.26-11.35-3.26-5.18,0-8.53,2.99-8.53,7.44,0,3.45,1.72,5.54,6.54,6.54l5.98,1.27c8.17,1.72,12.08,5.9,12.08,12.62,0,8.81-6.9,14.8-17.07,14.8h0Z"/>
  <path class="cls-3" d="M481.03,58.82c0,2.56-2.08,4.65-4.64,4.65s-4.64-2.08-4.64-4.65,2.08-4.65,4.64-4.65,4.64,2.08,4.64,4.65h0Z"/>
</svg>