<svg width="155" height="50" viewBox="0 0 155 50" fill="none" xmlns="http://www.w3.org/2000/svg">
    <path d="M11.5374 29.1492V32.3634C11.5374 33.5527 11.6989 34.2277 12.603 34.4206C12.9905 34.517 13.2166 34.6777 13.2166 34.967C13.2166 35.2563 12.9905 35.417 12.5707 35.3849C11.6343 35.3206 10.2458 35.2563 8.24376 35.2563C6.24173 35.2563 4.9178 35.3206 4.17511 35.3849C3.94908 35.417 3.78762 35.3527 3.65846 35.2884C3.56159 35.192 3.5293 35.0956 3.5293 34.967C3.5293 34.6777 3.75533 34.5492 4.14282 34.4206C4.85322 34.1956 4.9178 33.4884 4.9178 32.2349V15.2313C4.9178 13.9456 4.85322 13.2706 4.14282 13.0456C3.78762 12.917 3.5293 12.7884 3.5293 12.5313C3.5293 12.242 3.69075 12.0813 4.07824 12.0813H12.3124C17.8987 12.0813 23.9694 13.7527 23.9694 20.567C23.9694 28.1849 17.8987 29.1492 12.3124 29.1492H11.5374ZM12.3097 13.592H11.5347V27.6384H12.3097C15.5065 27.6384 17.1856 25.2277 17.1856 20.567C17.1856 15.9063 15.119 13.592 12.3097 13.592Z" fill="#455326" />
    <path d="M44.1163 26.2241C44.1163 31.5277 40.4352 35.8026 34.5582 35.8026C28.6813 35.8026 25.0001 31.5277 25.0001 26.2241C25.0324 20.9527 28.649 16.6455 34.5582 16.6455C40.4674 16.6455 44.1163 20.9527 44.1163 26.2241ZM31.3614 26.8669C32.201 31.3027 33.9447 34.9991 36.3665 34.5491C38.6915 34.0027 38.6269 29.9527 37.8196 25.5812C36.9477 21.1777 35.204 17.4491 32.8145 17.8991C30.4573 18.4455 30.5219 22.4955 31.3614 26.8669Z" fill="#455326" />
    <path d="M54.288 34.9669C54.288 35.2562 54.0619 35.4169 53.6421 35.3848C52.9963 35.3205 51.7693 35.2562 49.8318 35.2562C47.8944 35.2562 46.6673 35.3205 45.9892 35.3848C45.5694 35.4169 45.3434 35.2562 45.3434 34.9669C45.3434 34.6777 45.5694 34.5491 45.9569 34.4205C46.635 34.2277 46.7319 33.5527 46.7319 32.3634V16.9348C46.7319 15.7455 46.635 15.0705 45.9569 14.8455C45.5694 14.7491 45.3434 14.5884 45.3434 14.2991C45.3434 13.9777 45.5371 13.8169 45.9246 13.7205C47.0548 13.5277 49.7672 12.9491 52.189 11.7598C52.6088 11.5348 52.8994 11.7277 52.8994 12.1777V32.3634C52.8994 33.5527 52.9963 34.2277 53.7067 34.4205C54.0942 34.5491 54.288 34.6777 54.288 34.9669Z" fill="#455326" />
    <path d="M64.8793 34.967C64.8793 35.2563 64.621 35.417 64.2012 35.3848C63.5554 35.3205 62.3283 35.2563 60.3909 35.2563C58.4534 35.2563 57.2264 35.3205 56.5483 35.3848C56.1285 35.417 55.9025 35.2563 55.9025 34.967C55.9025 34.6777 56.1285 34.5491 56.516 34.4206C57.1941 34.2277 57.291 33.5527 57.291 32.3634V22.2384C57.291 21.0491 57.1941 20.3741 56.516 20.1813C56.1285 20.0527 55.9025 19.892 55.9025 19.6027C55.9025 19.2813 56.0962 19.1206 56.4837 19.0241C57.6139 18.8634 60.3263 18.2848 62.7481 17.0634C63.1679 16.8705 63.4585 17.0313 63.4585 17.4813V32.3634C63.4585 33.5527 63.5554 34.2277 64.2658 34.4206C64.6533 34.5491 64.8793 34.6777 64.8793 34.967ZM56.2577 13.1098C56.2577 11.3741 58.0014 9.95984 60.1326 9.95984C62.2638 9.95984 64.0398 11.3741 64.0398 13.1098C64.0398 14.8455 62.2638 16.2277 60.1326 16.2277C58.0014 16.2277 56.2577 14.8455 56.2577 13.1098Z" fill="#455326" />
    <path d="M72.8875 26.9956C73.9531 31.2706 78.2155 33.1992 82.2841 31.6242C82.607 31.4956 82.8654 31.4635 83.0591 31.6563C83.2206 31.8492 83.2206 32.1063 82.9945 32.4277C82.2518 33.4885 80.0561 35.8027 75.9551 35.8027C70.5626 35.8027 66.7199 31.8813 66.3324 26.5777C65.9772 21.692 69.5292 16.7742 75.6968 16.6456C84.1893 16.4527 84.383 23.5242 81.2508 23.717C76.5041 24.0063 79.8623 17.3527 75.7291 17.5777C72.9844 17.7706 71.725 22.7206 72.8875 26.9956Z" fill="#455326" />
    <path d="M102.918 17.4491C102.918 17.7384 102.757 17.9313 102.434 17.9956C101.368 18.092 100.625 19.4098 100.076 20.8563C99.8504 21.3706 95.1682 33.2313 94.3287 35.2884C93.1662 38.117 91.8423 41.2991 88.3548 41.5884C83.705 41.9741 82.5748 37.9241 85.0289 36.7991C87.1601 35.8348 88.0319 37.6348 89.3559 37.7313C90.9381 37.8598 91.7777 36.767 92.262 35.642L85.1903 20.0848C84.5768 18.6706 84.4476 18.2527 83.7695 18.0277C83.382 17.867 83.156 17.7384 83.156 17.4491C83.156 17.192 83.3498 17.0313 83.8018 17.0634C84.5445 17.1277 85.8684 17.192 87.8705 17.192C89.8725 17.192 91.1964 17.1277 91.9391 17.0634C92.3912 17.0313 92.5849 17.1598 92.5849 17.4491C92.5849 17.7706 92.3589 17.8991 92.0037 18.0277C91.2933 18.2206 91.2933 18.7991 91.81 20.0848L95.0068 28.667C96.4921 24.9706 98.0421 21.1456 98.1713 20.8563C98.7202 19.5063 98.8817 18.1563 97.5577 18.0277C97.138 17.9634 96.9119 17.7706 96.9119 17.4813C96.9119 17.2241 97.138 17.0634 97.59 17.0634C98.2358 17.1277 99.366 17.192 100.076 17.192C100.981 17.192 101.723 17.0956 102.272 17.0634C102.724 17.0313 102.918 17.1598 102.918 17.4491Z" fill="#455326" />
    <path d="M100.023 44.0045C99.0242 42.6385 103.486 12.6679 111.645 4.54649C112.541 3.79649 115.008 4.6456 115.554 5.14381C117.129 6.19649 114.346 33.3224 115.24 33.5045C116.55 33.7724 122.473 8.59113 125.578 8.4331C126.184 8.36078 128.323 8.60185 129.179 9.57417C131.043 11.6929 125.893 34.426 129.106 41.2483C129.674 42.451 131.428 42.676 130.968 43.4929C130.594 44.1545 129.251 43.9965 128.202 43.6697C125.828 42.9331 125.306 41.634 125.053 40.2411C123.428 31.2947 127.02 14.9983 125.842 14.4894C124.206 13.7876 120.105 35.8536 117.497 37.2117C115.156 38.4304 112.829 36.7992 112.04 35.4358C110.778 33.2554 113.668 10.9215 112.336 10.4795C110.638 9.91703 105.025 32.0152 104.274 42.6974C104.188 43.9349 103.647 44.8215 102.7 44.9715C101.71 45.1268 100.284 44.3581 100.023 44.0045Z" fill="#455326" stroke="#455326" strokeWidth="0.5" strokeMiterlimit="10" />
    <path d="M150.1 21.3679C149.772 21.1403 140.23 35.7412 135.23 34.9644C134.385 34.8331 133.543 34.3456 133.024 33.226C132.338 31.7394 132.69 29.8644 133.519 28.6295C135.642 27.8313 137.114 27.3974 139.703 25.3403C142.143 23.3983 144.363 19.1554 143.01 17.0153C142.248 15.8099 140.496 15.0867 138.546 16.1447C133.944 18.5179 128.404 26.5135 130.317 33.7751C130.793 35.5804 132.354 37.2063 135.228 37.3617C142.326 37.7983 150.431 21.5956 150.1 21.3679ZM140.209 17.6608C141.253 17.8429 140.303 22.7019 136.91 25.0188C136.745 25.1313 134.821 26.4304 134.359 25.9644C133.406 25.0054 139.014 17.4519 140.209 17.6608Z" fill="#455326" stroke="#455326" strokeWidth="0.5" strokeMiterlimit="10" />
  </svg>