<svg width="185" height="50" viewBox="0 0 185 50" fill="none" xmlns="http://www.w3.org/2000/svg">
    <path d="M117.667 44.1232C116.682 42.7695 121.057 13.0461 129.132 5.022C129.472 4.6849 131.47 4.59199 132.989 5.61392C134.542 6.65708 131.816 33.2776 132.678 33.7182C133.854 34.3207 139.814 9.03007 142.877 8.87346C144.096 8.81241 145.585 9.04069 146.429 10.0042C148.269 12.1038 143.188 34.6313 146.357 41.3919C146.917 42.5837 148.648 42.8067 148.194 43.6162C147.825 44.2719 146.501 44.1153 145.465 43.7914C143.124 43.0615 142.609 41.7741 142.359 40.3939C140.756 31.5283 144.3 15.3793 143.137 14.8749C141.523 14.1795 137.499 36.5185 134.905 37.3918C132.437 38.2226 130.3 36.983 129.522 35.632C128.277 33.4713 131.128 11.3394 129.814 10.9014C128.139 10.344 122.602 32.2424 121.861 42.8279C121.776 44.0542 121.242 44.9328 120.308 45.0815C119.331 45.2354 117.924 44.4736 117.667 44.1232Z" fill="#455326" stroke="#455326" strokeWidth="0.5" strokeMiterlimit="10" />
    <path d="M27.1752 35.1702C27.1752 35.4569 26.9522 35.6161 26.5381 35.5843C25.8373 35.5206 24.5631 35.4569 22.5244 35.4569C20.4857 35.4569 19.1159 35.5206 18.4151 35.5843C18.001 35.6161 17.778 35.4569 17.778 35.1702C17.778 34.8835 17.9692 34.7561 18.2877 34.6606C18.9885 34.4694 18.9885 33.8005 18.6381 32.5902L17.3321 28.2264H9.68692L8.98612 30.5516C8.25346 33.1635 8.60386 34.4376 10.7381 34.6287C11.1204 34.6924 11.3434 34.8835 11.3434 35.1702C11.3434 35.4569 11.1204 35.6161 10.7063 35.5843C9.97362 35.5206 8.5083 35.4887 6.69257 35.4887C5.86435 35.4887 4.94056 35.5206 4.23976 35.5843C3.79379 35.6161 3.60266 35.4569 3.60266 35.1702C3.60266 34.8835 3.82564 34.7243 4.17605 34.6287C5.09984 34.4376 5.73693 33.1317 6.59701 30.5516L12.6813 12.4914C12.7131 12.3322 12.8087 12.1729 12.968 12.1092C13.5414 11.8862 14.3377 12.364 15.6756 12.587C16.8224 12.7462 17.4595 12.8099 17.8417 12.8099C18.1921 12.8099 18.447 12.9692 18.5426 13.2877L25.1683 32.5902C25.5506 33.7687 25.8054 34.4376 26.57 34.6287C26.9522 34.7561 27.1752 34.8835 27.1752 35.1702ZM10.1329 26.7294H16.8542L13.4458 15.4537L10.1329 26.7294Z" fill="#455326" />
    <path d="M41.0958 22.4293C37.2095 22.4293 39.2801 18.1929 35.9353 17.97C33.0684 17.7789 32.5268 20.4863 33.6736 21.6648C36.891 24.85 44.345 24.6271 43.9309 30.3286C43.7716 32.8131 41.9877 35.9983 35.4575 35.9983C26.8248 35.9983 26.5063 29.819 29.7873 29.6916C33.4506 29.5642 31.4756 35.0746 35.4575 35.0746C37.8785 35.0746 38.8022 32.8131 37.974 31.2523C36.2539 28.1627 28.1309 28.5768 28.1627 22.716C28.1627 19.3078 31.3801 17.0144 35.9353 17.0144C44.4405 17.0144 44.0583 22.4293 41.0958 22.4293Z" fill="#455326" />
    <path d="M58.2336 22.4293C54.3473 22.4293 56.4179 18.1929 53.0731 17.97C50.2062 17.7789 49.6647 20.4863 50.8114 21.6648C54.0288 24.85 61.4828 24.6271 61.0687 30.3286C60.9094 32.8131 59.1255 35.9983 52.5953 35.9983C43.9627 35.9983 43.6441 29.819 46.9252 29.6916C50.5885 29.5642 48.6135 35.0746 52.5953 35.0746C55.0163 35.0746 55.9401 32.8131 55.1118 31.2523C53.3917 28.1627 45.2687 28.5768 45.3006 22.716C45.3006 19.3078 48.5179 17.0144 53.0731 17.0144C61.5784 17.0144 61.1961 22.4293 58.2336 22.4293Z" fill="#455326" />
    <path d="M82.1247 35.1064C82.1247 35.425 81.8698 35.5842 81.4238 35.5842H81.0735C79.3214 35.5842 76.3589 35.6798 75.4033 32.5901C74.6069 34.3101 73.0142 36.0302 69.8606 36.0302C65.3372 36.0302 63.394 33.5457 63.394 28.5767V21.1552C63.394 19.9448 63.3303 19.3396 62.6295 19.1166C62.2473 19.0211 62.0243 18.8618 62.0243 18.5433C62.0243 18.2566 62.2473 18.0655 62.6614 18.0337C63.7126 18.0337 66.038 18.0018 68.8412 17.5559C69.2553 17.4603 69.5102 17.6833 69.5102 18.0655V28.5767C69.5102 31.0294 70.0517 33.1953 72.3134 33.1953C74.5751 33.1953 75.0848 30.5516 75.0848 28.2264V21.1552C75.0848 19.9448 74.9892 19.3396 74.2565 19.1166C73.9061 19.0211 73.6831 18.8618 73.6831 18.5433C73.6831 18.2566 73.8743 18.0655 74.2884 18.0337C75.3396 18.0337 77.6968 18.0018 80.5001 17.5559C80.9142 17.4603 81.169 17.6833 81.169 18.0655V31.9531C81.169 32.9724 81.1372 34.2783 81.6787 34.6287C81.9017 34.7879 82.1247 34.8835 82.1247 35.1064Z" fill="#455326" />
    <path d="M96.2363 23.353C93.4013 23.2893 94.8666 20.0404 92.6686 20.0404C91.2988 20.0404 91.2033 22.3337 91.2033 23.7034V32.5901C91.2033 33.9279 91.5537 34.5013 92.5093 34.6605C92.9234 34.7561 93.1464 34.8835 93.1464 35.1702C93.1464 35.4568 92.9234 35.6161 92.4775 35.5842C91.7448 35.5205 90.3751 35.4568 88.3682 35.4568C86.3614 35.4568 85.0872 35.5205 84.3545 35.5842C83.9404 35.6161 83.7174 35.4568 83.7174 35.1702C83.7174 34.8835 83.9404 34.7561 84.3226 34.6287C85.0235 34.4376 85.119 33.8005 85.119 32.5901V22.5567C85.119 21.3463 85.0235 20.7093 84.3226 20.4863C83.9404 20.3907 83.7174 20.2315 83.7174 19.9448C83.7174 19.6263 83.9085 19.467 84.2589 19.4033C85.3739 19.2122 87.6674 18.6389 90.1202 17.4285C90.5343 17.2055 90.7892 17.3966 90.8529 17.8426L91.1077 20.2633C91.7448 18.4796 92.9553 17.0144 95.1851 17.0144C100.505 17.0144 100.091 23.4485 96.2363 23.353Z" fill="#455326" />
    <path d="M116.719 24.8182C116.655 25.2004 116.464 25.3915 116.082 25.3915H105.697C105.761 25.8056 105.825 26.2197 105.92 26.6338C106.971 31.5709 110.89 33.5775 115.508 31.8894C115.859 31.762 116.114 31.762 116.273 31.9212C116.432 32.1123 116.432 32.3672 116.209 32.6857C115.445 33.705 113.31 35.9983 109.233 35.9983C104.009 35.9983 100.154 32.3672 99.7722 27.1753C99.3581 21.6967 103.117 17.0781 108.723 17.0144C115.572 16.9507 117.069 22.493 116.719 24.8182ZM109.074 23.8945C111.017 23.8945 111.431 23.7671 111.399 22.1745C111.367 20.3589 110.475 17.9381 108.723 17.9381C106.876 17.9381 105.633 20.7411 105.633 23.8945H109.074Z" fill="#455326" />
    <path d="M159.978 23.998C159.811 21.9037 159.492 17.9222 157.172 17.0436C155.502 16.4092 153.61 17.6966 152.598 18.384C148.489 21.1791 146.195 27.0107 147.594 31.9265C147.934 33.1183 148.518 35.1675 150.278 36.0142C152.779 37.2166 156.134 35.271 157.854 33.3652C160.495 30.4374 160.188 26.6019 159.978 23.998ZM151.422 34.127C150.291 33.6253 150.121 31.6983 150.49 30.3764C150.509 30.31 150.589 30.2808 150.65 30.318C152.221 31.255 152.704 31.3558 154.57 31.1753C155.393 31.0798 153.193 34.9923 151.425 34.127H151.422ZM156.702 27.3717C156.118 28.8183 151.114 29.0014 150.926 28.0857C150.392 26.3152 153.283 20.7092 155.245 20.4996C156.819 20.3323 157.183 26.1825 156.702 27.3743V27.3717Z" fill="#455326" />
    <path d="M160.049 26.3179C164.36 24.0139 164.737 23.6211 165.619 22.5222C166.181 21.9834 166.404 20.5819 166.938 20.128C167.647 19.6661 170.336 19.6396 170.445 20.4996C170.638 21.8507 168.215 26.6179 167.912 34.6738C167.838 36.6513 168.244 36.7973 168.43 36.8716C172.197 38.3687 179.242 24.7625 181.039 21.5719C181.108 21.4498 181.286 21.4897 181.307 21.625C181.485 22.8699 179.603 28.5794 176.399 33.6837C175.066 35.8072 171.554 40.5452 168.114 39.6242C165.993 39.0561 164.79 37.445 164.374 36.3832C163.041 32.1522 165.682 25.8879 165.13 25.4765C165.003 25.2217 163.975 27.4062 159.837 29.4076" fill="#455326" />
    <path d="M168.825 14.7264C170.078 15.528 172.733 14.5007 173.097 12.5923C173.351 11.2518 172.438 9.67247 171.236 9.415C169.662 9.0779 167.947 11.074 167.973 12.8365C167.976 13.0541 168.021 14.2114 168.828 14.7264H168.825Z" fill="#455326" />
</svg>