<svg width="165" height="25" viewBox="0 0 165 25" fill="none" xmlns="http://www.w3.org/2000/svg">
<path d="M41.8279 2.18624H36.9V7.26874H34.3767V11.3793H36.835V17.8043C36.835 20.4516 37.7326 23.7406 43.0133 23.7406C44.018 23.7529 45.0195 23.63 45.9881 23.3754V19.5092C45.4058 19.5895 44.8181 19.6299 44.2297 19.63C42.5645 19.63 41.8279 18.8084 41.8279 17.5599V11.3847H46.0614V7.26874H41.8279V2.18624ZM1.07812 23.5284H6.32213V7.26874H1.07812V23.5284ZM56.0866 6.88212C51.1587 6.88212 47.0295 10.6866 47.0295 15.3771C47.0295 20.4301 51.2236 23.9016 56.4083 23.9016C59.767 23.9016 62.9365 22.2263 64.057 19.0903L59.9589 17.7479C59.3944 19.0903 57.7828 19.8958 56.3434 19.8958C54.2633 19.8958 52.4372 18.7386 52.1098 16.7008H64.5284C64.5829 16.134 64.6046 15.5649 64.5933 14.9959C64.6018 10.2033 61.1754 6.87406 56.0866 6.87406V6.88212ZM52.2453 13.5729C52.4413 12.7731 52.914 12.0592 53.5875 11.5456C54.261 11.0319 55.0964 10.7483 55.9596 10.7403C58.4546 10.7403 59.5102 12.3835 59.6089 13.5729H52.2453ZM10.948 6.96535C10.2271 6.96218 9.5213 7.16238 8.91991 7.54066C8.31852 7.91894 7.84851 8.45832 7.56926 9.09064C7.29002 9.72295 7.21408 10.4198 7.35105 11.0932C7.48801 11.7665 7.83173 12.3862 8.33876 12.8737C8.8458 13.3613 9.4934 13.695 10.1997 13.8326C10.906 13.9701 11.6394 13.9055 12.3071 13.6467C12.9747 13.3879 13.5468 12.9466 13.9509 12.3787C14.3551 11.8107 14.5732 11.1415 14.5776 10.4557C14.5814 9.99952 14.4903 9.54713 14.3097 9.12451C14.1291 8.7019 13.8625 8.31739 13.5253 7.99306C13.188 7.66874 12.7867 7.41099 12.3444 7.23463C11.9021 7.05826 11.4276 6.96675 10.948 6.96535ZM27.9417 9.15622H27.9106C27.2777 8.4485 26.4865 7.88444 25.5947 7.50535C24.703 7.12627 23.7334 6.94176 22.7569 6.96535C17.829 6.96535 14.572 11.2612 14.572 15.3691C14.572 19.7535 17.7415 23.8318 22.7033 23.8318C23.471 23.8318 26.2539 23.8318 27.9191 21.641H27.9417V23.5204H32.9034V7.26874H27.9417V9.15622ZM25.87 19.0635L25.7204 19.136C25.139 19.4004 24.5022 19.5362 23.8577 19.5333H23.6291C23.1287 19.5083 22.6367 19.4002 22.1755 19.2138L22.0203 19.1494C21.3495 18.8489 20.7704 18.3904 20.338 17.8174C19.9056 17.2444 19.6342 16.5759 19.5494 15.8752C19.4646 15.1745 19.5692 14.4648 19.8535 13.8133C20.1377 13.1619 20.5921 12.5902 21.1736 12.1526L21.2103 12.1284L21.2752 12.0774C22.0211 11.5471 22.9293 11.2641 23.8605 11.2719C24.7948 11.2607 25.7068 11.544 26.4543 12.0774L26.5051 12.115L26.5559 12.1526C27.1238 12.5812 27.5701 13.1379 27.8544 13.7723C28.1387 14.4066 28.2519 15.0985 28.1838 15.785C28.1156 16.4715 27.8683 17.131 27.4643 17.7036C27.0602 18.2761 26.5122 18.7435 25.87 19.0635ZM123.243 17.2807C122.555 17.277 121.882 17.4673 121.309 17.8276C120.735 18.188 120.286 18.702 120.02 19.3048C119.754 19.9077 119.681 20.5721 119.812 21.2141C119.943 21.8561 120.271 22.4467 120.754 22.9114C121.238 23.376 121.856 23.6937 122.529 23.8243C123.203 23.9549 123.902 23.8924 124.538 23.6449C125.174 23.3974 125.719 22.9759 126.103 22.4337C126.488 21.8916 126.694 21.2531 126.697 20.5992C126.701 19.7245 126.34 18.8842 125.692 18.263C125.045 17.6417 124.165 17.2903 123.245 17.2861L123.243 17.2807ZM135.831 19.5038C133.367 19.5038 131.701 17.7694 131.701 15.3637C131.701 12.7755 133.59 11.2531 135.797 11.2531C137.942 11.2531 139.254 12.5311 139.638 13.7501L144.182 12.4398C143.318 8.72664 139.446 6.89823 135.893 6.89823C130.646 6.89823 126.579 10.6141 126.579 15.4228C126.579 20.2314 130.395 23.8963 135.757 23.8963C139.426 23.8963 143.214 22.0383 144.303 18.2929L139.756 16.9854C139.465 17.7456 138.929 18.399 138.225 18.8522C137.52 19.3054 136.683 19.5354 135.833 19.5092L135.831 19.5038ZM158.692 7.26337V9.14279H158.661C158.028 8.43523 157.237 7.87127 156.345 7.49219C155.453 7.11312 154.484 6.92852 153.507 6.95192C148.579 6.95192 145.322 11.2478 145.322 15.3556C145.322 19.7401 148.492 23.8184 153.454 23.8184C154.221 23.8184 157.004 23.8184 158.669 21.6275H158.7V23.507H163.662V7.26874L158.692 7.26337ZM156.459 19.136C155.948 19.3686 155.394 19.5019 154.828 19.528H154.611C153.965 19.5305 153.328 19.3947 152.745 19.1306L152.601 19.0608C151.958 18.7406 151.41 18.2727 151.005 17.6994C150.601 17.1261 150.354 16.4657 150.286 15.7784C150.219 15.0911 150.333 14.3985 150.618 13.7639C150.904 13.1292 151.352 12.5725 151.921 12.1445L151.983 12.0962L152.023 12.0693C152.771 11.5353 153.684 11.2521 154.619 11.2639C155.554 11.2527 156.466 11.5359 157.213 12.0693L157.258 12.1042L157.315 12.1445C157.893 12.5823 158.344 13.153 158.627 13.8028C158.909 14.4525 159.013 15.16 158.928 15.8584C158.843 16.5568 158.573 17.2232 158.142 17.7948C157.712 18.3663 157.136 18.8242 156.468 19.1252L156.459 19.136ZM75.801 6.96535C74.9035 6.96535 72.5355 7.23384 71.0961 9.18844H71.065V1.02637H66.0722V23.5284H71.065V14.4535C71.065 12.9016 71.9908 11.3498 74.1358 11.3498C76.1849 11.3498 77.1134 12.7513 77.1134 14.5153V23.5284H82.0724V13.4252C82.0724 10.0718 80.1221 6.96535 75.801 6.96535ZM94.6461 16.3437C94.6461 18.0164 93.6865 19.4474 91.5726 19.4474C89.4586 19.4474 88.6232 18.1399 88.6232 16.3437V7.26874H83.636V17.4713C83.636 20.8221 85.6512 23.8641 89.9102 23.8641C90.8471 23.882 91.7739 23.677 92.6064 23.2677C93.4389 22.8584 94.1507 22.2577 94.6772 21.5201H94.7111V23.5311H99.6305V7.26874H94.6461V16.3437ZM111.832 6.96535C110.807 6.96535 108.343 7.14792 106.647 9.21797H106.582V1.02637H101.589V23.5284H106.455V21.5792H106.52C108.151 23.6197 110.584 23.8318 111.702 23.8318C116.664 23.8318 119.952 19.6004 119.952 15.3691C119.952 11.2585 116.847 6.96535 111.832 6.96535ZM111.739 19.4179L111.547 19.4582H111.527L111.335 19.4904C111.196 19.5097 111.057 19.5222 110.917 19.528H110.7C109.853 19.5329 109.024 19.2963 108.321 18.8487C107.775 18.5087 107.317 18.0564 106.981 17.5253C106.644 16.9942 106.437 16.398 106.375 15.7806C106.314 15.1631 106.398 14.5404 106.624 13.9585C106.849 13.3765 107.209 12.8501 107.677 12.4184C108.065 12.0481 108.527 11.7549 109.035 11.5558C109.543 11.3567 110.088 11.2556 110.638 11.2585H110.68C111.744 11.257 112.771 11.6263 113.568 12.2964C114.366 12.9665 114.877 13.8911 115.006 14.8956C115.136 15.9 114.874 16.9147 114.27 17.7479C113.666 18.5811 112.763 19.1752 111.73 19.4179H111.739Z" fill="black"/>
</svg>
