<?xml version="1.0" encoding="UTF-8" standalone="no"?>
<svg
   width="349.37"
   height="83.504333"
   viewBox="0 0 349.37 83.504333"
   version="1.1"
   id="svg37"
   sodipodi:docname="9ea3a176eeb35fec1757fa23d3c8b82d.svg"
   xmlns:inkscape="http://www.inkscape.org/namespaces/inkscape"
   xmlns:sodipodi="http://sodipodi.sourceforge.net/DTD/sodipodi-0.dtd"
   xmlns="http://www.w3.org/2000/svg"
   xmlns:svg="http://www.w3.org/2000/svg">
  <defs
     id="defs41" />
  <sodipodi:namedview
     id="namedview39"
     pagecolor="#ffffff"
     bordercolor="#666666"
     borderopacity="1.0"
     inkscape:pageshadow="2"
     inkscape:pageopacity="0.0"
     inkscape:pagecheckerboard="0" />
  <!-- Generator: Sketch 55.2 (78181) - https://sketchapp.com -->
  <title
     id="title2">Untitled 2</title>
  <desc
     id="desc4">Created with Sketch.</desc>
  <g
     id="Page-1"
     stroke="none"
     stroke-width="1"
     fill="none"
     fill-rule="evenodd"
     transform="translate(2.9342345e-6,-0.995)">
    <g
       id="sutton"
       fill-rule="nonzero">
      <g
         id="Group_1331"
         transform="translate(113.691,1.592)"
         fill="#002b39">
        <path
           d="m 205.537,23.106 c 2.16632,-2.207449 4.79217,-3.91078 7.691,-4.989 2.8528,-1.07786 5.95416,-1.318294 8.939,-0.693 5.474,1.178 8.731,5.335 8.8,10.948 0.046,7.16 0.046,14.32 0,21.48 -0.0401,0.597799 0.18872,1.182296 0.624,1.594 l 3.534,3.6 c 0.21499,0.305049 0.40049,0.629843 0.554,0.97 h -19.817 c -0.3071,-0.0339 -0.60917,-0.103707 -0.9,-0.208 0.10415,-0.293287 0.24386,-0.572704 0.416,-0.832 1.109,-1.247 2.287,-2.425 3.4,-3.742 0.32494,-0.365835 0.51973,-0.828893 0.554,-1.317 0.046,-6.975333 0.046,-13.950667 0,-20.926 0.005,-0.744107 -0.0644,-1.486852 -0.208,-2.217 -0.42689,-2.697945 -2.74257,-4.691276 -5.474,-4.712 -2.77874,-0.279594 -5.54645,0.626394 -7.622,2.495 -0.31517,0.288655 -0.51248,0.683643 -0.554,1.109 -0.046,8.176667 -0.046,16.33 0,24.46 0.01,0.406011 0.15619,0.796849 0.416,1.109 l 3.465,3.742 c 0.25783,0.327666 0.48954,0.675066 0.693,1.039 h -19.756 l -0.9,-0.208 c 0.11891,-0.321148 0.28216,-0.624083 0.485,-0.9 l 3.6,-3.672 c 0.32442,-0.33835 0.52039,-0.77945 0.554,-1.247 0.046,-8.266667 0.046,-16.512333 0,-24.737 -0.0377,-0.446321 -0.23428,-0.864305 -0.554,-1.178 -1.039,-0.97 -2.148,-1.8 -3.187,-2.7 -0.22652,-0.165384 -0.37655,-0.415321 -0.416,-0.693 0,-0.139 0.416,-0.346 0.693,-0.416 l 14,-3.049 c 0.832,-0.208 1.039,0.139 1.039,0.9 0,0.761 -0.069,3.119 -0.069,4.99 z"
           id="Path_1136" />
        <path
           d="m 87.047,53.869 -14.066,3.051 -1.386,-6.306 -0.624,0.485 c -3.566407,3.379975 -8.198017,5.413287 -13.1,5.751 -7,0.485 -11.849,-4.227 -11.918,-10.463 -0.069,-6.236 -0.069,-13.858 0,-20.788 0.04359,-0.717797 -0.299606,-1.404197 -0.9,-1.8 -0.9,-0.693 -1.8,-1.455 -2.633,-2.217 -0.285433,-0.297356 -0.540681,-0.622278 -0.762,-0.97 0.325623,-0.202762 0.674464,-0.3656 1.039,-0.485 l 13.373,-2.91 c 1.247,-0.277 1.386,-0.139 1.386,1.109 v 24.112 c -0.02974,1.441327 0.08619,2.881972 0.346,4.3 0.762,3.534 2.841,5.058 6.375,4.781 2.30947,-0.145974 4.525651,-0.965005 6.375,-2.356 0.466273,-0.333194 0.728135,-0.882991 0.693,-1.455 V 25.323 c 0.05368,-0.54016 -0.18401,-1.068098 -0.624,-1.386 l -2.91,-2.356 c -0.245509,-0.272178 -0.45521,-0.57463 -0.624,-0.9 0.282015,-0.17466 0.584237,-0.314353 0.9,-0.416 l 13.581,-2.98 c 1.109,-0.277 1.247,-0.139 1.247,1.039 v 29.519 c -0.100774,0.960029 0.25902,1.91107 0.97,2.564 0.9,0.832 1.732,1.8 2.564,2.7 z"
           id="Path_1137" />
        <path
           d="M 37.019,17.494 C 36.788927,17.233929 36.580248,16.95569 36.395,16.662 34.521371,12.928485 32.039086,9.5330443 29.05,6.615 25.65,3.358 21.566,2.527 17.062,3.566 c -5.613,1.317 -7.9,8.731 -3.88,12.888 1.838195,1.790263 3.941605,3.286194 6.236,4.435 l 10.671,5.682 c 2.403426,1.332652 4.559837,3.068605 6.375,5.132 5.682,6.375 4.989,19.263 -6.1,23.351 -3.38223,1.204873 -6.941728,1.837215 -10.532,1.871 C 14.116245,57.085594 8.4230078,56.144473 3.063,54.153 2.4567005,54.016984 2.0430502,53.455358 2.093,52.836 L 1.261,41.195 c 0.00732,-0.304739 0.054046,-0.60725 0.139,-0.9 0.256776,0.14989 0.4902472,0.336532 0.693,0.554 1.894571,3.21067 4.1012568,6.226608 6.588,9.004 2.564,2.7 4.088,3.742 6.791,4.5 2.703,0.758 7.414,1.039 10.671,-1.455 3.257,-2.494 5.2,-8.315 1.386,-12.611 -1.65514,-1.807514 -3.598486,-3.328129 -5.751,-4.5 L 11.381,29.966 C 9.0149608,28.633183 6.8461189,26.977271 4.937,25.046 1.7892692,21.927254 0.40147775,17.445687 1.2358114,13.093829 2.0701451,8.7419696 5.0170133,5.0914396 9.095,3.358 13.664995,1.4309688 18.635574,0.64601396 23.577,1.071 c 4.112606,0.3120159 8.153997,1.2466678 11.986,2.772 0.444183,0.085682 0.780945,0.450406 0.831,0.9 0.277,3.811 0.624,7.691 0.9,11.5 v 0.9 z"
           id="Path_1138" />
        <path
           d="m 168.466,56.99 c -8.454,-0.277 -14.759,-3.049 -18.778,-9.77 -6.652,-11.225 -1.247,-27.024 13.789,-29.726 7,-1.247 13.443,0.139 18.709,5.058 5.3682,5.044592 7.47903,12.659602 5.474,19.748 -1.94,7.553 -6.791,11.78 -14,13.789 -1.71318,0.406628 -3.44981,0.707198 -5.2,0.9 z m 7.9,-20.649 c -0.069,-1.317 -0.208,-3.326 -0.346,-5.335 -0.0734,-0.812554 -0.18955,-1.620675 -0.348,-2.421 -0.35376,-2.540778 -1.25189,-4.975235 -2.633,-7.137 -2.841,-4.019 -7.969,-4.019 -10.6,0.069 -0.95296,1.46755 -1.65552,3.083206 -2.079,4.781 -1.55972,6.666959 -1.65422,13.592966 -0.277,20.3 0.36677,2.46874 1.39671,4.791645 2.98,6.721 1.15426,1.425272 2.89461,2.247526 4.72861,2.23426 1.834,-0.01359 3.56212,-0.861239 4.69539,-2.30326 0.9791,-1.280467 1.75085,-2.706874 2.287,-4.227 1.314,-3.813 1.457,-7.901 1.591,-12.682 z"
           id="Path_1139" />
        <path
           d="m 146.569,50.476 c 0.693,0.416 0.208,0.762 -0.069,1.109 -2.40707,2.649485 -5.62326,4.427935 -9.147,5.058 -2.38891,0.493566 -4.86203,0.398498 -7.206,-0.277 -4.30445,-1.152681 -7.25628,-5.107482 -7.137,-9.562 -0.069,-8.731 0,-17.392 0,-26.123 v -1.247 h -4.781 v -0.277 c 0.14261,-0.159452 0.30569,-0.299332 0.485,-0.416 5.4,-2.217 9.77,-6.167 14.482,-9.424 0.44538,-0.2628432 0.9085,-0.4944015 1.386,-0.693 v 9.424 h 11.364 v 1.386 h -11.364 c 0,0.416 -0.069,0.762 -0.069,1.039 v 25.361 c -0.005,0.812976 0.0651,1.624672 0.208,2.425 0.28604,2.351733 2.34645,4.078941 4.712,3.95 2.49639,0.126562 4.97572,-0.475551 7.136,-1.733 z"
           id="Path_1140" />
        <path
           d="m 104.855,8.906 v 9.147 h 10.532 c 0.485,0 0.9,0 0.9,0.693 0,0.693 -0.416,0.762 -0.9,0.762 h -9.562 c -0.693,0 -0.97,0.139 -0.97,0.9 v 25.634 c -6.7e-4,0.839376 0.0922,1.676211 0.277,2.495 0.35166,2.296079 2.39314,3.947205 4.712,3.811 2.50298,0.102485 4.982,-0.522742 7.137,-1.8 l 0.277,0.139 c -0.069,0.277 -0.069,0.693 -0.277,0.9 -2.72366,3.065083 -6.51559,4.97357 -10.6,5.335 -2.21835,0.285434 -4.47271,0.04812 -6.583,-0.693 -3.761906,-1.263406 -6.317181,-4.76303 -6.375,-8.731 -0.069,-8.8 -0.069,-17.6 -0.069,-26.469 0,-1.663 0.208,-1.455 -1.524,-1.455 h -3.4 c 0.139,-0.277 0.139,-0.485 0.208,-0.485 5.751,-2.425 10.394,-6.652 15.521,-10.047 0.211,-0.21 0.419,-0.136 0.696,-0.136 z"
           id="Path_1141" />
      </g>
      <g
         id="Group_1332"
         transform="translate(114.539,68.315)"
         fill="#967d4b">
        <path
           d="m 8.939,11.539 c 0.063735,1.22692 -0.4183818,2.419217 -1.317,3.257 -1.0123518,0.825594 -2.2954264,1.245444 -3.6,1.178 H 0 V 1.423 L 3.465,1.284 c 3.0953333,0 4.643,1.155 4.643,3.465 C 8.1481612,6.0829687 7.2544119,7.2650644 5.96,7.59 7.823673,7.939716 9.1145693,9.6509445 8.939,11.539 Z M 6.167,4.887 C 6.167,3.455 5.2893333,2.739 3.534,2.739 H 2.01 V 6.897 L 3.673,7.036 C 4.3200452,7.0733598 4.95894,6.8767222 5.473,6.482 5.9147453,6.099034 6.1677533,5.5426356 6.166,4.958 Z M 6.86,11.331 C 6.9044786,10.480365 6.5449419,9.6586194 5.89,9.114 5.2074763,8.6194506 4.3755934,8.3747584 3.534,8.421 H 1.94 v 5.821 h 1.732 c 2.1246667,0.138667 3.187,-0.808333 3.187,-2.841 z"
           id="Path_1142" />
        <polygon
           id="Path_1143"
           points="14.482,1.492 21.896,1.492 21.896,2.947 16.496,2.947 16.496,7.382 20.796,7.382 20.796,8.906 16.496,8.906 16.496,14.38 22.317,14.38 22.312,15.905 14.482,15.905 " />
        <polygon
           id="Path_1144"
           points="29.518,5.305 29.518,15.905 27.786,15.905 27.786,1.492 29.241,1.492 35.893,11.609 35.893,1.492 37.625,1.492 37.556,15.905 36.309,15.905 " />
        <polygon
           id="Path_1145"
           points="44.139,1.492 51.553,1.492 51.553,2.947 46.153,2.947 46.153,7.382 50.453,7.382 50.453,8.906 46.153,8.906 46.153,14.38 51.974,14.38 51.969,15.905 44.139,15.905 " />
        <polygon
           id="Path_1146"
           points="59.521,7.247 63.54,7.247 63.54,8.702 59.521,8.702 59.521,15.839 57.512,15.839 57.512,1.492 64.649,1.492 64.649,2.947 59.521,2.947 " />
        <polygon
           id="Path_1147"
           points="69.777,1.492 71.786,1.492 71.786,15.905 69.777,15.905 " />
        <polygon
           id="Path_1148"
           points="82.804,15.835 80.795,15.835 80.795,2.947 76.983,2.947 76.983,1.492 86.683,1.492 86.615,2.947 82.804,2.947 " />
        <path
           d="m 100.057,11.955 c 0.0333,1.175763 -0.478231,2.301014 -1.386,3.049 -0.900282,0.78593 -2.062262,1.206198 -3.257,1.178 -1.689845,-0.07481 -3.323783,-0.627549 -4.712,-1.594 l 0.485,-1.178 c 1.323311,0.631223 2.761852,0.984818 4.227,1.039 0.656854,0.02396 1.298919,-0.198619 1.8,-0.624 0.498232,-0.45724 0.776071,-1.106455 0.762871,-1.782568 C 97.96367,11.366318 97.660701,10.728443 97.145,10.291 L 96.245,9.667 94.859,8.905 93.196,8.005 92.157,7.243 C 91.418766,6.5128748 91.01708,5.5088425 91.048,4.471 91.00383,3.5110383 91.414805,2.5864294 92.157,1.976 c 0.941303,-0.6892914 2.091954,-1.0319782 3.257,-0.97 1.45663,0.063319 2.869226,0.5182933 4.089,1.317 L 99.018,3.501 C 97.881774,2.9975573 96.659931,2.7155151 95.418,2.67 94.812129,2.633174 94.209055,2.778023 93.686,3.086 c -0.395576,0.2602891 -0.63089,0.7045197 -0.624,1.178 0.03216,0.6078049 0.338127,1.1682613 0.832,1.524 0.700208,0.538998 1.46936,0.9819246 2.287,1.317 1.086588,0.4519143 2.07493,1.1108093 2.91,1.94 0.707867,0.7962359 1.05718,1.848514 0.966,2.91 z"
           id="Path_1149" />
        <path
           d="m 125.973,14.796 c -0.51334,0.807846 -1.39896,1.302903 -2.356,1.317 -0.96512,0.01222 -1.87349,-0.454892 -2.425,-1.247 -1.01082,0.789331 -2.25165,1.227168 -3.534,1.247 -1.2091,0.06484 -2.39777,-0.331499 -3.326,-1.109 -0.8381,-0.786735 -1.29191,-1.899535 -1.243,-3.048 -0.0762,-1.052726 0.27977,-2.0910634 0.98583,-2.8756143 0.70605,-0.784551 1.70126,-1.2475995 2.75617,-1.2823857 -0.52984,-0.8063513 -0.84006,-1.7370178 -0.9,-2.7 -0.0562,-0.7837217 0.25008,-1.5499367 0.831,-2.079 0.69184,-0.5346022 1.55173,-0.8048025 2.425,-0.762 1.13464,0.067902 2.22192,0.4786847 3.118,1.178 l -0.554,1.039 c -0.71028,-0.5171178 -1.54933,-0.8285152 -2.425,-0.9 -1.06267,0 -1.594,0.485 -1.594,1.455 0.0282,1.0396654 0.44914,2.0300692 1.178,2.772 l 2.7,4.435 c 0.65132,-1.062441 0.98769,-2.2879332 0.97,-3.534 0.01,-0.3248284 -0.0136,-0.6497948 -0.069,-0.97 h 1.386 c 0.0456,0.1811392 0.0688,0.3672028 0.069,0.554 V 8.91 c -0.005,1.669837 -0.53806,3.295295 -1.524,4.643 0.508,0.785333 1.03933,1.178 1.594,1.178 0.51594,-0.03896 0.99271,-0.289836 1.317,-0.693 z m -5.474,-1.109 -2.91,-4.642 c -0.62244,-0.010078 -1.23095,0.1845632 -1.732,0.554 -0.54301,0.497217 -0.84607,1.203871 -0.832,1.94 -0.072,0.868127 0.23084,1.725577 0.832,2.356 0.53363,0.471636 1.22832,0.71979 1.94,0.693 0.9535,3.35e-4 1.88007,-0.31626 2.634,-0.9 z"
           id="Path_1150" />
        <path
           d="m 147.869,5.58 c 0.0614,1.1861259 -0.42391,2.3350228 -1.317,3.118 -0.88211,0.7624322 -2.02214,1.1591331 -3.187,1.109 h -1.039 l -1.039,-0.139 v 6.236 h -2.01 V 1.423 l 3.465,-0.139 c 1.36234,-0.100464 2.71528,0.2932401 3.811,1.109 0.90402,0.8045016 1.38938,1.9790113 1.317,3.187 z m -2.009,0 c 0,-1.848 -1.03933,-2.772 -3.118,-2.772 h -1.455 v 5.4 l 1.871,0.139 c 0.74094,0.041907 1.46369,-0.239277 1.98151,-0.7708974 C 145.65732,7.0444823 145.91939,6.3145817 145.858,5.575 Z"
           id="Path_1151" />
        <polygon
           id="Path_1152"
           points="153.135,1.492 160.549,1.492 160.549,2.947 155.149,2.947 155.149,7.382 159.449,7.382 159.449,8.906 155.149,8.906 155.149,14.38 160.97,14.38 160.965,15.905 153.135,15.905 " />
        <polygon
           id="Path_1153"
           points="168.171,5.234 168.171,15.834 166.439,15.834 166.439,1.492 167.894,1.492 174.546,11.609 174.546,1.492 176.278,1.492 176.209,15.905 174.962,15.905 " />
        <path
           d="m 191.176,11.956 c 0.0333,1.175763 -0.47823,2.301014 -1.386,3.049 -0.90028,0.78593 -2.06226,1.206198 -3.257,1.178 -1.68986,-0.07476 -3.32381,-0.6275 -4.712,-1.594 l 0.485,-1.178 c 1.31811,0.655447 2.75689,1.032927 4.227,1.109 0.65685,0.02396 1.29892,-0.198619 1.8,-0.624 0.49823,-0.45724 0.77607,-1.106455 0.76287,-1.782568 -0.0132,-0.676114 -0.31617,-1.313989 -0.83187,-1.751432 l -0.9,-0.624 -1.386,-0.762 -1.663,-0.9 -1.039,-0.762 c -0.73824,-0.7301252 -1.13992,-1.7341575 -1.109,-2.772 -0.0442,-0.9599617 0.3668,-1.8845706 1.109,-2.495 0.9413,-0.6892914 2.09195,-1.0319782 3.257,-0.97 1.45629,0.063497 2.86851,0.5184641 4.088,1.317 l -0.485,1.178 c -1.13616,-0.5037869 -2.358,-0.7861691 -3.6,-0.832 -0.60587,-0.036826 -1.20895,0.108023 -1.732,0.416 -0.39558,0.2602891 -0.63089,0.7045197 -0.624,1.178 0.0323,0.6077643 0.33824,1.1681628 0.832,1.524 0.70019,0.539018 1.46935,0.9819461 2.287,1.317 1.08658,0.4519368 2.07491,1.1108291 2.91,1.94 0.69035,0.7789625 1.03878,1.80263 0.967,2.841 z"
           id="Path_1154" />
        <polygon
           id="Path_1155"
           points="196.72,1.492 198.729,1.492 198.729,15.905 196.72,15.905 " />
        <path
           d="m 217.022,8.56 c 0.0796,1.926634 -0.48094,3.825407 -1.594,5.4 -1.06137,1.39709 -2.71497,2.217512 -4.4695,2.217512 -1.75453,0 -3.40813,-0.820422 -4.4695,-2.217512 -1.11306,-1.574593 -1.67355,-3.473366 -1.594,-5.4 -0.0988,-1.8874776 0.46506,-3.7501464 1.594,-5.266 1.10577,-1.3258081 2.74309,-2.0922702 4.4695,-2.0922702 1.72641,0 3.36373,0.7664621 4.4695,2.0922702 1.12894,1.5158536 1.69277,3.3785224 1.594,5.266 z m -2.148,0 c 0.0528,-1.4341045 -0.30784,-2.8531532 -1.039,-4.088 -0.63186,-1.0192316 -1.7458,-1.6392947 -2.945,-1.6392947 -1.1992,0 -2.31314,0.6200631 -2.945,1.6392947 -0.7071,1.2420703 -1.0437,2.6606613 -0.97,4.088 -0.0764,1.495108 0.25909,2.982504 0.97,4.3 0.57453,1.094622 1.70876,1.78028 2.945,1.78028 1.23623,0 2.37047,-0.685658 2.945,-1.78028 0.73826,-1.309299 1.09799,-2.798063 1.039,-4.3 z"
           id="Path_1156" />
        <polygon
           id="Path_1157"
           points="224.852,5.305 224.852,15.905 223.12,15.905 223.12,1.492 224.575,1.492 231.227,11.609 231.227,1.492 232.959,1.492 232.89,15.905 231.643,15.905 " />
      </g>
      <g
         id="Group_1333">
        <path
           d="m -4.1575,5.1575 h 45.386 v 28.548 c -0.03753,4.691491 -3.831509,8.485473 -8.523,8.523 h -28.34 c -4.70712292,0 -8.523,-3.815877 -8.523,-8.523 z"
           id="Path_1158"
           fill="#c42f0a"
           transform="rotate(90,18.5355,23.693)" />
        <path
           d="m 35.963001,0.995 h 47.326 v 21 c 0,4.669015 -3.784984,8.454 -8.453999,8.454 H 36.032001 c -2.261306,0 -4.429923,-0.898642 -6.028439,-2.498096 C 28.405046,26.351449 27.507675,24.182306 27.509,21.921 V 9.449 c 0,-4.6690153 3.784986,-8.454 8.454001,-8.454 z"
           id="Path_1159"
           fill="#dd3816"
           transform="rotate(180,55.399001,15.722)" />
        <path
           d="m 42.199,43.337 h 45.386 v 28.271 c 0,4.707123 -3.815877,8.523 -8.523,8.523 h -28.34 c -4.707123,0 -8.523,-3.815877 -8.523,-8.523 z"
           id="Path_1160"
           fill="#c42f0a"
           transform="rotate(-90,64.892,61.734)" />
        <path
           d="M 8.454,54.978 H 55.78 v 21 c 0,2.24214 -0.890687,4.392448 -2.476119,5.977881 C 51.718448,83.541313 49.56814,84.432 47.326,84.432 H 8.523 C 6.2616933,84.432 4.0930768,83.533358 2.4945604,81.933904 0.89604409,80.33445 -0.00132659,78.165306 -1.4687413e-6,75.904 V 63.432 C -1.4687413e-6,58.762985 3.7849847,54.978 8.454,54.978 Z"
           id="Path_1161"
           fill="#dd3816" />
      </g>
    </g>
  </g>
</svg>
