<?xml version="1.0" encoding="utf-8"?>
<!-- Generator: Adobe Illustrator 24.2.3, SVG Export Plug-In . SVG Version: 6.00 Build 0)  -->
<svg version="1.1" id="Layer_1" xmlns="http://www.w3.org/2000/svg" xmlns:xlink="http://www.w3.org/1999/xlink" x="0px" y="0px"
	 viewBox="0 0 213 28" style="enable-background:new 0 0 213 28;" xml:space="preserve">
<style type="text/css">
	.st0{fill:#4B286D;}
	.st1{fill:#66CC00;}
</style>
<g>
	<g id="TELUS">
		<g>
			<g>
				<g>
					<polyline class="st0" points="84.5,8 84.5,5.2 74.2,5.2 74.2,20 84.5,20 84.5,17 78.4,17 78.4,13.7 83.5,13.7 83.5,10.8 
						78.4,10.8 78.4,8 84.5,8 					"/>
					<polyline class="st0" points="102.6,17 96.2,17 96.2,5.2 92,5.2 92,20 102.6,20 102.6,17 					"/>
					<path class="st0" d="M136.5,10.8c-2.8-0.6-3.8-0.7-3.8-1.8c0-1,1.4-1.4,2.2-1.4c1.3,0,2.9,0.3,4.4,1.1l1.1-2.7
						c-1.6-0.9-3.7-1.2-5.7-1.2c-3.9,0-6.6,1.6-6.7,4.7c-0.1,2.8,2.2,3.9,4.3,4.3c2,0.4,4.1,0.8,4.1,2c0,1.1-1,1.6-2.9,1.6
						c-1.8,0-3.4-0.6-5.1-1.3l-1,3c1.9,0.8,3.9,1.3,5.9,1.3c2.8,0,4.8-0.4,6.3-1.8c1-1,1.4-2.1,1.4-3.2
						C141.3,12.9,139.8,11.5,136.5,10.8"/>
					<polyline class="st0" points="68.2,8.1 68.2,5.2 55.3,5.2 55.3,8.1 59.7,8.1 59.7,20 63.9,20 63.9,8.1 68.2,8.1 					"/>
					<path class="st0" d="M117,5.2v9.4c0,0.7,0,0.9,0,1.2c-0.1,0.9-1,1.4-2.4,1.4c-1,0-1.8-0.3-2.1-0.9c-0.2-0.3-0.3-0.8-0.3-1.6
						V5.2h-4.4v10.2c0,1.4,0.2,2.1,0.8,2.9c1.1,1.3,3.1,2,5.9,2c0,0,0.1,0,0.1,0c0,0,0,0,0.1,0c3.8,0,5.7-1.5,6.3-2.9
						c0.3-0.7,0.3-1,0.3-2.3V5.2H117"/>
					<g>
						<path class="st0" d="M57.3,1.1L32.8,6v1.7l0.1,0C49,3.7,57.3,1.4,57.3,1.3c0.1,0,0.1-0.1,0.1-0.2C57.4,1.1,57.4,1.1,57.3,1.1"
							/>
						<path class="st1" d="M36.7,2.5c0.4-0.2,0.5-0.1,0.4,0.2c-0.2,0.4-1,3.1-7.2,8.2c-1.6,1.3-2.8,2.1-5.1,3.4
							C28.6,8.9,34.2,4.1,36.7,2.5 M37.4,0.6c-1.2,0.1-3.4,1.8-4.6,2.9c-4.8,4.2-8.4,8-11,12c-5.4,2.9-12.4,5.9-19.2,8.2l-0.2,0.1
							L1,27.4l0.8-0.3c4.4-1.7,11.7-4.8,18.3-8.3c-0.4,1-0.6,1.9-0.6,2.7c0,0.6,0.1,1.2,0.3,1.7c0.4,1,1.2,1.8,2.4,2.3
							c1.7,0.7,4,0.7,6.6-0.1c6.7-2,14.7-8.3,16.5-9.6l0.1,0c0.1-0.1,0.1-0.1,0-0.2c0-0.1-0.1-0.1-0.2,0l0,0l0,0l-0.1,0.1
							c-1.9,1.1-10.9,6.5-16.8,8.1c-3,0.8-5.3,0.4-6.2-0.8c-0.3-0.4-0.4-0.9-0.4-1.5c0-1.2,0.6-2.7,1.6-4.4c1-0.6,1.9-1.1,2.8-1.6
							C31.8,12.1,38.5,5.9,38.8,2c0,0,0-0.1,0-0.1c0-0.3-0.1-0.7-0.4-0.9C38.1,0.7,37.7,0.6,37.4,0.6z"/>
					</g>
					<polyline class="st0" points="32.7,6 6.9,11.5 5.9,14.2 32.8,7.7 32.8,7.7 32.8,6 32.7,6 					"/>
				</g>
			</g>
		</g>
	</g>
	<g id="TELUS__xAE__2_">
		<g>
			<g>
				<path class="st0" d="M143.7,5.2c0.8,0,1.5,0.7,1.5,1.5c0,0.9-0.7,1.5-1.5,1.5c-0.8,0-1.6-0.7-1.6-1.5
					C142.1,5.8,142.8,5.2,143.7,5.2z M143.7,8c0.7,0,1.3-0.6,1.3-1.3c0-0.7-0.6-1.3-1.3-1.3c-0.7,0-1.3,0.6-1.3,1.3
					C142.4,7.4,143,8,143.7,8z M143.1,5.8h0.7c0.4,0,0.6,0.2,0.6,0.5c0,0.3-0.2,0.5-0.5,0.5l0.5,0.8h-0.3l-0.5-0.8h-0.3v0.8h-0.3
					L143.1,5.8L143.1,5.8z M143.4,6.6h0.3c0.2,0,0.5,0,0.5-0.3c0-0.2-0.2-0.3-0.4-0.3h-0.4L143.4,6.6L143.4,6.6z"/>
			</g>
		</g>
	</g>
	<g id="Sub__x28_Hor_x29__Med_Closer">
		<g>
			<path class="st0" d="M166.3,5.2V20H164v-6.6h-7.6V20h-2.2V5.2h2.2v6.2h7.6V5.2H166.3z"/>
			<path class="st0" d="M178.4,15.3h-8.1c0.1,1.1,0.4,1.9,0.9,2.4s1.2,0.8,2.1,0.8c0.7,0,1.2-0.2,1.7-0.5c0.4-0.3,0.8-0.8,1-1.3h2.1
				c-0.2,0.7-0.5,1.3-0.9,1.9c-0.4,0.5-1,0.9-1.6,1.2c-0.7,0.3-1.4,0.4-2.3,0.4c-1,0-1.9-0.2-2.7-0.7c-0.8-0.5-1.4-1.1-1.8-2
				c-0.4-0.8-0.6-1.8-0.6-3c0-1.1,0.2-2.1,0.6-2.9c0.4-0.9,1-1.5,1.8-2c0.8-0.5,1.7-0.7,2.7-0.7c1.1,0,2,0.2,2.7,0.7s1.4,1.2,1.8,2
				s0.6,1.8,0.6,2.9L178.4,15.3L178.4,15.3z M171.3,11.5c-0.5,0.5-0.9,1.2-1,2.2h5.9c-0.1-0.6-0.2-1.1-0.5-1.5c-0.2-0.4-0.6-0.8-1-1
				c-0.4-0.2-0.9-0.4-1.5-0.4C172.5,10.7,171.8,11,171.3,11.5z"/>
			<path class="st0" d="M190,18.4V20c-0.3,0-0.6,0.1-1,0.1c-0.7,0-1.2-0.1-1.5-0.4c-0.3-0.2-0.5-0.6-0.6-1.2c-0.4,0.6-0.8,1-1.4,1.3
				c-0.6,0.3-1.3,0.4-2.1,0.4c-0.8,0-1.5-0.1-2-0.4c-0.6-0.2-1-0.6-1.3-1.1c-0.3-0.5-0.5-1.1-0.5-1.7c0-2,1.3-3.1,4-3.3l1.6-0.2
				c0.5-0.1,0.9-0.2,1.2-0.4c0.3-0.2,0.4-0.5,0.4-0.9c0-0.5-0.2-0.9-0.5-1.2c-0.3-0.2-0.9-0.4-1.7-0.4c-0.6,0-1,0.1-1.4,0.2
				c-0.4,0.1-0.6,0.3-0.8,0.6c-0.2,0.3-0.3,0.7-0.3,1.1H180c0.1-1.2,0.5-2,1.2-2.7c0.7-0.6,1.8-0.9,3.4-0.9c1.5,0,2.5,0.3,3.2,0.8
				s1,1.3,1,2.3v5.7c0,0.4,0.2,0.5,0.6,0.5L190,18.4L190,18.4z M185.2,18.3c0.5-0.2,0.8-0.5,1.1-1c0.3-0.4,0.4-1,0.4-1.6v-1.1
				c-0.3,0.2-0.7,0.4-1.3,0.4l-1.5,0.2c-0.8,0.1-1.4,0.3-1.7,0.6c-0.3,0.3-0.5,0.7-0.5,1.2s0.2,0.9,0.5,1.2c0.3,0.3,0.8,0.4,1.5,0.4
				C184.2,18.6,184.7,18.5,185.2,18.3z"/>
			<path class="st0" d="M192,19.5c-0.5-0.4-0.7-1-0.7-1.9V5.2h2.1v12.2c0,0.3,0.1,0.6,0.2,0.7c0.2,0.1,0.4,0.2,0.8,0.2h0.8V20
				c-0.4,0-0.8,0.1-1.2,0.1C193.1,20,192.4,19.8,192,19.5z"/>
			<path class="st0" d="M199,10.9v6.5c0,0.3,0.1,0.6,0.3,0.7s0.5,0.2,0.9,0.2h0.9V20c-0.5,0-0.9,0.1-1.3,0.1c-1,0-1.7-0.2-2.2-0.6
				c-0.5-0.4-0.7-1-0.7-1.9v-6.6h-1.7V9.2h1.7V6.1h2.1v3.1h2.2v1.7H199z"/>
			<path class="st0" d="M211,10c0.7,0.7,1,1.6,1,2.8V20h-2.1v-6.9c0-1.5-0.8-2.2-2.3-2.2c-0.4,0-0.9,0.1-1.3,0.3
				c-0.4,0.2-0.8,0.6-1,1c-0.3,0.5-0.4,1-0.4,1.7V20h-2.1V5.2h2.1v5.6c0.4-0.5,0.8-0.9,1.4-1.3c0.6-0.3,1.2-0.5,1.9-0.5
				C209.4,9,210.3,9.3,211,10z"/>
		</g>
	</g>
</g>
</svg>
