<svg xmlns="http://www.w3.org/2000/svg" xmlns:xlink="http://www.w3.org/1999/xlink" viewBox="0 0 1409.36 500"><defs><style>.cls-1{fill:none;}.cls-2{fill:url(#linear-gradient);}.cls-3{fill:url(#linear-gradient-2);}.cls-4{fill:url(#linear-gradient-3);}.cls-5{fill:url(#linear-gradient-4);}.cls-6{fill:url(#linear-gradient-5);}.cls-7{fill:url(#linear-gradient-6);}.cls-8{fill:url(#linear-gradient-7);}.cls-9{fill:url(#linear-gradient-8);}.cls-10{fill:url(#linear-gradient-9);}.cls-11{fill:url(#linear-gradient-10);}</style><linearGradient id="linear-gradient" x1="118.1" y1="256.24" x2="1287.96" y2="258.47" gradientUnits="userSpaceOnUse"><stop offset="0" stop-color="#0085ca"/><stop offset="1" stop-color="#00b52e"/></linearGradient><linearGradient id="linear-gradient-2" x1="118.1" y1="255.96" x2="1287.96" y2="258.19" xlink:href="#linear-gradient"/><linearGradient id="linear-gradient-3" x1="118.11" y1="254.19" x2="1287.97" y2="256.42" xlink:href="#linear-gradient"/><linearGradient id="linear-gradient-4" x1="118.17" y1="220.07" x2="1288.03" y2="222.3" xlink:href="#linear-gradient"/><linearGradient id="linear-gradient-5" x1="118.22" y1="194.8" x2="1288.08" y2="197.04" xlink:href="#linear-gradient"/><linearGradient id="linear-gradient-6" x1="118.05" y1="285.15" x2="1287.91" y2="287.38" xlink:href="#linear-gradient"/><linearGradient id="linear-gradient-7" x1="118.1" y1="257.3" x2="1287.96" y2="259.53" xlink:href="#linear-gradient"/><linearGradient id="linear-gradient-8" x1="118.11" y1="255.57" x2="1287.96" y2="257.8" xlink:href="#linear-gradient"/><linearGradient id="linear-gradient-9" x1="118.17" y1="220.27" x2="1288.03" y2="222.51" xlink:href="#linear-gradient"/><linearGradient id="linear-gradient-10" x1="118.1" y1="256.7" x2="1287.96" y2="258.93" xlink:href="#linear-gradient"/></defs><title>WorkPerks RGBAsset 7</title><g id="Layer_2" data-name="Layer 2"><g id="Layer_1-2" data-name="Layer 1"><rect class="cls-1" width="1409.36" height="500"/><path class="cls-2" d="M123.55,194.71H157l26.77,86.48h.51l25-86.48h33.46l26.77,86.48H270l25.74-86.48h31.14L284.93,318.26H254.3L225,233.83h-.52l-26,84.43H166.53Z"/><path class="cls-3" d="M327,256.49a65.32,65.32,0,0,1,5.28-26.65,61.39,61.39,0,0,1,35.65-33.58,76.6,76.6,0,0,1,52.51,0,61.39,61.39,0,0,1,35.65,33.58,70,70,0,0,1,0,53.28,62.37,62.37,0,0,1-14.29,20.47,63.1,63.1,0,0,1-21.36,13.12,76.76,76.76,0,0,1-52.51,0,61.37,61.37,0,0,1-35.65-33.59A65.26,65.26,0,0,1,327,256.49Zm30.89,0a39.92,39.92,0,0,0,2.45,13.89,34.68,34.68,0,0,0,7.2,11.84,36.49,36.49,0,0,0,53.28,0A34.7,34.7,0,0,0,428,270.38a40.63,40.63,0,0,0,0-27.79,34.8,34.8,0,0,0-7.21-11.84,36.51,36.51,0,0,0-53.28,0,34.77,34.77,0,0,0-7.2,11.84A39.94,39.94,0,0,0,357.85,256.49Z"/><path class="cls-4" d="M478.14,194.71H509v19.56h.52a38.84,38.84,0,0,1,14.67-16.73,40.61,40.61,0,0,1,21.88-5.92,29.79,29.79,0,0,1,5.53.52q2.7.51,5.53,1.28v29.86q-3.85-1-7.59-1.67a43,43,0,0,0-7.33-.64q-10.82,0-17.38,4a31.91,31.91,0,0,0-10,9.14,30.56,30.56,0,0,0-4.63,10.3,38.94,38.94,0,0,0-1.16,7.72v66.15H478.14Z"/><path class="cls-5" d="M573.4,123.67h30.88V245.93l47.62-51.22h39.64l-53,56.11,56.37,67.44H654L604.8,255.2h-.52v63.06H573.4Z"/><path class="cls-6" d="M1269.57,197a8.37,8.37,0,0,1,.67-3.36,8.17,8.17,0,0,1,1.83-2.69,8.81,8.81,0,0,1,2.7-1.78,8.55,8.55,0,0,1,6.54,0A8.57,8.57,0,0,1,1284,191a8.17,8.17,0,0,1,1.83,2.69,8.67,8.67,0,0,1,0,6.73,8.19,8.19,0,0,1-1.83,2.67,8.55,8.55,0,0,1-9.24,1.78,8.63,8.63,0,0,1-2.7-1.78,8.19,8.19,0,0,1-1.83-2.67A8.35,8.35,0,0,1,1269.57,197Zm1.5,0a7.34,7.34,0,0,0,.55,2.87,7.11,7.11,0,0,0,1.48,2.29,6.86,6.86,0,0,0,2.21,1.52,6.61,6.61,0,0,0,2.73.56,6.53,6.53,0,0,0,2.72-.56,7,7,0,0,0,2.21-1.52,7.33,7.33,0,0,0,1.5-2.29,7.87,7.87,0,0,0,0-5.73,7.16,7.16,0,0,0-1.5-2.3,6.84,6.84,0,0,0-2.21-1.53,6.69,6.69,0,0,0-2.72-.56,6.84,6.84,0,0,0-4.94,2.09,7,7,0,0,0-1.48,2.3A7.36,7.36,0,0,0,1271.07,197Zm3.74-5h3.73q3.46,0,3.46,2.82a2.44,2.44,0,0,1-.75,2,3.45,3.45,0,0,1-1.86.74l2.84,4.37h-1.62l-2.68-4.26h-1.62V202h-1.5Zm1.5,4.42h1.55c.33,0,.66,0,1,0a2.59,2.59,0,0,0,.84-.2,1.3,1.3,0,0,0,.59-.5,1.6,1.6,0,0,0,.23-.93,1.47,1.47,0,0,0-.2-.81,1.33,1.33,0,0,0-.53-.47,2,2,0,0,0-.7-.2,5.11,5.11,0,0,0-.78-.05h-2Z"/><path class="cls-7" d="M709.72,199.16h20V216.5h.51a58.71,58.71,0,0,1,19.1-15,53.62,53.62,0,0,1,24-5.36,68.24,68.24,0,0,1,25.76,4.72A57.45,57.45,0,0,1,819,214a60,60,0,0,1,12.82,19.88,69.84,69.84,0,0,1,0,50,61.29,61.29,0,0,1-12.69,19.88A57.41,57.41,0,0,1,800,316.8a59.43,59.43,0,0,1-23.59,4.71q-16.15,0-28.33-7t-17.82-17.2h-.51v79.27h-20Zm20,59.65a50.39,50.39,0,0,0,2.94,17.46,40.38,40.38,0,0,0,22.05,23.45,46.56,46.56,0,0,0,35.13,0,40.44,40.44,0,0,0,22.06-23.45,53.32,53.32,0,0,0,0-34.92,40.44,40.44,0,0,0-22.06-23.45,46.56,46.56,0,0,0-35.13,0,40.38,40.38,0,0,0-22.05,23.45A50.39,50.39,0,0,0,729.73,258.81Z"/><path class="cls-8" d="M962.83,296.79Q952.06,310.56,939.24,316t-29.74,5.48a62.22,62.22,0,0,1-25.39-5A57,57,0,0,1,865,303.16a58.49,58.49,0,0,1-12-19.88,70.16,70.16,0,0,1-4.24-24.47,67.9,67.9,0,0,1,4.62-25.36,58.9,58.9,0,0,1,12.82-19.89,57.73,57.73,0,0,1,19.49-12.87,64.67,64.67,0,0,1,24.61-4.59,61.67,61.67,0,0,1,23.08,4.21,50.07,50.07,0,0,1,18.08,12.23,54.92,54.92,0,0,1,11.66,19.63,78.76,78.76,0,0,1,4.11,26.38v6.38H870.26A41.56,41.56,0,0,0,874,279.58a42.3,42.3,0,0,0,8.34,12.24,38.41,38.41,0,0,0,12,8.28,37,37,0,0,0,15.13,3.06q13.07,0,22-4.59a50,50,0,0,0,16.16-13.51ZM945.65,248.1q-.52-15.28-10-24.47t-26.15-9.17q-16.68,0-26.93,9.17T870.26,248.1Z"/><path class="cls-9" d="M983.15,227.46q0-8.16-.51-15.3t-.52-13h19c0,3.23.08,6.46.26,9.69s.25,6.54.25,9.94h.52a34.15,34.15,0,0,1,5.77-8.41,41.4,41.4,0,0,1,8.84-7.27,47.32,47.32,0,0,1,11.54-5.09,48,48,0,0,1,13.84-1.92,33.35,33.35,0,0,1,4.11.26,18.22,18.22,0,0,1,4.1,1l-1.28,20.13a37.83,37.83,0,0,0-10.77-1.52q-18.46,0-26.8,11.85t-8.33,32.5v58.12h-20Z"/><path class="cls-10" d="M1066.22,125.75h20V251.67l54.61-52.51h28.46l-58,54.3,63.85,65h-29.49l-59.48-62.71v62.71h-20Z"/><path class="cls-11" d="M1191.09,287.1a50.48,50.48,0,0,0,13,11.73q7.05,4.34,17.83,4.33a44.38,44.38,0,0,0,9.35-1,28.08,28.08,0,0,0,8.59-3.31,18.9,18.9,0,0,0,6.16-5.74,14.56,14.56,0,0,0,2.3-8.28,13.32,13.32,0,0,0-2.17-7.9,19.22,19.22,0,0,0-5.77-5.23,32.85,32.85,0,0,0-8.21-3.44q-4.62-1.28-9.49-2.29-8.46-1.79-16.15-4.08a52.82,52.82,0,0,1-13.46-6,28.13,28.13,0,0,1-9.23-9.56q-3.46-5.87-3.46-15a29.93,29.93,0,0,1,3.84-15.29,33.31,33.31,0,0,1,10.26-11,50.59,50.59,0,0,1,14.36-6.62,58.82,58.82,0,0,1,16.41-2.3,55.3,55.3,0,0,1,23.72,5.1,36.9,36.9,0,0,1,17,16.57l-16.67,11a30.76,30.76,0,0,0-10.13-10.32,28.13,28.13,0,0,0-15.26-3.95,35.47,35.47,0,0,0-8.33,1,26.33,26.33,0,0,0-7.56,3.05,18,18,0,0,0-5.52,5.23,12.61,12.61,0,0,0-2.18,7.27,9.31,9.31,0,0,0,2.44,6.5,21.56,21.56,0,0,0,6.67,4.71,58.28,58.28,0,0,0,9.74,3.57q5.52,1.53,11.41,2.55a116.59,116.59,0,0,1,15.13,3.95,43.87,43.87,0,0,1,12.56,6.5,29,29,0,0,1,8.47,10.2q3.08,6.11,3.07,15,0,10.2-4.1,17.34a33.94,33.94,0,0,1-10.9,11.6,48.09,48.09,0,0,1-15.38,6.5,76.36,76.36,0,0,1-17.56,2q-15.39,0-26.54-4.71t-20.13-17.46Z"/></g></g></svg>
