<svg xmlns="http://www.w3.org/2000/svg" width="32" height="32" fill="none" viewBox="0 0 32 32">
    <circle cx="16" cy="16" r="16" fill="#CCF2FF"/>
    <path fill="#EDA38D" stroke="#004F78" d="M12.28 9.01c-.763-.138-2.177 1.171-2.893 1.813-1.202 1.555.539 5.125 3.239 8.119 3.341 3.706 7.621 4.237 8.313 4.015.692-.222 2.252-2.357 2.042-3.148-.267-1.004-3.149-2.272-3.95-2.198-.64.06-1.24 1.154-1.599 1.664-.51-.32-1.713-1.11-2.478-1.978-.702-.797-1.673-2.095-2-2.761.485-.395 1.533-1.041 1.634-1.47.16-.678-1.715-3.948-2.309-4.056z"/>
</svg>
